<svg xmlns="http://www.w3.org/2000/svg" width="2048" height="2048" fill="none"><path fill="#D2703E" d="M697 1085c5 2 5 5 8 7 11 9 45 26 59 30 1 5-8 5-11 6-8 3-25 15-31 21-8 8-5 10-6 19-2 8-12 25-16 34v5l-3 1c-2 2-3 10-3 13l-4-5c-1-5 2-7 2-10l2-25c0-1 2-3 2-8v-1c3 1 2-1 2-4 0-1 1-2-1-2-16 25-20 57-12 86 2-1 3-4 3-5 4 2 1 7 6 6a97 97 0 0 0 6 40c1 2 1 1 2 1 8 3 5-10 8-14-2 20 2 42 15 57v-4c0-2 2-4 1-7h4c2 17 13 39 23 52l11 12c3 1 2-1 2-3l5 3c1-2-1-3-1-5 4 0 3 8 4 10 2 2 4 0 6 1l8 13c22 29 57 48 87 68 26 18 36 31 55 56 1 1 1 2 3 2v2c-3 3-3-1-5-2v6c-3-3-5-15-8-18h-3c4 16 10 32 11 48-5 19 0 41 0 61v10c-9-2-5-1-8 5l-2 2c-10 10-15 17-30 22-10 4-18 5-28 3-4-1-11-5-14-5-9-1-10 2-20-3l-5-1-3-9-6-2h-2l-5-6c-1-1-3 1-3 2v17c-6 1-7-6-10-10-2-1-5-2-6-4-2-2-3-7-6-10 0-1-3-3-3-1l-4-9c-6-14-9-28-13-43-2 0 2 12-2 10-4-3-3-23-5-28-4 2-3 5-3 9l-2 1-7-15c-6-16-7-30-9-47-2 0-1 5-1 7 0 5 2 10 1 15-6-5-5-13-7-20-1 0-1 4-4 2-2-2-8-38-7-44l-6 6 1 17c2 8 4 22 7 30 3 10 12 20 16 30 5 11 7 23 12 34l3-2v2c2 0 0-2 2-2l5 18-3-2c-1-3 0-8-3-7 0 4 3 10 1 14l-6 9c-4 2-7-4-9 2-7-31-28-82-48-106-6-7-12-14-19-19 1 7 7 10 11 15 25 31 44 79 53 118l-3-1c1 5-1 9-2 13l-3 36a120 120 0 0 1-32 67h-4c-1 0-3 4-7 2v1c-17 2-42 12-55 23-12 10-19 23-27 35-7 3-12 0-18-2a287 287 0 0 1-112-195c0-2-4-1-5-1l-1-2c0-4 2-13-3-14 3-21 6-42 13-63 3-7 7-15 9-23l-11 14 6-21 2-2c1-2 5-11 4-12-6 2-7 10-10 15l-7 9 9-28c0-1 1-4-1-5l1-6 5-13-5 1 4-13c-2-2-4 5-7 4 13-26 21-55 33-82 4-11 13-25 16-35 1-3 2-5-2-4 3-4 8-10 5-14l3-6 11-15-3-3 2-8-3 1c5-9 16-16 23-25 2-3 9-12 0-9l-2-3c9-10 21-18 31-27l11-11c1-2-6-1-6-1l-7 4c-2 0-3 1-3-2l22-9c4-1 20-11 21-16 1-4-7 2-8-2 1-1 2-1 2-3l25-15 4-6h-5v-1c11-4 23-20 29-29 1-2 1-4 3-3 0 5-2 10-3 14-1 8-1 41 2 47 0 1 1 3 3 1 2-4 2-19 4-25 1-6 7-13 8-19 0-1 0-2-1-1-3 1-11 20-8-4l3-12c0-1-2-1-1-8l1 1 16-41Zm-8 60c-1-1-3 1-2 2s3-1 2-2Zm-2 261c3-12-1-23 0-35 0-8 5-19 2-27-6 18-7 36-5 54l3 8Zm11 56v-9l-3-30 1-36c0-1 1-3-1-3l-4 29v28l2 2c1 4 1 11 3 16 0 1 0 3 2 3Zm8-29c-4 0-5 7-5 10-1 11 3 23 3 34h3l-1-44Z"/><path fill="#FAEEC9" d="m1194 1134 14 13 14 16c0 1 1 4-1 3-4-1-8-5-13-6-1 0-2-1-2 1l27 21c0 2-2 1-3 1-6-2-12-8-17-9l-1 1 17 22c3 5 20 29 17 32-7-5-12-13-19-18-2-2-6-6-9-5 14 20 24 42 30 65 1 2-3 3-3 4 0 2 5 6-1 5l-16-23c-2-1-7-7-9-6 7 11 13 23 17 36l7 32c1 10 2 20 1 30l-19-49c-2 1-2 2-1 4 2 19 5 34 4 55l-4 27h-3l-2-20-3-18c-1-5-2-11-6-15 2 20 1 42-4 62-1 8-8 29-13 34-2 1-7 4-6 1l4-13 2-22 1 2v7c0 2-1 4 1 4-1-9 2-18 2-26l-1-18c-2-2-3 2-3 3l-2 18c-3 20-6 31-14 49-1-2-3-1-4 0-4 3-6 13-9 17-2 5-2-1-2-4l5-13c3-14 4-28 5-42h-3l-17 44h-3c-1-1 2-14 2-16l-2-4c-1 5-4 11-7 16-1 2-4 8-7 8-2-2 9-19 6-23-3 6-9 12-13 18-12 19-16 42-36 58 0 0-6 4-5 0 11-10 21-22 28-36-1-1-10 6-11 7l-23 24c-13 13-27 24-41 36l24-38c-1-4-3 2-4 3l-4-1-23 24c-2 3-12 18-14 19-1 1-1-1-1-2 3-6 9-11 10-17l-4 2a296 296 0 0 0-32 40l-2-1c4-14 9-35 3-49-1-3-2-5-3-1-2 5-4 24-5 27-2 2-4 0-5 0s0 2-2 2c0-4-7-27-8-28-4-2-5 3-5 6l-2-2-1 6c-1-9-6-18-9-27-2 0-1 2-1 3 1 9 5 17 2 26l-10-20 1 9-10-16c-1 7 5 13 4 20-5-5-9-12-16-15l-11-13-1-1-2-2-4-7-13-11 24 36c-1 4-3-3-4-3l-5-2-1-5-4-1-5-3c-5-4-8-8-14-11l-23-28-1 7h-2c-1-1-5-12-8-14-2-1-5 2-3 4l-2 1-34-44c-2 1-1 3 0 4 1 3 8 17 10 18 2 7 7 13 10 19-1-1-4 1-5-2h-1c-28-28-54-56-61-97 0-2 0-6-2-6v19c0 8 7 24 9 33 0 2 2 3 1 5l-5-3a183 183 0 0 1-33-99l-4 16c-1 3 1 5 1 8l-1 2c-2 1-4 0-3 5-3-1-2-6-2-9l-2-6v8c0 1 1 4-2 3v-35l-2-1c0-2 1-5-1-6 0-7 0-14 2-21 7-8 4-15 5-24 1-3 7-14 6-15s-6 5-6 6l-10 17-5 5c-3 4-4 17-5 23-1 7 2 14-3 19-1-22 2-43 7-65 4-4 4-7 6-10 1-2 7-7 6-8-4-4-15 18-19 18l1-8c6-12 14-22 22-33 1-5-12 8-10 3l17-18c3-3 24-13 25-15 4-10-9-4-12-4-2 0-3-1-2-2a181 181 0 0 1 32-6c1 0 3 0 3 2 1 4-20 15-24 16 0 2 2 1 3 1 3-1 6-3 9-2l-2 8c1 1 13-7 15-7 4-2 15-5 19-5 1 0 1 3 6 3 10 1 21-2 32-1l-8 9-4 7c1 1 13-6 15-7 21-8 43-2 65-6l-34 10-1 2 50 1 57 10c10 2 9 4 19 2 20-3 41-10 60-13l18-1-1-3 12-2h29c1-3-1-2-2-2l-15-2-4-2c17 0 32 7 48 10 0-4-6-7-8-10 7 0 16 2 23 5 6 2 13 8 19 4-3-4-11-7-14-10-2-1-1-1 1-1 13 0 26 6 39 7 3-3 6-2 5-7l-5-8c-4-5-4 0-5-9Zm-40 78c1-1-2-4-2-5-9-16-25-28-42-33 4 5 11 6 16 10 12 8 17 15 25 26 1 1 2 4 3 2Zm-126 48c4 3 2-10 2-11-5-22-20-47-37-62 6 9 13 17 18 27s10 20 13 31l4 15Zm-221-63c-13 5-24 16-29 29 2 2 9-10 10-11l11-10c1-1 9-7 8-8Zm254 51-4-12c-7-13-19-25-31-33 4 8 12 13 18 20l9 13c0 1 6 14 8 12Zm133-26c1-1-7-10-10-9 1 2 9 10 10 9Zm-144 42c0-11-5-25-12-34-1-1-2-3-4-3l14 34 2 3Zm-269-35c-3-2-7 6-6 8 3 1 7-7 6-8Zm43 16c-1-1-5 4-6 5-8 9-12 22-12 34 3 1 2-1 2-2l6-18 10-19Zm345 56v-18c0-6-11-26-15-31-1-1-4-4-5-2 9 15 18 33 18 52l2-1Zm-351-30c-3 0-2 0-2 2-4 8-5 21-4 30h3c-1-11 2-21 3-32Zm331 68v-21l-4-16c-1-2-2-3-2 0 3 11 3 24 4 36 0 1 1 3 2 1Zm-311 5c1-1-4-14-5-17v-14l-2-11c-6 11-2 30 5 40 0 1 0 4 2 2Zm33 18-13-41c1 14 3 30 13 41Zm253-41-2 1-1 25-5 27c3 1 2-1 2-2 7-16 8-34 6-51Zm-225 31-2 1c0 7 9 25 13 31 1 2 4 7 6 5 1-1-16-32-17-37Zm204 4-20 45c1 1 6-6 7-7 7-11 12-25 13-38Zm-19 4c-2 0-2 0-2 2-3 7-3 15-5 23-4 11-10 20-13 30 2 0 4-4 5-5 9-15 14-33 15-50Zm-212 3v1-1Zm50 9c-2 0-2 0-2 2 2 9 16 33 21 40 1 1 2 4 3 2 2-2-19-39-22-44Zm-49 3c1-1-1-3-1-2-1 1 1 3 1 2Zm36 64c1-1-9-13-10-15l-15-24-11-24a111 111 0 0 0 36 63Zm64 9c1 1 3-1 3-2-7-19-15-41-28-57l1 5 13 39c1 1 2 4 3 2l-4-17c6 2 11 29 12 30Zm24-42-2 1c5 20 2 41 3 62a103 103 0 0 0-1-63Zm47 7c-3-1-2 1-2 2-10 20-19 42-26 63 12-20 22-42 28-65Zm73 40v1-1Zm-1 2v1-1Zm-31 3-4 3-23 40a144 144 0 0 0 27-43Zm-27 44c-1-1-3 1-2 2s3-1 2-2Z"/><path fill="#6AA3A1" d="M1172 1776c1-2 3-2 4-2l51-1h170c53 1 106 6 158 7 6 0 40-1 42 1 1 1 0 2-1 2h-36c-34-1-69-4-104-2-5 0-12 1-17 3l-1 3c2 2 34 4 38 4 39 2 78 1 116 5 5 0 23 2 25 7 1 2-5 2-6 3v6l-2 6c8 0 14-4 22-1 1 4-6 4-7 5v5l4 1 2 2c3 1 9 1 10 5s-15 12-15 13l1 4-1 3c0 3 3 5 1 9 33 3 69 3 102 11 6 1 27 6 15 14-18 12-77 22-100 25l-51 5c-91 8-185 8-277 11-14 0-39 4-53 2-1 0-1-3-8-2l-2 2-39 1c-56 2-113 0-168 7-1 0-3 1-1 2h24c16 2 22 2 39 2l86-2 1 3-29 2-75 3c-12 0-35 2-46 0-7-1-5-7-7-7h-45c-81 1-166 4-246-3-20-2-36-5-55-6l-154-5c-24-1-47-2-70 2l-1 4c8-1 16 3 24 4 52 6 111 3 164 5l20 2c2 2 0 2-2 2l-4 1h-20l-27 1-21 1c-2-2-6-2-8 0h-33c-49-1-99-3-148-7-30-2-88-5-114-14-2-1-12-5-10-8 30-9 61-15 92-18 38-4 78-4 116-10 1 0 9-1 7-3-3-3-34-3-40-3-53-3-108-6-160-12l-24-3c-1-12 13-8 20-10l7-5 18-2c3 0 15 1 17-1l1-5h34l42 3c62 2 125 1 186 2l166 1v1h-25l1 1h98c14-3 33-3 48-3 61-1 122 2 182-1l50-5c43-2 85-1 128-6 10-1 50-7 56-14 8-11-17-16-23-17l-52-7-51-2a123 123 0 0 0-9-27Zm209 30h14c21 2 44 7 66 5 3 0 13-2 7-5l-28-3c-16-1-32 0-48-2-8-2 3-9-6-10-17-2-46-4-62 0-2 0-8 2-6 4 3 3 12 3 15 5l-2 1h-15l8 2-4 2-54-4h-23c-1 0-3-1-3 1 27 2 55 4 81 8 9 1 38 5 42 12 5 8-11 13-17 15l-26 8c-1 1 0 2 1 2h15c1 3-2 2-3 2-34 3-73 11-107 10-1-3 2-2 3-2l10-1c1 0 3-1 1-2-14-3-29-3-44-3-85 1-170 9-254 11-22 1-47-1-69 1-3 0-10 0-9 5l69 1 129-2c-9 4-19 1-29 2l-1 2 35 1c70-1 139-8 209-12l7 1 4-4c13-3 31-2 44-4 17-2 83-11 92-23l1-5 2-2c1-5-3-6-7-8-9-4-27-7-38-9Zm79 29c6 2 14 0 19-2 4-1 14-8 7-11s-10 2-16 5c-1 1-13 4-12 6l2 2Zm92-4 14 2c5 1 16 2 22 1 2 0 6-1 6-4l-3-7c-4-2-32 4-38 4-2 0-1 3-1 4Zm-993 37-86-5c-4 0-12 4-12-4-5 2-8 4-13 3 0 1-1 3 1 4l20 3c55 5 109 4 165 5l9 1 2-2h11l-7-3c9 0 69 2 71-1v-5l-13-3-14 1H584c-9 0-14-3-24 2-2 1-1 2-1 4Zm982 0c-1 1 2 8-2 8-7 1-8-7-12-8l-26-1-28 6c-70 11-138 14-209 19-1 0-4 0-4 2 6 3 12 2 18 2 84 5 167 2 250 1 33 0 65 3 97-5 7-1 16-3 10-12-1-2-4-2-3-6-14-2-29-7-43-5-5 1-8 5-15 2l-4-3c-3-1-27-2-29 0Zm-459 24-13 3h-19c-31 2-62 5-93 5-7 3 3 6 6 6 49-2 100 2 148-1 6 0 18-1 23-3l4-4c1-3-11-4-13-4h-37l-6-2Zm-235 10h24c0-3-1-2-2-2l-18-1c-2 0-4 0-4 3Zm-315 2c-2-2-29 0-32 2-2 1-2 1-2 3 4 0 32 1 34-1v-4Zm592 3-57 1-155 4c-65 1-133-2-198 2h-11l-1 3c1 3 24 3 28 3 53 3 107 1 160 0 64-1 127-3 190-7 11-1 28-1 38-3 2 0 6-1 6-3Zm-494 3-13-1c-5 7 17 4 13 1Zm-188 14c4-4-14-3-15-3-4 0-19-2-21-4l-2-6c-1 0-6 3-6 5-1 4 11 6 14 7 4 0 28 3 30 1Zm18 17c0-1 1-5-1-5-39-3-78-7-117-14-4-1-14-7-9 2 27 9 55 10 84 14 5-1 41 4 43 3Zm740-13-3-3c-32 0-66-3-98-1-2 0-19 2-19 4-1 2 2 1 4 1 14 1 28-1 42-1l25 2c6 0 48 0 49-2Zm-736 12c-1-1-3 1-2 1 1 1 3-1 2-1Z"/><path fill="#D2703E" d="M795 704c31 23 57 50 90 70 3 2 3 6 9 4l-2-8c7 0 26 1 24-10 3-1 2 4 4 4l4-1c21 1 42-4 63-1l21 4c3 1 7 4 10 4s8-4 14-2l6 4c2 0 13 1 14 4-4 14-13 28-11 44h3c-1-5 6-9 8-12 6-12 11-27 18-38l7-4 1-3c7-7 15-11 23-17l47-37 1-1h3v2a400 400 0 0 0-62 76c1 3 5 1 5 1l2 1h7v9c6-1 14-2 19-1s5 6 10 4c-9 9 4 7 11 7-1 5-6 3-4 10 11-2 19 5 30 3l-6 12c5-1 3 1 5 3l4 5c0 2-2 5 0 6-2 2-4 5-4 8 4 4 11-13 12-15s2-3-1-3c12-23 18-66 19-92h2v-12l1-2c2 8 1 18 0 26-2 23-10 48-10 69l-1 3h-1l1 1-4 10c-2 4-10 15-10 18s3 3 3 6l3-4 2 5 6-11c0 7-5 11-7 17l-1 2c5-1 2 4 3 7 2 8 12 25 16 34 9 19 18 42 28 60l6 9c1 2-1 2-3 2-1 0-3-4-7-2l-2-1c2 0 4 1 4-1h-6c-3 0-2 1-3 3 0 1-2 1-1 3l8 6v4c1 0 3 1 2 4h-45l9 2 31 4 5 2h6l2 9 2 2v10c0 2-6 2-4 8 0 1 4 3 2 5-1 1-10-1-13-1l-2 1-5 1c3 4 9 3 14 4 9 4 9 11 3 17-1-4-5-6-8-9-6-5-16-15-23-19-24-13-51-19-76-29-5-2-10-2-12-7h7l14 6 28 7 4 3 20-1 1-3c-1-3-4-2-6-2-16-3-31-6-47-11l-15-4c-15-3-29-6-44-7-3-3 7-2 8-2l30 3-9-9-11-2c1-4-3-1-5-2l-1-4h-5c-1 0-2-3-6-3 0-3 4 0 5-1 2-2-4-2-2-4l11-2c2 0 4 1 3-2 18-3 34-17 38-35v-8c0-1 2-2 2-5l-3-9c-4-12-10-18-19-27l-4-6c-4-2-6-1-9-2l-2-2c-8-2-19 4-17-12 0-3 6-8 2-11l-8-4c-2 0-6 4-9 0l4-16c0-4-3-11-8-7-4 4-11 25-14 31-5 12-11 24-15 37-3 6-7 11-6 18-2 1-4-2-5-2-2 0-4 4-7 3v-6l-4-8-6-32v-4l-4-3-2-8 2-6-3-23c-6 1-5 4-7 9 0 1 0 4-2 4-2-10 2-17-10-20l-6 8v11l-2 2c-3 10-4 21-8 29v6c-4 14-3 28-8 42l-9 15c-6 11-5 14-15 24-5 3-3-3-8-2 14-16 8-37 0-55l-4-9-2-1c-1-2 3-2 5-4l7-6c3-5-4-9-6-12l-19-26c-2-2-9-11-11-11-4 2-4 9-4 13 0 3 8 10 8 16-6 1-13-1-18-1-7 0-15 5-8 11 2 2 4 1 4 4h-16c-2 0-2 4-2 4h-6c-2 1-2 3-2 4h-4v3c-1 1-6 2-6 5-9 7-12 16-19 24-1 2-10 9-9 10 14-2 10 3 13 13 4 12 14 23 25 29-1 7 3 3 7 4s5 2 11 2h1c-1 3 2 2 4 2 3 0 5-2 6 3l6 7c-3-1-3 2-4 2l-7-1-1 6-12 2h-29v4h39c2 0 4-1 3 2l-12 2c-2 0-3 0-4 2h-2v-2l-9 2c-25 2-48 7-72 12-5 1-6-2-5 5 14 1 28-1 41-3 7-2 29-8 33-7 2 0-1 2 4 1l20-2c1 3-1 2-2 2l-6 2c-13 3-35 5-47 10-3 1-3 4-5 5-8 3-18 3-26 7-3 1-8 6-10 6-6 2-11 3-16 6-2 1-6 6-9 7-5 1-6 0-13 3-3 1-8 0-8 5l3 9h7c10-1 20-8 29-12l20-5c10-4 19-10 29-12 2 0 1 1 1 2-11 4-22 10-31 17l-3 4c-9 7-30 12-35 21l-1 6-18 5-7 4c-2 1-2 0-2 3l-4-1c-4-2-9-6-14-7 1-7 11-5 15-10-4-1-16-3-19-5-2-2 0-6-1-7s-21-9-25-16l-3-9c-1-2 1-3-3-2 1-1 0-4 5-3l-1-2c4-2 11 0 15-2 2-1 1-2 2-3 3-3 12 0 9-8-2-5-15 3-18 5 2-4 7-6 6-12-2-1-21 5-12-3 3-3 11-4 10-10l-18 3 11-13c1-1 18-8 11-9-1 0-3 1-2-1l4-8c3-5 9-10 10-17v-7l2-3 10-20c3 0 2-1 2-3v-1c2 1 3-6 4-8h2v-4c3 1 2-1 3-3 4-9 9-15 9-26l1-2-3-9 4 3c-1-16-6-32-6-48l6 20 7 16c1 2 2 5 5 4 4-1 1-4 1-5l2-7c0-3-5-6-2-9l8 10 8-2 5-6v-6h5c1 0 1-5 5-4l-6-4c-3-5-6-7-12-7 1-3 5-2 7-2 1 3 5 1 8 1-5 1 5 10 6 10 1 1 2-1 1-2l-2-1 2-5h16l2-6c0-2-3-3-2-8h17v-2c2-1 3 1 3-3l-3-4-3-1 2-4h24l1-3 5-2 1-3c2-1 14 1 15-1 2-6-11-22-15-27-4-7-9-13-15-19s-21-19-25-25l-1-5c-1-1-4 1-3-3Zm365 125c-4 1-9 0-11 4 5-1 13 3 11-4ZM688 974h-3v2l3-2Zm404 0v1-1Z"/><path fill="#38777D" d="m1181 1803 51 2 52 7c6 1 31 6 23 17-6 7-46 13-56 14-43 5-85 4-128 6l-50 5c-60 3-121 0-182 1-15 0-34 0-48 3h-98l-1-1h25v-1l-166-1c-61-1-124 0-186-2l-42-3h-34l-1 5c-2 2-14 1-17 1l-18 2-7 5c-7 2-21-2-20 10l24 3c52 6 107 9 160 12 6 0 37 0 40 3 2 2-6 3-7 3-38 6-78 6-116 10-31 3-62 9-92 18-2 3 8 7 10 8 26 9 84 12 114 14 49 4 99 6 148 7 0 6 4 6 9 6h15l39-3-1-4 27-1h20l5-1c1 0 3 0 1-2l-19-2c-54-2-113 1-165-5-8-1-16-5-24-4l1-4c23-4 46-3 70-2l154 5c19 1 35 4 55 6 80 7 165 4 246 3h45c2 0 0 6 7 7 11 2 34 0 46 0l75-3 29-2-1-3-86 2c-17 0-23 0-39-2h-24c-2-1 0-2 2-2 54-7 111-5 167-7l39-1 2-2c7-1 7 2 8 2 14 2 39-2 53-2 92-2 186-3 277-11l4 2c-22 1-44 5-66 7-26 2-53 1-79 2l-81 4h-34c1 4 4 6 3 10-2 7-28 10-35 11-51 7-104 8-157 10-203 7-408 7-611 1-77-2-153-7-229-16-30-4-67-7-95-15-8-3-31-9-16-19 12-8 63-15 80-17 11-1 23-1 34-3 1-1 3 0 3-2h-14c-50 2-100 1-150-1-8 0-54 0-57-5s4-7 7-8c23-6 51-4 75-7 1-3-2-4-6-4l-51-3-6-2c23-2 47-2 71-2l9-2c-36-6-72-1-108-2l-45-2c-12-1-18-9-3-10 33-3 72 3 107 0 7 0 10-3 1-4-27-2-55 1-81-6-3-1-8-2-9-5 0-5 17-7 21-8 29-4 63 2 93 4 75 4 150 5 226 6l304 7c43 1 89-4 132 0 18 2 36 6 54 7 33 2 68-2 102-4 75-5 151-2 226-10l23-3c6-1 15-3 15-10l-67-6-1-1v-10Zm88 141c-10-1-22-2-32-1-13 1-23 5-36 7-28 3-58 3-86 4l-12 2h49c33-1 80-1 112-9 1-1 5-1 5-3Z"/><path fill="#D2703E" d="M232 1622c1-2 3-2 4-2 7 0 25 5 32 6l41 11 1-4 9 3v-2l6 2c5 1 8 4 13 2 1 0 1-3 3-2l8 2-1-4 26 10c8 3 27 13 34 13 3 0 7-3 9-4 2 1 6 2 5-1 6 0 12 6 18 9l20 9c2 1 4 2 5 0 7 24 19 51 32 72 4 7 6 5 9 9 11 10 22 29 34 42 3 3 8 4 8 9l-104 2 24-10 2-1c-9 0-18 3-27 5-25 4-50 7-76 7-1 0-6 2-4-1l22-8s6-3 3-3c-27 4-57 11-84 13-1 0-9 1-6-2l22-7c0-2-4-1-6-1-16 1-35 8-52 10-7 1-15 0-22 2l3-4c2-2 7-2 9-5-22 4-44 10-66 6 0-3 0-2 1-2 5-2 11 0 15-2 5-1 9-7 14-9 2-1-1-1-2-2 0 0 0-2-2-3l-30-4v-3c1-1 18-3 22-6 1 0 5-7 4-8-8-2-20-1-10-10h-6l2-2v-1l1-1 6-7c1-1 9-5 7-7-5 1-21 3-25 0-2-2 1-4 1-6 0-1-2-3-1-5 2-4 14-11 17-15h-12c-4-3 5-6 4-9-5 0-11-1-15-4l1-3 10-12c1-3-5-1-4-4 5-6 13-6 18-11l-13-5c-1-4 4-3 3-6s-5-3-6-3v-4c1 0 2 0 3-2l-1-7h3l1-5c1-1 7-2 9-4 1-1 0-4 2-4 4-2 19 4 22 0v-4c4 0 14 1 7-3Zm92 173c-1-1-3 1-2 1 1 1 3-1 2-1Zm-69 3c-1-1-3 1-2 1 1 1 3-1 2-1Z"/><path fill="#6AA3A1" d="M1847 1754h-48V821c0-3-7 1-8 1v-3c4 1 9-2 13-3 6-1 37 0 41 5 2 3 1 41 1 48 2 134 0 269 1 403l-1 196c0 96 2 191 1 286Z"/><path fill="#38777D" d="M1172 1776c-3-5-10-11-15-14-1-1-13-5-11-7h410c54 0 109 1 163 3h22c-1 5-5 7-6 12l-3 14-174 4v3l174 6c-1 3 2 17 0 18-20 3-41 2-61 1 0 3 0 2 2 2l11 2c2 0 4-1 4 1-3 4-27 8-28 9s0 4 2 4c18 2 35 7 53 9 79 9 167 7 247 0 8-1 18-4 26-4l5 1c2-2-7-4-7-6 10-1 56 1 59 13 1 5-4 7-8 8-14 5-40 7-55 9-16 2-33 2-49 5 0 3 0 2 1 2 6 2 20 2 24 5s2 4-1 5c-6 3-24 4-31 5l-67 4c-5 0-13 1-17 3-2 1-4 3-1 4 16 1 34 1 50 4 5 1 12 3 5 7-10 7-69 10-84 11-80 5-159 8-238 14l-34 1c-2 0-1 3-3 3l-34 1-92 3c-12 0-25 2-37 1-4-1-6-2-1-4l166-7c33-7 68-6 101-14 2-1 4 0 3-3 23-3 82-13 100-25 12-8-9-13-15-14-33-8-69-8-102-11 2-4-1-6-1-9l1-3-1-4c0-1 16-9 15-13s-7-4-10-5l-2-2-4-1v-5c1-1 8-1 7-5-8-3-14 1-22 1l2-6v-6c1-1 7-1 6-3-2-5-20-7-24-7-39-4-78-3-116-5-5 0-37-2-39-4l1-3c5-2 12-3 17-3 35-2 70 1 104 2h36c1 0 3-1 1-2-2-2-36-1-42-1-52-1-105-6-157-7h-171l-51 1c-1 0-3 0-4 2Zm494 30h-29c-1 2 3 4 5 4h26c1-2 0-4-2-4Zm326 42-82 9-2 3 74-7c1 0 13-3 10-5Zm-192 12-85-3 10 2 57 3h17c1 0 2-1 1-2Z"/><path fill="#6AA3A1" d="M1589 578c17 2 34 0 51 0-1 3 2 2 4 2h10l6 5v32c0 6-4 6-10 6-22 1-43-2-64 2-37 9-50 35-95 32-33-2-54-29-91-17-37 11-51 55-52 90l1 17h-48c0-49 9-95 45-129 28-26 49-25 80-39 28-13 30-34 29-63l62 1c3 0 13 1 14 5-2 25 19 62 47 63 4 0 15 0 11-7Z"/><path fill="#CDA988" d="m858 999-11 10c-31 16-41 44-74 57-9 4-18 3-25 8l14 1c0 5-6 7-10 9l-13 5c18 2 35 2 53 0l-5 4-16 6c5 1 11-1 16-1l21 2 21-3c0 2-1 2-2 3-14 11-22 6-36 10-1 0-7 2-5 4h65c1 3-1 2-2 2-6 3-13 3-17 7 10 1 19-2 29-3l-4 5c-2 0-6 2-4 4l24 1c2 0 16-4 17-3 2 2-6 5-4 7 16-6 34-1 51-4l-4 2c0 3 0 2 2 2 6 0 13-5 19-5l2 1-3 5 35-5 19 5-2-8c2-2 29 7 34 5l-4-3 49 4-8-4-2-3 31 1c0-3-12-7-10-9 5 1 11-1 16-1 7 0 16 3 24 2l-5-5c4-3 10 0 15 0 4 0 10-2 15-1 0-2-2 0-4-2v-3c-1-1-22-5-27-8-1-1-2-1-2-3l30 2c4-3 10-1 13-3 6-2 1-7 15-7 1 0 10 2 9-2-1-2-25-16-29-19-8-6-11-13-17-19l-16-16 5 1 30 17c3 1 7 3 11 3 0-2-1-3-3-4-10-7-29-15-41-22 3 0 2-1 1-3-3-8-7-12-13-18 25 10 52 16 76 29 7 4 17 14 23 20 3 2 7 4 8 8-4 5-10 3-12 5-2 1 0 3-2 3h-11c0 4 9 4 9 7 0 6-5 11-10 14-11 7-24 10-37 9 0 2 3 1 4 2l13 1c2 1-8 7-9 7a99 99 0 0 1-63 14c0 2 2 2 3 2 26 9 47-3 69-13 5 4 6 12 10 16h-4l1 3c1 9 1 4 5 9l5 8c1 5-2 4-5 7-13-1-26-7-40-7-1 0-2 0-1 1 4 3 12 6 15 10-6 4-13-2-19-4-7-3-16-5-23-5 2 3 8 6 7 10-15-3-31-10-47-10l4 2 15 2c1 0 2-1 2 2h-30l-11 2 1 3-18 1c-20 3-40 10-60 13-10 2-9 0-19-2l-58-10-49-1 1-2 34-10c-22 4-44-2-65 6-2 1-14 8-15 7l4-7 8-9c-11-1-22 2-33 1-4 0-4-3-5-3-4 0-15 3-19 5-2 0-14 8-15 7l2-8c-3-1-6 1-9 2-1 0-3 1-3-1 4-1 25-12 24-16 0-2-2-2-3-2l-12 1-20 5c-1 1 0 2 2 2 3 0 16-6 11 4 0 2-21 12-24 15l-17 18c-2 5 10-8 10-3-8 11-16 21-22 33l-2 8c5 0 16-22 20-18 1 1-5 6-6 8l-6 10c-6 6-7 10-9 17l-5 18c-5 1-2-4-6-6v-2l1-3c2-22-3-48 7-69 0 5-2 7-2 8l-2 25c0 3-3 5-2 10l4 5c0-3 1-11 3-13l3-1v-5c4-9 14-26 16-34 1-9-2-11 6-19 6-6 23-18 31-21 3-1 12-1 11-6 10 3 22 5 33 5h11c1 0 2-1 1-2-24-3-47-10-69-21-2-2 5-3 6-3l20-2-3-2h-31c-4 0-12-5-16-7-1-3 0-2 2-3l7-4 18-5 1-6c5-9 26-14 35-21l3-4c9-7 20-13 31-17 0-1 1-2-1-2-10 2-19 8-29 12-6 2-14 3-20 6-9 3-19 10-29 11h-7l-3-9c0-5 5-3 8-5 7-3 8-2 13-3 3-1 7-6 9-7 5-3 10-4 16-6 2 0 7-5 9-6 9-4 19-4 27-7 2-1 2-4 5-5 12-5 34-7 47-10Zm8 135-35 1-3 2c10 0 27 3 37-1 1 0 2-1 1-2Zm231 6-32-2c0 3 1 2 2 2 7 4 20 6 28 2 2 0 2 1 2-2Zm-203 1-29 2c5 5 21 4 27 1 2-1 2 0 2-3Z"/><path fill="#FAEEC9" d="M918 1649c0 1-3 4-2 5 2 2 2-2 3-2l8-2 1 6c0 2-1 4 2 3 2 25 3 50 6 74 1 9 2 19 6 27-27-3-59 0-81 18 14-3 27-10 41-12 26-4 49-3 66 19-5-1 1 8 3 10l2 13c-1 2-2 4-2 0-3-1-2 1-2 2l-4 1c-7 6-8 16-19 15 2-9 1-22-3-31-1-2-5-8-8-7 6 10 7 23 5 34-6 2 0-6-3-4l-4 3-7 2-28 1c1-11-2-24-11-30 4 9 5 18 4 27l-2 3c-5-2-9 1-15 1-21 0-26-12-30-31-6-34-11-64-20-98l-12-36v-6l6 2 3 9 5 1c10 5 11 2 20 3 3 0 10 4 14 5 10 2 18 1 28-3 15-5 20-12 30-22Z"/><path fill="#D2703E" d="m1024 1646 12-28c10-24 28-52 46-71 8-8 15-18 24-26l13-9c12-9 23-26 35-35 12-10 14-12 24-25 1-1 2-4 4-4-1 8-5 15-7 23-17 59-31 123-41 184 0-2-5 2-5 2l-4 7c-2 2-19 10-22 10l-4-2c-2 0-6 2-10 1l-8-5c-4-2-10 0-13-5-3-4-5-17-11-3-4 7-2-3-3-4h-4c-2-1 0-7-7-3l-13 34c1 1-2 1-2 1-2-2-1-36-4-42Z"/><path fill="#FAEEC9" d="m191 1623 1 1v-1h10l4 3c-3-1-4 1-5 2h-3c-3 2-2 6-2 6h-3l-2 2h-3v6c-4 1-2 4-2 9-1 1-3 0-3 2 0 3 5 5 5 5 0 1-3 5-2 6h3l13 5c-5 5-13 5-18 11-1 3 5 1 4 4l-10 12-1 3c4 3 10 4 15 4 1 3-8 6-4 9h12c-3 4-15 11-17 15-1 2 1 4 1 5 0 2-3 4-1 6 4 3 20 1 25 0 2 2-6 6-7 7l-6 7-1 1v1c-3 0-6 4-9 5-5 1-42 1-45-1l-1-3c-3-2-25-1-30-2-9-1-21-6-28-9-7-4-13-10-20-12 0-6 1-9 4-15l-12 8c5-21 23-37 41-47 0-2-4-1-5 0l-23 13c2-5 7-10 10-14 14-14 38-27 56-32l27-7-9-1-28 3c-1 0-3 0-3-2 23-9 47-14 72-15Zm-47 36-12 1c-2 0-6 0-6 2l15-1 3-2Zm913 1c6-14 8-1 11 3 3 5 9 3 13 5l8 5c4 1 8-1 10-1l4 2c3 0 20-8 22-10l4-7s5-4 5-2c-5 33-9 67-6 100h-16c-6 0-23 5-28 7-7 3-14 6-19 11 9-1 18-6 27-8 29-7 69-9 80 26 3 14 5 35-14 36 8-14 8-40-9-47 7 10 9 22 7 34-4 2-6-3-9-3l-19 3c-3 0-8 1-9-2v-4h1l-1-1c-1-9-4-18-12-23 4 8 5 15 6 24l-1 3v2c-20 2-48 8-57-16-4-10-5-33-6-46-2-25-2-68 8-91Z"/><path fill="#CDA988" d="M734 1629c1-6 5 0 9-2l6-9c2-4-1-10-1-14 3-1 2 4 3 7l3 2v1c1 5 0 8 7 10 15 38 31 80 44 119 7 24 13 49 17 75l-52 1c5-26-9-50-33-59-16-7-40-7-57-5l-1-1c5 2 7-2 8-2h4l13-17c9-14 17-32 19-50l3-36c1-4 3-8 2-13l3 1 5 24 1-11-1-11-1-3-1-7Z"/><path fill="#38777D" d="M1791 819v-17c0-2-2-3 0-4h73c3 1 2 11 2 13-8-1-7 5-8 11v931l-11 1c1-95-1-190-1-286l1-196c-1-134 1-269-1-403 0-7 1-45-1-48-4-5-35-6-41-5-4 1-9 4-13 3Z"/><path fill="#6AA3A1" d="M1838 648c0 2 0 2 2 2 1 7 14 28 18 39 0 1-1 4 2 3l2 3c4 17 5 35 5 52h-52c-4-5-3-14-4-20-9-46-36-88-84-98l-3-50c36 6 76 25 101 52l13 17Z"/><path fill="#38777D" d="M1666 578c2 18 3 48 1 67 0 2 0 3-2 5v-7c-4-1-8 1-12 1-31 1-58-7-83 14-21 16-30 28-58 30-39 3-45-11-74-27-20-11-41-1-54 16-15 19-15 47-18 70h-17l-1-17c1-35 14-78 52-90s58 15 91 17c45 3 58-23 95-31 21-5 42-2 64-3 6 0 10 0 10-6v-32l-6-5h-11c-1 0-4 1-3-2h26Z"/><path fill="#FAEEC9" d="M1791 822c1 0 8-4 8-1v933c-4 0-8 1-8-4v-378c1 3 1 5 4 4 2-2 0-9-4-7V822Z"/><path fill="#6AA3A1" d="M1866 811v939c0 2-6 3-8 3V822c1-6 0-12 8-11Z"/><path fill="#D2703E" d="M1171 1516c3-1 2 2 2 3 1 8 3 16 6 23 2 6 7 13 6 20-3 2-4 3-3 7l2 8c1 3 5 4 4 9-1 6-3 8-2 16l5 20-4 9 3 7 3 5v3c-2 2 0 7-1 8l-5 1v6c0 2-2 1-2 1-2 1-2 13-2 15-4 21-25 58-42 69-5 3-6 2-7-4-2-17 3-56 6-74 8-50 20-102 31-152Zm14 142v-6h-1v6h1Z"/><path fill="#6AA3A1" d="M1906 1815c-1-10 3-40-4-46-4-3-15-2-19-2-5 0-30 4-32 6-4 6 4 38-2 47-28 1-75 1-101-5-1-11-4-39 8-45 8-4 25-2 34-1l15 3 9-4 15-2c3 0 13 2 14-3 18-1 42-7 58-2 10 3 11 14 12 23v28c-1 3-5 2-7 3Z"/><path fill="#D2703E" d="M985 1707c9-10 15-17 21-30 0-2-1-2 2-2l1 36c1 29 5 61 11 90l5 17h-39c3-16-7-36-19-46-4-4-17-11-19-15-3-6-4-25-5-33l6 1c0 1 0 4 2 4 1 0 10-6 15-5 1 0 1 3 2 2 2 0 15-16 17-19Z"/><path fill="#CDA988" d="M1024 1646c3 6 2 39 4 42 0 0 3 0 2-1l13-34c7-4 5 2 7 3h4c1 1-1 11 3 4-10 23-10 66-8 91 1 13 2 36 6 46 9 24 37 18 57 16-2 17-8 18-24 18l-7-1c-33-1-47 0-54-36-6-32-9-72-10-105-1-19-1-26 7-43Z"/><path fill="#FAEEC9" d="M756 1787c-3 0-3-1-3 2l1 10c0 4 2 22-5 13l-3-15c-1-4-7-15-13-14 6 8 8 17 8 26l-20 8c-5 0-17 2-21-2-2-2-1-5-3-7-1-8-4-18-12-21 4 8 4 14 5 22-4-1-7 3-10 5-8 3-24 3-31-2-4-2-15-15-15-20l4-8c2-4 6-6 7-9 29-13 85-23 108 5l3 7Zm-72-2v1-1Z"/><path fill="#38777D" d="M1681 1828c3-3 18 0 19-1 1-2-1-3 6-6l27-3c3 0 5 5 9 6a548 548 0 0 0 168 1l15-7c15-2 43 1 56 8 5 3 6 4 0 6-24 9-60 9-86 10-65 3-143 5-206-9-1 0-10-3-8-5Z"/><path fill="#CDA988" d="M777 1642c0-2 3 0 3 1 3 3 4 8 6 10 1 2 4 3 6 4 3 4 4 11 10 10v-17l3-2 5 6h2v6l12 36c9 34 14 64 20 98 4 19 9 31 30 31 6 0 10-3 15-1l2-3c0 5-3 14-8 16-4 2-21 0-25-1-33-5-29-31-35-57-12-47-29-92-46-137Z"/><path fill="#38777D" d="m1715 578 9 1 3 50c48 10 75 52 84 98 1 6 0 15 4 20l-3 1-21-1v-15l-2-2c-1-2 1-5 1-7-2-11-9-28-15-37a91 91 0 0 0-62-37c-1-13 1-26 1-39 0-4-3-30-1-32h2Z"/><path fill="#6AA3A1" d="m1542 280 47-8c24-5 43-16 64 1 4 3 4 8 9 5 3 9 3 14-1 23-17 37-64 17-93 10l-28-5 1-3c21 1 41 8 62 12 14 2 28 6 41-3 6-3 12-11 14-18 1-3-5 1-6 2-22 7-47 1-69 0h-41v-16Zm-75-2v16h-16c-25 1-51 6-75 4-4 0-27-5-28-4 0 9 6 15 13 19 23 15 54-3 78-6 3 5-8 0-6 6-23 6-55 20-77 4-11-8-17-20-16-33 12 1 11-10 20-16 14-7 30-4 44-2 21 4 42 10 63 12Z"/><path fill="#FAEEC9" d="m1452 515 3 1c1 29-1 50-29 63-31 14-52 13-80 39-36 34-45 80-45 129h-9c-3-62 13-121 67-154 21-13 39-16 60-24 27-11 26-29 28-54h5Z"/><path fill="#6AA3A1" d="M1531 418v1c-2 1-4 4-4 6v44h-66v-38l2-4c4-6 26-4 34-6 2 0 2 0 2-3h32Zm-165 329c3-23 3-51 18-70 13-17 34-27 54-16 29 16 35 30 74 27 28-2 37-14 58-30 25-21 52-13 83-14 4 0 8-2 12-1v7l-2 1c-24 3-52-5-75 5-11 5-18 13-27 20a90 90 0 0 1-103 8c-16-9-28-26-49-18-25 8-33 43-35 67v12c-1 3-6 2-8 2Z"/><path fill="#38777D" d="M1906 1815c-16 5-40 5-57 5 6-9-2-41 2-47 2-2 27-6 32-6 4 0 15-1 19 2 7 6 3 36 4 46Z"/><path fill="#6AA3A1" d="M1284 787c0-17-2-22 16-25 9-1 18-1 27-4 1 0 2-3 6-3h44c11 1 11 15 10 24-1 6-4 8-9 8-30 3-64-2-94 0Zm71-5h22c6 0 5-17 1-19-3-2-10-2-14-2-5 0-4 7-5 12l-4 9Z"/><path fill="#38777D" d="M1549 509c-1 20 3 55 24 65l5 1 7 3h4c4 7-7 7-11 7-28-1-49-38-47-63-1-4-11-5-14-5l-62-1-3-1c-1-2-3-1-5-1 0-1-1-5 1-5h101Zm-82-215 2 12c-12 1-24 4-36 7-2-6 9-1 6-6-24 3-55 21-78 6-7-4-13-10-13-19 1-1 24 4 28 4 24 2 50-3 75-4h16Z"/><path fill="#CDA988" d="m961 753 11 1-4-11c0-1-1-2 1-2 1 1 14 20 15 15-1-11 3-4 6-3 9 5 17 5 26 6 3 0 4 3 7 3 3 1 2-2 2-2 2-3 7 1 10 2 7 1 12 3 19 2h4c0 3 1 4 3 5l-2 3c5 1 7 0 11-2 2-3 2-1 4-3 1-1 1-4 4-4l-1 3-7 4c-7 12-12 26-18 38-2 3-9 7-8 12h-3c-2-16 7-30 11-44-1-3-12-4-14-4l-6-4c-6-2-11 2-14 2s-7-3-10-4l-21-4c-21-3-42 2-63 1l-4 1c-2 0-1-5-4-4 2 11-17 10-24 10l2 8c-6 2-6-2-9-4l2-1c-2-4-7-4-6-9l11-1c3 0 5-3 5-3h1c0 2 3 2 3 0h10c4-1 1-5 1-8 2 2 3 5 7 5h1l3 5c7-1 13 1 19-2l-1 1c-2 1 1 1 2 1l10-4c4-2 7-1 8-5ZM645 1775c-1 3-5 5-7 9l-4 8c0 5 11 18 15 20 7 5 23 5 31 2 3-2 6-6 10-5l1 4c0 9-2 18-12 19s-32-2-42-4c-7-2-26-5-29-12-2-8 15-27 21-32 5-4 10-6 16-9Z"/><path fill="#6AA3A1" d="M1434 1422s2 0 2 3c5 21 16 60 11 80-5 23-29 22-33-1l4 3c3-26 4-54 12-79 1-2 2-7 4-6Zm-4 52-5 1c-2 2-2 27 0 28 5 3 6-3 7-7 1-7 0-15-2-22Zm-75-436-2-25a474 474 0 0 1 14-84c5 25 16 68 13 92-1 11-10 26-23 19l-2-2Zm9-22v-18c0-2-3-3-4 0 1 9-5 19-1 28 0 1 0 3 1 2 2-1 4-11 4-12Z"/><path fill="#38777D" d="M1773 785c5-6-1-9 9-10 29-2 63 0 93-1 2 0 6-2 8-1 1 0 2 6 4 7-2 7-10 9-16 10-24 2-61 1-85 0-6 0-9 0-13-5Zm-231-489h41c22 1 47 7 69 0 1-1 7-5 6-2-2 7-8 15-14 18-13 9-27 5-41 3-21-4-41-11-62-12l1-7Z"/><path fill="#6AA3A1" d="m1704 568 1 9v26l-1 13c-1 7-19 18-24 13-2-1-1-3-2-4 9-19-16-80 26-57Z"/><path fill="#38777D" d="m1460 471 1-2h66v-44c0-2 2-5 4-6v-1c4 0 14-1 18 2 2 1 3 12 3 15v33l-1 3h-20c-20 1-51 3-71 0Z"/><path fill="#6AA3A1" d="m1534 275 1 3 1 1v4c-11 6-10 16-25 17-14 1-28 0-36-13v-1c4-1 5-6 9-9 12-11 31-13 45-4 2 1 2 5 5 2Z"/><path fill="#38777D" d="M1921 1815v-20c19 1 39 1 58 3 5 1 27 3 27 10 0 2-3 3-5 3-9 3-27 4-36 4h-44Z"/><path fill="#FAEEC9" d="M881 764c-1 5 4 5 6 9l-2 1c-33-20-59-47-90-70h-1l-3-2-22-17c-7-4-18-9-25-9-6 0-7 3-9 7-3 5-4 7-5 13-6 2-5 14-6 19l-3 7v-6l1-1c1-11 4-38 14-43 14-8 40 9 51 17 26 18 47 41 72 60 4 3 18 15 22 15Z"/><path fill="#6AA3A1" d="M1532 480c7 0 26-1 30 1 7 4 7 14 1 18-6-1 1-9-4-11-4-2-16 0-21-1-2 0 1 10-6 11-24 1-52-4-76 0-2 1-4 1-3 3l-9-1c-4-21 24-10 35-14h57l-4-6Z"/><path fill="#38777D" d="m1676 623 2 2c1 1 0 3 2 4 5 5 23-6 24-13l1 3c0 12 2 30 0 40-3 15-26 19-31 3l1-37 1-2Zm-140-340c0 15-2 35-20 37-24 3-47-3-43-32 0-2 2-1 2-1 8 13 23 14 36 13 14-1 14-11 25-17Z"/><path fill="#6AA3A1" d="M1884 763c5 5 5 10 3 17-2-1-3-7-4-7-2-1-6 1-8 1-30 1-64-1-93 1-10 1-4 4-9 10l-2-3c3 1 2-2 2-3 1-9-1-10 9-12 32-5 64-3 97-3 1 0 4 1 5-1Z"/><path fill="#FAEEC9" d="M1842 648c0 2 0 2-2 2-1-4-1-1-2-2l-13-17c-25-27-65-46-101-52l-9-1s-2-6-1-8c49 2 96 28 123 69l5 9Z"/><path fill="#CDA988" d="m1219 983 2 4 20 19a380 380 0 0 1 83 21h-4l-39-11c-5-1-41-8-43-6l4 6 3 6-3 1c-1 2 0 10 2 12 0 4 2 7 0 10h5c22 5 58 26 75 41 1 1 2 1 2 3-1 1-27-17-30-19-23-13-49-24-75-28l2-1c2 0 12 2 13 1 2-2-2-4-2-5-2-6 4-6 4-8v-10l-2-2-2-9h-6l-5-2-32-4-8-2h45c1-3-1-4-2-4v-4l-8-6c-1-2 1-2 1-3Zm21 55c1-5-3-9-4-3l4 3Zm1 1v1-1Z"/><path fill="#FAEEC9" d="M1340 284c5-52 83-21 113-14l16 2c2 2-2 2-2 3v3c-21-2-42-8-63-12-14-2-30-5-44 2-9 6-8 17-20 16Z"/><path fill="#6AA3A1" d="m1346 1285 4-2c2-8 1-16 2-25l11-34c4 19 23 54 6 70-10 8-20 2-23-9Zm15-22c-6-4-9 15-6 18 2 1 5 2 6 1 2-1 1-18 0-19Z"/><path fill="#CDA988" d="M1185 1562h2c0-1 0-5 2-3l1 4c6 20 19 38 21 59h-2c-4-4-8-17-13-21 3 22 8 44 5 66l-2-1c-2-5-2-15-6-23l-3-5-3-7 4-9-5-21c-1-7 1-9 2-15 1-5-3-6-4-9l-2-8c-1-4 0-5 3-7Z"/><path fill="#6AA3A1" d="m1513 372-1 37-31 1c2-14-8-37 15-33l-1-5h18Z"/><path fill="#FAEEC9" d="M1662 278c-5 3-5-2-9-5-21-17-40-6-64-1l-47 8c0-1-3-5-2-6 22-4 44-12 66-17 22-4 48-5 56 21Z"/><path fill="#CDA988" d="M463 1615c1 0 5-1 5 1a287 287 0 0 0 112 195c-22-9-49-40-63-59-30-40-49-88-54-137Z"/><path fill="#38777D" d="M1487 333c0-2-2-5-1-8l33 1v38l-24 1v-31c0-2-7-1-8-1Z"/><path fill="#FAEEC9" d="M1843 1763c-1 5-11 3-14 3l-15 2-9 4-15-3c-9-1-26-3-34 1-12 6-9 34-8 45-3-1-5 0-6-4-2-6-2-35 1-41 6-12 26-11 38-10 21 2 39 4 62 3Z"/><path fill="#CDA988" d="M518 1335c4-1 3 1 2 4-3 10-12 24-16 35-12 27-20 56-33 82l-7 13-2-1c10-28 19-58 30-86 5-11 11-27 17-37l9-10Z"/><path fill="#FAEEC9" d="m1200 690 2 6c-3 1-3-4-4-6h2Zm-10-5 1 1c4 0 4-1 6 2h1v2l-4 1h-7l-1-1-1 2h-4c-4 0-1 1-2 2h-2l-25 12v2h-3l-1 1-47 37c-8 6-16 10-23 17-3 0-3 3-4 4-2 2-2 0-4 3-4 2-6 3-11 2l2-3c30-21 92-82 129-84Z"/><path fill="#CDA988" d="m1184 870 8-5c1 6-2 12 0 18 1 6 7 13 10 19 8 18 17 38 27 55 2 4 5 10 11 10h29c-3 3-9 2-12 2-9 1-16 3-25 2 5 8 13 14 16 23-2 1-19-10-22-12 4-2 6 2 7 2 2 0 4 0 3-1l-6-10c-10-18-19-41-28-60-4-9-14-26-16-34-1-3 2-8-3-7l1-2Zm54 115v1-1ZM730 696c-9 36-8 94 5 128l1 1v3c0 2 1 8 4 7l1 3c-3 3 2 6 2 9l-2 7-8-17c-12-33-20-81-12-115l3-7c1-5 0-17 6-19Z"/><path fill="#FAEEC9" d="m1584 568 8 1h71c5 0 3 5 3 9h-26c-17 0-34 2-51 0h-4c-1-3-2-7-1-10Z"/><path fill="#CDA988" d="m310 1633-1 4-41-11c-7-1-25-6-32-6-1 0-3 0-4 2-9-5-21-5-31-9-1 0-3 0-3-2 31 0 63 4 92 14 8 2 13 5 20 8Z"/><path fill="#FAEEC9" d="M1884 763c-1 2-4 1-5 1-33 0-65-2-97 3-10 2-8 3-9 12 0 1 1 4-2 3-4-10-3-21 9-24 29-1 59 1 89 1 8 0 8-3 15 4Z"/><path fill="#CDA988" d="M697 1808c2 2 1 5 3 7 4 4 16 2 21 2l20-8c0 6-1 18-7 21l-6 2h-31c-3 0 0-8 0-10v-14Z"/><path fill="#FAEEC9" d="m1532 480 4 6h-57c-11 4-39-7-35 14h-3c-7-3-7-18 1-20h90Z"/><path fill="#CDA988" d="m348 1634-28-14c0-2 2-1 3-1 5 0 9 4 11 4 31 7 55 22 83 30-2 1-6 4-9 4-7 1-26-10-34-13l-26-10Z"/><path fill="#38777D" d="M1513 372c3 0 17-1 17 3v35h-15l-3-1 1-37Z"/><path fill="#FAEEC9" d="M1534 275c-3 3-3-1-5-2-14-9-33-7-45 4-4 3-5 8-9 9 0-1-3 0-2-6 3-29 51-31 61-5Zm170 293c-42-23-17 38-26 57l-2-2-2-56c0-6-1-12 4-16 9-6 24 0 26 11v6Zm-349 470c-4-3-6-5-8-11-6-22 10-76 16-101 0-3-1-7 3-7l1 10-3 9c-5 24-9 49-11 74l2 26Z"/><path fill="#CDA988" d="m898 1824 28-1 7-2 4-3c3-2-3 6 3 4-1 6-6 17-13 17h-31l-3-1c2-4 5-10 5-14Zm292-1139 7 1c2 1 1 2 1 2h2v2h-2v-2h-1c-2-3-2-2-6-2l-1-1Zm8 5c1 2 1 7 4 6 9 29 5 76-1 105-2 8-4 18-9 24 0-21 8-46 10-69 1-8 2-18 0-26 0-9-1-27-5-35l-3-4 4-1Z"/><path fill="#38777D" d="m1563 499-1 2h-109c-1-2 1-2 3-3 24-4 52 1 76 0 7-1 4-11 6-11h21c5 3-2 11 4 12Z"/><path fill="#CDA988" d="M1156 1814c-1 6-4 13-10 15l-7 1h-24c3-6 4-11 4-18 1 3 6 2 9 2l19-3c3 0 5 5 9 3Z"/><path fill="#FAEEC9" d="M1499 418c0 3 0 3-2 3-8 2-30 0-34 6l-2 4v38l-1 2c-2 0-6 1-6-2 2-9-3-43 1-48l2-2c5-2 35-1 42-1Z"/><path fill="#6AA3A1" d="M1549 509h6c2 16 0 33 11 46 2 3 8 9 11 10l1 10-5-1c-21-10-25-45-24-65Z"/><path fill="#FAEEC9" d="M1333 755c-4 0-5 3-6 3-9 3-18 3-27 4-18 3-16 8-16 25-5 0-7-5-7-10-1-9-1-22 10-23 15-2 31 2 46 1Z"/><path fill="#CDA988" d="M694 943v7c-1 7-7 12-10 17l-4 8c-1 2 1 1 2 1 7 1-10 8-11 9l-11 13h-6c-1-1 6-6 6-7l-3-2c10-11 20-20 29-32 1 0 9-11 4-9l-9 9-14 10c-2 0-1-2-1-3 2-3 21-18 24-20 1-1 3-3 4-1Zm-2 3v1-1Zm-109 272 7-4s7-1 6 1l-11 12c-10 8-22 16-31 26l-25 17c-1 0-2 0-1-1a349 349 0 0 1 55-51Z"/><path fill="#FAEEC9" d="M1172 1513c0-2 0-11 4-8l6 24c3 10 9 23 15 31l13 15c1 3-5 0-6-1l-14-11-1-4c-2-2-2 2-2 3h-2c1-7-4-14-6-20-3-7-5-15-6-23 0-1 1-4-2-3v-2l1-1Z"/><path fill="#CDA988" d="M465 1670c-1 2-3 1-5 0l-20-9c-6-4-12-9-18-9h-2l-21-22c0-2 2-1 3-1l28 18 32 16c3 2 2 5 3 7Z"/><path fill="#6AA3A1" d="M1328 816c4 12 14 35 6 46-3 4-8 5-12 4s-3-3-3-3c1-6 3-5 6-7 4-3-1-17-1-22 0-6 0-9 2-15 0-1-1-4 2-3Z"/><path fill="#CDA988" d="M674 1020c3-2 16-10 18-5 3 8-6 5-9 8-1 1 0 2-2 3-4 2-11 0-15 2l1 2c-5-1-4 2-5 3-2 2-33 14-40 17-5 3-22 16-24 16-2-2 2-5 4-6 19-17 39-21 61-32l11-8Zm-118 236c9-3 2 6 0 9-7 9-18 16-23 25l-26 26-1-1a233 233 0 0 1 50-59Zm390 570c11 1 12-9 19-15l4-1c0-1-1-3 2-2 0 4 1 2 2 0 0 6 0 20-5 24-5 5-19 6-26 6-1-1 4-10 4-12Zm-487-227c0 3 0 10-4 10a222 222 0 0 1 15-82c1-1 10-15 11-14-2 8-6 16-9 23-7 21-10 42-13 63Zm156-410c1 4 9-1 8 3-1 3-17 14-21 15l-22 9c-8 4-16 9-25 10l2-3 58-34Z"/><path fill="#FAEEC9" d="M1414 1504c-2-10 0-18 1-28 4-23 12-44 15-67h3l1 13c-2-1-3 4-4 6-8 25-9 53-12 79l-4-3Z"/><path fill="#6AA3A1" d="M1054 764c6-18 13-36 25-51 7-10 18-22 28-28 1-1 12-7 9-2l-12 9a169 169 0 0 0-46 72h-4Z"/><path fill="#FAEEC9" d="m1319 863-3-1c-10-14 2-35 8-48l1-4c3-3 3 6 3 6-3-1-2 2-2 3-2 6-2 9-2 15 0 5 5 19 1 22-3 2-5 1-6 7Z"/><path fill="#CDA988" d="M756 1787s2 0 3 2l4 12c2 15-2 28-19 29l5-18c7 9 5-9 5-13l-1-10c0-3 0-2 3-2Z"/><path fill="#6AA3A1" d="M919 757c-4 0-5-3-7-5 0 3 3 7-1 8 1-12-3-23-8-33s-11-21-17-29c-2-3-16-17-14-19 5 2 10 7 14 11 16 19 25 43 33 67Z"/><path fill="#CDA988" d="M673 1132c-2-1-2 1-3 3-6 9-18 25-29 29l-11 2h-17c-2-1 13-5 14-5 12-4 24-11 32-19 5-4 8-9 14-13v3Zm-32 33h5l-4 6-25 15a129 129 0 0 1-30 9c-5-1 2-4 2-4l23-10c7-3 24-15 29-16Z"/><path fill="#FAEEC9" d="m1495 372 1 5c-23-4-13 19-15 33h-7c1-6-2-34 1-37 2-2 16-1 20-1Z"/><path fill="#CDA988" d="m534 1297 3 3-11 15-3 6-7 5-21 26c-1-6 5-12 8-17l29-37 2-1Z"/><path fill="#FAEEC9" d="m715 893 1 7-2 4v2c-3 0-2 0-2 2-5 2-4 3-4 8v1c-2 0-2 2-2 3l-10 20c-5 1-9 4-14 4v-2c15-14 23-32 33-49Zm648 331-11 34c-1 9 0 17-2 25l-4 2c-6-21 10-47 14-67 4-2 3 4 3 6Z"/><path fill="#CDA988" d="M341 1636c-2-1-2 2-3 2-5 2-8-1-13-2l-6-2c-10-4-21-12-30-19-1 0-3 0 0-2l52 23Z"/><path fill="#6AA3A1" d="M897 760s-2 3-5 3c0-8-7-16-12-23-7-10-17-19-24-28l-1-4c2-2 16 14 18 16 9 10 18 23 24 36Z"/><path fill="#FAEEC9" d="M1380 1637c-6 11-15 2-15-8 0-4 5-22 8-26 1-1 1-2 3-2l1 4c-2-1-4 4-4 5l2 15c0 5-5 12 0 13 2 0 4-3 5-1Zm107-1304c1-1 8-1 8 1v31h-8v-32Z"/><path fill="#CDA988" d="M1277 1123c-1 1-3-1-4-1l-9-12c-14-14-28-26-45-35 1-2 3-2 5-2l20 14a220 220 0 0 1 33 36Z"/><path fill="#6AA3A1" d="M1377 1605c3 9 8 24 3 32-1-2-3 1-5 1-5-1 0-8 0-13l-2-15c0-1 2-6 4-5Z"/><path fill="#FAEEC9" d="M961 753c-1 4-4 3-8 5l-10 4c-1 0-4 0-2-1l1-1c-6 3-12 1-19 2l-3-5 5-2 9 2c9 0 18-4 27-4Z"/><path fill="#CDA988" d="M225 1625v4c-3 4-18-2-22 0-2 0-1 3-2 4-2 2-8 3-9 4l-1 5h-3l1 7c-1 2-2 2-3 2v4c1 0 5 0 6 3s-4 2-3 6h-3c-1-1 2-5 2-6 0 0-5-2-5-5 0-2 2-1 3-2 0-5-2-8 2-9v-6h3l2-2h3s-1-4 2-6h3c1-1 2-3 5-2l-4-3 23 2Zm240-109-6 17c-2 0-1-6-1-7 3-16 9-28 15-43 2 1 1 4 1 5l-9 28Z"/><path fill="#FAEEC9" d="M1187 1115c1-1 2-4 6-1 1 0 16 20 16 22l-1 1c-4 0-9-4-11-6-3-4-5-12-10-16Z"/><path fill="#CDA988" d="M1193 1646v23l-3 17c-1 2-2 0-2-1-1-8 1-15-3-23 0 0 2 1 2-1v-6l5-1c1-1-1-6 1-8Z"/><path fill="#6AA3A1" d="M686 1065c1 1 0 2-1 3l-14 11c-8 6-14 14-21 20l-4 2c1-6 37-39 40-36Z"/><path fill="#CDA988" d="m697 1085-16 41-1-1a107 107 0 0 1 16-41l1 1Zm1141-437c1 1 1-2 2 2 2 0 2 0 2-2 9 16 13 26 18 44-3 1-2-2-2-3-4-11-17-32-18-39-2 0-2 0-2-2ZM726 875c0 11-5 17-9 26-1 2 0 4-3 3l2-4-1-7 4-6c1-3-3-4-3-4 0-4 6-9 10-8Zm-8 18v1-1Zm473-40-6 11-2-5 2-6 11-24c-1 7-2 17-5 24Zm0 532 2-18c0-1 1-5 3-3l1 18c0 8-3 17-2 26-2 0-1-2-1-3v-8l-1-2c0-3 2-11-2-10Zm-717 92c-6 4-6 13-12 17v-2c0-8 9-20 12-27l5-1-5 13Zm456 182c-3 1-2-1-2-3l-1-6-8 2c-1 0-1 4-3 2-1-1 2-4 2-5l2-2c3-6-1-7 8-5v-10l2 27Zm318-388c2 6 4 12 3 19-4-2-5-7-7-10 6 1 1-3 1-5 0-1 4-2 3-4Zm336-703c-1 3 0 7 1 10l-7-3-1-10 7 3Z"/><path fill="#38777D" d="M1242 1016c3-1 6 7 6 9s-4 2-4 4v6c-2-2-3-10-1-12l2-2-3-5Z"/><path fill="#CDA988" d="M682 942v2c0 4-6 6-9 7-1 1-5 2-4 0l13-9Zm286 843c3 3 6 6 6 11-1-2-3-1-3-1-2-2-8-11-3-10Z"/><path fill="#D2703E" d="M1025 760s1 3-2 2c-3 0-4-3-7-3 0-12 5 0 9 1Zm-264 864c-7-2-6-5-7-10 2 0 2-2 3 0l4 10Z"/><path fill="#6AA3A1" d="M1791 1369c4-2 6 5 4 7-3 1-3-1-4-4 0-1-2-1 0-3Z"/><path fill="#CDA988" d="M1222 980h6c0 2-2 1-4 1l-2-1Z"/><path fill="#6AA3A1" d="M1452 515h-5v-1c2 0 4-1 5 1ZM906 760c-1-3 3-3 2 0h-2Z"/><path fill="#CDA988" d="m1112 1811 1-3-1 3Z"/><path fill="#6AA3A1" d="M901 760c0 2-3 2-3 0h3Z"/><path fill="#CDA988" d="M975 1799c0 1-2-1-1-2 0-1 2 1 1 2Zm-784-176h1v1l-1-1Zm928 185v-1l1 1h-1Z"/><path fill="#D2703E" d="m1171 1514 1-1-1 1Z"/><path fill="#CDA988" d="M721 721v-1 1Zm0-5 1-1-1 1Zm470 113h-1l1-1v1Z"/><path fill="#38777D" d="m1536 279-1-1 1 1Z"/><path fill="#15262D" d="M770 1385c-2-9-9-25-9-33v-19c2 0 2 4 2 6 7 41 33 69 61 97 2 2 6 8 10 9 3 1-1-6-4-7-3-6-8-12-10-19 10 9 18 20 27 30l23 22c1 0 3 1 3-1-6-5-9-15-14-20v-7l24 28c6 3 9 7 14 11 4 7 11 12 16 18 6 7 19 25 20 35-2 1-2-1-3-2-19-25-29-38-55-56-30-20-65-39-87-68l-8-13c-2-1-4 1-6-1-1-2 0-10-4-10Zm-39 252c-10-39-28-87-53-118-4-5-10-8-11-15 7 5 13 12 19 19 20 24 41 75 48 106l1 7 1 3 1 11-1 11-5-24Z"/><path fill="#CDA988" d="M701 1283c5-5 2-12 3-19 0-6 2-19 5-23l5-5 10-17c0-1 5-7 6-6s-5 12-6 15c-1 9 2 16-5 24 0 0-1-1-2 1-3 5-7 21-7 27-3 4-1 17-8 14l-1-11Z"/><path fill="#15262D" d="M766 1387c0 2 1 4-2 3l-11-12c-10-13-21-35-23-52v-14c0-3-2-5-1-8l4-16a172 172 0 0 0 33 99Zm-68-219-2 4v1c-10 21-5 47-7 69l-1 3v2c0 1-1 4-3 5-8-29-4-61 12-86 2 0 1 1 1 2Zm21 84c-2 7-2 14-2 21 0 13-1 27 3 40v2c0 6 4 12 5 18v4a79 79 0 0 1-15-57c0-6 4-22 7-27 1-2 2-1 2-1Zm-11-34c-5 22-8 43-7 65l1 11c-1 0-1 1-2-1-2-2-3-9-4-12-2-8-3-19-2-28l5-18c2-7 3-11 9-17Zm-10 244c-2 0-2-2-2-3-2-5-2-12-3-16l-2-2v-28l4-29c2 0 1 2 1 3l-1 36 3 30v9Zm-11-56-3-8c-2-18-1-36 5-54 3 8-2 19-2 27-1 12 3 23 0 35Zm19 27 1 44h-3c0-11-4-23-3-34 0-3 1-10 5-10Z"/><path fill="#CDA988" d="M720 1315c3 1 2-2 2-3v-8l2 6c0 3-1 8 2 9-1-5 1-4 3-5 0 2-1 4 1 5v3l-1 1h1v3h-4c1 3-1 5-1 7-1-6-5-12-5-18Zm-22-147c0 3 1 5-2 4l2-4Z"/><path fill="#15262D" d="M689 1145c1 1-1 3-2 2s1-3 2-2Z"/><path fill="#CDA988" d="M820 1419c-2-1-9-15-10-18-1-1-2-3 0-4l34 44 2-1c-2-2 1-5 3-4 3 2 7 13 8 14h2c5 5 8 15 14 20 0 2-2 1-3 0-5-3-18-16-23-21-9-10-17-21-27-30Zm208-159-4-15c-3-11-8-21-13-31s-12-18-18-27c17 15 32 40 37 62 0 1 2 14-2 11Zm-55 188c-1-1-6-28-12-30l4 17c-1 2-2-1-3-2a319 319 0 0 1-14-44c13 16 21 38 28 57 0 1-2 3-3 2Zm-12-32v1-1Zm36-10a103 103 0 0 1 2 63c-2-21 1-42-4-62l2-1Zm-88 33c-1 1-4-3-4-3-15-16-30-38-32-60l11 24 15 24c1 2 11 14 10 15Zm260-138-2 1c0-19-9-37-18-52 1-2 4 1 5 2 4 5 15 25 15 31v18Zm-247 71c3 5 24 42 22 44-1 2-2-1-3-2-6-7-19-31-21-40 0-2 0-2 2-2Zm162-12c-1 17-6 35-15 50-1 1-3 5-5 5 3-10 9-19 13-30 2-8 2-16 5-23 0-2 0-2 2-2Zm19-4c-1 13-6 27-13 38-1 1-6 8-7 7l20-45Zm21-35c2 17 1 35-6 51 0 1 1 3-2 2l5-27 1-25 2-1Zm-286 23c-2 2-2-1-2-2-7-10-11-29-5-40l2 11v14c1 3 6 16 5 17Zm223-96c-2 2-8-11-8-12l-9-13c-6-7-14-12-19-20 13 8 25 20 32 33l4 12Zm24 210a122 122 0 0 1-27 43l23-40 4-3Zm-186-106c1 5 18 36 17 37-2 2-5-3-6-5-4-6-13-24-13-30 0-2 0-2 2-2Zm255-140c-1 2-2-1-3-2-8-11-13-18-25-26-5-4-12-5-16-10 17 5 33 17 42 33 0 1 3 4 2 5Zm-330 33-10 19-6 18c0 1 1 2-2 2 0-12 4-25 12-34 1-1 5-6 6-5Z"/><path fill="#38777D" d="m911 1480 1 1 11 13c2 4 11 20 11 23 0 2-1 1-2 1-2-2-7-15-10-18l-9-14c-1-2-6-5-4-8l2 2Z"/><path fill="#CDA988" d="m1050 1264-2-3-14-34c2 0 3 2 4 3 7 9 12 23 12 34Zm-243-67a162 162 0 0 0-19 18c-1 1-8 13-10 11 5-13 16-24 29-29Zm64 165c-10-10-12-27-13-41l13 41Zm-53-91c-1 11-4 21-3 32h-3c-1-9 0-22 4-30 0-2-1-2 2-2Zm-101 2c2 1 1 4 1 6l2 1v33c-4-13-3-27-3-40Zm432 66c-1 2-2 0-2-1-1-12-1-25-4-36 0-3 1-2 2 0l4 16v21Zm-325 97h1c1 3 4 1 5 2 3 1 7 8 4 7-4-1-8-7-10-9Zm-43-207c1 1-3 9-6 8-1-2 3-10 6-8Zm413-7c-1 1-9-7-10-9 3-1 11 8 10 9Z"/><path fill="#D2703E" d="M730 1319c-2-1-1-3-1-5l1-2v7Z"/><path fill="#CDA988" d="M1058 1502c1 1-1 3-2 2s1-3 2-2Z"/><path fill="#CDA988" d="M923 1494c7 3 11 10 16 15 1-7-5-13-4-20l10 16-1-9 10 20c3-9-1-17-2-26 0-1-1-3 1-3 3 9 8 18 9 27l1-6 2 2c0-3 1-8 5-6 1 1 8 24 8 28 2 0 0-2 2-2 1 0 3 2 4 0 2-2 4-22 6-27 1-4 2-2 3 1 6 14 1 35-3 49l2 1c2-5 6-10 9-14l23-26 4-2c-1 6-7 11-10 17 0 1 0 3 1 2 2-1 12-16 14-19l23-24 4 1c1-1 3-7 4-3l-24 38 41-35 23-25c1-1 10-8 11-7-7 14-17 26-28 37-1 3 4-1 5-1 20-16 24-39 36-58 4-6 10-12 13-18 3 4-8 21-6 23 3 0 6-6 7-8 3-5 6-11 7-16l2 4c0 2-3 15-2 16h3l17-44h3c-1 14-2 28-5 42l-5 13c0 3 0 9 2 4 3-4 5-14 9-17 1-1 3-2 4 0-6 12-12 27-22 35-1-5 2-9 3-14 1-1 2-3 0-3-10 19-25 34-40 50-2 0-1-1-1-2 1-6 7-12 8-19 0-2-3 0-3 1-7 7-15 23-22 31-7 10-19 26-28 34-8 8-11 15-18 26l-10 14c-2 1-2-5-1-5l-2-1c-8 22-17 43-27 64l-11 26c-2 11-10 22-16 31l-2 5c-2 3-15 19-17 19-1 1-1-2-2-2-5-1-14 5-15 5-2 0-2-3-2-4l-6-1c-6-49-6-99-10-149l-5-34v-6c2 1 2 5 5 2v-2c-1-10-14-28-20-35-5-6-13-11-16-18l5 3 4 1 1 5 5 2c1 0 3 7 4 3l-25-36 14 11 4 7c-2 3 3 6 4 8l9 14 10 18c1 0 2 1 2-1 0-3-9-19-11-23Zm158 8 5-7-7 5-7 10c2 2 8-7 9-8Zm-9 9c-1-1-3 1-2 2s3-1 2-2Zm-137 8v1-1Zm83 13v1-1Zm-28 23v1-1Zm-117-180c0 1-2-1-1-2 0-1 2 1 1 2Zm39 106-1-1 1 1Z"/><path fill="#CDA988" d="M1044 1413c-6 23-16 45-29 65 8-21 17-43 27-63 0-1-1-3 2-2Zm72 42v1-1Zm1-2v1-1Zm-245-90v1-1Z"/><path fill="#38777D" d="M1541 1868c2-2 26-1 29 0l4 3c7 3 10-1 15-2 14-2 29 3 43 5-1 4 2 4 3 6 6 9-3 11-10 12-32 8-64 5-97 5-83 1-166 4-249-1-7 0-13 1-19-2 0-2 3-2 5-2 70-5 138-8 208-19l28-6 26 1c4 1 5 9 12 8 4 0 1-7 2-8Z"/><path fill="#FAEEC9" d="m1062 1867-129 2-69-1c-1-5 6-5 9-5 22-2 47 0 69-1 84-2 169-10 254-11 15 0 30 0 44 3 2 1 0 2-1 2l-10 1c-1 0-4-1-3 2h-2c-1 0-3-3-3 1l-109 5c-3 0-11-1-10 2l-22-1-11 1h-7Z"/><path fill="#38777D" d="M1124 1907c0 2-4 3-6 3-10 2-27 2-38 3-63 4-126 6-190 7-53 1-107 3-160 0-4 0-27 0-28-3l1-3h11c65-4 133-1 198-2l155-4 57-1Zm250-102 2 1h5c11 2 29 5 38 9 4 2 8 3 7 8l-2 2-1 5c-9 12-75 21-92 23-13 2-31 1-44 4l-4 4-6-1c-71 4-140 11-210 12l-35-1 1-2c10-1 20 2 29-2h7l11 1v-2l22 1c3 0 11 1 10-2l109-5 3-1h2c34 1 73-7 107-10 1 0 4 1 3-2 16 0 60-7 73-14 22-12-14-19-22-21-21-4-45-5-67-7l4-2-8-2h15l2-1c12 0 30 6 41 5Z"/><path fill="#FAEEC9" d="M1320 1805c22 2 46 3 67 7 8 2 44 9 22 21-13 7-57 14-73 14h-15c-1 0-2-1-1-2l26-8c6-2 22-7 17-15-4-7-33-11-42-12-26-4-54-6-81-8 0-2 2-1 3-1h23l54 4Zm-238 87 7 2h36c2 0 14 1 13 4l-4 4c-5 2-17 3-22 3-49 3-100-1-149 1-3 0-13-3-6-6 31 0 62-3 93-5h20l12-3Zm251-92c-3-2-12-2-15-5-2-2 4-4 6-4 16-4 45-2 62 0 9 1-2 9 6 10 16 2 32 1 48 2l28 3c6 3-4 5-7 5-22 2-45-3-66-5h-19v-2l-2 1c-11 1-29-5-41-5Zm-774 68c0-2-1-3 1-4 10-5 15-2 24-2h109l14-1 13 3v5c-2 3-62 1-71 1h-21c-1-2-4-2-5 0l-18-1h-5l-31-1c1-3-4-3-3 0h-7Z"/><path fill="#38777D" d="m649 1870 7 3h-11l-2 2-9-1c-56-1-110 0-166-5l-19-3c-2-1-1-3-1-4 5 1 8-1 13-3 0 8 8 4 12 4l86 5h10l31 1c1 1 4 2 5 0l18 1h26Zm-189 71c-2 1-38-4-43-3-29-4-57-5-84-14-5-9 5-3 9-2 39 7 78 11 117 14 2 0 1 4 1 5Z"/><path fill="#FAEEC9" d="M1200 1928c-1 2-43 2-49 2l-25-2c-14 0-28 2-43 1-1 0-4 1-3-1 0-2 17-4 19-4 32-2 66 1 98 1l3 3Z"/><path fill="#38777D" d="M1552 1831c0-1-1-4 1-4 6 0 34-6 38-4l3 7c0 2-4 4-6 4a138 138 0 0 1-36-3Z"/><path fill="#15262D" d="M621 1950v4l-38 3h-16c-4 0-8 0-8-6h41l21-1Z"/><path fill="#38777D" d="m1460 1835-2-2c-1-2 11-5 12-6 6-3 10-8 16-5 7 3-3 10-7 11-5 2-13 4-19 2Zm-1018 89c-2 2-26-1-30-1-4-1-15-3-14-7 0-2 5-5 6-5l2 6c2 2 17 4 21 4 1 0 19-1 15 3Zm90-20v4c-2 2-30 1-34 1 0-2 0-2 2-3 3-2 30-4 32-2Zm315-2c0-3 2-3 4-3l18 1c1 0 2-1 2 2h-24Zm-217 8c4 3-18 6-13-1l13 1Zm-30 41h-8c2-2 6-2 8 0Zm-136-11c1 0-1 2-2 1-1 0 1-2 2-1Z"/><path fill="#FAEEC9" d="m962 862 2-2 14-49 4-1 4 12c2 8 2 7 5 13 2 2 1 6 3 9 2 6 7 13 9 20 6 18 9 43 13 62 5 22 29 26 45 37 3 2 5 6 8 7l25 8 11 2 9 9-30-3c-2 0-11-1-8 2 15 1 29 4 44 7 3 5-6 2-7 3-1 2 1 2 1 2 2 5 7 5 12 7 6 6 10 10 13 18 1 2 2 3-1 3-2-1-14-9-15-8s1 3 2 4l9 7 2 1v1c4 6 11 11 16 16 6 6 9 13 17 19 4 3 28 17 29 20s-8 1-9 1c-14 0-9 5-15 8-3 1-9-1-13 2l-30-2c0 2 1 2 2 3 5 3 26 7 27 8v3c2 2 4 0 4 2-5-1-11 1-16 1-4 0-10-3-14 1l5 4c-8 1-17-2-25-2-4 0-10 2-15 1-2 2 10 6 10 9l-31-1 2 3 8 4-50-4 5 4c-5 1-32-8-34-6l2 8-19-5-35 5 3-4c0-2 0-2-2-2-6 0-13 5-19 5-2 0-2 1-2-2l4-2c-17 3-35-2-51 4-2-1 6-5 4-7-1-1-15 3-17 3l-24-1c-2-2 2-4 4-4l4-5c-10 1-19 4-29 3 4-4 11-4 17-7 1 0 2 1 2-2h-65c-2-2 4-3 5-4 14-4 22 1 36-10 1-1 2-1 2-3l-21 3-22-2c-4 0-10 2-15 1l16-6 5-4c-18 2-35 2-53 0l13-5c4-2 10-4 10-9l-14-1c7-5 16-4 25-8 33-13 43-41 74-57l11-10 6-2c1 0 2 1 2-2l-20 2 8-8h2l4-2 12-2 8-5v-4l7-2 2-3c3-3 13-6 17-9 9-5 17-13 24-19 10-10 9-12 15-24 3-5 6-9 8-15 6-14 5-28 9-42Zm100 149c-9 11-24 16-37 9-5-2-28-24-30-28-8-12 1-22 10-29 6-5 15-6 12-16-4-13-56-15-56 3 0 5 13 11 17 15 4 3 8 7 9 12 1 6 0 12-3 17-7 8-34 27-44 29-9 1-21 0-29-6l-8-8c-6 1 4 11 6 13 13 10 32 9 47 1 7-4 28-22 34-22s23 20 31 24c14 8 40 3 44-14l1-2c0-2-3-7-5-7-1-1-6-2-5 0l6 9Zm-127-40c-2 3 8 6 9 1 1-3-8-2-9-1Zm105 1c-2 1-10-2-9 1 1 7 11 1 9-1Zm22 23c2 2 6-3 5-5 0-2-3-2-4-3-2-3-10-17-13-14 0 2-2 7-1 8 0 0 6 0 10 4 3 3 3 10 3 10Zm-141-20c-4 0-9 1-9 6 4 0 9-1 9-6Zm17 7c0-6-14-4-12 2l12-2Zm102 1c-2-2-16 10-5 8 4-1 5-4 5-8Zm-95 7c-3-1-6-2-8 1 0 7 10 1 8-1Zm107 2c-2-3-10 2-7 5 0 0 10 0 7-5Zm-140 6h-4l-1-1-1 2c-8 4 1 8 5 1l7-2c4-1 8 3 9-5-5-2-7 2-10 3l-5 2Zm100 75c-14 5-26 7-40 5-6-1-12-4-18-4 5 10 19 15 30 15 10 0 24-6 28-16Z"/><path fill="#CDA988" d="M752 683c22 5 62 50 75 69l5 9 17 21 5 1c-1 2-13 0-15 1l-1 3-5 2-1 3h-24l-2 4 3 1 3 4c0 4-1 2-3 3v2h-17c-2 5 2 6 2 8l-2 6h-16l-2 5 2 1c1 1 0 3-2 2 0 0-11-9-5-10h21c3-1 2-3-1-4-7-1-20 1-28 3-2 0-6-1-7 2 6 0 9 2 11 7l7 4c-4-1-4 4-5 4h-5v6l-5 6c-2-7-8-12-11-18-15-24-16-42-17-69s4-45 7-69c4-1 3-6 8-8 3-1 5 0 8 1Zm18 45c-3 0-3 1-1 3s11 2 15 4c5 1 9 4 13 6 0 2 1 3-2 4l-17 1v3c1 2 16 6 19 8 8 3 14 8 22 10 0-4 6-8 6-9 0-2-6-7-8-8-1-4-10-9-13-11 4-8-6-13-12-15s-20-4-26-3c-2 1-5 1-6 3l10 4Zm58 59c4 0 2 0 3-2 1-3 3-7 1-9l-13-4c-14-7-15-10-34-10l-31 1c-2 0-4 1-5 3 8 2 17 1 24 2 6 1 16 6 23 8-6 2-14 0-18 5l-9 1c-1 0-3 0-1 2l25 5 7 3 1-2h14c3 0 2 0 2-3l13 4c1-1-1-3-2-4Zm-18 16c1-1-4-6-6-6l-31-1 12 4 25 3Zm389-59c-1 26-7 69-19 92l-7 10c-2-1 0-4 0-6l-4-5c-2-2 0-4-5-3l6-12c-11 2-19-4-30-3-2-7 3-5 4-10-7 0-20 2-11-7-5 2-5-3-10-4s-13 0-19 1v-9h-7l-2-1 4-4c2 3 12-1 12-1l-3 10c1 1 8-2 9-2 0 3 1 2 3 1 11-3 21-8 33-10l17-1v-3c0-1 6-2 4-5l-15-3h-21c-1 0-3-2-2-3l8-3c6-2 17-4 24-4 2-1 3-2 3 1-8 2-17 3-25 6 0 2 2 1 4 1 3 0 23-4 25-6l1-2 4-3c-16-5-34-4-50 2 7-8 17-11 27-14 0 3-1 3 2 3 6-1 11-3 17-3 1-2-1-2-2-3v-2h-3l-1-2h-6c1-2 7-1 8-3s-2-2-3-2c-7 0-36 13-45 17 12-18 33-39 53-48 4-2 13-6 16-3 5 6 6 38 6 46Zm-39 52h-26c0 1 0 4 2 4h26c1-2 0-4-2-4Z"/><path fill="#15262D" d="M922 886c8 18 14 39 0 55-13 15-37 17-55 17h-1l-18-6c-11-6-21-17-25-29-3-10 1-15-13-13-1-1 8-8 9-10 7-7 10-17 19-24 17-15 48-18 68-5 7 4 10 10 16 15Zm-23 7 3 3c17 39-26 71-46 38-10-16-8-39 4-53l6-5c-16 1-39 22-39 38 0 23 25 39 45 40 18 1 48-7 50-28 2-19-5-37-23-44-3-1-6-4-10-3-4 11-4 20 10 14Zm211-18 1 1h1c9 9 15 15 19 27l3 10-2 5v7c-4 18-21 32-38 35-46 8-83-27-54-71 17-26 44-28 70-14Zm-14 21 4 1c4 4 6 16 6 22 0 38-46 43-54 3-2-14 1-26 8-38-9 5-16 13-20 22-23 54 70 68 85 25 6-18-7-38-24-46-5-2-11-4-17-3 3 5-3 15 3 18 4 1 6-1 9-4Z"/><path fill="#CDA988" d="M962 862v-6c4-8 5-19 8-29l2-2v-11l6-8c12 3 8 10 10 20l2-4c2-4 1-8 7-9l3 24-2 5 2 8 4 3v4l6 32c0 3 4 7 4 8v6c3 1 5-3 7-3 1 0 3 3 5 2-1-7 3-12 5-18l16-37c3-6 10-27 14-31 5-4 8 3 8 8l-4 15c3 4 7 0 9 0l8 4c3 3-2 8-2 11-2 16 9 10 17 12l2 2c3 1 5 0 9 2l4 6h-1l-1-1c-26-14-53-12-70 14-29 44 8 79 54 71 1 3-2 2-3 2l-11 2c-2 2 4 2 2 4-1 1-6-2-5 2 4-1 5 2 6 2h5l1 4c2 1 6-2 5 2l-25-8c-3-1-5-5-8-7-16-11-40-15-45-37-4-19-7-44-13-62-2-7-7-14-9-20-2-3-1-7-3-9-3-6-3-5-5-13l-4-12-4 1-14 49-2 2Zm12-45v1-1Zm-136 59c0-3 5-4 5-5l1-3h4c0-1 0-3 2-4h6s0-4 2-4h16c0-3-2-2-5-4-6-6 2-11 9-11 5 0 12 2 18 1 0-6-8-13-8-16 0-4 0-11 4-13 2 0 9 9 10 11l20 27c2 2 9 6 6 11l-7 6c-2 2-6 2-5 4l2 1 4 9c-6-5-9-11-16-15a62 62 0 0 0-68 5Z"/><path fill="#15262D" d="M744 676c7 0 18 5 25 9l22 17c0 3 1 2 3 2h1c-1 4 2 2 3 3l1 5c4 6 19 19 25 25 5 6 11 12 15 19 4 5 17 21 15 27l-5-1-17-21-5-9c-13-19-53-64-75-69 0-4-8-3-10-4l2-3Zm450 15 3 4c4 8 5 26 5 35l-1 2v12h-2c0-8-1-40-6-46-3-3-12 1-16 3-20 9-41 30-53 48-7 3-20 27-25 34l-4 4s-4 2-5-1l3-6c10-18 43-57 59-70l15-10c3-2 10-2 10-6h2c2 0 2 0 2-2h4l2-1h7Zm-458-1c-3 24-8 42-7 69s2 45 17 69c3 6 9 11 11 18l-8 2-8-10-1-3c-1-2-1-8-4-7v-3l-1-1c-13-34-14-92-5-128 1-6 2-8 5-13 2 1 1 5 1 7Z"/><path fill="#CDA988" d="M922 941c4-1 3 5 8 2-7 6-15 14-24 19-4 2-14 6-17 9l-2 3-7 2v4l-8 5c1-3-2-2-3-2h-39v-4h28l13-2 1-6 7 1c1 0 1-3 4-2l-6-7c-1-5-3-3-7-3-1 0-4 1-3-2 18 0 42-2 55-17Zm-68 48-8 8c-5 1-2-1-4-1-4-1-26 5-33 7-13 2-27 4-41 3-1-7 0-4 5-5 24-5 47-10 71-12l10-2v2Zm266 6 15 4c16 5 31 8 47 11 2 0 5-1 6 2l-1 3-20 1-4-3-28-7-14-6h-7s-2 0-1-2c1-1 10 2 7-3Z"/><path fill="#15262D" d="M769 818c-3 0-7 2-8-1 8-2 21-4 28-3 3 1 4 3 1 4h-21Zm411 18c3 0 2 1 1 3s-8 19-12 15c0-3 2-6 4-8l7-10Z"/><path fill="#CDA988" d="M1177 694c0 4-7 4-10 6l-15 10v-4l25-12ZM866 958c-6 0-7-1-11-2-3-1-8 3-7-4l18 6Z"/><path fill="#15262D" d="M1160 829c2 7-6 3-11 4 2-4 7-3 11-4Z"/><path fill="#CDA988" d="M714 906v2h-2c-1 2-2 9-4 8 0-5-1-6 4-8 0-2-1-2 2-2Zm-26 68-3 2v-2h3Zm20-57c0 2 1 3-2 3 0-1 0-3 2-3Zm152 70-4 2c1-2 2-2 4-2Zm288-278 1-1-1 1Zm-56 265v1-1Z"/><path fill="#15262D" d="M1269 1944c0 2-4 2-5 3-32 8-79 8-112 9h-49l12-2c28-1 58-1 86-4 13-2 23-6 36-7 10-1 22 0 32 1Zm-945-149c1 0-1 2-2 1-1 0 1-2 2-1Zm-69 3c1 0-1 2-2 1-1 0 1-2 2-1Z"/><path fill="#CDA988" d="M61 1732c7 2 13 8 20 11 7 4 19 9 28 10 5 1 27 0 30 2l1 3c3 1 40 2 45 1 3-1 6-5 9-5l-2 2 6-1c-10 10 2 9 10 11 1 1-3 7-4 8-4 3-21 5-22 6v3l30 4c2 1 2 3 2 3-22 13-46 10-70 5-18-4-33-12-48-22-13-8-35-25-35-41Zm133 21 1-1-1 1Z"/><path fill="#15262D" d="M1992 1848c3 2-9 5-10 5l-74 7 2-3 82-9Zm-192 12c1 1 0 2-1 2h-17l-57-3-10-2 85 3Z"/><path fill="#6AA3A1" d="M1666 1806c2 0 3 2 2 4h-26c-2 0-6-2-5-4h29Z"/><path fill="#D2703E" d="M1138 1028c12 7 31 15 41 22 2 1 3 2 3 4-4 0-8-2-11-3l-30-17-5-1v-1l-2-1-9-7c-1-1-3-3-2-4s13 7 15 8Z"/><path fill="#15262D" d="M866 1134c1 1 0 2-1 2-10 4-27 1-37 1l3-2 35-1Zm231 6c0 3 0 2-2 2-8 4-21 2-28-2-1 0-2 1-2-2l32 2Zm-203 1c0 3 0 2-2 3-6 3-22 4-27-1l29-2Z"/><path fill="#D2703E" d="m688 1245 1-3-1 3Z"/><path fill="#FAEEC9" d="M1081 1502c-1 1-7 10-9 8l7-10 7-4c-2 1-4 3-5 6Zm-9 9c1 1-1 3-2 2s1-3 2-2Zm-82 44v1-1Zm28-23v1-1Z"/><path fill="#38777D" d="M935 1519v1-1Z"/><path fill="#CDA988" d="m144 1659-3 2-15 1c0-2 4-2 6-2l12-1Z"/><path fill="#D2703E" d="m736 1639-1-3 1 3Z"/><path fill="#CDA988" d="M1185 1652h-1v6h1v-6Z"/><path fill="#15262D" d="M684 1785v1-1Z"/><path fill="#38777D" d="m1355 782 4-9c1-5 0-12 5-12 4 0 11 0 14 2 4 2 5 19-1 19h-22Z"/><path fill="#FAEEC9" d="M1430 1474c2 7 3 15 2 22-1 4-2 10-7 7-2-1-2-26 0-28l5-1Zm-66-458c0 1-2 11-4 12-1 1-1-1-1-2-4-9 2-19 1-28 1-3 4-2 4 0v18Z"/><path fill="#D2703E" d="m744 676-2 3c2 1 10 0 10 4-3-1-5-2-8-1-5 2-4 7-8 8 0-2 1-6-1-7 2-4 3-7 9-7Zm50 28c-2 0-3 1-3-2l3 2Zm446 334-4-3c1-6 5-2 4 3Zm1 1v1-1Z"/><path fill="#FAEEC9" d="M1361 1263c1 1 2 18 0 19-1 1-4 0-6-1-3-3 0-22 6-18Z"/><path fill="#CDA988" d="M1181 692c0 2 0 2-2 2 1-1-2-2 2-2Zm6-1-2 1 1-2 1 1Z"/><path fill="#D2703E" d="M1238 985v1-1ZM736 828c3-1 3 5 4 7-3 1-4-5-4-7Zm0-3-1-1 1 1Z"/><path fill="#15262D" d="M692 946v1-1Z"/><path fill="#FAEEC9" d="M718 893v1-1Z"/><path fill="#D2703E" d="M730 1323h-1l1-1v1Z"/><path fill="#FAEEC9" d="M961 1416v1-1Z"/><path fill="#6AA3A1" d="M1080 1866v2l-11-1 11-1Zm32-1c1 3-7 2-10 2-1-3 7-2 10-2Zm112-6-3 1c0-4 2-1 3-1Zm150-54 2-1v2l-2-1Zm-746 65h-5c1-2 4-2 5 0Zm-23-1c-1 2-4 1-5 0h5Zm-39-1c-1-3 4-3 3 0h-3Z"/><path fill="#15262D" d="M1062 1011h3c-4 17-30 22-44 14-8-4-25-24-31-24s-27 18-34 22c-15 8-34 9-47-1-2-2-12-12-6-13l8 8c8 6 20 7 29 6 10-2 37-21 44-29 3-5 4-11 3-17-1-5-5-9-9-12-4-4-17-10-17-15 0-18 52-16 56-3 3 10-6 11-12 16-9 7-18 17-10 29 2 4 25 26 30 28 13 7 28 2 37-9Zm-94-60c1 1 9 2 11 4s8 16 11 16l9-14c3-3 16-5 10-10-7-6-20-6-28-5-3 0-17 2-13 9Z"/><path fill="#CDA988" d="M1012 1073c-4 10-18 16-28 16-11 0-25-5-30-15 6 0 12 3 18 4 14 2 26 0 40-5Z"/><path fill="#38777D" d="M1062 995s0-7-3-10c-4-4-10-4-10-4-1-1 1-6 1-8 3-3 11 11 13 14 1 1 4 1 4 3 1 2-3 7-5 5Z"/><path fill="#6AA3A1" d="m912 998 5-2c3-1 5-5 10-3-1 8-5 4-9 5l-7 2 1-2Z"/><path fill="#38777D" d="M1065 1011h-3l-6-9c-1-2 4-1 5 0 2 0 5 5 5 7l-1 2Z"/><path fill="#D2703E" d="m938 982-12 2c-2-6 12-8 12-2Z"/><path fill="#38777D" d="M1040 983c0 4-1 7-5 8-11 2 3-10 5-8Zm-119-8c0 5-5 6-9 6 0-5 5-6 9-6Zm14-4c1-1 10-2 9 1-1 5-11 2-9-1Z"/><path fill="#15262D" d="m912 998-1 2c-4 7-13 3-5-1l2-1h4Z"/><path fill="#38777D" d="M1052 992c3 5-7 5-7 5-3-3 5-8 7-5Zm-12-20c2 2-8 8-9 1-1-3 7 0 9-1Zm-95 18c2 2-8 8-8 1 2-3 5-2 8-1Z"/><path fill="#6AA3A1" d="m908 998-2 1 1-2 1 1Z"/><path fill="#CDA988" d="m1136 1032-2-1 2 1Z"/><path fill="#FAEEC9" d="M796 776c-7-2-17-7-23-8-7-1-16 0-24-2 1-2 3-3 5-3l31-1c19 0 20 3 34 10l13 4c2 2 0 6-1 9-1 2 1 2-3 2l-4-2c-7-7-19-6-28-9Zm21-26c2 1 8 6 8 8 0 1-6 5-6 9-8-2-14-7-22-10-3-2-18-6-19-8v-3l18-1c2-1 1-2 1-4 6 3 14 5 20 9Zm-13-11c-11-6-22-8-34-11l-10-4c1-2 4-2 6-3 6-1 20 1 26 3s16 7 12 15Zm-26 42h14l25 6c0 4 1 3-2 3h-14l-1 2-7-3-25-5c-2-2 0-2 2-2l8-1Z"/><path fill="#D2703E" d="M770 728c12 3 23 5 34 11 4 2 12 7 13 11-6-4-14-6-20-9-4-2-8-5-13-6-4-2-13-2-15-4s-2-3 1-3Z"/><path fill="#15262D" d="m810 803-25-3-12-4 31 1c2 0 7 5 6 6Z"/><path fill="#D2703E" d="m824 785-27-6c-2 0-4 0-5 2h-14c5-5 12-3 18-5 9 3 21 2 28 9Z"/><path fill="#15262D" d="m824 785 4 2c1 1 3 3 2 4l-13-4-25-6c1-2 3-2 5-2l27 6Z"/><path fill="#FAEEC9" d="M1124 749c9-4 38-17 45-17 1 0 4 0 3 1-1 3-7 2-8 4h6l1 2h3v2c-6 0-12 2-17 3-10 3-20 6-27 14 16-6 34-7 50-2l-4 3-5 1c0-3-1-2-3-2l-24 5-8 3c-1 1 1 3 3 3h21l14 3c2 2-4 4-4 5-14 0-25 2-38 7l-15 6-9 2 3-10s-10 4-12 1c5-7 18-31 25-34Zm-11 32v1-1Z"/><path fill="#D2703E" d="M1170 777v3l-17 1c-12 2-22 7-33 10-2 1-3 2-3-1l15-6c13-5 24-7 38-7Z"/><path fill="#FAEEC9" d="M1160 796c2 0 3 2 2 4h-26c-2 0-2-3-2-4h26Z"/><path fill="#D2703E" d="m1176 759-1 2c-2 2-22 6-25 6-2 0-4 1-4-1 8-3 17-4 25-6l5-1Zm-2-18c1 1 3 1 2 3-6 0-11 2-17 3-3 0-2 0-2-3 5-1 11-3 17-3Z"/><path fill="#CDA988" d="M899 882c18 7 25 25 23 44-3 21-32 29-50 28-20-1-45-17-45-40 0-16 23-37 39-38l-6 5a48 48 0 0 0-4 53c20 33 63 1 46-38l-3-3c-1-1-2-10 0-11Z"/><path fill="#FAEEC9" d="M899 882c-2 1-1 10 0 11-14 6-14-3-10-14 4-1 7 2 10 3Z"/><path fill="#CDA988" d="M1096 896v-10h4l1-1c17 7 30 28 24 46-15 43-108 29-85-25 4-9 11-17 20-22-7 12-11 24-8 38 8 40 54 35 54-4 0-5-2-17-6-21l-4-1Z"/><path fill="#FAEEC9" d="m1101 885-1 1h-4v10c-3 3-5 5-9 4-6-3 0-13-3-18 6-1 12 1 17 3Z"/><path fill="#D2703E" d="m1111 876-1-1 1 1Zm-137-59v1-1Zm703 272v1-1ZM968 951c-4-7 10-9 13-9 8-1 22-1 28 5 6 5-7 7-10 10-4 4-6 11-10 14-2 0-8-14-10-16s-10-3-11-4Z"/><path fill="#CDA988" d="M1113 781v1-1Z"/></svg>