<svg xmlns="http://www.w3.org/2000/svg" width="160" height="184" fill="none"><g clip-path="url(#a)"><path fill="#020202" d="M43 155c1 .7 1.6 2.7 1.9 3.7.3 1.2.5 2.7-.2 3.7-.4.7-.8.8-1.5 1-.4 0-.7-.1-1-.3-.6-.4-1-1-1-1.6-.5-2 .8-4.9 1.9-6.5Z"/><path fill="#91F8CA" d="M43.1 156.8c.3.3.4.8.5 1.2.4 1 1 2.7.4 3.8-.2.4-.4.5-.8.6-.4-.1-.8-.3-1-.8-.6-1.3.4-3.5.9-4.8Z"/><path fill="#020202" d="M64.4 166c1 .7 1.8 3.3 2 4.5.3 1.2.5 2.7-.2 3.7-.4.6-1 .8-1.7 1a3 3 0 0 1-1-.3c-.6-.4-1-.9-1.2-1.6-.6-2.3 1-5.4 2.1-7.4Z"/><path fill="#91F8CA" d="M64.4 167.9c.4.4.6 1.2.8 1.7.3 1.2.8 2.8.1 4-.2.4-.5.5-.9.6-.5-.2-.9-.5-1-1-.7-1.6.4-4 1-5.3Z"/><path fill="#020202" d="M52 134.5c1 1 2.4 5 2.7 6.4.3 1.4.4 3.1-.5 4.3-.5.8-1.3 1-2.2 1.2-.6 0-1-.1-1.5-.4a3 3 0 0 1-1.3-2c-.6-2.9 1.2-7.1 2.8-9.5Z"/><path fill="#91F8CA" d="M52 136.4c.9 1.1 1.4 3 1.7 4.4.3 1.2.5 2.7-.2 3.7-.4.6-.8.8-1.5.9l-.9-.3c-.5-.2-.8-.8-1-1.3-.7-2.3.9-5.4 1.9-7.4Z"/><path fill="#020202" d="M49.2 168.2c.3.2.5.7.7 1 1.1 2 2 4.3 2.3 6.7.2 1.2.2 2.6-.6 3.6-.5.7-1.2 1-2.1 1-.6 0-1.1 0-1.6-.3-.7-.4-1.2-1-1.4-1.7-.9-3.4 1.1-7.4 2.7-10.3Z"/><path fill="#91F8CA" d="M49.2 170.2c1 .9 1.7 4 2 5.2.2 1.2.3 2.5-.4 3.5-.4.5-.9.6-1.4.7l-.9-.3c-.5-.3-1-.8-1.1-1.4-.8-2.3.8-5.7 1.8-7.7Z"/><path fill="#020202" d="M58.4 147.7c.4.4.6.9.8 1.2 1.3 2.3 2.3 5.1 2.5 7.7.1 1.2 0 2.7-.8 3.6-.6.7-1.3.8-2.2 1-.7-.1-1.4-.2-2-.6a3 3 0 0 1-1.5-2c-.9-3.4 1.4-8 3.2-10.9Z"/><path fill="#91F8CA" d="M58.4 149.6h.1c.9.8 2 5.4 2.2 6.6.2 1 .3 2.4-.5 3.3-.4.5-1 .6-1.6.7-.5 0-1-.1-1.3-.3-.6-.4-1-.9-1.2-1.5-.7-2.8 1-6.4 2.3-8.8Z"/><path fill="#020202" d="M38.6 97.2c1 0 2-.2 3 0l1.5.7 2.7.5a16.2 16.2 0 0 1 6.4 3c5.1 4 6.1 8.7 6.9 14.8l1 .5c.8.5 1.4 1.1 1.6 2 .2 1.1.7 5.2 0 6-.5.8-1.9.9-2.7 1 .7 1.8 1.9 4.6 1.2 6.6a2.3 2.3 0 0 1-1.3 1.4 2 2 0 0 1-1 0 1.8 1.8 0 0 1-.4 0c-.6-.3-1.1-.8-1.4-1.4-.7-1.8.2-4.4.9-6.1-3 .2-6 0-9-.3.3 1.9 1.4 4.5.6 6.3-.2.5-.5.8-1 1-.5.1-1.2 0-1.6-.2-.5-.2-.8-.6-1-1.1-.5-2 1-4.6 1.9-6.3-.7-.1-1.5-.2-2-.5a2 2 0 0 1-1.2-1.3c-.3-.9-.4-5 0-5.9.5-.9 1.4-1.2 2.3-1.4 0-1.3 0-2.7-.3-4-.4-2-1.5-3.2-3.2-4.3-1.6.8-2.6 1.7-4.6 1.6-1.7-.2-2.6-1.1-3.6-2.3a14 14 0 0 0-6.4 3.5 14 14 0 0 0-3.6 6.5c-1 4.2-1 8.9-1 13.3-.2 6.4 0 13 0 19.4 1.6.3 3.2.5 4.4 1.9l.2 1.2c-.1.7-.6 1.2-1 1.6l.1 5.4.3 12.2c2.3.5 4.7.7 6.8 1.8 1.2.6 2.2 1.4 2.6 2.7.3.9.3 1.9-.1 2.7-.8 1.5-3 2.3-4.5 2.7-6.3 1.7-23.2 2.3-28.9-1-1-.6-1.9-1.4-2.1-2.6-.3-.9-.1-1.8.4-2.6 1.6-2.5 7-3.4 9.7-4 .2-5.6-.3-11.3-.1-17l-.6-.3c-.4-.3-.8-.9-.9-1.4 0-.5.1-1 .4-1.4 1-1.3 3-1.8 4.6-2l-.2-4.8c-.2-5 0-10 0-15 .3-6.4.3-13.1 2.7-19.2a18.9 18.9 0 0 1 17.4-11.8c1-1.3 2.4-1.8 4.1-2Z"/><path fill="#91F8CA" d="m47.2 127 .1.2c.5 1.1 1 3.3.5 4.4-.3.4-.5.5-1 .7l-.7-.7c-.5-1.3.6-3.4 1.1-4.5ZM58.1 126.3l.2.3c.6 1.4 1.5 4.2.8 5.6-.2.4-.4.5-.9.7l-.5-.2c-.5-.2-.7-.6-.8-1-.4-1.5.5-4.1 1.2-5.4Z"/><path fill="#B6E1FB" d="M14.3 151.3h.4v1c-.2.4-.6.4-1 .5l-.2.2v.2c.6.5 1.7.6 2.4.7 1.6.2 7.2.5 8.4-.6.2 0 .1 0 .1-.2-.2-.4-.7-.5-1-.7l-.4-.4.1-.2c.2-.2.3-.2.5-.2.9 0 2.3.7 2.9 1.2-.3.5-.5.8-1 1-2.7 1.5-10 1.3-13 .4-.5-.2-1-.4-1.3-1v-.5c.6-.7 2.3-1.2 3-1.4Z"/><path fill="#7B96B0" d="M38.5 98.5h.4l-.7.9a6.7 6.7 0 0 0-1.2 5.1c.3 1.6 1 2.8 2.3 3.8h-1.6c-.4 0-.8-.2-1-.4-1-.7-1.6-1.9-1.8-3-.3-1.6-.2-3.6.8-5 .7-1 1.7-1.2 2.8-1.4Z"/><path fill="#B6E1FB" d="M11.7 176.5c.8.4 1.7.7 2.6.8 3.4.6 7 .4 10.3-.2.7 0 1.7-.2 2.2-.6.3-.3.3-.7.4-1.1.5.2 1.5.3 1.8.9 0 .1.1.2 0 .4 0 .4-.4.6-.8.9-3 1.1-8.4 1.1-11.6 1-1.7 0-6.3-.3-7.4-1.5v-.3c.2-.7 1.4-1 2-1.3l.5 1ZM51.6 102.6a19.8 19.8 0 0 1 6.2 15.6c-1 .3-2 .3-3 .5 0-4-.2-7.9-1.4-11.7-.3-1-1.7-3.6-1.8-4.4Z"/><path fill="#7B96B0" d="M59.3 117.7c.5.2.8.6 1.2 1 .3 1.8.3 3.6.3 5.4-4.8.8-11 1.2-15.7-.4l-.1-.3c-.3-.7-.4-4.3 0-5 .1-.3.4-.4.7-.5l.1.1c0 .2.1.5.3.7.7.9 3.8 1 5 1 2.1.2 6.7.4 8.3-1v-1ZM10.8 173.7h.3l.2.6c-.1.8-2.2.8-2.8 1.3-.3.3-.5.7-.5 1.1 0 .6 0 1 .5 1.5 1.4 1.5 5.9 1.8 7.8 1.8 3.2 0 11.4.3 13.7-2 .3-.4.7-1 .6-1.4-.1-1.6-2.5-1.3-3.2-2.1-.2-.3-.1-.3-.1-.6l.1-.1c1.8.2 3.8.7 5.4 1.5 1.3.5 2.2 1.2 2.7 2.5 0 .3 0 .7-.2 1-.7 1.3-2.8 2-4.2 2.2a60.4 60.4 0 0 1-23.4.3 13 13 0 0 1-4.2-1.4c-.6-.3-1.1-.8-1.3-1.5 0-.5.2-1 .5-1.4 1.6-2.2 5.5-3 8-3.3Z"/><path fill="#fff" d="M39.3 106.8c-.6-.9-1-1.9-1-3 0-1.2 0-2.8 1-3.8.7-.7 1.6-1 2.5-1 3.1 0 7.5 1.5 9.8 3.6 0 .8 1.5 3.3 1.8 4.4a40 40 0 0 1 1.4 11.7c-2.6 0-5 0-7.4-.7v-1.3c0-2.8-.2-6.2-2.3-8.3-1.7-1.5-3.7-1.7-5.8-1.6Z"/><path fill="#020202" d="M42.6 102a8.5 8.5 0 0 1 7 4.3c1.7 2.8 2.3 7 1.4 10.2l-.3.1c-.3-.1-.3-.3-.4-.6l.2-2.2c0-2-.5-4.5-1.4-6.4a8 8 0 0 0-4.6-4.3c-.4-.2-1.2-.2-1.6-.5-.3-.1-.3-.2-.3-.5Z"/><path fill="#B6E1FB" d="M25.4 155.4h.1c.2.3.3 18.3.3 20.2-3.7.8-9.8 1.2-13.2 0-.2-1-.1-2.4-.1-3.5v-7.4l-.3-9.3c3.7 1.2 9.5 1 13.2 0Z"/><path fill="#fff" d="M32.9 100.6h1c-.4 1.6-.4 3-.1 4.7a13 13 0 0 0-3.7 1.4 17.3 17.3 0 0 0-3.6 2.7l-.4.5c-2 2.2-3.3 5-4 7.9-1.4 6.1-.9 14.6-.8 21l.1 14c-1.4 0-2.9.2-4.3 0h-1a343.7 343.7 0 0 1-.2-25.8c.2-4.2.3-8.7 1.5-12.9.7-2.6 1.8-5 3.5-7 3.1-3.8 7.1-6 12-6.5Z"/><path fill="#020202" d="M79.5.7c.4 0 .6 0 1 .2 1.8.8 3.3 3.1 4.4 4.7 3.2 4.5 6.2 9.3 8 14.5a21.2 21.2 0 0 1 8 1.2l3 1.3c1.6-1.2 3-2.5 4.7-3.6a40.5 40.5 0 0 1 16.2-7.2c.4 0 1-.1 1.4.1.4.5.3 1.9.3 2.5a60.5 60.5 0 0 1-4.6 19.1c-.4 1.4-2 4-2.1 5.1-.3 1.3 0 4.2.1 5.7v7.2l2.8 1c1.5.7 6.7 3.4 7.3 4.8 0 .3 0 .3-.3.6-.3.1-.5.1-.8 0-1-.5-1.7-1.3-2.5-1.9-2-1.3-4.3-2.4-6.6-3.2-.3 2.1-.3 4.3-.6 6.4a30 30 0 0 1 9.4 8.9c.3.4.7 1 .6 1.5-.1.3-.3.4-.5.5-.7 0-1.2-1.2-1.6-1.8-2-3-5-5.6-8-7.6 0 2-.3 4.1-.6 6.2.8 1.2 1.9 2.2 2.7 3.3 1.7 2.1 3.2 4.5 4.5 6.9a119.5 119.5 0 0 1 7.7 21c3 12.2 4.1 25.6 3.9 38.2a7 7 0 0 0 3.5-.7c2.5-1.3 3.3-3.7 3.4-6.3.2-4-1.1-8.2-2-12a69.1 69.1 0 0 1-.3-34.6c1.4-4.7 3.8-9.7 8.4-12.1 1.8-1 3.8-1.2 5.7-.6 1.4.5 2.6 1.4 3.2 2.7 2 3.9-.3 7.5-2 11a28.2 28.2 0 0 0-4.2 14.8 57.8 57.8 0 0 0 .9 11.4l1 5c1.6 7.2 3.4 15.6.8 22.8a16.8 16.8 0 0 1-9 9.7c-1.1.5-2.4 1-3.7 1.3-2.3.5-4.7.5-6.7-.7l-2.5 1c-.7 3.8-1.2 7.7-1.8 11.6-.3 1.5-.4 3.6-1 5-.3.5-.8.7-1.2.8-1.4.5-3 .6-4.5.8-4 .5-9 1.2-13 1.2-1.2 0-2.7 0-3.7-.6-1-.5-1.5-1.5-1.8-2.5l-8.4.9c-2 .1-4.7.3-6.2-1-.8-.7-1.1-1.7-1.1-2.7 0-1.5.5-3 1.6-4 2.2-2.2 7-2.5 10-2.5.2-3.6.1-7.4 0-11-6.8-4.7-9.4-16.8-11.5-24.3-1.4-5-2.8-10.2-5-14.8a22 22 0 0 0-5.6-.6c-1.7.3-3 1-4.9 1-3.3.1-8.2-1-10.7-3.4-1.4-1.2-2.4-3.7-1.8-5.5.2-.7.7-1.3.7-2 0-.6.2-1.1.5-1.7.8-1.3 2.1-1.7 3.5-2.1-.1-1.6-.6-3-1.3-4.5-.5-.1-1-.3-1.4-.6-1-.6-1.4-1.8-1.6-2.8-.1-.7-.3-1.8.2-2.4 1-1.4 4-1.9 5.6-2-.4-.9-.7-1.7-.7-2.6 0-.9.4-1.8 1-2.4 1-1 2.4-1.2 3.7-1.1.3-1.4.6-2.8 1.7-3.9l-3.7-2.2c-4.7-3-8.4-6.8-11-11.8-1.1.5-2.2 1.3-3.3 2-3.2 2.1-6 4.2-8.4 7.3-.3.3-.5.6-1 .6l-.4-.4v-.4c.2-.7.9-1.4 1.3-2 2.3-2.6 5.5-4.8 8.5-6.5l3-1.6c-.3-1.3-.4-2.7-.5-4-4 .4-8.4 2-12 3.9-1.3.7-2.6 1.6-3.8 2.4-.6.5-1.1 1-1.8 1.3h-.5a.7.7 0 0 1-.4-.3c0-.3.1-.5.3-.7.6-.9 1.8-1.6 2.6-2.2 4.8-3.1 10-4.8 15.6-5.7l1.1-3.8c-4.4-.6-8.6-.3-13 .8-1.2.4-2.5 1-3.8 1.2l-.8-.1c-.1-.2-.2-.4-.1-.6 0-.2.1-.4.3-.5.7-.4 1.7-.6 2.4-.8 5.2-1.8 10-1.9 15.3-1 3.4-7.7 6-11.8 12-17.9v-1.9c.3-4.8 3-20.6 6.5-23.7Z"/><path fill="#91F8CA" d="m76 70.3 1.4.8c-.3.9-.7 1.7-.7 2.7v1.3h-.2c-.5-.6-1.1-1-1.8-1.5.2-1 .7-2.3 1.2-3.3ZM117.3 60.2h.1c.3 1.2-.4 5.3-.7 6.6l-1.4-1.4-1.6-1.4a21 21 0 0 0 3.6-3.8ZM78.6 71.4l2.5.5c-.4 1.6-.5 3-.2 4.6-.8 0-1.8-.3-2.5-.6a.8.8 0 0 1-.5-.5c-.3-1.2.2-3 .7-4Z"/><path fill="#fff" d="M70 80.6c.8-.1 1.7.8 2.7.9 1.8.2 2.6-.5 4.1-.8 1.6-.4 5.4.1 7 .6a139 139 0 0 1-18 .6v-.1c.7-.6 3.1-1.1 4.1-1.2Z"/><path fill="#91F8CA" d="M99.7 70.6c.7.7 1.4 3.3 1.7 4.3l-3.2.8h-.1c-.7-.9-1.3-3.2-1.5-4.3l3-.8ZM95.3 71.7c.2.3 1 3.6 1.3 4.3l-3.5.6-.1-.3c-.6-1-1.4-2.7-1-3.9.4-.5 2.5-.6 3.3-.7ZM112.6 64.7c1 .4 2.4 2.3 3 3.1-1 .9-2 1.6-3 2.3h-.3c-.4-.4-.6-1.2-1-1.7l-1.6-1.8 2.9-1.9ZM89.8 72.3h1c0 1.7.2 2.8 1 4.4L89 77h-1.2c-.8-1.4-1-2.9-1-4.5h3ZM82.2 72c1.1.3 2.3.4 3.5.4 0 1.6.2 3 .8 4.5-1.3 0-2.7 0-4.1-.2-.4-1.5-.5-3-.2-4.6ZM104.1 69.2h.3c1 .7 1.6 3 2 4l-3.3 1.2h-.5c-.3-.3-1.4-3.3-1.7-4 1-.5 2.1-.8 3.2-1.2ZM108.7 67.2h.2c1.1.8 1.8 2.4 2.3 3.6-1.2.7-2.3 1.3-3.5 1.8-.4-.2-.7-1.1-1-1.5l-1.6-2.2 3.6-1.7Z"/><path fill="#DBCAAC" d="M110.2 56.4c2 .7 4 1.5 6 2.5-1 1.6-2.4 3-3.9 4l-1.6-1.2c.6-2.7.6-2.7-.5-5.3Z"/><path fill="#fff" d="m115.6 148.4 3.2 1.5c0 .9 0 8.2-.2 8.5l-3.2.2c0-3.4.3-6.8.2-10.2Z"/><path fill="#DBCAAC" d="M102.8 51.8a43 43 0 0 1 15.5.5c-.1 2-.3 4-.6 5.8-4.7-2.2-9.3-4-14.6-4.5v-1.1l-.1-.2.3 1c.4.4 2.2.3 2.9.5l1.8.4h.1c-.4-.2-1.1-.4-1.4-.8 0-.6.4-1.4.6-1.9-1.3-.2-3 .2-4.3.4l-.2-.1Z"/><path fill="#F77962" d="M80.7 9.2c2 1.4 4.8 9 5.4 11.3a43 43 0 0 0-7.8 2.4c0-4.5.3-9.6 2.4-13.7Z"/><path fill="#fff" d="M98 164.7h-2.2c-.2-.1-.4-.2-.5-.5-.4-.8.3-2.3.8-3 .3-.4 1-.7 1-1.2v-.3h-.4c-.3 0-.8.3-1 .6-2 1.6-1 3.4-1.6 4.2h-.3a2 2 0 0 1-1.1-1c-.4-.8-.3-1.9 0-2.7.5-1 1.3-1.8 2.4-2.2 2.2-1 7.4-1.5 9.8-1.2.6 0 1 .2 1.5.4 1.2.7 3 1 3.9 2a9.7 9.7 0 0 0-3.3 4c-1.5.3-3 .4-4.6.5l-3.2.3c-.8-1.2.7-2.6.3-3.8h-.1c-.3 0-.6.3-.8.5-.7.9-.8 2.3-.7 3.4ZM113.8 166.7c-.7 0-1.5.2-2.2 0-.2 0-.5-.1-.6-.3-.5-1.3 1.3-2.5 1.6-3.4 0-.1-.1-.2-.3-.2-.4-.1-1 .3-1.2.5-1.1 1-1 1.7-1 3-.1.1 0 .2-.2.3-.5 0-1.3-.4-1.5-.8l-.1-.7c0-1.3 1-2.8 2-3.6 2.3-1.7 5.8-1.7 8.5-1.7h2.8l3.3.7.6-.7 2.1 1.5c.7.7 1.3 1.6 2.1 2l-.1 1.6c-1.7.5-13 1.8-14.6 1.6-.2-.1-.3-.2-.3-.4 0-.8.7-1.7 1.3-2.2l.2-.5c-.2-.2-.4-.2-.6-.2-.4 0-.8.3-1 .6-.8.8-.9 1.9-.8 2.9ZM70.7 92.6c1.5-.3 3.6.3 4.9 1 .3.2.6.3.7.7-.1.5-.5 1-.8 1.5a7 7 0 0 0-.8 5c.6 1.8 2 2.7 3.6 3.5a18 18 0 0 1-12-2.3c-1-.7-1.6-1.8-1.8-3-.1-1.2.4-2 .7-3 .2-.7.1-1.2.6-1.8 1.1-1.3 3.3-1.4 4.9-1.6Z"/><path fill="#020202" d="M67 99.1c.5 0 1.1 0 1.5.2.4.2.7.4.8.7l-.1.2c-.5.3-1 .1-1.5 0-.6 0-1.6.5-2.1 0v-.4c.4-.4.9-.5 1.5-.7ZM68 95.4c.7 0 1.3-.1 2 .3v.5c-.5.5-1.7.4-2.5.5l-1 .2-.8-.1v-.5c.4-.6 1.5-.8 2.2-.9Z"/><path fill="#F6EFDD" d="M143 83.9c1.2-4.3 3.4-9.4 7.4-11.8a6.4 6.4 0 0 1 5-.7c1 .3 2 1 2.5 2 .7 1.4.6 3.3.1 4.8-.4 1.4-1.1 2.6-1.8 3.9-1.2 2.3-2.5 4.6-3.4 7.2-.7-.2-1.5 0-2.2 0l-.1.6c-.2.3-.2.3-.4.3l-.2-.1c-.2-.3-.2-.7-.2-1-.7-.3-1.3-1-2-1.4 0 .6 0 1.4-.5 1.7h-.4c-.3-.8 0-1.8.2-2.5l-1.4-.5-.1.8-.4.4-.2-.1c-.3-.7-.2-1-.1-1.7-.8-.7-.7-1.6-1.8-2Z"/><path fill="#020202" d="M149.7 89c.2-.7.6-3.3 1.3-3.8h.3c.2.3.2.7 0 1-.1 1.1-.5 2.1-.7 3.2l-.1.5c-.2.3-.2.3-.4.3l-.2-.1c-.2-.3-.2-.7-.2-1ZM144.8 85.8c.2-.8.6-3 1.4-3.5h.3l.3.5-.5 1-.7 2.6-.1.8-.4.4-.2-.1c-.3-.7-.2-1-.1-1.7ZM147 86.9c.2-.8.4-2.3 1-2.8l.6-.1c.1 0 .2.1.2.3 0 .6-.4 1.2-.6 1.8l-.4 1.6c-.1.6-.1 1.4-.6 1.7h-.4c-.3-.8 0-1.8.2-2.5Z"/><path fill="#DBCAAC" d="M143 83.9c1 .3 1 1.2 1.8 1.9-.1.7-.2 1 0 1.7l.3.1c.2 0 .3-.2.4-.4l.1-.8 1.4.5c-.1.7-.5 1.7-.2 2.4.2.2.2.1.4.1.5-.3.5-1.1.6-1.7.6.4 1.2 1 2 1.3v1l.3.2c.2 0 .2 0 .4-.3l.1-.5c.7-.1 1.5-.3 2.2-.1a41.2 41.2 0 0 0-1 17.4c1.4 10 6 20.9 2.2 30.7-1.5 4-4 6.8-8 8.5-2.8 1.2-5.7 2.1-8.6 1 1.1-3 1.3-5.9 1.2-9 1.2-.1 2.3-.4 3.3-1 6.6-3.7 3.1-13.8 2-19.5-.9-3.9-1.7-7.8-2.1-11.8-.8-7.4-.7-14.5 1.2-21.7Z"/><path fill="#020202" d="m152.5 128.2.5.1c.5.7.2 1.7.2 2.5l-.4-.1c-.4-.7-.4-1.8-.3-2.5ZM150.5 131l.5.1.2.3c.2.8-.5 2.3-1 2.9-.3 0-.3 0-.5-.3-.1-.6.6-2.3.8-3ZM142.8 142.2h.3l.1.3v.6c-1 .5-2.5.5-3.5.6h-.3l-.1-.6c.4-.4 2.8-.6 3.5-.9ZM150 125.1h.2c.3.1.4.3.5.5.4 1 .7 3 .3 4-.2 0-.4 0-.6-.2l-.6-3.7c0-.3 0-.4.2-.6ZM149.1 93.7c.2 0 .3.2.5.3v.2l-.2 2.2-.1 2-.2.4-.4-.1a.8.8 0 0 1-.3-.4c-.3-1.1.2-3.6.7-4.6ZM148.3 102.1h.3l.2.3c.2.6.2 1.5.3 2.2 0 .5.5 2 .4 2.3l-.2.3h-.4c-.5-.6-.6-1.7-.7-2.4-.1-.8-.4-2 0-2.7ZM143.8 144l.2.2c.2.2.2.3.1.5-.8 1-2.9 1.3-4.1 1.6l-.4-.2c-.2-.2-.2-.3-.2-.5.3-.4.6-.4 1-.4 1.3-.1 2.2-.6 3.4-1.2ZM146 107c.3 0 .4 0 .6.3.2.7 1.3 4.4 1.2 4.7l-.2.3-.4-.2c-.7-.9-1.1-2.5-1.3-3.6-.1-.5-.2-1 .1-1.5ZM147.8 137.3c.3 0 .3 0 .5.2v.5c-.5 1.4-2.3 2.8-3.6 3.4h-.2c-.3-.2-.3-.3-.3-.5.2-.7 1.2-.8 1.7-1.3.7-.6 1.3-1.6 2-2.3ZM147.2 126.2h.2c.3.2.3.4.4.7.3 1.3.4 3.9-.3 5-.2 0-.4-.1-.5-.3-.2 0 0-.6 0-.8v-4c0-.3 0-.4.2-.6ZM147.3 115.8h.1l.6.7c.2.7 1.4 4.4 1.3 5.1l-.1.3c-.2 0-.4 0-.5-.2-.7-.9-1.4-3.9-1.6-5 0-.5 0-.6.2-.9ZM152.9 130.9l.2.2.3.6c0 1.4-.6 4-1.6 5-.2 0-.3 0-.5-.3v-.2l1.6-5.3ZM143.4 104.7l.3.1c.4.4.9 4.3 1 5.1.1.5.1.7-.2 1l-.4-.1c-.6-1-.9-3.7-1-4.8 0-.6 0-.8.3-1.3ZM146.3 93.3c.2 0 .3.2.5.3.2.4 0 1 0 1.5-.3 1.5 0 2.6-.2 4 0 .3-.2.4-.4.6h-.2l-.3-.6c-.3-1.4-.1-4.5.6-5.8ZM150 139.5c.4 0 .5 0 .7.2v.6a9.8 9.8 0 0 1-3.9 3.9h-.2l-.3-.3c.1-.7 1.3-1.3 1.8-1.8a24 24 0 0 0 2-2.6ZM150 114.1l.5.1c.8.7 1 2.2 1.3 3.1.2.8.7 2.7.3 3.4l-.5-.3c-.2 0-.2-.4-.3-.6l-.7-3.2-.7-1.9.2-.6ZM144 91.5c.3 0 .5.1.7.4 0 1-.5 1.8-.7 2.7-.1 1.2.3 3.2-.2 4.2h-.3c-.2-.1-.3-.2-.3-.4-.5-1.7 0-5.4.9-7ZM144.7 114.8h.3c.6.6 2 6.5 2 7.4 0 .4 0 .5-.3.7l-.3-.2c-.4-.7-2-6.4-2-7.3 0-.3.1-.4.3-.6ZM146.4 134.5l.3.2.1.3c-.2 1-1.1 2-1.8 2.6a7.8 7.8 0 0 1-5.5 2.3l-.4-.1v-.2c0-.2 0-.4.2-.5.5-.3 1.3-.2 1.8-.3.4 0 .8-.2 1.2-.4 2-1 2.5-2.4 4-3.8Z"/><path fill="#fff" d="M69 35.3c1.3-1.9 3-3.6 5.3-4 1.2-.4 2.5-.2 3.5.6 1.5 1 2.3 2.7 2.6 4.4.3 2-.2 3.7-.9 5.6.6 1.2 1.4 2 2.7 2.5 2.2.7 5 0 7.3-.3.3 1.6.9 3 2.3 4 1.5 1 3.7 1.3 5.5 1a6.9 6.9 0 0 0 3.7-2.3v1.3c1 1.6 1.7 1.3 3 2.3-1.5.3-4 .5-5.1 1.7v.1c.8.4 3-.4 4-.4 1.4 0 3-.5 4.4-.3-.2.5-.7 1.3-.6 1.9.3.4 1 .6 1.4.7-.7 0-1.3-.2-2-.3-.6-.2-2.4 0-2.8-.5l-.3-1v1.2l-.9.3v.2c0 .2.3.3.5.4l3.9 1c1.2.2 2.5.6 3.7 1 1 2.6 1.1 2.6.5 5.3-1-.7-7-4.6-8.3-4.4v.2c0 .3.1.4.4.6.8.7 1.8 1.2 2.7 1.8 2 1.2 4 2.4 5.8 3.7-1 .9-2.2 1.5-3.3 2.1-7.2 3.8-20 6.5-27.9 4.1a40.8 40.8 0 0 1-15-10.2 27.1 27.1 0 0 1-3.1-5c1-.3 3.2-.8 3.9-1.5v-.2c-1.1-.5-3.3.4-4.4.7a18.4 18.4 0 0 1-.4-3.5h3.7l2.2.1c.3 0 .5 0 .8-.3v-.2c-1.5-1.2-4.9-.9-6.6-.9L62 46c1.3.2 2.4.4 3.6.9.8.3 3 1.6 3.6 1.6.2 0 .2 0 .3-.2V48c-1-1.6-5-3-7-3.4a37 37 0 0 1 5.3-10c.4-.3 2.3-2.9 2.8-3.5l.5.6c.2 0 .4.2.6.4-.8.6-2.7 2-2.8 3v.2Z"/><path fill="#020202" d="M65.5 39.5c.3 0 .5 0 .7.2.3.2.5.6.5.9.1.7 0 1.5-.5 2l-.5.1-.4-.4c-.3-.7-.1-2.1.2-2.8ZM79.3 46c1.5 0 3.2 0 4.5.8a3 3 0 0 1 1.6 1.8c.3.7 0 1.5-.3 2.1-1 1.7-2.8 2-4.5 2.5 0 1.7.1 3.2 1.3 4.5.5.6 1.2 1 2 1 2.8.2 1.8-3 2.8-3.7h.5l.2.3c.3.9 0 2-.5 2.8-.4.9-1.3 1.6-2.3 1.8-1.1.3-2.1 0-3.1-.6a6.5 6.5 0 0 1-1.7-2.2c-.7.8-1.3 1.4-2.3 1.6-1 .3-2 .2-3-.3-1-.6-1.6-1.6-1.9-2.7-.2-.8-.2-1.4.2-2l.5-.2c.8.6.6 2.3 1.3 3.1a3 3 0 0 0 2 1c.6 0 1.3-.4 1.7-.9 1-1 1-2.6 1-3.9-1.3-.7-2.4-1.6-2.7-3a3 3 0 0 1 .3-2.4c.5-.9 1.5-1.1 2.4-1.3Z"/><path fill="#F27F1C" d="M79.5 47.4c1.1 0 2.3 0 3.4.4.5.2 1.2.5 1.4 1.1.1.3 0 .6 0 .8-.4.9-1.3 1.3-2 1.7l-2.3.5c-.9-.7-2-1.4-2.3-2.6-.1-.4-.1-.8.1-1.1.4-.6 1.1-.7 1.7-.8Z"/><path fill="#020202" d="M69 35.3c1.3-1.9 3-3.6 5.3-4 1.2-.4 2.5-.2 3.5.6 1.5 1 2.3 2.7 2.6 4.4.3 2-.2 3.7-.9 5.6-.8 1.7-2.1 3-4 3.8-1.5.7-3.2.9-4.8.2a4.9 4.9 0 0 1-2.7-2.7c-1.2-2.7 0-5.3 1-7.9Z"/><path fill="#fff" d="M71.7 35.5c.4 0 1 0 1.3.2.3.1.4.3.5.6.1.4-.3 1-.5 1.3a12 12 0 0 0-2-1l.7-1Z"/><path fill="#fff" d="M74.9 32.4h.4c1 0 1.8.3 2.4 1 1.1 1 1.5 2.9 1.5 4.4 0 2-.8 4.2-2.4 5.7a6.2 6.2 0 0 1-4.7 1.6 5 5 0 0 1-1.5-.6c-1-.7-1.4-1.6-1.7-2.8l1 .4c.7 0 1.4-.2 2-.6 1.7-1.2 2.7-3.9 3-5.9 0-.4.2-.8.1-1.2 0-.6-.6-1.4-.6-1.9l.5-.1Z"/><path fill="#DBCAAC" d="M80 2.5c.7.5 1.3 1 1.9 1.7l2 2.7 1.8 2.6c1.3 2 2.4 4.1 3.5 6.2.8 1.4 1.6 2.9 2 4.4-1.2 0-2.5 0-3.8.3-.8-3.2-3.6-10.9-6.4-12.6-.2-.1-.4-.2-.6-.1-.9.3-1.3 1.8-1.6 2.5A39.6 39.6 0 0 0 77.1 22c0 .7-.2 1.8.2 2.4l1.1-.2c2.5-.8 4.6-1.7 7.2-2.3-.6 1.3-2 4-1.8 5.4l.3.1h.4c1-2 1.3-4 2.9-5.8 1.1-.2 2.3-.3 3.4-.2-.7 1.1-2.6 4-2.3 5.3l.3.4c.3-.2.5-.4.6-.7 1-1.7 1.5-3.5 2.7-5 1.2 0 2.4 0 3.7.3-.8.9-3.9 5.1-3.7 6.3 0 .1 0 .2.2.2.4 0 .7-.4 1-.8 1.3-1.7 2.1-4 3.9-5.4l.1-.1 2.5.7c-.8 1-3.7 4.3-3.8 5.4l.2.4h.5L101 23c.6.2 1.2.3 1.7.7v.7c.4.1.6 0 .9-.2 1.8-1 3.4-2.5 5-3.7a39.4 39.4 0 0 1 16.3-7.2c.4 6.4-3.5 18.1-6.6 23.8-.3.5-1.9 3.1-1.3 3.5l.5.3.4-.4c.6 1.6.4 8.3.4 10.5-5-1-9.3-1.3-14.4-.7-1.3-1-2-.7-3-2.3v-1.3c-1 1.1-2.2 2-3.7 2.2-1.8.4-4 0-5.5-1-1.4-1-2-2.3-2.3-3.9-2.2.4-5.1 1-7.3.3-1.3-.5-2-1.3-2.7-2.5a11 11 0 0 0 .9-5.6c-.3-1.7-1.1-3.4-2.6-4.4-1-.8-2.3-1-3.5-.7-2.4.5-4 2.2-5.3 4.1v-.1c0-1.1 2-2.5 2.8-3.1a2 2 0 0 0-.6-.4l-.5-.6c-.5.6-2.4 3.2-2.8 3.5 1.6-3.1 4.7-5.2 6.5-8 .8-8.3 1.9-16.4 5.6-24.1Z"/><path fill="#020202" d="m91.5 29.8.6.3c0 .6-1.1 2.6-1.4 3.3l-.4-.1c-.2-.1-.2-.2-.2-.4-.2-.8 1-2.4 1.4-3ZM87.3 28.8c.3 0 .4 0 .6.3-.2.6-1.3 3.2-1.7 3.7h-.1c-.3 0-.3-.1-.4-.4-.1-1.2.9-2.7 1.6-3.6ZM121 17.7l1 .1.2.6a38.6 38.6 0 0 1-6.4 16.2c-.4.5-1 1-1.6 1-1.2.1-2.5-2.2-3.4-3-1.1-.9-3.8-2.4-4.3-3.6-.2-.7 0-1.4.3-2a27.7 27.7 0 0 1 14.2-9.3Z"/><path fill="#F77962" d="m120.6 19.2.2.3-.3 1.7c-.9 4-2.6 8.2-4.9 11.7-.3.5-.8 1.4-1.6 1.6-.5-.4-1-1.3-1.5-1.8l-1.4-1.4c-.7-.7-3.2-2-3.4-2.7-.2-.3 0-.8.1-1 1.1-2.2 5.7-5.4 8-6.5 1.5-.8 3.1-1.3 4.8-1.9Z"/><path fill="#020202" d="M89.5 44.1c-.1-2.7.7-5.6 2.6-7.7a7.7 7.7 0 0 1 5.2-2.5c1.4-.1 2.8.5 3.8 1.5a7.9 7.9 0 0 1 2.2 5.6c0 2.1-1 4.2-2.3 5.8-1 1.1-2.2 2-3.7 2.2-1.8.4-4 0-5.5-1-1.4-1-2-2.3-2.3-3.9Z"/><path fill="#fff" d="M95.3 36h.2c.2.4.4.7.3 1l-.2.1-.4-.1-1-.3 1.1-.7ZM93.4 37.7h.3a2 2 0 0 1 1.5.6c.2.2.4.6.4 1s-.4.6-.7.9h-.4l-.6-.7-1.1-.7c-.2-.2-.1-.2-.1-.4l.7-.7Z"/><path fill="#fff" d="m97 35 .8.1c1 .1 2 .8 2.7 1.6a7 7 0 0 1 .8 7.4 6.6 6.6 0 0 1-1.4 2 7.3 7.3 0 0 1-.6.5 5.6 5.6 0 0 1-4.2 1.3l-1.4-.4c-1.5-.4-2.3-1.4-3-2.8.4.2.7.4 1 .4a3 3 0 0 0 2.4-.7c1.9-1.6 3.2-4.8 3-7.2 0-.6-.4-1.6-.4-2l.4-.1Z"/><path fill="#DBCAAC" d="M80.1 77.6c1.8.2 3.5.5 5.3.5a47 47 0 0 0 30-8.3l2-1.7c1.6 1.9 3.2 3.8 4.6 6 9.7 15.1 13.5 38 13.7 56v5.6c0 1.4.2 2.7 0 4v.5l-.7.1c0 .2-.1.2 0 .4l.5.3v.4c-.7.4-2.1-.6-2.4.3.5.6 2 .3 2.3 1 0 .2 0 .3-.3.3-.7.2-1.9-.2-2.6-.3v.3c.5.3 1.3.6 1.5 1.3l-.2.4c-.5 0-1-.4-1.5-.2v.4l1 1v.2c-.8 0-1.8-.4-2.4-.2l-.1.2c.4.7 1.4.7 1.6 1.6.1.4-2.4 13.7-2.7 15.7-.8-.5-1.4-1.4-2-2a12 12 0 0 0-2.2-1.6c-1.4-1.5-3.4-1.3-5.2-1.4v-8.2c.5.2 2.2.8 2.7.5.3 0 .4-.2.5-.4l-.1-.6c-.5-.5-2.2-.8-3-1-5.9-2.2-9-6.8-9.7-13-.4-4.4.5-9.2 3.4-12.7 1.7-2 4-3.5 6.6-3.7.6 0 2 .2 2.4-.2v-.5c-.2-.4-.5-.5-.9-.6a9 9 0 0 0-6.7 1.8 16.4 16.4 0 0 0-6.2 10.7c-.7 4.8 0 10.4 3 14.4l1.8 2c0 4-.2 8-.3 11.9-1.2.2-2.4.5-3.5 1-1-1-2.7-1.3-3.9-2 .4-.2.6-.4.7-.9-.1-.3-.3-.4-.6-.5-.7-.3-1.5-.4-2.2-.5l-.1-9.9c1 .5 3.9 2 4.9 1.6.1 0 .2 0 .3-.2v-.6c-.5-.7-2.2-1.1-3-1.5a17.4 17.4 0 0 1-6.5-6 44 44 0 0 1-5.2-12.6c-2-6.8-3.5-14-6.5-20.5 1.2 0 2.4.2 3.5.4 3.2.4 10.2 1.7 13 .8a7.6 7.6 0 0 0 3.2-2 36 36 0 0 0 6-8.7c.1-.5.6-1.1.6-1.7 0-.2-.1-.3-.3-.5-.2 0-.2-.1-.4 0-.7.4-1.2 1.7-1.6 2.4-1.3 2.4-4.9 8.2-7.5 9-1.4.5-3.2.3-4.6.2l-14-2c-2.1-.3-4.4-.5-6.5-1-1-.4-2.3-1-3-1.8-.7-.8-.7-2-.5-3a6 6 0 0 1 .5-1.8 6.7 6.7 0 0 1 2-2.5c2.7 0 5.5.4 8.2.7 2 .2 4.1.4 6.2.8l4.2.8c.3 0 .4 0 .7-.2.3-.5 0-1.3.3-2 1.4-3 3.3-6 5.3-8.6.5-.7 2.2-2.3 2.1-3-.1-.3-.2-.3-.4-.4a42 42 0 0 0-9 12.3c-4-.2-8-1-12-1.4l-1.3-2.2c.3-1.6.8-3.2 1-4.8.6-.2 1.2-.3 1.5-.8.3-.5.3-3.6 0-4.1 0-.5-.4-.7-.8-.8-1.5-.6-3.3-.7-4.9-.8l.4-1.9Z"/></g><defs><clipPath id="a"><path fill="#fff" d="M1 .7h159v183H1z"/></clipPath></defs></svg>