<svg width="75" height="18" viewBox="0 0 75 18" fill="none" xmlns="http://www.w3.org/2000/svg">
<path d="M2.08395 14.152C1.67862 14.152 1.38729 14.0253 1.20995 13.772C1.03262 13.5187 0.981953 13.164 1.05795 12.708L2.80595 1.669C2.86929 1.26367 3.01495 0.959666 3.24295 0.756999C3.47095 0.554332 3.78762 0.452999 4.19295 0.452999C4.59829 0.452999 4.88329 0.579666 5.04795 0.833C5.22529 1.08633 5.27595 1.441 5.19995 1.897L4.51595 6.191H11.413L12.135 1.669C12.1983 1.26367 12.3376 0.959666 12.553 0.756999C12.781 0.554332 13.0976 0.452999 13.503 0.452999C13.9083 0.452999 14.1996 0.579666 14.377 0.833C14.5543 1.07367 14.605 1.42833 14.529 1.897L12.781 12.917C12.7176 13.3223 12.572 13.6327 12.344 13.848C12.1286 14.0507 11.8183 14.152 11.413 14.152C10.995 14.152 10.6973 14.0253 10.52 13.772C10.3553 13.5187 10.311 13.164 10.387 12.708L11.09 8.224H4.19295L3.45195 12.917C3.38862 13.3223 3.24295 13.6327 3.01495 13.848C2.79962 14.0507 2.48929 14.152 2.08395 14.152ZM16.6783 17.572C16.3743 17.572 16.1399 17.5023 15.9753 17.363C15.8106 17.2237 15.7219 17.04 15.7093 16.812C15.6966 16.5967 15.7663 16.3623 15.9183 16.109L17.7233 13.145L17.5713 14.133L15.3863 6.191C15.2976 5.87433 15.2849 5.59567 15.3483 5.355C15.4116 5.10167 15.5383 4.90533 15.7283 4.766C15.9309 4.62667 16.1779 4.557 16.4693 4.557C16.7986 4.557 17.0456 4.63933 17.2103 4.804C17.3876 4.956 17.5206 5.23467 17.6093 5.64L19.1293 11.929H18.5403L22.2643 5.412C22.4416 5.108 22.6253 4.89267 22.8153 4.766C23.0053 4.62667 23.2523 4.557 23.5563 4.557C23.8603 4.557 24.0946 4.62667 24.2593 4.766C24.4366 4.90533 24.5316 5.089 24.5443 5.317C24.5696 5.53233 24.5063 5.773 24.3543 6.039L17.9703 16.717C17.7929 17.021 17.6093 17.2363 17.4193 17.363C17.2293 17.5023 16.9823 17.572 16.6783 17.572ZM24.9632 17.572C24.5959 17.572 24.3236 17.4517 24.1462 17.211C23.9689 16.9703 23.9119 16.6347 23.9752 16.204L25.6282 5.773C25.6916 5.36767 25.8372 5.06367 26.0652 4.861C26.2932 4.65833 26.6036 4.557 26.9962 4.557C27.3636 4.557 27.6232 4.67733 27.7752 4.918C27.9399 5.15867 27.9906 5.50067 27.9272 5.944L27.7562 7.008L27.7182 6.438C28.0729 5.81733 28.5289 5.34233 29.0862 5.013C29.6562 4.68367 30.3022 4.519 31.0242 4.519C31.7336 4.519 32.3479 4.68367 32.8672 5.013C33.3992 5.32967 33.8109 5.792 34.1022 6.4C34.3936 6.99533 34.5392 7.70467 34.5392 8.528C34.5392 9.57933 34.3492 10.5357 33.9692 11.397C33.6019 12.2457 33.0699 12.9233 32.3732 13.43C31.6766 13.9367 30.8406 14.19 29.8652 14.19C29.1559 14.19 28.5226 14.019 27.9652 13.677C27.4206 13.335 27.0406 12.8283 26.8252 12.157H26.9962L26.3122 16.451C26.2489 16.8437 26.1096 17.1287 25.8942 17.306C25.6789 17.4833 25.3686 17.572 24.9632 17.572ZM29.4282 12.385C30.0109 12.385 30.4986 12.2203 30.8912 11.891C31.2966 11.5617 31.6069 11.112 31.8222 10.542C32.0376 9.972 32.1452 9.33867 32.1452 8.642C32.1452 7.89467 31.9616 7.32467 31.5942 6.932C31.2396 6.52667 30.7456 6.324 30.1122 6.324C29.5422 6.324 29.0546 6.48867 28.6492 6.818C28.2439 7.14733 27.9336 7.597 27.7182 8.167C27.5029 8.72433 27.3952 9.35767 27.3952 10.067C27.3952 10.8143 27.5726 11.3907 27.9272 11.796C28.2946 12.1887 28.7949 12.385 29.4282 12.385ZM38.5348 14.19C37.8762 14.19 37.3125 14.0507 36.8438 13.772C36.3752 13.4933 36.0395 13.0627 35.8368 12.48C35.6468 11.8973 35.6215 11.1563 35.7608 10.257L36.5018 5.659C36.5652 5.279 36.7045 5.00033 36.9198 4.823C37.1352 4.64567 37.4265 4.557 37.7938 4.557C38.1865 4.557 38.4715 4.671 38.6488 4.899C38.8388 5.11433 38.9022 5.43733 38.8388 5.868L38.1548 10.238C38.0535 10.9347 38.1042 11.454 38.3068 11.796C38.5222 12.138 38.9148 12.309 39.4848 12.309C40.1942 12.309 40.7705 12.0747 41.2138 11.606C41.6572 11.1373 41.9422 10.4977 42.0688 9.687L42.6958 5.659C42.7592 5.279 42.8985 5.00033 43.1138 4.823C43.3292 4.64567 43.6205 4.557 43.9878 4.557C44.3932 4.557 44.6845 4.671 44.8618 4.899C45.0392 5.127 45.0962 5.45633 45.0328 5.887L43.9118 13.031C43.7978 13.7783 43.3672 14.152 42.6198 14.152C42.2525 14.152 41.9802 14.0507 41.8028 13.848C41.6255 13.6453 41.5622 13.335 41.6128 12.917L41.8028 11.549L41.9358 12.062C41.6065 12.7587 41.1442 13.2907 40.5488 13.658C39.9662 14.0127 39.2948 14.19 38.5348 14.19ZM46.8908 14.152C46.5108 14.152 46.2321 14.038 46.0548 13.81C45.8901 13.5693 45.8394 13.2337 45.9028 12.803L47.0238 5.697C47.0871 5.317 47.2328 5.032 47.4608 4.842C47.6888 4.652 47.9864 4.557 48.3538 4.557C48.7211 4.557 48.9871 4.671 49.1518 4.899C49.3291 5.127 49.3861 5.45633 49.3228 5.887L49.1518 6.951H48.9618C49.2151 6.20367 49.6331 5.62733 50.2158 5.222C50.7984 4.804 51.4888 4.56967 52.2868 4.519C52.6414 4.49367 52.8758 4.54433 52.9898 4.671C53.1164 4.79767 53.1798 5.00667 53.1798 5.298C53.1798 5.716 53.0848 6.02633 52.8948 6.229C52.7048 6.419 52.4071 6.533 52.0018 6.571L51.4508 6.628C50.6021 6.71667 49.9941 6.97633 49.6268 7.407C49.2594 7.825 49.0124 8.414 48.8858 9.174L48.2778 13.012C48.2271 13.392 48.0814 13.677 47.8408 13.867C47.6128 14.057 47.2961 14.152 46.8908 14.152ZM53.8312 14.152C53.4512 14.152 53.1725 14.038 52.9952 13.81C52.8305 13.5693 52.7798 13.2337 52.8432 12.803L53.9642 5.697C54.0275 5.317 54.1732 5.032 54.4012 4.842C54.6292 4.652 54.9268 4.557 55.2942 4.557C55.6615 4.557 55.9275 4.671 56.0922 4.899C56.2695 5.127 56.3265 5.45633 56.2632 5.887L56.0922 6.951H55.9022C56.1555 6.20367 56.5735 5.62733 57.1562 5.222C57.7388 4.804 58.4292 4.56967 59.2272 4.519C59.5818 4.49367 59.8162 4.54433 59.9302 4.671C60.0568 4.79767 60.1202 5.00667 60.1202 5.298C60.1202 5.716 60.0252 6.02633 59.8352 6.229C59.6452 6.419 59.3475 6.533 58.9422 6.571L58.3912 6.628C57.5425 6.71667 56.9345 6.97633 56.5672 7.407C56.1998 7.825 55.9528 8.414 55.8262 9.174L55.2182 13.012C55.1675 13.392 55.0218 13.677 54.7812 13.867C54.5532 14.057 54.2365 14.152 53.8312 14.152ZM61.1326 14.152C60.7146 14.152 60.4106 14.0317 60.2206 13.791C60.0306 13.5377 59.9673 13.1957 60.0306 12.765L61.7596 1.783C61.8229 1.39033 61.9686 1.099 62.1966 0.909C62.4373 0.706333 62.7539 0.604999 63.1466 0.604999H69.6446C69.9739 0.604999 70.2273 0.674666 70.4046 0.814C70.5819 0.940666 70.6706 1.13067 70.6706 1.384C70.6706 1.73867 70.5693 2.02367 70.3666 2.239C70.1766 2.44167 69.8979 2.543 69.5306 2.543H64.0966L63.4886 6.324H68.3336C68.6629 6.324 68.9163 6.39367 69.0936 6.533C69.2709 6.65967 69.3596 6.84967 69.3596 7.103C69.3596 7.45767 69.2583 7.74267 69.0556 7.958C68.8656 8.16067 68.5869 8.262 68.2196 8.262H63.1846L62.4436 12.955C62.3169 13.753 61.8799 14.152 61.1326 14.152ZM71.6823 14.152C71.315 14.152 71.0426 14.0317 70.8653 13.791C70.7006 13.5377 70.65 13.1957 70.7133 12.765L71.8343 5.735C71.8976 5.34233 72.0433 5.051 72.2713 4.861C72.4993 4.65833 72.8096 4.557 73.2023 4.557C73.5696 4.557 73.8356 4.67733 74.0003 4.918C74.1776 5.15867 74.2346 5.50067 74.1713 5.944L73.0503 12.974C72.987 13.3667 72.8413 13.6643 72.6133 13.867C72.398 14.057 72.0876 14.152 71.6823 14.152ZM73.5063 2.809C73.0756 2.809 72.7526 2.70767 72.5373 2.505C72.3346 2.28967 72.2523 1.992 72.2903 1.612C72.341 1.18133 72.5056 0.858333 72.7843 0.643C73.063 0.415 73.4366 0.301 73.9053 0.301C74.336 0.301 74.659 0.408666 74.8743 0.623999C75.0896 0.826666 75.172 1.118 75.1213 1.498C75.0706 1.92867 74.906 2.258 74.6273 2.486C74.3613 2.70133 73.9876 2.809 73.5063 2.809Z" fill="#A1FCE7"/>
</svg>
