<svg width="97" height="82" viewBox="0 0 97 82" fill="none" xmlns="http://www.w3.org/2000/svg">
<path d="M59.1384 36.5379C59.3533 38.0438 59.4158 39.4876 59.3453 40.7951L65.5469 41.6439C66.3433 40.4127 67.0897 39.1111 67.7351 37.7137L59.1384 36.5371V36.5379Z" fill="#EE95C2"/>
<path d="M68.5458 38.3906C67.9011 39.7543 67.1642 41.0267 66.3831 42.2317L67.3436 43.6463C68.1712 42.3418 68.898 41.0709 69.5223 39.8367L68.5451 38.3914L68.5458 38.3906Z" fill="#EE95C2"/>
<path d="M20.7891 66.3988C20.6527 65.7177 20.3042 65.1122 19.7771 64.6227C19.6333 64.726 19.4896 64.8285 19.3466 64.9303C19.2006 65.0343 19.0554 65.1384 18.911 65.2417C18.8747 65.2671 18.8384 65.2941 18.8021 65.3195C18.7142 65.3824 18.614 65.4123 18.5153 65.4123C18.3548 65.4123 18.1973 65.3337 18.0993 65.1878C18.0085 65.0523 17.9904 64.8884 18.0332 64.7424C18.0651 64.6332 18.129 64.5336 18.2271 64.4633C18.2859 64.4213 18.3461 64.3779 18.4049 64.336C18.5632 64.223 18.7222 64.1092 18.8826 63.9947C18.7948 63.9483 18.7055 63.9034 18.6133 63.8615C17.4894 63.3518 16.1151 63.2313 14.7444 63.5232C11.852 64.1384 9.85762 66.4302 10.2983 68.6314C10.3782 69.0289 10.535 69.3941 10.7506 69.7264C10.7855 69.7025 10.8196 69.6793 10.8537 69.6546C10.9793 69.567 11.1289 69.5483 11.2654 69.5857C11.3793 69.6172 11.4839 69.6875 11.555 69.7961C11.5971 69.8604 11.6218 69.93 11.6334 70.0019C11.6632 70.189 11.5921 70.3836 11.4374 70.5026C12.2941 71.2331 13.532 71.6605 14.9034 71.6605C15.3717 71.6605 15.8552 71.6111 16.3438 71.507C17.7145 71.2151 18.9298 70.5438 19.7662 69.6172C20.6461 68.6419 21.0098 67.4983 20.7891 66.3988ZM16.6661 65.5755C16.8963 65.4123 17.2106 65.4722 17.3689 65.7087C17.5272 65.946 17.4691 66.27 17.2397 66.4332C16.0018 67.3119 14.7516 68.1928 13.5247 69.0513C13.4376 69.112 13.3388 69.1412 13.2415 69.1412C13.0796 69.1412 12.9207 69.0611 12.8234 68.9129C12.6666 68.6749 12.7268 68.3508 12.9577 68.1891C14.1832 67.3314 15.4312 66.4519 16.6669 65.5747L16.6661 65.5755Z" fill="white"/>
<path d="M67.7357 37.7155C68.8262 35.3541 69.6241 32.721 69.8658 29.6928C69.8891 29.4061 70.1308 29.1935 70.4111 29.2167C70.6891 29.2407 70.896 29.4922 70.8728 29.7788C70.6107 33.0601 69.7344 35.8811 68.5467 38.3929L69.5239 39.8382C71.0456 36.8301 71.9655 34.0338 72.2602 31.4838C72.7619 27.1457 71.2721 25.086 70.6078 24.4019C68.1575 21.8758 63.9772 21.9993 57.4518 24.7911C56.6517 25.1331 55.811 25.5178 54.926 25.946C57.2979 29.1389 58.6345 33.004 59.139 36.5397L67.7357 37.7163V37.7155ZM59.8426 31.7533C62.9949 29.1868 64.8861 27.5619 67.6254 25.0688C67.8345 24.8786 68.1539 24.8988 68.3383 25.1144C68.5227 25.33 68.5031 25.6593 68.294 25.8494C65.5729 28.3261 63.5989 30.0228 60.4684 32.5706C60.3754 32.6462 60.2651 32.6829 60.1555 32.6829C60.0059 32.6829 59.8585 32.6148 59.7583 32.4845C59.5855 32.2585 59.6226 31.9314 59.8418 31.7533H59.8426Z" fill="white"/>
<path d="M66.384 42.2324C65.258 43.9696 64.0405 45.5676 62.8745 47.0959C62.6386 47.4051 62.404 47.7127 62.1725 48.0188C62.073 48.1505 61.9242 48.2194 61.7739 48.2194C61.665 48.2194 61.5553 48.1835 61.4631 48.1094C61.2432 47.932 61.204 47.6049 61.376 47.3781C61.6083 47.0712 61.8436 46.7629 62.0802 46.453C63.2324 44.9419 64.4376 43.3619 65.5477 41.6456L59.3461 40.7969C59.3243 41.1958 59.2917 41.5828 59.2459 41.954C58.488 48.0547 55.8032 54.4159 53.8241 54.7969C53.4233 54.874 53.0502 54.7842 52.7133 54.5297C51.8871 53.9055 51.4936 52.3853 51.3339 51.5523C49.9145 52.7266 47.0105 54.359 44.4165 55.8155C42.5586 56.8596 40.8031 57.8454 40.178 58.3536C38.5162 59.7046 33.2599 63.7844 31.842 64.7529C31.7432 64.8203 31.6314 64.8974 31.5095 64.9827C29.7474 66.2035 27.801 67.4684 26.5189 67.4684C26.3446 67.4684 26.1835 67.4452 26.0361 67.3958C25.6978 67.2812 25.4516 67.029 25.3246 66.6668C24.963 65.6339 25.7413 63.9985 26.2009 63.1699C24.7569 63.1632 20.8226 62.9372 17.3733 60.8721C16.5319 61.3976 14.9216 62.2995 13.7709 62.2995C13.6221 62.2995 13.4812 62.2845 13.3513 62.2516C13.0151 62.167 12.7545 61.9664 12.5984 61.6723C11.9239 60.4014 13.2438 58.8648 14.1201 58.0392C13.5763 57.3476 13.1364 56.6209 12.7842 55.8762C10.7797 57.7705 8.84564 59.6881 7.16493 61.5039C5.21342 63.6115 3.62854 65.7903 2.58091 67.8044C0.90165 71.0325 0.571314 73.8243 1.59862 76.1019C2.42118 77.9259 4.00679 79.2956 6.18264 80.0627C11.6945 82.0073 20.5206 79.9999 31.0339 74.4111C53.2425 62.6048 63.7072 48.8997 65.5789 46.2719C66.2127 45.382 66.7979 44.5085 67.3445 43.6478L66.384 42.2332V42.2324ZM12.798 78.866C12.1548 78.9303 11.5312 78.9625 10.9242 78.9625C9.87658 78.9625 8.8754 78.8667 7.89674 78.6751C3.2031 77.753 2.3435 74.3086 2.30938 74.1626C2.24404 73.8827 2.4103 73.6013 2.68183 73.5339C2.95335 73.4658 3.22488 73.6372 3.29095 73.9156C3.32289 74.0436 4.0656 76.8623 8.08624 77.6519C9.55568 77.9401 11.0222 77.997 12.7015 77.8301C12.9774 77.8031 13.2264 78.012 13.2532 78.2986C13.2801 78.5853 13.0768 78.8398 12.7988 78.8675L12.798 78.866ZM19.5448 77.3331C18.7375 77.5988 17.9469 77.8346 17.1962 78.0337C17.1541 78.0449 17.1113 78.0501 17.0699 78.0501C16.8448 78.0501 16.6401 77.8944 16.5813 77.6594C16.5116 77.381 16.6742 77.0966 16.9443 77.0247C17.6768 76.8301 18.4486 76.5996 19.2385 76.3399C19.5042 76.2523 19.7888 76.4035 19.873 76.6782C19.9579 76.9521 19.8106 77.2455 19.5448 77.3324V77.3331ZM19.7663 69.6172C18.9299 70.5445 17.7146 71.2152 16.3439 71.5071C15.8553 71.6111 15.3717 71.6605 14.9035 71.6605C13.532 71.6605 12.2942 71.2324 11.4375 70.5026C11.431 70.5079 11.4251 70.5139 11.4186 70.5191C9.88165 71.5849 8.36575 72.6275 6.91155 73.6162C6.82589 73.6746 6.72933 73.7023 6.6335 73.7023C6.46942 73.7023 6.30824 73.62 6.21095 73.468C6.05704 73.2278 6.12165 72.9044 6.3547 72.7465C7.77332 71.7817 9.25221 70.7661 10.7507 69.7265C10.5358 69.3942 10.3782 69.0289 10.2984 68.6315C9.8577 66.4302 11.852 64.1384 14.7445 63.5232C16.1152 63.2313 17.4895 63.3518 18.6134 63.8615C18.7063 63.9034 18.7956 63.9483 18.8827 63.9947C19.1811 63.7807 19.4824 63.5659 19.7866 63.3473C20.0153 63.1827 20.3304 63.241 20.4901 63.4768C20.6498 63.7126 20.5932 64.0374 20.3645 64.2021C20.167 64.3435 19.9725 64.4835 19.7772 64.6234C20.3042 65.1129 20.6527 65.7177 20.7892 66.3996C21.0092 67.499 20.6462 68.6427 19.7663 69.6179V69.6172ZM40.7276 66.6428C37.0925 69.0656 33.339 71.2399 29.5696 73.105C27.573 74.093 25.6665 74.9657 23.9031 75.6992C23.8414 75.7247 23.7775 75.7374 23.7143 75.7374C23.5139 75.7374 23.3252 75.6139 23.2453 75.411C23.1408 75.1446 23.2664 74.8407 23.5248 74.7329C25.2687 74.0077 27.1549 73.144 29.1318 72.1657C32.8628 70.3193 36.5792 68.1667 40.178 65.7678C40.4125 65.6122 40.7254 65.681 40.8764 65.9228C41.0282 66.1645 40.9607 66.4871 40.7262 66.6428H40.7276ZM49.8586 59.8295C47.6995 61.6266 45.4379 63.363 43.1365 64.9902C43.0494 65.0516 42.9499 65.0815 42.8512 65.0815C42.69 65.0815 42.5317 65.0022 42.4337 64.8555C42.2762 64.6182 42.3343 64.2941 42.5644 64.131C44.8441 62.5195 47.0845 60.7995 49.2234 59.019C49.4404 58.8386 49.7584 58.8738 49.9341 59.0968C50.1091 59.3206 50.0757 59.6484 49.8586 59.8295Z" fill="url(#paint0_linear_5_3675)"/>
<path d="M27.6109 41.5713C27.693 41.5182 27.7953 41.4553 27.9108 41.3872C28.7399 40.8999 30.3371 40.1245 31.3825 40.2623C31.4501 40.2712 31.5161 40.2817 31.5786 40.2982C33.3384 40.7705 33.652 44.5412 33.4292 46.455C33.3958 46.741 33.5932 46.9999 33.8706 47.0344C33.8909 47.0366 33.9112 47.0381 33.9316 47.0381C34.1835 47.0381 34.402 46.8435 34.4325 46.5793C34.6104 45.0547 34.5697 40.7952 32.4425 39.5475C32.2552 39.4375 32.0541 39.3484 31.8334 39.2893C31.6025 39.2271 31.3579 39.2017 31.1059 39.2032C29.3904 39.2152 27.3321 40.5197 27.0722 40.6896C26.8363 40.8431 26.7659 41.1649 26.9147 41.4082C27.0635 41.6514 27.3757 41.724 27.6117 41.5706L27.6109 41.5713Z" fill="white"/>
<path d="M14.2499 53.1083C14.3937 53.4466 14.5694 53.755 14.7734 54.0222C15.4094 54.859 16.2951 55.3103 17.1627 55.1277C18.5501 54.835 19.3639 53.0312 18.9806 51.0987C18.9334 50.8607 18.8702 50.6324 18.7933 50.4146C18.6699 50.0651 18.5094 49.7447 18.3228 49.4596C17.681 48.4806 16.7176 47.9297 15.7753 48.1281C14.3879 48.4207 13.574 50.2245 13.9573 52.157C14.0241 52.4946 14.125 52.8127 14.2506 53.1083H14.2499ZM16.0824 49.6781C16.5586 49.5778 17.0443 49.8211 17.3972 50.2746C17.6019 50.5373 17.7609 50.8704 17.848 51.2484C17.8546 51.2768 17.8625 51.3038 17.8676 51.333C18.0811 52.4093 17.628 53.4144 16.8556 53.5769C16.4512 53.6622 16.0395 53.4975 15.7085 53.1689C15.4791 52.9414 15.2881 52.6345 15.1654 52.2738C15.1269 52.1615 15.0943 52.044 15.0703 51.922C14.8569 50.8457 15.3099 49.8405 16.0824 49.6781Z" fill="white"/>
<path d="M26.3067 57.8427C27.6941 57.5501 28.508 55.7463 28.1246 53.8138C27.7413 51.8805 26.306 50.5505 24.9193 50.8431C23.5319 51.1357 22.718 52.9396 23.1014 54.8721C23.4847 56.8054 24.92 58.1354 26.3067 57.8427ZM25.2264 52.3932C25.9989 52.2308 26.7982 52.971 27.0117 54.048C27.2251 55.1243 26.7721 56.1295 25.9996 56.2919C25.2271 56.4551 24.4278 55.7141 24.2143 54.6371C24.0009 53.5608 24.4539 52.5556 25.2264 52.3932Z" fill="white"/>
<path d="M73.2635 31.6058C73.8174 26.8149 72.0903 24.4557 71.3222 23.6639C68.5459 20.8017 64.0156 20.8541 57.0641 23.827C56.1827 24.2043 55.2519 24.6324 54.2697 25.1122C53.1923 23.8203 51.9268 22.6662 50.4588 21.7209C52.4067 18.8483 53.6395 14.4256 52.3508 10.9056C51.5849 8.81362 50.1437 8.42441 49.3524 8.37801C48.2097 8.31289 47.0328 8.8952 46.6146 9.73647C46.0636 10.8434 46.2327 11.9983 46.4121 13.2198C46.5006 13.8231 46.5921 14.4465 46.5965 15.0835C46.6139 17.3184 46.1601 18.9156 45.8022 19.8272C42.3544 19.2607 38.3947 20.2741 34.1774 22.8308C29.544 25.6398 24.6231 30.3132 20.3149 35.9955C19.9084 36.1378 18.2327 36.7425 17.0748 37.4573C16.4961 37.1302 14.4996 36.131 12.3267 36.5307C11.6253 36.6594 11.181 36.9221 10.9269 37.357C10.3367 38.3689 10.8964 40.1608 12.0116 43.7309L12.1982 44.3297C11.9738 45.1006 10.6307 50.149 12.3608 54.8621C10.2474 56.8515 8.20148 58.8731 6.43292 60.7831C3.20363 64.2717 -1.83778 70.957 0.681472 76.5398C1.62311 78.6273 3.41199 80.1856 5.85501 81.047C7.1582 81.5066 8.83601 81.8382 10.9647 81.8382C15.508 81.8382 22.106 80.3285 31.4969 75.3355C53.9059 63.4222 64.4977 49.548 66.3933 46.8872C70.435 41.2153 72.7466 36.0734 73.2628 31.6051L73.2635 31.6058ZM13.9573 52.1571C13.5739 50.2238 14.3878 48.42 15.7752 48.1281C16.7176 47.9298 17.681 48.4807 18.3228 49.4596C18.5094 49.7448 18.6698 50.0644 18.7932 50.4147C18.8702 50.6325 18.9333 50.8608 18.9805 51.0988C19.3639 53.0321 18.55 54.8359 17.1626 55.1278C16.295 55.3104 15.4093 54.8591 14.7733 54.0223C14.57 53.7543 14.3936 53.446 14.2499 53.1084C14.1243 52.8128 14.0241 52.4947 13.9566 52.1571H13.9573ZM27.6113 41.5701C27.3754 41.7235 27.0632 41.6509 26.9144 41.4077C26.7655 41.1644 26.8359 40.8433 27.0719 40.6892C27.3318 40.52 29.3901 39.2154 31.1056 39.2027C31.3575 39.2012 31.6029 39.2267 31.8331 39.2888C32.0538 39.3479 32.2556 39.437 32.4422 39.547C34.5694 40.7947 34.6101 45.0542 34.4322 46.5788C34.4017 46.843 34.1832 47.0376 33.9312 47.0376C33.9109 47.0376 33.8906 47.0361 33.8703 47.0339C33.5929 46.9994 33.3954 46.7405 33.4288 46.4546C33.6517 44.5407 33.3381 40.7692 31.5782 40.2977C31.5158 40.2812 31.4497 40.27 31.3822 40.2618C30.336 40.1241 28.7388 40.9002 27.9104 41.3867C27.795 41.4548 27.6926 41.5177 27.6106 41.5708L27.6113 41.5701ZM26.3067 57.8424C24.9193 58.1351 23.4847 56.8051 23.1014 54.8718C22.718 52.9385 23.5319 51.1347 24.9193 50.8428C26.3067 50.5502 27.7413 51.8809 28.1246 53.8135C28.5079 55.7467 27.6941 57.5505 26.3067 57.8424ZM31.0345 74.4097C20.5211 79.9992 11.695 82.0058 6.18317 80.0613C4.0066 79.2934 2.42172 77.9237 1.59915 76.1004C0.571846 73.8229 0.902182 71.0311 2.58144 67.803C3.62907 65.7889 5.21468 63.6101 7.16546 61.5024C8.84617 59.6866 10.7803 57.7698 12.7848 55.8747C13.1369 56.6195 13.5776 57.3462 14.1206 58.0378C13.2443 58.8633 11.9237 60.3999 12.5989 61.6708C12.755 61.965 13.0156 62.1648 13.3518 62.2501C13.4825 62.2831 13.6233 62.298 13.7714 62.298C14.9221 62.298 16.5324 61.3961 17.3739 60.8707C20.8239 62.935 24.7574 63.1618 26.2014 63.1685C25.7419 63.997 24.9636 65.6324 25.3251 66.6653C25.4522 67.0276 25.6976 67.2798 26.0366 67.3943C26.184 67.4437 26.3452 67.4669 26.5194 67.4669C27.8015 67.4669 29.748 66.202 31.51 64.9813C31.632 64.8967 31.7438 64.8196 31.8425 64.7515C33.2604 63.7822 38.5174 59.7024 40.1785 58.3521C40.8036 57.8439 42.5584 56.8582 44.417 55.8141C47.0103 54.3568 49.915 52.7252 51.3344 51.5509C51.4941 52.3839 51.8876 53.904 52.7138 54.5282C53.0507 54.7827 53.4238 54.8725 53.8246 54.7954C55.803 54.4145 58.4885 48.0533 59.2465 41.9526C59.2922 41.5813 59.3256 41.1944 59.3466 40.7954C59.4171 39.4879 59.3539 38.0433 59.1397 36.5382C58.6359 33.0024 57.2986 29.1374 54.9267 25.9444C55.8117 25.5163 56.6524 25.1316 57.4525 24.7896C63.9778 21.9978 68.1582 21.8743 70.6085 24.4004C71.2721 25.0845 72.7618 27.1442 72.2609 31.4823C71.9661 34.0331 71.0463 36.8286 69.5246 39.8367C68.9002 41.0709 68.1734 42.3418 67.3458 43.6463C66.7998 44.5071 66.2147 45.3805 65.5802 46.2705C63.7078 48.8976 53.2431 62.6027 31.0352 74.4097H31.0345Z" fill="#288578"/>
<path d="M68.3384 25.1135C68.154 24.8979 67.8345 24.8777 67.6254 25.0678C64.8862 27.5617 62.995 29.1858 59.8426 31.7523C59.6234 31.9305 59.5863 32.2583 59.7591 32.4836C59.8586 32.6138 60.0067 32.6819 60.1562 32.6819C60.2659 32.6819 60.3762 32.6452 60.4692 32.5696C63.599 30.0211 65.5737 28.3251 68.2948 25.8485C68.5039 25.6583 68.5235 25.329 68.3391 25.1135H68.3384Z" fill="#231F20"/>
<path d="M70.8727 29.7787C70.896 29.492 70.6891 29.2405 70.411 29.2166C70.1308 29.1934 69.889 29.4059 69.8658 29.6926C69.624 32.7209 68.8261 35.354 67.7357 37.7154C67.091 39.112 66.3439 40.4143 65.5475 41.6456C64.4374 43.3625 63.2322 44.9425 62.08 46.4529C61.8434 46.7635 61.6081 47.0712 61.3758 47.378C61.2037 47.6048 61.2429 47.9319 61.4629 48.1093C61.5551 48.1834 61.6648 48.2193 61.7737 48.2193C61.9239 48.2193 62.0728 48.1504 62.1722 48.0187C62.4038 47.7126 62.6384 47.4057 62.8743 47.0959C64.0403 45.5675 65.2578 43.9695 66.3838 42.2324C67.165 41.0273 67.9012 39.7549 68.5466 38.3912C69.7344 35.8794 70.6107 33.0584 70.8727 29.7772V29.7787Z" fill="#231F20"/>
<path d="M49.223 59.0199C47.0842 60.8004 44.8437 62.5197 42.5641 64.1319C42.3339 64.2943 42.2751 64.6191 42.4334 64.8564C42.5314 65.0038 42.6897 65.0824 42.8508 65.0824C42.9496 65.0824 43.049 65.0525 43.1362 64.9911C45.4376 63.3639 47.6991 61.6283 49.8583 59.8304C50.0754 59.6493 50.1095 59.3215 49.9338 59.0977C49.7588 58.8739 49.4401 58.8395 49.223 59.0199Z" fill="#231F20"/>
<path d="M40.1789 65.7688C36.5801 68.1684 32.8629 70.3202 29.1326 72.1667C27.1557 73.1449 25.2696 74.0086 23.5257 74.7339C23.2665 74.8417 23.1416 75.1448 23.2462 75.412C23.3253 75.6148 23.5148 75.7383 23.7152 75.7383C23.7783 75.7383 23.8422 75.7263 23.9039 75.7002C25.6674 74.9667 27.5739 74.0939 29.5704 73.106C33.3391 71.2408 37.0933 69.0665 40.7285 66.6437C40.963 66.4873 41.0298 66.1647 40.8788 65.9237C40.727 65.682 40.4148 65.6131 40.1803 65.7688H40.1789Z" fill="#231F20"/>
<path d="M19.238 76.3421C18.4481 76.6018 17.6764 76.8316 16.9438 77.027C16.6738 77.0988 16.5111 77.3825 16.5808 77.6617C16.6396 77.8967 16.8451 78.0523 17.0694 78.0523C17.1115 78.0523 17.1536 78.0471 17.1958 78.0359C17.9464 77.836 18.7371 77.6003 19.5444 77.3353C19.8101 77.2478 19.9568 76.9551 19.8726 76.6812C19.7876 76.4072 19.5037 76.256 19.238 76.3429V76.3421Z" fill="#231F20"/>
<path d="M12.7007 77.8304C11.0215 77.9973 9.55494 77.9412 8.08549 77.6523C4.06486 76.8626 3.32215 74.0439 3.2902 73.9159C3.22341 73.6375 2.95188 73.4669 2.68108 73.5342C2.40955 73.6016 2.2433 73.883 2.30864 74.1629C2.34276 74.3089 3.20236 77.7541 7.89601 78.6754C8.87394 78.8678 9.8751 78.9628 10.9235 78.9628C11.5311 78.9628 12.154 78.9306 12.7973 78.8663C13.0753 78.8386 13.2786 78.5841 13.2518 78.2974C13.2249 78.0108 12.9766 77.802 12.7 77.8289L12.7007 77.8304Z" fill="#231F20"/>
<path d="M55.0286 14.1139C55.0852 14.1349 55.1433 14.1454 55.1999 14.1454C55.4061 14.1454 55.5999 14.0144 55.6754 13.8033C55.6812 13.7861 56.3158 12.0654 58.6949 10.2264C59.5189 9.58947 60.0852 9.22647 60.5397 8.93531C61.4937 8.32457 61.8886 8.07159 62.5515 6.60834C62.6691 6.34788 62.5602 6.03802 62.3075 5.91602C62.0549 5.79477 61.7536 5.90703 61.636 6.1675C61.1009 7.35007 60.8911 7.4848 60.0068 8.04989C59.5603 8.3358 58.9483 8.72724 58.0887 9.39188C55.4446 11.4367 54.7527 13.3685 54.7244 13.45C54.6307 13.7202 54.7672 14.0159 55.0286 14.1139Z" fill="#A1FCE7" fill-opacity="0.5"/>
<path d="M58.8734 19.5576C58.779 19.8278 58.9155 20.1257 59.1776 20.2237C59.2342 20.2447 59.2916 20.2544 59.349 20.2544C59.5559 20.2544 59.7497 20.1227 59.8245 19.9101C59.8419 19.8607 61.6126 14.9448 66.4588 12.5714C67.3336 12.1433 68.0712 11.7945 68.7224 11.4877C71.8929 9.99074 72.7445 9.58881 74.9335 6.76786C77.3453 3.66024 78.9628 1.91557 81.114 1.00244C81.3717 0.893167 81.4951 0.588545 81.3891 0.322841C81.2831 0.0571367 80.9876 -0.070105 80.7299 0.0391706C78.3878 1.03313 76.6091 2.94246 74.145 6.11744C72.1064 8.74529 71.376 9.08959 68.3021 10.5409C67.648 10.85 66.9067 11.1995 66.0253 11.6314C60.7915 14.1949 58.9496 19.3405 58.8734 19.5583V19.5576Z" fill="#A1FCE7" fill-opacity="0.5"/>
<path d="M96.9003 2.31464C96.7333 2.08411 96.4167 2.03695 96.1931 2.2091C93.4081 4.3527 92.0708 6.57863 90.8903 8.54185C89.9995 10.0238 89.1588 11.4234 87.8041 12.6277C87.0606 13.2893 86.4188 13.6262 85.5302 14.0932C84.6379 14.5617 83.5279 15.1448 81.914 16.2765C77.5115 19.3624 76.278 23.2289 76.2279 23.3921C76.1437 23.666 76.2903 23.9594 76.556 24.0463C76.6068 24.0627 76.6584 24.071 76.7092 24.071C76.9234 24.071 77.1223 23.9295 77.1906 23.708C77.2014 23.6713 78.366 20.0233 82.4824 17.1379C84.0433 16.0437 85.1222 15.4771 85.9891 15.0213C86.9046 14.54 87.6277 14.1606 88.464 13.4166C89.9364 12.1075 90.817 10.642 91.7492 9.09047C92.937 7.11378 94.1661 5.06898 96.7972 3.04364C97.0208 2.87149 97.0665 2.54516 96.8995 2.31464H96.9003Z" fill="#A1FCE7" fill-opacity="0.5"/>
<path d="M93.9825 22.3127C91.6716 22.7334 89.5734 25.6524 87.5442 28.4756C86.5017 29.9261 85.5165 31.2958 84.5974 32.1842C83.6151 33.134 82.5558 33.738 79.4231 35.321C75.0416 37.535 74.0303 41.0902 73.9889 41.2406C73.9134 41.5176 74.0702 41.805 74.3389 41.8828C74.3846 41.8963 74.4303 41.9023 74.4761 41.9023C74.6968 41.9023 74.8994 41.7518 74.9625 41.522C74.9712 41.4899 75.8882 38.267 79.8681 36.2558C83.1061 34.6197 84.2104 33.9865 85.2885 32.9439C86.2737 31.9911 87.2851 30.5848 88.3559 29.0953C90.1782 26.5603 92.2437 23.6869 94.1582 23.3381C94.4326 23.288 94.6163 23.0178 94.5677 22.7349C94.519 22.452 94.2577 22.2626 93.9825 22.3127Z" fill="#A1FCE7" fill-opacity="0.5"/>
<path d="M74.4912 46.8294C74.2364 46.7111 73.9372 46.8279 73.8233 47.0906C72.6508 49.7768 71.0209 50.5739 68.9583 51.5829C68.1335 51.9863 67.2812 52.4032 66.3628 52.9787C62.414 55.4532 62.3545 58.9335 62.3545 59.0802C62.353 59.3676 62.5788 59.6019 62.8576 59.6034H62.8598C63.1379 59.6034 63.3637 59.3714 63.3651 59.0847C63.3651 59.0548 63.4174 56.0437 66.8877 53.8687C67.7618 53.3215 68.5902 52.9159 69.391 52.5244C71.5523 51.4676 73.4196 50.5545 74.7446 47.5187C74.8593 47.256 74.746 46.9476 74.4912 46.8301V46.8294Z" fill="#A1FCE7" fill-opacity="0.5"/>
<path d="M17.3687 65.7101C17.2104 65.4728 16.896 65.4129 16.6659 65.5768C15.4295 66.454 14.1815 67.3335 12.9567 68.1912C12.7258 68.3529 12.6656 68.677 12.8224 68.915C12.9204 69.0632 13.0794 69.1433 13.2406 69.1433C13.3379 69.1433 13.4366 69.1141 13.5237 69.0534C14.7507 68.195 16.0009 67.314 17.2387 66.4353C17.4689 66.2722 17.5269 65.9481 17.3679 65.7108L17.3687 65.7101Z" fill="#231F20"/>
<path d="M19.7859 63.3485C19.4817 63.567 19.1811 63.7826 18.882 63.9959C18.7223 64.1104 18.5633 64.2242 18.4043 64.3372C18.3455 64.3791 18.2852 64.4225 18.2264 64.4644C18.1284 64.534 18.0638 64.6343 18.0326 64.7436C17.9897 64.8903 18.0079 65.0542 18.0987 65.1889C18.1967 65.3349 18.3542 65.4135 18.5147 65.4135C18.6141 65.4135 18.7143 65.3835 18.8014 65.3207C18.8377 65.2952 18.874 65.2683 18.9103 65.2428C19.0548 65.1395 19.2 65.0355 19.3459 64.9315C19.489 64.8297 19.632 64.7264 19.7765 64.6238C19.9718 64.4839 20.1663 64.3447 20.3638 64.2025C20.5925 64.0378 20.6491 63.7137 20.4894 63.4772C20.3297 63.2407 20.0146 63.1831 19.7859 63.3477V63.3485Z" fill="#231F20"/>
<path d="M6.6333 73.703C6.72841 73.703 6.82569 73.6753 6.91136 73.6169C8.36555 72.6282 9.88146 71.5864 11.4184 70.5198C11.4257 70.5153 11.4308 70.5086 11.4373 70.5033C11.5927 70.3836 11.6638 70.189 11.6333 70.0026C11.6217 69.9315 11.597 69.8612 11.5549 69.7968C11.4838 69.6875 11.3792 69.6172 11.2652 69.5865C11.1295 69.549 10.9799 69.5685 10.8536 69.6553C10.8187 69.6793 10.7846 69.7032 10.7505 69.7272C9.25201 70.7668 7.77313 71.7825 6.35451 72.7472C6.12146 72.9059 6.05757 73.2285 6.21076 73.4687C6.30804 73.6207 6.4685 73.703 6.6333 73.703Z" fill="#231F20"/>
<path d="M15.1655 52.2743C15.2882 52.6343 15.4791 52.9412 15.7085 53.1694C16.0396 53.4988 16.4512 53.6627 16.8556 53.5773C17.6281 53.4149 18.0811 52.4097 17.8677 51.3335C17.8619 51.305 17.8546 51.2773 17.8481 51.2489C17.761 50.8709 17.602 50.5378 17.3972 50.2751C17.0444 49.8223 16.5587 49.5783 16.0824 49.6786C15.3099 49.8418 14.8569 50.8462 15.0704 51.9225C15.0943 52.0445 15.127 52.1612 15.1655 52.2743Z" fill="#231F20"/>
<path d="M25.9956 56.2988C26.7683 56.136 27.2218 55.1314 27.0084 54.0549C26.795 52.9784 25.9956 52.2377 25.2229 52.4005C24.4501 52.5633 23.9967 53.568 24.2101 54.6444C24.4235 55.7209 25.2229 56.4616 25.9956 56.2988Z" fill="#231F20"/>
<defs>
<linearGradient id="paint0_linear_5_3675" x1="34.1798" y1="40.7969" x2="34.1798" y2="80.7859" gradientUnits="userSpaceOnUse">
<stop stop-color="#A1FCE7"/>
<stop offset="1" stop-color="#88F6BA"/>
</linearGradient>
</defs>
</svg>
