<svg xmlns="http://www.w3.org/2000/svg" viewBox="0 0 200 200"><path fill="#2352F1" d="M0 0h200v200H0z"/><path fill="#FEFEFE" d="M0 0h200v151c-5.595 1.399-9.343 2.256-14.844 2.379l-3.777.103-3.879.08c-9.636.135-9.636.135-19.219 1.028C155 155 155 155 152 154c-2.023.395-2.023.395-4.168 1.18l-2.459.816-2.56.879c-4.777 1.633-9.315 3.184-14.356 3.703L125 161c-1.183 1.866-1.183 1.866-2 4-3.23 1.924-5.218 3-9 3v-7l12-2v-2l2.625-.687c4.303-1.674 8.237-4.036 10.375-8.313h2l.75-1.875C143 144 143 144 145 143.063c2.781-1.478 2.888-3.153 4-6.063 1.41-2.658 2.887-5.271 4.367-7.89L155 126l1.074-1.937c3.267-6.428 3.476-12.127 3.301-19.25l-.048-3.348C159.078 89.518 157.953 78.99 153 68a235 235 0 0 1-4-11l-3-1c-4-4.457-4-4.457-4-7l-2.812-.687c-3.34-.943-6.364-2.271-9.5-3.75-4.363-2.035-8.647-3.588-13.282-4.872-2.393-.687-4.695-1.518-7.031-2.379C105.101 35.85 101.495 35.756 97 36v-2l-2 .5c-5.094.849-9.545 1.47-14-1.5a30.7 30.7 0 0 0-10 0c-2.824 2.19-4.415 3.83-6 7a84 84 0 0 1-5.562 1.875c-7.921 2.565-13.648 4.606-18.86 11.25-2.343 2.784-5.073 5.048-7.844 7.395C30.91 62.037 30.91 62.037 29 64h3c-2.752 9.45-2.752 9.45-4.125 12.5-1.176 3.36-1.365 6.657-1.629 10.195C26 89 26 89 25 92a99 99 0 0 0-.062 5.188l.027 2.73L25 102l-2.562-.187c-4.174.227-6.692 1.39-10.438 3.187l1.86 3.484c2.082 4.17 3.292 8.255 4.39 12.766 1.78 6.92 4.14 13.367 6.938 19.938 3.106 7.352 4.87 13.997 5.558 21.94.149 2.941.149 2.941 1.254 5.872.069 2.061.085 4.125.063 6.188l-.028 3.292L32 181h2l.586 2.484.789 3.266.773 3.234c.73 2.944.73 2.944 1.954 5.22C39 197 39 197 39 200H0z"/><path fill="#FCFCFE" d="m129 63 1.836 1.105c5.096 3.583 7.042 9.282 9.164 14.895l.782 2.02c2.05 5.625 2.815 10.826 3.03 16.793l.11 2.636c.498 16.137.498 16.137-3.188 21.336-3.667 2.569-8.47 1.624-12.734 1.215-5.077-.986-9.699-2.337-14.312-4.687-3.126-1.527-5.252-1.633-8.688-1.313-1.497 1.497-1.332 2.988-1.562 5.063L103 126l2.563.813C109 128 109 128 112 129.437c5.668 2.52 11.947 3.38 18 4.563-3.072 3.213-6.003 5.892-9.812 8.188l-2.395 1.48c-7.428 3.543-15.071 3.811-23.168 4.144l-3.25.194c-7.52.325-15.582.313-21.531-4.893L68 141a83 83 0 0 0-3.531-2.332l-1.957-1.232a371 371 0 0 0-4.024-2.461C52.125 130.929 49.574 126.078 47 119h-2c-1.434-2.869-1.43-5.738-1.719-8.906-.173-2.148-.173-2.148-1.281-4.094-.053-1.812-.053-1.812.05-4l.115-2.425C43.396 78.07 43.396 78.07 50 69l1.688-2.5L53 65h2l.75-1.937C57 61 57 61 61 60l1 23-13 2 .875 3.375c1.62 6.516 3.02 12.994 3.625 19.688L54 112l2 1c.314 2.294.38 4.558.46 6.871.349 2.226.349 2.226 2.114 3.492 3.47.911 6.441.154 9.864-.613q2.147-.447 4.296-.887l2.166-.45c4.083-.803 8.208-1.33 12.33-1.886 2.792-.531 5.175-1.384 7.77-2.527l-.275-1.813C91.43 93.194 91.43 93.194 92 82h-2l-1-2c-3.368-.935-6.518-1.1-10-1-2.21-7.537-3.646-17.708 0-25 2.894-.483 5.71-.845 8.625-1.125l2.41-.262C104.811 51.085 116.413 55.191 129 63"/><path fill="#FDFEFE" d="M42 142q2.597 1.62 5.188 3.25l2.917 1.828c2.782 1.847 5.394 3.71 7.895 5.922v2h2l1.688 1.875c3.632 3.338 7.726 3.876 12.5 4.625 2.812.5 2.812.5 4.68 1.508 2.475 1.151 4.352 1.258 7.07 1.367 4.601.418 6.873 1.081 10.062 4.625q1.36 2.115 2.688 4.25c2.982 4.727 6.64 7.673 11.14 10.926C112 186 112 186 113.008 188.09c1.367 2.632 2.905 3.075 5.617 4.16l2.477 1.016L123 194v2l2.938.875C129 198 129 198 130 200H62l-1-3-3-1c-2.468-4.898-3.968-9.982-5.437-15.25-1.653-5.78-3.476-11.426-5.583-17.059a261 261 0 0 1-3.23-9.504l-1.016-3.144c-.754-3.128-.868-5.838-.734-9.043"/><path fill="#F4F6FE" d="M200 186v14c-18.853.62-34.23.433-51-9 2.71-2.71 5.348-2.67 9-3.062l2.202-.25C173.388 186.322 186.751 186 200 186"/><path fill="#F2F5FE" d="M183 165.875q2.492.016 4.984.027 6.008.034 12.016.098v7c-6.815.917-13.515 1.086-20.377.963-2.688-.034-5.21-.056-7.841.535-3.648.658-7.234.625-10.927.6l-2.332-.005c-2.445-.005-4.89-.018-7.335-.03l-4.99-.014q-6.1-.017-12.198-.049c2.263-2.263 4.029-2.927 7-4.062 3.55-1.357 3.55-1.357 7-2.938 11.673-2.047 23.187-2.252 35-2.125"/><path fill="#2655F1" d="M124 90c1.738 1.738 1.172 4.079 1.188 6.438l.042 2.996C125 102 125 102 123 104c-6.221.566-6.221.566-8.7-1.234-1.649-2.24-1.702-3.569-1.675-6.329l-.023-2.378L113 92c4.042-2.695 6.205-2.232 11-2"/><path fill="#2554F1" d="M136 91c1.875 1.625 1.875 1.625 3 4-.327 6.327-.327 6.327-3 9-3.625-.375-3.625-.375-7-1a431 431 0 0 1-.562-4.312l-.317-2.426C128 94 128 94 129 91c2.756-1.378 4.098-.92 7 0"/><path fill="#F5F8FE" d="M128 156c2.625 1.375 2.625 1.375 5 3v1l-3.875.25c-2.193.221-2.193.221-4.125.75-1.183 1.866-1.183 1.866-2 4-3.23 1.924-5.218 3-9 3v-7l12-2v-2z"/><path fill="#CBDAFC" d="M128 156c2.625 1.375 2.625 1.375 5 3v1c-6.625 1.25-6.625 1.25-10-1h3v-2z"/></svg>
