<svg xmlns="http://www.w3.org/2000/svg" viewBox="0 0 207.67 207.67"><defs><linearGradient id="a" x1="314.83" x2="533.32" y1="-774.67" y2="-659.32" gradientTransform="rotate(-45 1701.256 -34.484)" gradientUnits="userSpaceOnUse"><stop offset=".2" stop-color="#279ecc"/><stop offset=".81" stop-color="#e4097d"/></linearGradient></defs><circle cx="21.06" cy="150.67" r="6.89" fill="#259ecc"/><circle cx="186.61" cy="56.75" r="6.89" fill="#e30a7d"/><path fill="url(#a)" d="M386.11 319.49a9.18 9.18 0 0 0-13 0l-13.64 13.64-13 13a9.21 9.21 0 0 1-13 0 9.19 9.19 0 0 1 0-13l7.16-7.16a9.2 9.2 0 0 0 0-13 9.19 9.19 0 0 0-13 0l-91 91a9.18 9.18 0 0 0 0 13 9.19 9.19 0 0 0 13 0l10.05-10.05a9.2 9.2 0 0 1 13 0 9.19 9.19 0 0 1 0 13l-45.84 45.84a9.19 9.19 0 0 0 0 13 9.21 9.21 0 0 0 13 0l15.41-15.42a9.21 9.21 0 0 1 13 0 9.18 9.18 0 0 0 13 0l13.62-13.61a9.19 9.19 0 0 1 13 0 9.2 9.2 0 0 0 13 0L385.58 385a9.19 9.19 0 0 0 0-13 9.18 9.18 0 0 0-13 0l-.68.67-9.07 9.08a9.19 9.19 0 0 1-13 0 9.19 9.19 0 0 1 0-13l11.31-11.31 25-25a9.18 9.18 0 0 0-.03-12.95" transform="translate(-202.27 -292.61)"/></svg>
