<svg xmlns="http://www.w3.org/2000/svg" viewBox="0 0 100 100"><linearGradient id="a" x1="50" x2="50" y1="10" y2="90" gradientUnits="userSpaceOnUse"><stop offset="0" stop-color="#99b998"/><stop offset="1" stop-color="#fdceaa"/></linearGradient><path fill="url(#a)" stroke="#000" stroke-width=".5" d="M50 90c22.091 0 40-17.909 40-40S72.091 10 50 10 10 27.909 10 50s17.909 40 40 40z"/><path fill="#fff6f0" stroke="#000" d="M23 42.828 50 16l27 26.828-13.249 13.164L50.26 42.586l-.243-.24-.243.24L36.274 56z"/><path fill="#2a363a" d="M28.968 60.2h10.608v3.024h-7.44v3.84h7.152v3.024h-7.152v3.888h7.728V77H28.968zm26.12 0v10.992q0 2.88-1.537 4.512-1.512 1.632-4.512 1.632c-3 0-3.512-.544-4.536-1.632q-1.512-1.632-1.512-4.512V60.2h3.168v10.992q0 1.488.696 2.328c.696.84 1.192.84 2.184.84s1.72-.28 2.184-.84.696-1.336.696-2.328V60.2zM69.422 77h-3.168v-5.04q0-.576-.312-.936-.288-.36-.984-.36H61.31V77h-3.168V60.2h6.432q1.296 0 2.28.36c.984.36 1.2.576 1.632 1.008q.672.624 1.008 1.464.36.84.36 1.8v.576q0 1.032-.552 1.944-.552.888-1.704 1.368v.432q.84.096 1.32.648.504.552.504 1.392zm-8.112-9.36h3.024q1.152 0 1.752-.528.6-.552.6-1.536v-.288q0-.84-.6-1.44-.6-.624-1.752-.624H61.31z"/></svg>
