<svg xmlns="http://www.w3.org/2000/svg" viewBox="0 0 20 20"><path fill="#F5C09A" d="M10.02.483a9.536 9.536 0 1 0 0 19.073 9.536 9.536 0 0 0 0-19.073M.04 10.02C.041 4.509 4.509.04 10.02.04s9.978 4.468 9.978 9.979-4.467 9.978-9.978 9.978S.04 15.531.04 10.02"/><path fill="#F5C09A" d="M10.02 12.618c.122 0 .22.1.22.221v6.938a.221.221 0 0 1-.442 0V12.84c0-.122.1-.22.222-.22m0-12.579c.122 0 .22.1.22.221v2.053a.221.221 0 1 1-.442 0V.262c0-.122.1-.22.222-.22"/><path fill="#F5C09A" d="M9.882 2.141a.22.22 0 0 1 .275 0l6.65 5.266a.22.22 0 0 1 0 .347L13.835 10.1a.221.221 0 1 1-.275-.347l2.752-2.174-6.293-4.983L3.727 7.58l6.43 5.086a.221.221 0 1 1-.274.347l-6.65-5.26a.22.22 0 0 1 0-.346z"/><path fill="#F5C09A" d="M16.669 7.36a.22.22 0 0 1 .221.22v4.912a.22.22 0 0 1-.083.173l-1.023.813a.221.221 0 1 1-.276-.346l.94-.747V7.58a.22.22 0 0 1 .221-.22m-13.299 0a.22.22 0 0 1 .222.22v4.805l6.428 5.09 2.866-2.265a.221.221 0 1 1 .274.347l-3.003 2.374a.22.22 0 0 1-.275 0l-6.649-5.266a.22.22 0 0 1-.084-.173V7.58c0-.122.1-.22.222-.22"/><path fill="#F5C09A" d="M4.648 13.225a.22.22 0 0 1 .081.302l-.943 1.635h3.237a.221.221 0 1 1 0 .443h-3.62a.221.221 0 0 1-.191-.332l1.134-1.967a.22.22 0 0 1 .302-.081M10.02 3.7a.22.22 0 0 1 .191.11l6.617 11.463a.221.221 0 0 1-.192.332H10.02a.221.221 0 0 1 0-.443h6.233L10.02 4.364l-3.264 5.661a.221.221 0 1 1-.384-.22L9.828 3.81a.22.22 0 0 1 .192-.11"/></svg>
