<svg xmlns="http://www.w3.org/2000/svg" viewBox="0 0 65 65"><circle cx="32" cy="32" r="30" fill="#29ABE2"/><path fill="#010642" d="M33.09.389c-17.422 0-31.545 14.102-31.545 31.5 0 17.397 14.123 31.5 31.545 31.5s31.544-14.103 31.544-31.5c0-17.398-14.126-31.5-31.544-31.5m3.722 15.487c-3.948 1.984.041 2.795-.137 3.969-.052.33-.363.944-1.39 1.185a.2.2 0 0 1 0 .07c1.253-.11 1.305 1.166 1.034 1.292-2.217 1.033-1.898 2.825-1.05 3.932.46.6.932.689 1.247 1.118.752 1.022.871 2.107-.323 3.195-.367.334-.864.704-1.509 1.137a50 50 0 0 1-2.28 1.41c-3.634 2.14-6.455 2.115-4.368 5.325 1.357 1.895-.107 3.436-1.39 3.924-1.283.485-.608 2.17.971 2.151-2.721.03-2.187 1.533-1.764 1.977.79.826 1.064 1.574-.916 2.903-3.074 2.07.174 3.614.174 3.614 2.573 1.736 4.479 4.102 4.95 4.783.055.063.43.511.467.744C16.88 57.347 6.195 45.88 6.195 31.925c0-13.953 11.149-25.92 25.219-26.753.007.13.022.256.022.386 0 .103 0 .207.026.307h-.026c.36 1.866 4.16 5.117 6.707 7.25 0 0 1.62 1.313-1.33 2.757z"/></svg>
