<svg xmlns="http://www.w3.org/2000/svg" viewBox="0 0 36 36"><linearGradient id="a" x1=".088" x2="34.888" y1="1.456" y2="1.863" gradientUnits="userSpaceOnUse"><stop offset="0" stop-color="#6458ed"/><stop offset=".49" stop-color="#4e5cf4"/><stop offset="1" stop-color="#018edd"/></linearGradient><path fill="#fff" d="M18.486 5.826c-6.506 0-11.343 5.25-10.793 11.725.364 4.318 4.162 7.817 8.484 7.817s7.54-3.5 7.19-7.817c-.176-2.158-2.074-3.908-4.24-3.908-2.076 0-3.578 1.273-3.604 3.597v.165l.035-.07.037-.067q.016-.03.036-.06a2 2 0 0 1 .134-.184l.05-.056.05-.054.053-.052q.052-.049.108-.093.179-.14.382-.24l.068-.031.07-.03.057-.023a2 2 0 0 1 .301-.092l.047-.01a2.6 2.6 0 0 1 .396-.055h.072c.885-.03 1.782.383 2.077 1.242.667 1.956-1.132 4.026-3.695 4.018-2.222-.007-4.174-1.8-4.36-4.018-.37-4.437 2.936-8.034 7.396-8.034s8.357 3.597 8.715 8.034c.533 6.656-4.427 12.052-11.085 12.052-6.66 0-12.516-5.396-13.078-12.052C2.635 8.655 9.261 1.462 18.18 1.462c6.62 0 12.624 3.96 15.567 9.628a17.5 17.5 0 0 0-7.828-8.916A17.465 17.465 0 0 0 4.002 6.356 17.5 17.5 0 0 0 0 17.53q0 .853.08 1.683a16.6 16.6 0 0 0 1.804 4.96c2.945 5.327 8.674 9.019 14.936 9.019 8.631 0 15.068-7.001 14.379-15.629-.518-6.487-6.21-11.737-12.713-11.737M15.785 16.78c0 .076-.008-.073 0 0"/><path fill="url(#a)" d="M33.747 11.084c-2.944-5.67-8.94-9.628-15.567-9.628-8.922 0-15.545 7.193-14.79 16.067.564 6.656 6.42 12.053 13.077 12.053 6.656 0 11.62-5.397 11.085-12.053-.358-4.437-4.26-8.034-8.715-8.034s-7.767 3.597-7.396 8.034c.186 2.219 2.135 4.008 4.36 4.018 2.563.008 4.365-2.062 3.695-4.018-.295-.859-1.192-1.271-2.077-1.242h-.072a2.6 2.6 0 0 0-.396.055l-.047.01-.073.02a2 2 0 0 0-.228.073l-.058.022-.07.03-.067.032a2 2 0 0 0-.382.239q-.055.045-.108.093l-.053.052-.051.054-.05.056q-.072.088-.133.184l-.036.06-.037.067-.035.07q-.027.058-.05.119v-.262.081a1 1 0 0 1 .054-.103c.023-2.324 1.525-3.597 3.603-3.597 2.167 0 4.065 1.75 4.24 3.909.352 4.317-2.868 7.816-7.189 7.816s-8.12-3.5-8.484-7.816C7.152 11.069 11.984 5.819 18.49 5.819s12.199 5.25 12.716 11.726c.69 8.632-5.747 15.628-14.378 15.628-6.271 0-11.99-3.692-14.936-9.02q.077.175.159.347a15 15 0 0 1-.426-.844 16.6 16.6 0 0 1-1.537-4.462A17.5 17.5 0 0 0 7.36 31.731a17.47 17.47 0 0 0 20.89-.48 17.5 17.5 0 0 0 6.69-12.858 17.5 17.5 0 0 0-1.185-7.321zm-17.236 3.39a3 3 0 0 1 .259-.225c-.09.071-.177.151-.26.225z"/></svg>
