<svg xmlns="http://www.w3.org/2000/svg" viewBox="0 0 745 744"><style>.st0{fill:#f6f6f6}.st1{fill:#e4e5e6}.st2{fill:#fbfbfb}.st15{opacity:.2}</style><circle cx="372.3" cy="371.9" r="368.1"/><path id="a" d="m377.9 354.1 4.4-2.7 3.9-12.5 5.2-10.3 173.5-121.5h66.3l-14.1 117.3-73.9 60.4 9 1.9 9.3 73.7-81 106-55.7-69.9-23.8 24.8-10.8 15-16.5-15.3-16.5 15.3-10.9-15-23.8-24.8-55.6 69.9-81.1-106 9.3-73.7 9-1.9-73.9-60.4-14.1-117.3h66.3l173.5 121.5 5.2 10.3 3.9 12.5 4.4 2.7 4.3 19.1z" class="st0"/><g id="b"><path d="m427.9 484.5 66.2-110.3 8.8-14.6z" class="st1"/><path d="M564.9 207.1 386.2 338.9l116.7 20.7z" class="st2"/><path d="m381.1 355 1.2-3.6-4.4 2.7 12.3 182.2 10.8-15 18.4-38zm236-30.6 14.1-117.3h-66.3l-62 152.5-8.8 14.6 49.1 10.6z" class="st0"/><path d="m427.9 484.5 75-124.9-116.7-20.7-3.9 12.5z" class="st2"/><path d="m423.3 492.1 4.6-7.6-45.6-133.1-1.2 3.6 38.3 128.3z" class="st2"/><path d="m427.9 484.5-4.6 7.6 1.5 4.4 55.7 69.9 81-106-9.3-73.7-58.1-12.5z" class="st0"/><path d="M401 521.4v-.1z" class="st1"/><path fill="#f3f3f4" d="M373.7 373.2V521l16.5 15.3-12.3-182.2z"/><path d="m401 521.3 23.8-24.8-1.5-4.4-3.9-8.8zm-81.6-36.8-66.2-110.3-8.8-14.6z" class="st1"/><path d="m182.4 207.1 178.7 131.8-116.7 20.7z" class="st2"/><path d="m366.2 355-1.2-3.6 4.4 2.7-12.2 182.2-10.9-15-18.4-38zm-236-30.6-14.1-117.3h66.3l62 152.5 8.8 14.6-49.1 10.6z" class="st0"/><path d="m319.4 484.5-75-124.9 116.7-20.7 3.9 12.5z" class="st2"/><path fill="#f7f7f8" d="m324 492.1-4.6-7.6L365 351.4l1.2 3.6-38.3 128.3z"/><path d="m319.4 484.5 4.6 7.6-1.5 4.4-55.6 69.9-81.1-106 9.3-73.7 58.1-12.5z" class="st0"/><path d="M346.3 521.4v-.1z" class="st1"/><path d="M373.7 373.2V521l-16.5 15.3 12.2-182.2z" class="st2"/><path d="m346.3 521.3-23.8-24.8 1.5-4.4 3.9-8.8z" class="st1"/></g><g id="c"><linearGradient id="SVGID_1_" x1="353.297" x2="405.642" y1="319.1" y2="334.599" gradientTransform="matrix(1 0 0 -1 0 770)" gradientUnits="userSpaceOnUse"><stop offset=".85" stop-color="#fff" stop-opacity="0"/><stop offset=".953" stop-color="#333" stop-opacity=".796"/><stop offset="1"/></linearGradient><path fill="url(#SVGID_1_)" d="m423.3 492-3.9-8.8-38.3-128.3 1.2-3.6-4.4 2.7-4.2 19.1-4.3-19.1-4.4-2.7 1.2 3.6-38.3 128.3-3.9 8.8-1.5 4.4 23.8 24.8 10.9 15 16.5-15.3 16.5 15.3 10.8-15 23.8-24.8z" opacity=".1"/><linearGradient id="SVGID_2_" x1="365.475" x2="417.82" y1="317.985" y2="333.483" gradientTransform="rotate(180 379.839 385)" gradientUnits="userSpaceOnUse"><stop offset=".85" stop-color="#fff" stop-opacity="0"/><stop offset=".953" stop-color="#333" stop-opacity=".796"/><stop offset="1"/></linearGradient><path fill="url(#SVGID_2_)" d="m322.7 497.5 23.8 24.8 10.8 15 16.5-15.3 16.5 15.3 10.9-15 23.8-24.8-1.5-4.4-3.9-8.8L381.3 356l1.2-3.6-4.4 2.7-4.3 19.1-4.2-19.1-4.4-2.7 1.2 3.6-38.3 128.3-3.9 8.8z" opacity=".1"/><linearGradient id="SVGID_3_" x1="377.182" x2="344.958" y1="254.169" y2="431.757" gradientTransform="matrix(1 0 0 -1 0 770)" gradientUnits="userSpaceOnUse"><stop offset=".043" stop-color="#fff" stop-opacity="0"/><stop offset=".9"/></linearGradient><path fill="url(#SVGID_3_)" d="m423.3 492-3.9-8.8-38.3-128.3 1.2-3.6-4.4 2.7-4.2 19.1-4.3-19.1-4.4-2.7 1.2 3.6-38.3 128.3-3.9 8.8-1.5 4.4 23.8 24.8 10.9 15 16.5-15.3 16.5 15.3 10.8-15 23.8-24.8z" opacity=".1"/><linearGradient id="SVGID_4_" x1="336.433" x2="388.778" y1="319.1" y2="334.599" gradientTransform="rotate(180 365.223 385)" gradientUnits="userSpaceOnUse"><stop offset=".482" stop-color="#fff" stop-opacity="0"/><stop offset=".953" stop-color="#333" stop-opacity=".796"/><stop offset="1"/></linearGradient><linearGradient id="SVGID_5_" x1="708.828" x2="533.872" y1="428.536" y2="489.474" gradientTransform="matrix(1 0 0 -1 0 770)" gradientUnits="userSpaceOnUse"><stop offset=".901" stop-color="#fff" stop-opacity="0"/><stop offset=".953" stop-color="#333" stop-opacity=".796"/><stop offset="1"/></linearGradient><path fill="url(#SVGID_5_)" d="m543.2 384.7-49.1-10.6 8.8-14.6 62-152.5h66.3l-14.1 117.3z" opacity=".03"/><linearGradient id="SVGID_6_" x1="574.089" x2="455.296" y1="257.595" y2="331.526" gradientTransform="matrix(1 0 0 -1 0 770)" gradientUnits="userSpaceOnUse"><stop offset=".9" stop-color="#fff" stop-opacity="0"/><stop offset=".953" stop-color="#333" stop-opacity=".796"/><stop offset="1"/></linearGradient><path fill="url(#SVGID_6_)" d="m427.9 484.4-4.6 7.6 1.5 4.4 55.7 69.9 81-106-9.2-73.7-58.2-12.5z" opacity=".03"/><linearGradient id="SVGID_7_" x1="596.228" x2="540.668" y1="550.049" y2="373.311" gradientTransform="matrix(1 0 0 -1 0 770)" gradientUnits="userSpaceOnUse"><stop offset=".547" stop-color="#fff" stop-opacity="0"/><stop offset=".959" stop-color="#333" stop-opacity=".796"/><stop offset="1"/></linearGradient><linearGradient id="SVGID_8_" x1="1056.186" x2="881.229" y1="428.536" y2="489.474" gradientTransform="rotate(180 547.334 385)" gradientUnits="userSpaceOnUse"><stop offset=".9" stop-color="#fff" stop-opacity="0"/><stop offset=".953" stop-color="#333" stop-opacity=".796"/><stop offset="1"/></linearGradient><path fill="url(#SVGID_8_)" d="m204.1 384.7 49.1-10.6-8.8-14.6-62-152.5h-66.3l14.1 117.3z" opacity=".03"/><linearGradient id="SVGID_9_" x1="921.446" x2="802.653" y1="257.595" y2="331.526" gradientTransform="rotate(180 547.334 385)" gradientUnits="userSpaceOnUse"><stop offset=".9" stop-color="#fff" stop-opacity="0"/><stop offset=".953" stop-color="#333" stop-opacity=".796"/><stop offset="1"/></linearGradient><path fill="url(#SVGID_9_)" d="m319.4 484.4 4.6 7.6-1.5 4.4-55.6 69.9-81.1-106 9.3-73.7 58.1-12.5z" opacity=".03"/><linearGradient id="SVGID_10_" x1="943.586" x2="888.026" y1="550.049" y2="373.311" gradientTransform="rotate(180 547.334 385)" gradientUnits="userSpaceOnUse"><stop offset=".547" stop-color="#fff" stop-opacity="0"/><stop offset=".959" stop-color="#333" stop-opacity=".796"/><stop offset="1"/></linearGradient><g class="st15"><linearGradient id="SVGID_11_" x1="406.365" x2="424.841" y1="264.682" y2="279.639" gradientTransform="matrix(1 0 0 -1 0 770)" gradientUnits="userSpaceOnUse"><stop offset=".724" stop-color="#fff" stop-opacity="0"/><stop offset=".953" stop-color="#333" stop-opacity=".796"/><stop offset="1"/></linearGradient><path fill="url(#SVGID_11_)" d="m401 521.2 23.8-24.8-1.5-4.4-3.9-8.8z" opacity=".22"/><linearGradient id="SVGID_12_" x1="426.057" x2="408.102" y1="254.027" y2="269.606" gradientTransform="matrix(1 0 0 -1 0 770)" gradientUnits="userSpaceOnUse"><stop offset=".724" stop-color="#fff" stop-opacity="0"/><stop offset=".953" stop-color="#333" stop-opacity=".796"/><stop offset="1"/></linearGradient><path fill="url(#SVGID_12_)" d="m401 521.2 23.8-24.8-1.5-4.4-3.9-8.8z" opacity=".22"/><linearGradient id="SVGID_13_" x1="431.988" x2="410.515" y1="257.438" y2="267.636" gradientTransform="matrix(1 0 0 -1 0 770)" gradientUnits="userSpaceOnUse"><stop offset=".724" stop-color="#fff" stop-opacity="0"/><stop offset=".953" stop-color="#333" stop-opacity=".796"/><stop offset="1"/></linearGradient><path fill="url(#SVGID_13_)" d="m401 521.2 23.8-24.8-1.5-4.4-3.9-8.8z" opacity=".1"/></g><g class="st15"><linearGradient id="SVGID_14_" x1="500.524" x2="519" y1="264.682" y2="279.639" gradientTransform="rotate(180 420.735 385)" gradientUnits="userSpaceOnUse"><stop offset=".626" stop-color="#fff" stop-opacity="0"/><stop offset=".865" stop-color="#444" stop-opacity=".264"/><stop offset=".895" stop-opacity=".36"/></linearGradient><path fill="url(#SVGID_14_)" d="m346.3 521.2-23.8-24.8 1.5-4.4 3.9-8.8z" opacity=".22"/><linearGradient id="SVGID_15_" x1="520.216" x2="502.261" y1="254.027" y2="269.606" gradientTransform="rotate(180 420.735 385)" gradientUnits="userSpaceOnUse"><stop offset="0" stop-color="#fff" stop-opacity="0"/><stop offset=".91" stop-color="#333" stop-opacity=".796"/><stop offset="1"/></linearGradient><path fill="url(#SVGID_15_)" d="m346.3 521.2-23.8-24.8 1.5-4.4 3.9-8.8z" opacity=".22"/><linearGradient id="SVGID_16_" x1="526.148" x2="504.675" y1="257.438" y2="267.636" gradientTransform="rotate(180 420.735 385)" gradientUnits="userSpaceOnUse"><stop offset=".579" stop-color="#fff" stop-opacity="0"/><stop offset=".941" stop-color="#878787" stop-opacity=".468"/><stop offset="1"/></linearGradient><path fill="url(#SVGID_16_)" d="m346.3 521.2-23.8-24.8 1.5-4.4 3.9-8.8z" opacity=".1"/></g><linearGradient id="SVGID_17_" x1="1338.99" x2="1393.534" y1="482.773" y2="433.511" gradientTransform="rotate(180 797.447 385)" gradientUnits="userSpaceOnUse"><stop offset="0" stop-color="#fff" stop-opacity="0"/><stop offset=".101" stop-color="#e0dfdf" stop-opacity=".139"/><stop offset=".648" stop-color="#555253" stop-opacity=".769"/><stop offset="1" stop-color="#231f20"/></linearGradient><path fill="url(#SVGID_17_)" d="m182.4 207 178.7 131.8-116.7 20.7z" opacity=".02"/><linearGradient id="SVGID_18_" x1="596.266" x2="540.644" y1="550.035" y2="373.099" gradientTransform="matrix(1 0 0 -1 0 770)" gradientUnits="userSpaceOnUse"><stop offset=".85" stop-color="#fff" stop-opacity="0"/><stop offset=".959" stop-color="#333" stop-opacity=".796"/><stop offset="1"/></linearGradient><path fill="url(#SVGID_18_)" d="M543.2 384.9 494 374.3l8.8-14.6L564.9 207h66.4l-14.2 117.5z" opacity=".1"/><linearGradient id="SVGID_19_" x1="943.623" x2="888.001" y1="550.035" y2="373.099" gradientTransform="rotate(180 547.334 385)" gradientUnits="userSpaceOnUse"><stop offset=".85" stop-color="#fff" stop-opacity="0"/><stop offset=".959" stop-color="#333" stop-opacity=".796"/><stop offset="1"/></linearGradient><path fill="url(#SVGID_19_)" d="m204.1 384.9 49.2-10.6-8.8-14.6L182.4 207H116l14.2 117.5z" opacity=".1"/></g></svg>
