<svg xmlns="http://www.w3.org/2000/svg" fill="none" viewBox="0 0 20 20"><circle cx="10" cy="10" r="10" fill="#fff"/><path fill="#141417" fill-rule="evenodd" d="M6.67.467a9 9 0 0 0-1.01.398L5.542.92l.031.057a5.9 5.9 0 0 0 1.118 1.476 4.76 4.76 0 0 0 2.54 1.299c.279.046.47.058.81.053.4-.007.669-.04 1.024-.13A4.57 4.57 0 0 0 14.04 1.32c.07-.142.17-.37.17-.391 0-.02-.413-.212-.71-.328a9 9 0 0 0-.725-.24l-.088.174c-.235.466-.573.86-.996 1.164a3.08 3.08 0 0 1-2.935.372A3.2 3.2 0 0 1 7.06.511l-.076-.15zM4.196 1.821c-.387.27-.694.516-.952.761a1 1 0 0 0-.102.106c0 .005.03.05.066.102.2.283.455.8.519 1.05.17.674.073 1.39-.28 2.083a2.7 2.7 0 0 1-.43.634c-.281.315-.689.6-1.131.79-.302.13-.49.18-.884.241a3 3 0 0 1-.655.016 1 1 0 0 0-.102-.013 65 65 0 0 0-.243 1.521 3 3 0 0 1 .343.044c.201.04.341.046.647.032.362-.016.527-.044.81-.135l.305-.099a4 4 0 0 0 .645-.263 4.1 4.1 0 0 0 1.103-.784c.319-.311.54-.596.79-1.015.176-.298.28-.51.38-.78a4.6 4.6 0 0 0 .186-2.48c-.126-.63-.307-1.046-.746-1.717a2 2 0 0 0-.13-.187c-.005 0-.067.042-.14.093M15.6 1.803c-.276.347-.512.808-.68 1.33a4.9 4.9 0 0 0-.184 2.03c.046.366.16.782.31 1.132a5.15 5.15 0 0 0 1.568 1.984 4.4 4.4 0 0 0 1.295.679c.164.054.253.077.445.114.495.095.707.119 1.05.119.264 0 .35-.01.513-.054.08-.021.083-.023.078-.048a77 77 0 0 1-.239-1.498 1 1 0 0 0-.102.013A3 3 0 0 1 19 7.588c-.461-.072-.672-.136-1.018-.31a3.2 3.2 0 0 1-.872-.63 2.9 2.9 0 0 1-.56-.733 3.3 3.3 0 0 1-.3-.857 2.3 2.3 0 0 1-.054-.56c0-.298.022-.444.115-.795.084-.315.195-.528.466-.893.046-.062.083-.116.083-.121a.4.4 0 0 0-.072-.067l-.313-.263a20 20 0 0 0-.386-.322 6 6 0 0 0-.422-.31 1 1 0 0 0-.066.076m-5.836 3.41c-.559.045-1 .142-1.454.321-1.302.514-2.275 1.568-2.797 3.033-.155.436-.235 1.054-.205 1.594a4.8 4.8 0 0 0 .594 2.091c.294.551.473.807.802 1.144.818.837 1.924 1.298 3.205 1.337.767.024 1.59-.175 2.425-.586.48-.235.985-.644 1.369-1.106a4.9 4.9 0 0 0 1.103-2.644 7 7 0 0 0 .005-.9 4.65 4.65 0 0 0-2.637-3.8 5 5 0 0 0-1.645-.466 9 9 0 0 0-.765-.017m.57 1.665a3.26 3.26 0 0 1 2.381 1.39c.287.404.457.846.531 1.38.022.158.025.6.005.764a3.33 3.33 0 0 1-.946 1.97 3.2 3.2 0 0 1-1.384.811c-.973.267-2.03.06-2.846-.555-.371-.28-.717-.686-.89-1.047-.279-.578-.418-1.215-.385-1.76.017-.29.06-.505.157-.788Q7.363 7.86 8.353 7.31l.173-.1c.095-.058.3-.15.435-.195.2-.067.507-.124.744-.14a8 8 0 0 1 .63.004m8.606 3.934a5.6 5.6 0 0 0-1.197.279 4.4 4.4 0 0 0-1.588.986c-.325.317-.54.595-.803 1.035a4.3 4.3 0 0 0-.422.903 4.4 4.4 0 0 0-.227 1.317c-.012.455.038.88.156 1.33.126.477.304.85.683 1.427.064.098.118.178.12.178.008 0 1.182-.94 1.19-.953q.01-.014-.058-.107c-.208-.295-.453-.791-.52-1.056-.145-.565-.098-1.162.138-1.764a4 4 0 0 1 .285-.573c.33-.524.86-.947 1.52-1.209.26-.103.41-.141.782-.199.186-.028.517-.036.655-.015.055.008.1.014.102.013.007-.008.243-1.483.243-1.522 0-.004-.206-.045-.305-.06a4.6 4.6 0 0 0-.754-.01m-18.483.025c-.066.005-.195.016-.288.026L0 10.88l.005.026c.022.101.236 1.462.236 1.496 0 .003.15.005.333.005.582 0 .745.024 1.107.16a3.3 3.3 0 0 1 1.21.78c.4.4.606.734.756 1.225a3.2 3.2 0 0 1-.448 2.723 1 1 0 0 0-.058.09c0 .004.046.046.102.092l.313.264c.268.23.469.39.638.51.075.053.138.096.14.096.008 0 .09-.124.164-.246a5.4 5.4 0 0 0 .723-2.046c.04-.278.054-.776.03-1.043a4.5 4.5 0 0 0-.332-1.368 3.7 3.7 0 0 0-.353-.657 4.87 4.87 0 0 0-1.945-1.739 4.1 4.1 0 0 0-1.392-.396 7 7 0 0 0-.771-.015m9.262 5.356-.15.015a4.58 4.58 0 0 0-3.475 2.22c-.123.208-.313.613-.3.644a1 1 0 0 0 .16.083c.291.134.574.244.996.387.134.045.252.086.26.09.013.005.025-.016.06-.102a2.92 2.92 0 0 1 1.357-1.5c.86-.44 1.878-.427 2.76.032.597.31 1.078.8 1.379 1.4l.087.172c.004.004.63-.214.781-.272.2-.077.425-.173.558-.238l.107-.052-.108-.22a4.8 4.8 0 0 0-1.83-2.022 4.5 4.5 0 0 0-1.807-.619 9 9 0 0 0-.835-.018" clip-rule="evenodd"/></svg>
