<svg xmlns="http://www.w3.org/2000/svg" version="1.0" viewBox="0 0 256 256"><g fill="#0241f2" stroke="#fff" stroke-width=".1"><path d="M0 128v128h256V0H0zm182.8-82.3.3 9.3H201v18h18v110h-18v18h-18v18H73v-18H55v-17.9l-9.2-.3-9.3-.3-.3-54.7-.2-54.7 9.2-.3 9.3-.3.3-8.7.3-8.7 8.7-.3 8.7-.3.3-9.3.3-9.2 54.7.2 54.7.3z"/><path d="M73 64v9H55v109h18v19h108.9l.3-9.3.3-9.2 9.3-.3 9.2-.3V73h-19V55H73zm73 18v9h18v28h-18v18h18v26.9l-8.7.3-8.8.3-.3 9.2-.3 9.3H91V73h55z"/><path d="M110 104.5V118h36V91h-36zm0 46V164h36v-27h-36z"/></g></svg>
