<svg xmlns="http://www.w3.org/2000/svg" viewBox="0 0 789 668"><path fill="#A36EFD" d="m115.185 411.477 3.182 57.967c.208 3.948 1.688 7.663 4.185 10.706 17.455 21.132 95.712 94.864 272.064 94.864s253.662-72.78 271.764-94.47c2.728-3.274 4.3-7.338 4.554-11.611l3.155-57.416c20.995-11.52 42.669-24.537 42.669-24.537 34.077-18.462 72.108 8.058 72.177 46.956.116 62.934-49.058 127.609-115.387 168.365-74.79 45.957-186.431 65.023-278.884 65.023S190.57 648.258 115.78 602.301C49.451 561.545.277 496.893.393 433.936c.07-38.898 38.1-65.418 72.177-46.956 0 0 21.637 12.985 42.615 24.497"/><path fill="#A36EFD" d="M394.641.114c144.193 0 183.288 3.367 241.917 10.101h-.023c27.026 3.112 48.689 23.223 46.677 50.463l-21.596 294.194c-6.758 1.958-14.128 4.431-22.393 7.205-43.318 14.538-111.226 37.327-244.583 37.327s-201.264-22.789-244.583-37.327c-8.273-2.777-15.65-5.252-22.414-7.211L106.047 60.678c-1.988-27.24 19.605-47.838 46.677-50.463C210.637 4.595 270.932.114 394.641.114m-256.65 495.721.076 1.034 1.49.343q-.8-.696-1.566-1.377m511.859 1.343 1.343-.309.069-.941q-.693.619-1.412 1.25"/></svg>
