<svg xmlns="http://www.w3.org/2000/svg" viewBox="0 0 630 630"><defs><linearGradient id="a" x1="314.84" x2="314.84" y1="627.66" y2="5.51" gradientUnits="userSpaceOnUse"><stop offset="0" stop-color="#00b1ff"/><stop offset=".93" stop-color="#00f5e4"/></linearGradient></defs><path fill="url(#a)" d="M315 0 0 314.58l315.19 314.75L629.68 315Zm240.89 299.09L479.1 308a47.86 47.86 0 0 0-53.17-18.8l-63.55-63.56a49 49 0 0 0 .44-6.19 47.94 47.94 0 0 0-27.11-43.16V78.91ZM294.49 78.91V176a48 48 0 0 0-27.64 43.41 47 47 0 0 0 .52 6.64l-63.21 63.21a48 48 0 0 0-53.54 18.64l-76.31-8.83ZM86 341.93l58 6.73a48 48 0 0 0 46 34.49h.08l56 118.92Zm229.1 209.83-87.73-186.39a47.83 47.83 0 0 0 7.19-48.21l56.24-56.24a47.67 47.67 0 0 0 48.4-.2l56.05 56.06a48 48 0 0 0 7.39 49Zm68.9-49.69 56-118.94a48 48 0 0 0 45.57-34.41l58.58-6.79Z"/></svg>
