<svg xmlns="http://www.w3.org/2000/svg" viewBox="0 0 1116 1116"><path fill="#161e52" d="M534.5-.5h47q229.736 13.758 387.5 180c88.25 97.881 137.08 212.881 146.5 345v66q-22.14 267.13-237 424.5-131.348 90.705-291 100.5h-59c-184.819-14.29-329.986-96.96-435.5-248Q6.38 734.89-.5 576.5v-38q12.661-242.55 193-403.5Q340.226 9.814 534.5-.5"/><path fill="#feba51" d="M723.5 263.5q32.26-.496 64 1a641611 641611 0 0 0-38 102q111.301 111.253 63.5 262Q769.212 738.787 656.5 776a287 287 0 0 1-65 10 5470 5470 0 0 0-25 65.5q-32.26.496-64-1a3561 3561 0 0 0 23-63q.814-.09 1-1l-25.5-1q-13.292.003-25.5 2a1311 1311 0 0 0-24 64q-32.26.496-64-1a2488 2488 0 0 1 23-63q.814-.09 1-1-61.748-1-123-2l184-489 1.5-1a240.4 240.4 0 0 0 34.5 9.5q42 1 84 0a1036 1036 0 0 1 16-40 683 683 0 0 1 64 .5 747 747 0 0 0-18 50 188.5 188.5 0 0 1 43 17z"/><path fill="#171e53" d="M544.5 364.5h25a58734 58734 0 0 1-135 360 871 871 0 0 1-59 1 237119 237119 0 0 1 134.5-358 309 309 0 0 1 34.5-3m88 6a182.2 182.2 0 0 1 44 18.5 147012 147012 0 0 0-127 335.5 434 434 0 0 1-51 .5 53269 53269 0 0 0 134-354.5m92 60q1.494-.129 2.5 1 68.901 92.271 20 197-42.369 76.974-129 94l-2.5-1a52521 52521 0 0 0 109-291"/></svg>
