<svg xmlns="http://www.w3.org/2000/svg" viewBox="0 0 24 24"><path fill-rule="evenodd" d="M11.311 11.693q-1.16-.001-2.253-.226.003.112.002.226c0 3.682-1.768 6.95-4.501 9.004a11.24 11.24 0 0 1-4.502-9.004c0-3.682 1.769-6.95 4.502-9.003A11.2 11.2 0 0 1 11.31.44a11.25 11.25 0 0 1 9.748 5.626 11.25 11.25 0 0 1-9.748 5.627M3.574 6.066A9.6 9.6 0 0 0 6.98 8.971a9.56 9.56 0 0 0-2.421-4.053 9.6 9.6 0 0 0-.985 1.148m-.924 1.56a11.3 11.3 0 0 0 4.696 3.349q.026.355.026.718A9.53 9.53 0 0 1 4.56 18.47a9.53 9.53 0 0 1-2.813-6.776c0-1.454.324-2.833.904-4.067m3.21-3.794a11.23 11.23 0 0 1 3.023 5.862c.776.203 1.59.311 2.428.311a9.55 9.55 0 0 0 7.737-3.939 9.55 9.55 0 0 0-7.737-3.938A9.53 9.53 0 0 0 5.86 3.833"/><path fill-rule="evenodd" d="M20.314 11.693c.77 0 1.522.078 2.248.225-.12 6.111-5.111 11.029-11.251 11.029-.77 0-1.522-.078-2.248-.225.12-6.112 5.11-11.029 11.25-11.029M11.31 21.26q-.207 0-.413-.01c.8-4.472 4.712-7.868 9.416-7.868q.208 0 .412.009c-.8 4.473-4.711 7.869-9.415 7.869"/></svg>
