<svg xmlns="http://www.w3.org/2000/svg" viewBox="0 0 64 55"><path fill="#FF3B80" d="m64 27.505-4.726-8.126H46.179l6.553-11.253L48.005 0h-9.453L32 11.253 25.458.01h-9.453L11.28 8.137l6.552 11.252H4.737L0 27.505l4.726 8.126h13.095l-6.553 11.253L15.995 55h9.453L32 43.747 38.552 55h9.454l4.726-8.116-6.553-11.253h13.095zM50.342 8.126 43.79 19.38h-5.864L47.41 3.095zm-10.6-6.066h5.863l-9.484 16.294-2.932-5.041zm-4.81 18.354L32 25.455 21.921 8.137l2.932-5.042zM13.668 8.126l3.527-6.066h5.863l-3.526 6.066L30.205 26.47h-5.863zM5.926 21.44h13.095l2.931 5.041H2.994zm0 12.132L2.994 28.53h18.958l-2.931 5.041zm18.416-5.041h5.863L20.127 45.849h-5.864zm-.084 24.42h-7.063l-2.932-5.041h7.063L32 29.565l2.932 5.042zm15.484 0-6.553-11.252 2.932-5.042 9.484 16.294zm10.6-6.066-2.932 5.031-9.484-16.294h5.864zM36.726 33.571l-2.931-5.041h20.157l2.932 5.041zm18.426-7.09H33.805l2.932-5.042h21.358l3.526 6.066-2.942 5.042z"/></svg>
