<svg xmlns="http://www.w3.org/2000/svg" viewBox="0 0 32 32"><circle cx="16" cy="16" r="16" fill="#FFF"/><path fill="#82CBED" d="m22.014 13.424-.576-6.016h-5.29c-.624 1.08-1.144 3.041-1.486 5.026a32 32 0 0 0-.395 3.262h1.526q.61-.585 1.343-1.043a8.1 8.1 0 0 1 3.178-1.161 8 8 0 0 1 1.7-.068"/><path d="M25.916 20.388a5 5 0 0 0-1.443-3.483 5 5 0 0 0-3.483-1.443 5 5 0 0 0-3.484 1.443 5 5 0 0 0-1.442 3.483c0 1.287.532 2.574 1.442 3.483a5 5 0 0 0 3.484 1.443 5 5 0 0 0 3.483-1.443 5 5 0 0 0 1.443-3.483"/><path fill="#FFCD00" d="M23.474 20.388a2.52 2.52 0 0 0-.728-1.756 2.52 2.52 0 0 0-1.756-.728 2.52 2.52 0 0 0-1.757.728 2.52 2.52 0 0 0-.727 1.756c0 .649.268 1.298.727 1.757a2.52 2.52 0 0 0 1.757.727 2.52 2.52 0 0 0 1.756-.727 2.52 2.52 0 0 0 .728-1.757"/><path d="M22.065 20.388c0-.281-.117-.561-.315-.76a1.1 1.1 0 0 0-.76-.315c-.281 0-.562.116-.76.315a1.1 1.1 0 0 0-.315.76c0 .28.116.562.315.76.198.198.479.315.76.315.28 0 .561-.117.76-.315a1.1 1.1 0 0 0 .315-.76m-9.909 1.658c0-.872-.361-1.743-.977-2.36a3.4 3.4 0 0 0-2.36-.977c-.872 0-1.743.36-2.36.977a3.4 3.4 0 0 0-.977 2.36c0 .871.36 1.743.977 2.36a3.4 3.4 0 0 0 2.36.977c.871 0 1.743-.361 2.36-.977a3.4 3.4 0 0 0 .977-2.36"/><path fill="#FFCD00" d="M9.945 22.046c0-.294-.122-.588-.33-.796a1.14 1.14 0 0 0-.796-.33c-.294 0-.589.122-.796.33s-.33.502-.33.796.122.588.33.796c.207.208.502.33.796.33s.588-.122.796-.33.33-.502.33-.796"/><path fill="#FFCD00" stroke="#0B0B0B" d="M14.47 12.96c-.15.998-.246 1.972-.275 2.783h2.057q.548-.559 1.226-.983a6.6 6.6 0 0 1 2.567-.938 6.6 6.6 0 0 1 1.365-.056c.561.057.79.094 1.011.143.607.16.88.253 1.146.365q.316.134.616.298l.121.07-.156-.035a17 17 0 0 1-.544-.142l-.262-.072c-.472-.132-.921-.256-1.378-.327a6.43 6.43 0 0 0-3.928.648 6.43 6.43 0 0 0-2.784 2.846 6.53 6.53 0 0 0-.636 3.352h-1.162a4.86 4.86 0 0 0-1.115-2.088 4.8 4.8 0 0 0-2.399-1.417 4.8 4.8 0 0 0-2.782.165c-.509.19-.986.47-1.402.818-.125-1.552-.178-2.354-.185-2.828v-.154c.002-.237.019-.376.046-.505.062-.296.201-.498.61-.697.58-.282 1.571-.539 3-.743a32 32 0 0 1 1.235-.15l1.262-.122q.525-.046 1.155-.098l.678-.056Z"/><path d="m11.679 12.693-1.265.122v-.159a5 5 0 0 0-.01-.321.64.64 0 0 0-.298-.515 5 5 0 0 0-.273-.17l-.715-.412a.65.65 0 0 1-.295-.384.64.64 0 0 1 .063-.48.64.64 0 0 1 .385-.295.65.65 0 0 1 .48.063l.477.276q.313.18.637.381.645.402.757 1.159.055.377.057.735m1.836-.154 1.55-.13c.296-1.725.748-3.43 1.29-4.367h4.596l.5 5.226a7 7 0 0 1 1.087.155q.18.04.356.089l-.584-5.42a.64.64 0 0 0 .394-.202.59.59 0 0 0 .139-.546c-.065-.239-.302-.459-.533-.484h-7.507a.64.64 0 0 0-.432.176.623.623 0 0 0 .4 1.062q-.914 2.001-1.256 4.44"/></svg>
