<svg xmlns="http://www.w3.org/2000/svg" viewBox="0 0 960 960"><circle cx="480" cy="480" r="400" fill="#fff"/><path d="M0 480v480h960V0H0zm705-68.8c-.1 26.9.2 49.3.5 49.6s3.5.6 7.1.6c6.1.1 6.7-.1 9.2-3 1.5-1.7 5-6.8 7.7-11.3 2.8-4.5 7.1-11.4 9.6-15.4 11.9-18.5 18.6-28.8 23.4-36.2 7.3-11 12.9-19.8 13.5-21 1.2-2.4 8.1-12.4 8.8-12.9 1.6-1 41.6-.9 41.9.1.2.6-1.4 3.7-3.5 6.9-2.1 3.3-7.4 11.4-11.8 18.2-4.3 6.8-10.7 16.7-14.2 22s-8 12.3-10 15.6c-2 3.2-4.4 6.8-5.2 8.1-.8 1.2-3.4 5.3-5.7 9.1-2.4 3.8-7.9 12.3-12.3 18.9-4.3 6.6-8.4 13-8.9 14.2-.5 1.1-1.5 2.4-2 2.8-1.6.9-1.3 3.3.8 6.3 2.8 4 20.3 31.1 23.5 36.2 1.4 2.5 6.9 11 12.1 19s11.2 17.4 13.5 21 4.6 7.3 5.3 8.4c.7 1 4.4 6.8 8.4 13 3.9 6.1 7.8 11.9 8.8 12.9 2 2.2 1.6 5.2-.8 5.1-.9 0-10.2-.1-20.7-.2l-19-.2-2.7-3.9c-1.6-2.2-4.7-7-7-10.8-2.4-3.7-8.4-13.2-13.5-21s-13.3-20.6-18.3-28.4c-4.9-7.7-11.7-18.3-15-23.4-3.3-5.2-6.5-10.2-7.1-11.1-.9-1.5-2.4-1.8-8.2-1.8-4 .1-7.5.3-7.7.6-.3.3-.5 22.3-.5 49 0 37.7-.2 48.7-1.2 49.8-1.1 1.3-4.2 1.4-18.3 1l-17-.5-.3-118.7L668 361l16.7-.2c9.3-.2 17.6.1 18.6.5 1.6.7 1.7 3.8 1.7 49.9M261.5 379v17.5l-46.5.3c-25.5.1-46.8.6-47.3 1.1-.4.4-.8 15.8-.9 34.2v33.4l40.9.5c22.4.3 40.9.7 41.1.8.1.1.1 8.2 0 17.9l-.3 17.8-40 .3c-22.6.1-40.3.6-40.8 1.1-.6.6-.9 19.9-.8 46.8.1 25.2-.2 46.3-.7 47-.8 1.3-33.2 2.1-35.2.8-1.1-.7-1.5-235.7-.3-236.8.3-.4 29.9-.6 65.7-.5l65.1.3zm139.8-14.3c14.9 6.2 26.6 16.6 32.9 29.3 5.4 10.8 6.9 17.5 7.5 34.3 1.2 29.4-3.7 44.7-18.8 59.7-5.1 5.1-9.3 8.1-15.4 11.1-4.7 2.3-8.5 4.8-8.5 5.4 0 1.1 2.5 6.7 10 23 1 2.2 4.2 9.2 7 15.5 2.9 6.3 6.7 14.8 8.6 18.8s3.4 7.4 3.4 7.6c0 .6 8.9 19.6 11.2 24 3.1 5.9 2.3 6.1-19.5 5.8l-18.6-.3-1.9-4.2c-5.8-12.2-10.2-21.9-10.2-22.2 0-.2-3.8-8.7-8.4-18.7-11.8-25.8-17.2-37.8-18.8-41.8-2.5-5.9-3-6.1-19.9-5.8l-15.4.3-.5 46-.5 46-17 .5c-9.3.3-17.6.1-18.2-.4-1-.7-1.3-25.5-1.3-118.6 0-64.7.3-118 .7-118.4s23.9-.6 52.3-.4l51.5.3zm177.4-1.3c21 4.5 37 16.9 46.8 36.4 5.3 10.5 5.5 14.1 5.5 81.5 0 69.3 0 69.9-6.6 83.4-5.2 10.8-18 23.6-28.7 28.7-13.7 6.6-14.9 6.8-41.6 7.3-20.9.4-25.4.2-32-1.3-25.3-5.9-45.2-26.4-49.5-50.9-2.2-12.5-2.3-120.3-.2-133.6 2.1-13.2 6.6-21.7 17.1-32.7 9.7-10.3 19.3-15.7 33-18.7 8.8-1.9 47.3-1.9 56.2-.1"/><path d="M326.7 397.7c-.4.3-.7 16.5-.7 36 0 27.5.3 35.3 1.3 35.3.6.1 14.2 0 30.1 0 27.1-.1 29.1-.2 33-2.2 4.5-2.2 9.8-7.5 12.4-12.3 1.4-2.5 1.7-6.1 1.7-21 0-18 0-18-2.8-22.7-3.5-5.9-8.7-10-15-12.2-3.9-1.3-9.5-1.6-32.1-1.6-15 0-27.6.3-27.9.7m201.8 2.2c-7 1.8-13.4 6.8-17.6 13.6l-2.4 4v128l2.6 4c3.8 5.7 7.6 9 13.4 11.7 4.7 2.2 6.2 2.3 26.5 2.3s21.8-.1 26.5-2.3c5.6-2.6 10.5-6.9 13.8-12.2l2.2-3.5V481c0-61.5-.1-64.7-1.9-67.5-3.2-5.1-6.9-8.6-12.1-11.3-4.9-2.6-5.4-2.7-26.5-2.9-11.8-.1-22.8.2-24.5.6M559 458c1.9 1.9 2 3.3 2 23.9 0 25.6.4 24.6-10 24.6s-10 .9-10-24.4c0-26.2-.1-25.9 10.8-26 3.9-.1 5.7.4 7.2 1.9"/></svg>
