<svg xmlns="http://www.w3.org/2000/svg" fill="none" viewBox="0 0 160 160"><g clip-path="url(#a)"><circle cx="80" cy="80" r="80" fill="#000"/><path fill="#fff" fill-rule="evenodd" d="M52.8 42.59c.04.053.32.451.6.876.293.438.92 1.14 1.4 1.565.52.477 1.293.995 1.933 1.313.587.279 1.427.597 1.867.703s1.08.225 2.067.345L57.76 50.27c-1.587 1.591-3.56 3.687-4.36 4.655a70 70 0 0 0-2.587 3.316 53 53 0 0 0-2.106 3.21 60 60 0 0 0-1.84 3.382 46 46 0 0 0-1.467 3.316c-.347.875-.813 2.28-1.067 3.116-.24.836-.56 2.123-.706 2.852-.16.73-.387 2.016-.52 2.852-.187 1.193-.24 2.347-.24 5.239 0 2.93.053 4.032.24 5.239.133.835.386 2.214.573 3.05s.627 2.387.987 3.448c.36 1.062.973 2.64 1.36 3.515.4.876 1.04 2.162 1.44 2.852a44 44 0 0 0 1.6 2.586c.493.73 1.4 1.95 2 2.719.613.769 1.813 2.082 2.653 2.918.853.849 2.147 2.016 2.88 2.599a50 50 0 0 0 2.867 2.07 41 41 0 0 0 3.066 1.803c.84.451 2.04 1.022 2.667 1.287s1.547.636 2.067.822 1.506.504 2.2.716c.693.213 1.986.531 2.866.717.88.172 2.387.411 3.334.53.986.106 2.853.199 4.333.199s3.347-.093 4.333-.199a54 54 0 0 0 3.067-.477c.733-.146 2.08-.478 3-.73.92-.265 2.36-.743 3.2-1.074a47 47 0 0 0 3.2-1.446 38 38 0 0 0 3-1.671c.733-.464 1.933-1.3 2.667-1.844a55 55 0 0 0 2.733-2.268c.773-.689 1.933-1.87 2.6-2.612a55 55 0 0 0 2.267-2.799 40 40 0 0 0 2.026-3.077 47 47 0 0 0 1.76-3.356c.44-.941 1.094-2.626 1.454-3.713.373-1.101.826-2.68 1.013-3.515a55 55 0 0 0 .547-2.918c.12-.77.253-2.652.293-4.178.053-1.724.013-3.462-.08-4.576a52 52 0 0 0-.427-3.315 44 44 0 0 0-.653-2.985 60 60 0 0 0-.867-2.918c-.28-.808-.88-2.32-1.346-3.382a47 47 0 0 0-1.8-3.58 63 63 0 0 0-2.054-3.316 56 56 0 0 0-2.36-3.197A92 92 0 0 0 105 53.095c-.733-.822-2.32-2.44-5.733-5.69l.666-.08a14 14 0 0 0 1.534-.291c.48-.12 1.32-.438 1.866-.717.614-.305 1.374-.835 1.987-1.406.533-.49 1.187-1.246 1.88-2.427l.84.557a77 77 0 0 1 2.16 1.552 64 64 0 0 1 2.667 2.149c.733.623 2.12 1.95 3.066 2.931.947.968 2.187 2.334 2.76 3.024.56.69 1.494 1.936 2.094 2.746.6.822 1.08 1.538 1.08 1.591 0 .066-.374.345-.814.637-.44.291-1.12.862-1.493 1.26a10.5 10.5 0 0 0-1.187 1.525c-.266.438-.653 1.273-.866 1.857-.334.955-.374 1.233-.374 2.851s.04 1.897.374 2.852c.213.584.64 1.472.946 1.99.334.517 1.014 1.326 1.56 1.83a8.5 8.5 0 0 0 2.054 1.432c.586.279 1.453.61 1.933.743.507.12 1.4.212 2.133.212.694 0 1.6-.066 2-.159s.747-.146.76-.12c.027.027.16.69.307 1.5.147.795.387 2.453.533 3.673.187 1.565.267 3.064.267 5.04 0 1.937-.08 3.541-.267 5.08-.146 1.247-.386 2.918-.533 3.714s-.28 1.472-.307 1.498c-.013.027-.36-.026-.76-.119s-1.306-.16-2-.16c-.733 0-1.64.107-2.133.226-.48.133-1.347.465-1.933.743-.667.318-1.414.836-1.987 1.353-.507.464-1.187 1.247-1.52 1.764-.347.517-.8 1.432-1.013 2.056-.294.849-.4 1.459-.454 2.453-.053.982 0 1.605.174 2.388.133.61.493 1.565.853 2.255.373.729.893 1.498 1.36 1.989a11.5 11.5 0 0 0 1.533 1.326c.427.292.814.544.854.557.04.027-.294.571-.734 1.207s-1.4 1.897-2.12 2.812c-.733.915-2.2 2.547-3.266 3.634-1.08 1.088-2.667 2.573-3.56 3.316a65 65 0 0 1-3.134 2.414c-.84.583-1.6 1.114-1.68 1.154-.106.066-.293-.106-.493-.478-.173-.305-.64-.902-1.027-1.339-.4-.425-1.133-1.061-1.653-1.393-.52-.345-1.293-.769-1.733-.928-.44-.173-1.28-.398-1.867-.504a8.2 8.2 0 0 0-2.133-.106c-.587.053-1.454.212-1.934.358s-1.28.477-1.786.742c-.507.279-1.307.849-1.787 1.287-.467.438-1.133 1.207-1.467 1.724-.346.517-.8 1.433-1 2.056-.293.849-.413 1.459-.453 2.454-.04.822 0 1.671.12 2.241.107.584.12.915.04.955-.08.027-.827.172-1.667.318s-2.68.385-4.066.531c-1.387.146-3.374.265-4.4.265s-2.76-.093-3.867-.199c-1.093-.106-2.48-.265-3.067-.345a58 58 0 0 1-2.133-.331 21 21 0 0 1-1.2-.239c-.093-.04-.08-.345.027-.889.093-.464.173-1.299.173-1.843s-.093-1.406-.2-1.923-.48-1.499-.813-2.189c-.52-1.021-.84-1.459-1.707-2.334-.853-.836-1.32-1.194-2.213-1.618-.627-.305-1.52-.663-2-.783-.534-.132-1.374-.225-2.2-.225-.814 0-1.667.093-2.2.225-.48.12-1.374.478-1.987.783a9.7 9.7 0 0 0-1.987 1.366c-.466.438-1.093 1.154-1.386 1.592-.294.437-.6.769-.694.756-.08-.027-.826-.544-1.666-1.128a66 66 0 0 1-3.134-2.427c-.893-.743-2.48-2.228-3.546-3.316-1.067-1.087-2.427-2.573-3.014-3.302a68 68 0 0 1-1.733-2.255c-.373-.517-.853-1.18-1.067-1.499-.213-.305-.36-.583-.32-.597l.667-.424c.333-.212.92-.676 1.32-1.048.4-.371 1-1.087 1.333-1.605.347-.517.787-1.432 1-2.055.28-.836.4-1.473.454-2.454.04-.995 0-1.592-.174-2.388-.133-.596-.506-1.578-.84-2.254-.466-.915-.84-1.42-1.613-2.189-.56-.543-1.373-1.207-1.813-1.459a12 12 0 0 0-1.627-.756c-.467-.172-1.333-.371-1.933-.437-.707-.08-1.454-.093-2.04-.014-.507.067-1.134.16-1.36.2-.44.079-.44.079-.574-.624-.066-.371-.186-1.048-.266-1.486s-.254-1.79-.4-3.024c-.187-1.551-.267-3.05-.267-5.04 0-1.923.08-3.528.267-5.066.146-1.247.386-2.918.533-3.714.147-.809.28-1.472.307-1.498.013-.027.36.026.76.119s1.306.16 2 .16c.733 0 1.626-.094 2.133-.213.48-.133 1.373-.478 2-.783.907-.437 1.36-.769 2.267-1.684.84-.849 1.266-1.393 1.64-2.135.266-.544.613-1.473.76-2.056a10 10 0 0 0 .266-2.189c0-.703-.093-1.525-.266-2.188a13 13 0 0 0-.8-2.056c-.28-.544-.88-1.38-1.32-1.857-.427-.477-1.147-1.1-1.6-1.392-.44-.292-.814-.557-.814-.597s.48-.756 1.08-1.592c.6-.835 1.6-2.148 2.227-2.918.627-.769 2.133-2.374 3.347-3.58C46 47.775 47.72 46.21 48.6 45.507a61 61 0 0 1 2.867-2.135c.693-.477 1.293-.822 1.333-.782m-7.093 59.512c.413.73 1.066 1.831 1.466 2.454a43 43 0 0 0 1.534 2.188c.44.584 1.293 1.632 1.906 2.321.6.69 1.56 1.711 2.134 2.255.586.557 1.6 1.446 2.253 1.99.667.557 1.8 1.419 2.533 1.923a60 60 0 0 0 2.934 1.857 42 42 0 0 0 3.333 1.711c.947.424 2.693 1.087 3.867 1.485 1.173.385 2.826.849 3.666 1.035s2.134.424 2.867.53c.733.119 2.32.265 3.533.345 1.6.106 2.814.106 4.467 0 1.253-.08 2.853-.226 3.573-.332.707-.106 1.88-.318 2.6-.477a65 65 0 0 0 2.827-.716c.84-.252 2.373-.783 3.4-1.194s2.533-1.088 3.333-1.512 2.04-1.114 2.734-1.552a43 43 0 0 0 2.6-1.764 55 55 0 0 0 2.653-2.122 41 41 0 0 0 2.453-2.334c.614-.663 1.56-1.724 2.094-2.388a54 54 0 0 0 1.96-2.652 41 41 0 0 0 1.733-2.785c.413-.73.853-1.552.96-1.818.12-.278.187-.504.147-.504s-.32.438-.614.969a54 54 0 0 1-1.56 2.414c-.546.795-1.386 1.936-1.866 2.52-.48.583-1.36 1.591-1.947 2.241-.6.637-1.707 1.711-2.453 2.387-.76.664-1.96 1.645-2.667 2.189-.72.53-1.867 1.339-2.56 1.804a62 62 0 0 1-2.733 1.631c-.8.438-2.16 1.114-3 1.485-.84.372-2.32.942-3.267 1.274-.947.331-2.427.769-3.267.981s-2.226.504-3.066.65-2.32.332-3.267.425c-1.08.092-2.64.132-4.133.079-1.32-.04-3.214-.199-4.2-.345a55 55 0 0 1-3.4-.663c-.88-.212-2.32-.623-3.2-.915A49 49 0 0 1 65 118.018a55 55 0 0 1-2.467-1.127 58 58 0 0 1-2.2-1.194 64 64 0 0 1-2.533-1.605c-.733-.491-1.96-1.406-2.733-2.016s-2-1.684-2.72-2.361a46 46 0 0 1-2.587-2.705 51 51 0 0 1-2.227-2.786 56 56 0 0 1-2.066-3.116c-.587-.982-1.107-1.818-1.147-1.857-.04-.04.093.291.293.73.2.437.694 1.392 1.094 2.121" clip-rule="evenodd"/><path fill="#F17300" d="M65.787 32.842c.08.026.146.106.146.172 0 .067-.093.663-.186 1.313-.12.796-.16 1.817-.107 3.05.027 1.022.173 2.335.293 2.919.12.583.374 1.565.56 2.188.174.624.534 1.658.8 2.321.254.65.827 1.91 1.254 2.785.426.876 1.2 2.335 1.733 3.25.52.915 2.227 3.687 3.787 6.167s3.226 5.2 3.693 6.035c.48.836 1.2 2.175 1.6 2.984a40 40 0 0 1 1.373 3.05c.347.876.8 2.282 1.014 3.118.226.835.466 2.241.546 3.117.12 1.206.12 1.962 0 3.116-.093.836-.306 2.096-.493 2.786-.213.782-.68 1.963-1.267 3.116a21 21 0 0 1-2.026 3.316c-.614.796-1.827 2.175-2.707 3.064-.88.875-2.653 2.533-3.933 3.66s-2.907 2.653-3.614 3.37c-.693.716-1.586 1.763-1.973 2.307a22 22 0 0 0-1.227 2.016c-.28.571-.666 1.525-.84 2.122a18 18 0 0 0-.466 2.427 15 15 0 0 0-.014 2.786c.067.796.08 1.498.027 1.552-.053.066-.627-.226-1.293-.637A39 39 0 0 1 60 108.614c-.693-.517-1.947-1.605-2.787-2.4-.826-.796-2-2.03-2.573-2.719-.587-.69-1.547-1.977-2.133-2.852S51 98.15 50.467 97.062c-.547-1.1-1.2-2.586-1.467-3.316-.28-.73-.693-2.109-.933-3.05-.24-.942-.56-2.414-.694-3.25-.2-1.246-.24-2.254-.226-5.438 0-3.329.04-4.19.293-5.77.16-1.02.467-2.572.68-3.448a37 37 0 0 1 .813-2.785c.24-.65.694-1.79 1.027-2.52.32-.73.92-1.923 1.32-2.652.413-.73 1.347-2.295 2.093-3.489.747-1.18 1.427-2.135 1.494-2.095.08.026.12.093.106.159s-.306.902-.64 1.843a41 41 0 0 0-.946 3.184c-.24 1.034-.36 2.002-.414 3.316-.04 1.06-.013 2.175.067 2.586.08.398.28 1.087.44 1.525.173.438.533 1.074.813 1.42.36.45.774.769 1.4 1.06.8.385 1.014.438 1.974.425.72-.014 1.32-.12 1.866-.305.44-.16 1.16-.518 1.6-.783s1.2-.875 1.68-1.353c.494-.477 1.24-1.406 1.667-2.055s.987-1.698 1.227-2.322c.253-.623.6-1.67.76-2.32.173-.65.386-1.91.466-2.786.094-.915.12-2.149.067-2.918a36 36 0 0 0-.28-2.652c-.107-.73-.387-2.07-.64-2.985-.24-.915-.787-2.758-1.2-4.111s-.907-3.144-1.093-3.98c-.254-1.18-.347-2.042-.414-3.846-.053-1.777-.026-2.6.134-3.514.12-.65.4-1.764.626-2.454.227-.69.667-1.79.96-2.427.307-.637.614-1.14.694-1.114"/><path fill="#f17300" d="M92.493 17.085c.027.04-.08.226-.213.438-.147.199-.533.928-.853 1.618-.334.69-.734 1.737-.867 2.321a18 18 0 0 0-.36 1.99 12 12 0 0 0 .053 2.055c.08.624.32 1.698.547 2.388s.747 1.95 1.173 2.785 1.414 2.6 2.2 3.913c.774 1.313 1.707 3.01 2.08 3.78.36.769.787 1.75.92 2.188.147.438.36 1.26.48 1.83.12.557.214 1.592.214 2.282s-.04 1.26-.094 1.26c-.066 0-2.093-1.95-4.52-4.337-2.8-2.746-4.773-4.815-5.386-5.61-.534-.69-1.2-1.645-1.48-2.123a14 14 0 0 1-.867-1.857c-.24-.69-.373-1.38-.413-2.254-.067-1.022-.014-1.473.213-2.388.16-.623.52-1.605.8-2.188.293-.584.813-1.512 1.173-2.056a39 39 0 0 1 1.72-2.321c.587-.73 1.6-1.883 2.254-2.56.64-.676 1.2-1.194 1.226-1.154"/><path fill="#E03597" d="M81.414 8c.106 0 .186.066.186.133 0 .066-.253.623-.546 1.233-.307.597-.867 1.857-1.254 2.812-.386.955-.88 2.387-1.106 3.183a42 42 0 0 0-.654 2.653c-.173.888-.227 1.857-.24 3.78 0 1.99.053 2.864.254 3.78.133.65.453 1.843.72 2.652.253.81.866 2.229 1.346 3.184a40 40 0 0 0 1.907 3.249c.56.836 1.533 2.149 2.147 2.918.626.77 1.68 2.016 2.36 2.785s1.626 1.804 2.12 2.308c.48.504 2.493 2.454 4.466 4.31 1.974 1.87 4.427 4.298 5.453 5.385 1.027 1.101 2.347 2.56 2.921 3.25.586.69 1.586 1.95 2.226 2.785s1.587 2.149 2.107 2.918c.507.77 1.24 1.936 1.64 2.586.387.65 1.053 1.897 1.48 2.759a59 59 0 0 1 1.307 2.772c.28.676.733 1.923 1 2.759.28.835.64 2.122.826 2.851.174.73.427 1.99.547 2.785.173 1.101.24 2.269.24 4.775 0 2.56-.053 3.66-.253 4.841-.134.836-.44 2.308-.68 3.25a40 40 0 0 1-.947 3.117c-.28.769-.947 2.254-1.467 3.315-.533 1.061-1.426 2.613-1.986 3.449s-1.52 2.122-2.134 2.851c-.6.73-1.666 1.871-2.346 2.534-.694.65-1.707 1.551-2.254 1.989a39 39 0 0 1-2.066 1.539c-.587.411-1.734 1.114-2.534 1.578-.813.451-2.04 1.088-2.733 1.393s-1.894.769-2.667 1.034c-.773.279-1.973.637-2.666.809-.694.173-1.987.451-2.867.61-1.173.199-2.373.305-4.467.345-2.2.053-3.28.013-4.666-.146a38 38 0 0 1-3.267-.557 35 35 0 0 1-3.067-.822l-.253-.836c-.2-.663-.254-1.286-.267-2.904-.013-1.778.027-2.202.293-3.117a18 18 0 0 1 .774-2.056c.253-.544.853-1.565 1.32-2.255a33 33 0 0 1 1.733-2.321c.48-.583 2.067-2.32 3.52-3.846 1.454-1.525 3.013-3.197 3.467-3.714a46 46 0 0 0 1.8-2.188c.533-.69 1.293-1.83 1.707-2.52.413-.69.96-1.764 1.213-2.388.267-.623.627-1.657.826-2.32.187-.664.467-1.87.614-2.693.173-1.008.253-2.096.253-3.409 0-1.074-.093-2.586-.213-3.421-.12-.81-.427-2.229-.68-3.144-.24-.915-.72-2.348-1.053-3.183-.334-.836-1.08-2.454-1.64-3.581-.574-1.127-1.587-2.984-2.28-4.112-.68-1.127-2.067-3.276-3.08-4.774-1-1.5-2.56-3.767-3.454-5.04-.893-1.274-1.947-2.945-2.333-3.714s-.88-1.937-1.107-2.586a25 25 0 0 1-.68-2.454 35 35 0 0 1-.413-2.454 35 35 0 0 1-.133-2.918c0-.955.093-2.467.2-3.382.106-.915.346-2.4.546-3.316.187-.915.547-2.347.8-3.183a46 46 0 0 1 1.027-3.05c.32-.836.787-1.977 1.026-2.52.24-.544.734-1.592 1.094-2.321a79 79 0 0 1 1.88-3.37c.68-1.113 1.733-2.705 2.346-3.514a60 60 0 0 1 1.84-2.308c.414-.45.827-.822.92-.822"/></g><defs><clipPath id="a"><path fill="#fff" d="M0 0h160v160H0z"/></clipPath></defs></svg>
