<svg xmlns="http://www.w3.org/2000/svg" viewBox="0 0 400 400"><path fill="#fbbf2d" d="M190.613 1.623c-1.387.414-5.99 4.992-112.195 111.585C-3.069 194.992.837 190.885 1.479 194.093c.377 1.886 2.517 3.733 4.986 4.304 1.174.271 2.535.744 3.025 1.05s1.905.822 3.147 1.146 2.472.766 2.733.983 1.486.657 2.721.979 2.664.855 3.177 1.185 1.642.731 2.509.889c.868.159 2.128.605 2.8.991.673.386 1.853.828 2.623.981.77.152 1.8.531 2.29.841.489.309 1.839.814 3 1.121 1.16.308 2.65.846 3.31 1.196s1.82.754 2.577.898c.758.143 1.928.577 2.6.963s1.853.823 2.623.97 2.12.604 3 1.017c2.243 1.051 5.4 1.95 5.4 1.538 0-.19.184-.345.408-.345s1.121-.45 1.992-1c1.99-1.256 3.805-1.269 7.2-.049 1.43.513 30.68 11.155 65 23.647 65.914 23.993 80.372 29.253 96.2 34.994 5.39 1.956 15.2 5.522 21.8 7.926l30.285 11.027c10.057 3.661 18.696 6.655 19.199 6.655.69 0-15.366-16.286-65.366-66.3-36.455-36.465-66.464-66.792-66.688-67.393-.421-1.136-.342-1.791 1.166-9.707.42-2.2 1.308-6.97 1.975-10.6s2.105-11.37 3.195-17.2a5994 5994 0 0 0 2.383-12.8c.221-1.21 1.045-5.62 1.83-9.8A11090 11090 0 0 0 180.4 73c1.346-7.26 3.146-16.89 3.998-21.4s2.098-11.17 2.768-14.8 2.136-11.46 3.259-17.4 2.141-11.43 2.265-12.2c.223-1.397 1.284-2.8 2.117-2.8.242 0 .313-.206.157-.458-.201-.326.054-.38.876-.188.85.198 1 .162.56-.136-.33-.223-.443-.409-.251-.412s.123-.278-.153-.611c-.373-.449-.638-.492-1.032-.165-.624.518-1.364.164-1.364-.654 0-.644-1.145-.703-2.987-.153"/><path fill="#fafaf9" d="M193.701 2.1c.092.275.46.502.818.505.358.002.873.227 1.146.5.393.393.351.495-.209.495-.387 0-.592.18-.456.4s.049.4-.193.4c-.833 0-1.894 1.403-2.117 2.8-.124.77-1.143 6.26-2.265 12.2s-2.589 13.77-3.259 17.4-1.916 10.29-2.768 14.8-2.652 14.14-3.998 21.4a11090 11090 0 0 1-5.821 31.2c-.785 4.18-1.609 8.59-1.83 9.8a5994 5994 0 0 1-2.383 12.8c-1.09 5.83-2.528 13.57-3.195 17.2s-1.555 8.4-1.975 10.6c-1.599 8.39-1.618 8.577-1.028 9.931.741 1.7 132.792 133.665 133.385 133.298 1.177-.727 4.032 7.448-30.954-88.629-8.532-23.43-17.178-47.19-19.214-52.8s-9.768-26.85-17.183-47.2c-20.326-55.784-18.48-49.83-16.575-53.452 1.352-2.57 1.349-4.072-.012-6.348-.395-.66-.844-1.91-.999-2.778-.155-.867-.605-2.217-1-3-.686-1.357-1.39-3.257-2.674-7.222-.321-.99-.909-2.43-1.307-3.2s-.854-2.12-1.013-3-.612-2.14-1.007-2.8-.844-1.91-.999-2.778c-.155-.867-.617-2.217-1.028-3s-1.041-2.322-1.4-3.422l-1.241-3.8c-.324-.99-.939-2.466-1.368-3.279-.428-.814-.78-1.714-.781-2-.006-1.323-.953-3.712-1.813-4.572-.522-.522-.839-.949-.705-.949s-.071-.348-.456-.773c-.402-.445-.966-.671-1.327-.532q-.624.237-.339-.227c.159-.257.084-.468-.168-.468-.251 0-.381.225-.289.5"/><path fill="#043c84" d="M214.855 55.867c-.682 3.399-.669 3.466 2.365 11.793 1.551 4.257 4.419 12.15 6.374 17.54 1.954 5.39 5.52 15.2 7.924 21.8 2.403 6.6 5.939 16.32 7.856 21.6a3439 3439 0 0 0 5.04 13.8c1.571 4.244 11.439 31.328 16.25 44.6 1.436 3.96 3.201 8.82 3.923 10.8 10.015 27.486 23.559 64.694 26.645 73.2 2.155 5.94 5.161 14.22 6.681 18.4 3.858 10.609 3.95 11.8.911 11.8-1.167 0-2.159-.34-19.224-6.595-5.17-1.894-13.81-5.048-19.2-7.007s-15.29-5.562-22-8.006-16.61-6.044-22-7.999-15.29-5.556-22-8.001-15.44-5.622-19.4-7.06l-10.8-3.927-11-4.005-11-4.005a29444 29444 0 0 0-22-7.996c-1.98-.719-7.38-2.689-12-4.376s-12.81-4.667-18.2-6.621-14.278-5.183-19.751-7.177c-10.536-3.838-12.731-4.283-14.615-2.963-.683.478-1.123.549-1.59.258-.907-.568-.496 22.431.462 25.88.337 1.21.716 4.489.844 7.286.154 3.374.489 5.864.995 7.4.419 1.273.887 3.664 1.039 5.314s.598 3.732.991 4.626.848 2.692 1.01 3.995c.163 1.304.615 3.003 1.003 3.775.389.772.838 2.302.998 3.399s.585 2.537.944 3.2c.358.663.86 2.015 1.115 3.005s.867 2.79 1.36 4 1.261 3.1 1.705 4.2c1.445 3.578 5.263 11.953 5.926 13 .209.33.666 1.225 1.014 1.989.741 1.62 3.836 7.187 5.122 9.211.489.77 1.343 2.12 1.898 3 2.301 3.651 5.819 8.767 8.526 12.4 6.215 8.341 19.679 22.474 26.271 27.575a438 438 0 0 1 5.994 4.747c4.285 3.469 13.377 9.742 15.939 10.999.55.269 1.9 1.052 3 1.738 3.394 2.117 9.333 5.24 14 7.361 1.32.599 3.29 1.515 4.379 2.035s2.236.945 2.552.945 1.136.341 1.822.757 1.877.89 2.647 1.053 2.027.632 2.793 1.043 2.026.848 2.8.974 2.063.577 2.865 1.003 2.332.888 3.4 1.029 2.604.586 3.412.991c.809.405 2.519.844 3.8.976 1.282.132 3.177.587 4.213 1.011 1.035.424 3.285.875 5 1.004 1.714.128 4.181.586 5.481 1.018 1.769.587 4.285.88 10 1.165 4.2.21 8.626.547 9.836.749 2.867.48 12.784.474 15.6-.009 1.21-.208 5.62-.537 9.8-.733 5.816-.271 8.163-.543 10-1.156 1.32-.44 3.803-.906 5.517-1.034 1.715-.129 3.965-.58 5-1.004s2.931-.879 4.213-1.011c1.281-.132 2.991-.571 3.8-.976s2.326-.849 3.371-.986c1.046-.137 2.576-.588 3.4-1.002.825-.415 2.219-.883 3.099-1.042.88-.158 2.14-.613 2.8-1.01.66-.398 1.83-.853 2.6-1.01s1.961-.627 2.647-1.043 1.506-.757 1.822-.757 1.464-.425 2.552-.945c2.715-1.296 6.099-2.864 7.779-3.604 1.668-.735 6.88-3.556 10.119-5.476a427 427 0 0 1 4.059-2.375c12.461-7.158 33.531-25.21 41.551-35.6a545 545 0 0 1 4.878-6.2c1.41-1.76 2.902-3.65 3.316-4.2 1.584-2.104 6.984-10.217 7.185-10.794.116-.333.602-1.146 1.081-1.806 1.27-1.75 4.524-7.72 7.087-13 4.031-8.306 4.324-8.951 4.324-9.531 0-.316.341-1.136.757-1.822s.886-1.877 1.043-2.647.619-1.948 1.025-2.618c.407-.671.867-2.015 1.022-2.988s.613-2.328 1.016-3.011.853-2.129.999-3.213c.146-1.083.603-2.621 1.014-3.417s.848-2.415.97-3.6c.122-1.184.563-2.989.981-4.012s.869-3.182 1.003-4.8.599-4.012 1.034-5.321c.565-1.702.885-4.21 1.124-8.8.184-3.531.531-7.049.773-7.817.588-1.871.594-22.907.007-24.806-.237-.768-.581-4.277-.764-7.797-.239-4.604-.557-7.074-1.131-8.8-.44-1.32-.904-3.798-1.031-5.507-.135-1.804-.547-3.733-.981-4.6-.411-.821-.861-2.62-.999-3.998s-.588-3.178-1.001-4-.848-2.263-.968-3.201-.568-2.378-.995-3.2c-.426-.822-.906-2.214-1.066-3.094s-.637-2.195-1.061-2.923c-.424-.727-.771-1.597-.771-1.933 0-.589-1.615-4.639-3.167-7.944-.414-.88-1.323-2.86-2.02-4.4s-1.535-3.25-1.86-3.8-.94-1.72-1.367-2.6-.944-1.87-1.15-2.2-1.475-2.58-2.821-5c-1.345-2.42-2.775-4.85-3.177-5.4s-1.382-1.99-2.176-3.2c-9.579-14.597-23.065-29.199-37.494-40.6-3.988-3.151-11.791-8.6-12.314-8.6-.196 0-.573-.261-.838-.58-.43-.519-3.283-2.287-6.016-3.729-.55-.29-1.9-1.05-3-1.689a92 92 0 0 0-3.6-1.976c-.88-.449-1.87-.993-2.2-1.21-.543-.357-3.459-1.727-9-4.227-1.1-.497-2.81-1.272-3.8-1.722-.99-.451-2.335-.95-2.988-1.109-.654-.159-1.734-.6-2.4-.979-.667-.38-1.903-.812-2.747-.959-.844-.148-2.194-.603-3-1.011s-2.267-.868-3.247-1.024c-.979-.156-2.419-.606-3.2-1-.78-.395-2.385-.843-3.567-.996s-2.892-.602-3.8-.999c-.908-.396-2.911-.842-4.451-.99s-3.88-.616-5.2-1.041c-1.398-.449-4.571-.928-7.6-1.148-2.86-.207-6.37-.651-7.8-.986-2.029-.475-5.331-.61-15.045-.617L215.31 53.6z"/><path fill="#748074" d="M56.4 213.8c-.77.525-1.625.964-1.9.977s-.5.293-.5.623c0 .755.768.75 1.776-.013 1.656-1.252 4.111-.736 14.473 3.038 5.473 1.994 14.361 5.223 19.751 7.177s13.58 4.933 18.2 6.621c4.62 1.687 10.02 3.657 12 4.376a29444 29444 0 0 1 22 7.996l11 4.005 11 4.005 10.8 3.927c3.96 1.438 12.69 4.615 19.4 7.06s16.61 6.045 22 8.001 15.29 5.555 22 7.999 16.61 6.047 22 8.006 14.03 5.113 19.2 7.007c17.056 6.251 18.057 6.595 19.211 6.595 1.185 0 2.4-1.221 2.377-2.389-.01-.493-.091-.476-.42.089-.535.919-1.921.875-3.168-.1-.55-.43-1.322-.786-1.715-.791-.643-.008-7.338-2.411-49.285-17.691-6.6-2.404-16.41-5.97-21.8-7.926-15.828-5.741-30.286-11.001-96.2-34.994-34.32-12.492-63.57-23.134-65-23.647-3.332-1.197-5.392-1.183-7.2.049"/><path fill="#6c94bc" d="M213.84 55.296c-1.462 2.495-1.643 3.882-.828 6.37.384 1.174 7.443 20.674 15.685 43.334s16.652 45.79 18.688 51.4 10.682 29.37 19.214 52.8c35.343 97.057 32.176 87.927 30.77 88.714-.849.474 1.078 1.792 2.355 1.611 1.507-.215 1.232-1.795-1.732-9.927-1.563-4.289-4.605-12.658-6.76-18.598-3.086-8.506-16.63-45.714-26.645-73.2-.722-1.98-2.487-6.84-3.923-10.8-4.727-13.041-14.666-40.321-16.249-44.6-1.579-4.27-6.4-17.506-12.822-35.2-1.957-5.39-5.557-15.29-8.001-22a9205 9205 0 0 1-6.888-18.966l-2.444-6.767.479-2.791c.584-3.41.43-3.648-.899-1.38"/></svg>
