<svg xmlns="http://www.w3.org/2000/svg" viewBox="0 0 32 30"><path fill="#FED955" d="M8 12.546H5.333v-2.453H8zm0 4.908H5.333V15H8zM8 15H5.333v-2.453H8z"/><path fill="#FED955" d="M8 19.906H5.333v-2.453H8zM18.666 7.64H16V5.187h2.667zm.001 14.72H16v2.453h2.667zm2.667-14.72h-2.667V5.187h2.667z"/><path fill="#9695F8" d="M24 7.64h-2.667V5.187H24zm-16 0h2.667V5.187H8zm16 14.72h2.667v-2.453H24zm-16 0H5.333v-2.453H8zM21.334 5.187h-2.667V2.734h2.667z"/><path fill="#5552FD" d="M21.334 2.734h-2.667V.28h2.667zm0 26.986h-2.667v-2.453h2.667z"/><path fill="#9695F8" d="M21.334 27.266h-2.667v-2.453h2.667zM16 5.187h-2.667V2.734H16z"/><path fill="#5552FD" d="M16 2.734h-2.667V.28H16zm0 26.986h-2.667v-2.453H16z"/><path fill="#9695F8" d="M16 27.266h-2.667v-2.453H16zm2.666-22.079H16V2.734h2.667z"/><path fill="#5552FD" d="M18.666 2.734H16V.28h2.667zm0 26.986H16v-2.453h2.667z"/><path fill="#9695F8" d="M18.666 27.266H16v-2.453h2.667zM13.334 5.187h-2.667V2.734h2.667z"/><path fill="#5552FD" d="M13.334 2.734h-2.667V.28h2.667zm0 26.986h-2.667v-2.453h2.667z"/><path fill="#9695F8" d="M13.334 27.266h-2.667v-2.453h2.667zm13.332-17.172H24V7.64h2.667zm-21.333-.001H8V7.64H5.333zm16 14.721H24V22.36h-2.667zm-10.667-.001H8V22.36h2.667zm18.668-12.267h-2.667v-2.453h2.667zm-24 0H2.667v-2.453h2.667z"/><path fill="#5552FD" d="M2.666 12.546H0v-2.453h2.667zm2.668-2.452H2.667V7.64h2.667zm21.333-.001h2.667V7.64h-2.667zM24 27.266h-2.667v-2.453H24zM2.667 22.36v-2.453h2.667v2.453zM8 7.64H5.333V5.187H8zm16 0h2.667V5.187H24zm2.666 17.173H24V22.36h2.667zm-21.332.001V22.36H8v2.453zm5.332-19.627H8V2.734h2.667zm10.667 0H24V2.734h-2.667zm8.001 17.173h-2.667v-2.453h2.667zM8 27.267v-2.453h2.667v2.453zm24-14.721h-2.667v-2.453H32z"/><path fill="#9695F8" d="M29.334 15h-2.667v-2.453h2.667zm-24 0H2.667v-2.453h2.667z"/><path fill="#5552FD" d="M2.666 15H0v-2.453h2.667zM32 15h-2.667v-2.453H32z"/><path fill="#9695F8" d="M29.334 17.454h-2.667V15h2.667zm-24 0H2.667V15h2.667z"/><path fill="#5552FD" d="M2.666 17.454H0V15h2.667zm29.334 0h-2.667V15H32z"/><path fill="#9695F8" d="M29.334 19.906h-2.667v-2.453h2.667zm-24 0H2.667v-2.453h2.667z"/><path fill="#5552FD" d="M2.666 19.906H0v-2.453h2.667zm29.334 0h-2.667v-2.453H32z"/><path fill="#FED955" d="M21.333 22.36h-2.667v2.453h2.667zm-2.667-9.814H16v-2.453h2.667zm0 4.908H16V15h2.667z"/><path fill="#FED955" d="M18.666 19.906H16v-2.453h2.667zm0-9.812H16V7.64h2.667zm.001 9.813H16v2.453h2.667zm-5.333-2.453h-2.667V15h2.667zm0-2.454h-2.667v-2.453h2.667z"/><path fill="#FED955" d="M13.334 19.906h-2.667v-2.453h2.667zm0-9.812h-2.667V7.64h2.667zm-.001 9.813h-2.667v2.453h2.667zm8.001-2.453h-2.667V15h2.667zm0-2.454h-2.667v-2.453h2.667z"/><path fill="#FED955" d="M21.334 19.906h-2.667v-2.453h2.667zm0-9.812h-2.667V7.64h2.667zm-.001 9.813h-2.667v2.453h2.667zM16 7.64h-2.667V5.187H16zm0 14.72h-2.667v2.453H16z"/><path fill="#FED955" d="M13.334 7.64h-2.667V5.187h2.667zm-.001 14.72h-2.667v2.453h2.667zM16 12.546h-2.667v-2.453H16zm0 4.908h-2.667V15H16z"/><path fill="#5552FD" d="M13.334 12.547h-2.667v-2.453h2.667zM18.666 15H16v-2.453h2.667zM24 12.547h-2.667v-2.453H24zm0 4.907h-2.667V15H24zM24 15h-2.667v-2.453H24z"/><path fill="#5552FD" d="M24 19.906h-2.667v-2.453H24zm0-9.813h-2.667V7.64H24zm0 9.814h-2.667v2.453H24zm-13.334-7.36H8v-2.453h2.667zm0 4.907H8V15h2.667zm0-2.454H8v-2.453h2.667z"/><path fill="#5552FD" d="M10.666 19.906H8v-2.453h2.667zm0-9.813H8V7.64h2.667zm.001 9.814H8v2.453h2.667zm10.667-7.36h-2.667v-2.453h2.667zM16 15h-2.667v-2.453H16z"/><path fill="#FED955" d="M16 19.906h-2.667v-2.453H16zm0-9.812h-2.667V7.64H16zm0 9.813h-2.667v2.453H16zm10.666-7.361H24v-2.453h2.667zm0 4.908H24V15h2.667zm0-2.454H24v-2.453h2.667z"/><path fill="#FED955" d="M26.666 19.906H24v-2.453h2.667z"/></svg>
