<svg xmlns="http://www.w3.org/2000/svg" fill="none" viewBox="0 0 256 256"><g clip-path="url(#a)"><path fill="#DFFE00" d="M0 0h256v256H0z"/><path fill="#DFFE00" d="M128 256c70.692 0 128-57.308 128-128S198.692 0 128 0 0 57.308 0 128s57.308 128 128 128"/><path fill="#000" d="M203.881 195.4h-29.649v-67.29l11.872-38.375-8.412-2.993L139.215 195.4h-22.549L78.188 86.742l-8.41 2.993 11.87 38.375v67.29H52v-135h44.144l27.382 77.288v22.69h8.948v-22.69L159.856 60.4H204v135z"/></g><defs><clipPath id="a"><path fill="#fff" d="M0 0h256v256H0z"/></clipPath></defs></svg>
