<svg xmlns="http://www.w3.org/2000/svg" viewBox="0 0 20 20"><path fill="url(#a)" d="M10 20c5.523 0 10-4.477 10-10S15.523 0 10 0 0 4.477 0 10s4.477 10 10 10"/><path fill="url(#b)" d="M10 19.206A9.206 9.206 0 1 0 10 .794a9.206 9.206 0 0 0 0 18.412"/><path fill="url(#c)" d="M10 19.206A9.206 9.206 0 1 0 10 .794a9.206 9.206 0 0 0 0 18.412"/><path fill="url(#d)" d="M10 19.206A9.206 9.206 0 1 0 10 .794a9.206 9.206 0 0 0 0 18.412"/><path fill="url(#e)" d="M10 19.206A9.206 9.206 0 1 0 10 .794a9.206 9.206 0 0 0 0 18.412"/><path fill="url(#f)" d="M10 19.206A9.206 9.206 0 1 0 10 .794a9.206 9.206 0 0 0 0 18.412"/><path d="M11.767 10a.656.656 0 0 1-.656.656c-.363 0-.745-.293-.745-.656s.382-.657.745-.657c.362 0 .656.294.656.657m7.649.025c-.003 2.547-.916 4.765-2.706 6.576-1.833 1.854-4.082 2.78-6.648 2.809-2.635-.027-4.866-.94-6.69-2.77C1.552 14.813.666 12.57.623 9.993.679 4.766 4.813.63 10.04.59c2.58.052 4.819.951 6.64 2.786 1.818 1.83 2.739 4.071 2.736 6.649m-1.646-3.73c-.245-.094-.5-.16-.755-.222a1 1 0 0 0-.348-.017c-.329.032-.605.195-.856.395-.116.093-.207.219-.303.334-.021.025-.036.086-.022.104.044.056.01.093-.011.136-.093.188-.167.382-.143.597.04.37.22.662.545.836.31.167.638.139.956-.005a.65.65 0 0 0 .33-.364.42.42 0 0 0 0-.312c-.03-.08-.048-.084-.121-.046-.055.028-.108.062-.166.08-.22.072-.474-.072-.514-.297-.051-.294.1-.422.382-.49.276-.068.651.133.78.389.215.429.175.849-.094 1.239a.8.8 0 0 1-.462.315c-.32.088-.62.02-.919-.08-.383-.13-.766-.243-1.178-.199a1.5 1.5 0 0 0-.887.395c-.1.09-.148.207-.216.314a.8.8 0 0 0-.116.365c-.026.304.032.59.185.857.042.072.07.153.168.173.025.005.046.045.061.072.04.075.07.153.111.227a1 1 0 0 1 .112.552c-.016.245-.1.33-.334.403a.7.7 0 0 1-.283.005.25.25 0 0 1-.21-.17c-.059-.182.018-.336.2-.405.025-.01.053-.015.08-.024.044-.015.046-.046.019-.076a.3.3 0 0 0-.078-.063.49.49 0 0 0-.732.373c-.032.258.02.497.22.693.152.148.335.23.529.279.448.111.86.019 1.236-.258.215-.16.267-.37.248-.62-.018-.238-.125-.437-.243-.636-.175-.297-.145-.612-.005-.903.162-.34.484-.482.832-.564.049-.012.117-.03.113.07-.001.018.041.052.068.057.192.037.384.083.578.098.414.03.816-.044 1.197-.207.194-.084.389-.183.531-.345.332-.38.533-.813.52-1.33-.008-.112-.013-.224-.027-.335a2.1 2.1 0 0 0-.262-.74 1.35 1.35 0 0 0-.716-.65m-2.93 1.583a.7.7 0 0 0 .121.116c.017.013.05.007.075.01-.002-.022.004-.047-.006-.063a.9.9 0 0 1-.124-.613 1.05 1.05 0 0 1 .096-.59c.07-.14.146-.273.255-.391.292-.318.65-.481 1.075-.518.189-.017.377-.042.566-.06.133-.011.267-.029.4-.022.197.01.378.09.558.17.042.02.09.023.137.034-.015-.046-.02-.098-.045-.138-.132-.209-.268-.416-.518-.505-.023-.008-.08-.027-.001-.05.077-.02.046-.066.007-.093-.157-.108-.315-.215-.502-.267-.172-.047-.342-.101-.516-.14-.11-.026-.166-.085-.18-.192-.005-.033-.019-.065-.023-.098a2.5 2.5 0 0 0-.26-.794 1.6 1.6 0 0 0-.612-.652.6.6 0 0 0-.14-.057c-.017-.005-.039.006-.058.01.005.014.008.03.017.043a.3.3 0 0 0 .046.05c.08.068.127.149.134.259q.013.217.055.432c.081.417.02.824-.075 1.23a.3.3 0 0 1-.04.092c-.14.222-.274.45-.427.663a2.1 2.1 0 0 0-.377.904c-.081.474.073.87.362 1.23m-.737-2.404q-.3.304-.6.604c-.056.054-.122.098-.18.149-.011.009-.02.031-.015.043.004.011.023.022.037.025a.1.1 0 0 0 .05-.004q.329-.121.659-.24c.182-.065.225-.212.235-.398l-.032-.216q-.007-.04-.019-.079c-.023.014-.048.024-.068.041-.024.022-.043.051-.067.075m-1.029-3.89q.005.023.02.041c.21.254.419.507.537.821.023.062.065.117.103.172.014.021.04.034.062.051.003-.025.01-.05.008-.074l-.012-.166c-.003-.058.016-.086.08-.062.004.002.03-.028.028-.032-.126-.223-.237-.461-.432-.63-.095-.082-.241-.105-.353-.15-.025.017-.042.025-.04.028M6.535 4.97c.05.258.097.518.252.742a4 4 0 0 1 .206.325c.155.282.4.445.698.537.112.035.228.057.343.079.046.008.094 0 .142-.001l-.092-.09q-.008-.007-.01-.014-.007-.022-.011-.044c.015.001.033-.002.046.004q.106.05.21.106c.415.225.855.358 1.33.362.167 0 .335.005.503-.001.391-.014.757.093 1.102.258.442.21.832.496 1.143.887.39.49.614 1.04.644 1.663.014.29.028.583-.056.869-.006.018.006.042.01.063.016-.013.037-.023.048-.04.117-.169.168-.365.222-.56a1.56 1.56 0 0 0 .017-.83c-.025-.093-.021-.15.07-.21a.86.86 0 0 0 .323-.354c.015-.033.018-.072.026-.107l-.094-.001c-.084.002-.169.015-.251.006-.168-.019-.308-.107-.355-.268-.054-.185-.024-.364.14-.504a.48.48 0 0 1 .53-.084.5.5 0 0 1 .259.206c.008.015.038.03.053.025.017-.005.04-.032.039-.047-.005-.088-.002-.181-.03-.262a.55.55 0 0 0-.27-.289c-.114-.065-.115-.074-.027-.172.155-.174.219-.389.281-.604.016-.054-.01-.076-.062-.055-.084.032-.165.07-.248.104-.098.04-.195.092-.297.113q-.444.09-.89.156c-.08.012-.167-.008-.25-.019-.057-.008-.076-.042-.042-.095q.057-.082.111-.168c.01-.017.008-.04.012-.061-.02.003-.043.003-.062.01a3 3 0 0 1-1.581.172c-.343-.05-.63-.222-.914-.4-.015-.01-.02-.036-.03-.055.016-.005.03-.014.047-.015.122-.006.251.012.367-.02.4-.108.753-.306.974-.668.189-.307.237-.646.11-.998-.059-.165-.182-.278-.298-.4a.55.55 0 0 0-.421-.173q-.093.002-.185-.001c-.273-.013-.437.145-.554.364a.37.37 0 0 0-.034.21.6.6 0 0 0 .231.415c.032.024.066.044.095.07.088.083.077.186-.028.25-.028.017-.063.024-.093.037-.139.06-.278.012-.414-.004a.98.98 0 0 1-.62-.304 1.85 1.85 0 0 1-.391-.678.6.6 0 0 1-.04-.345q.05-.212.118-.42a.53.53 0 0 1 .26-.316c-.042.097-.107.19-.121.292-.037.264-.029.53.141.756.07.093.122.205.238.255.039.016.06.013.062-.04.002-.095-.006-.196.025-.282.045-.123.1-.255.187-.35.215-.23.51-.287.81-.312.286-.025.558.045.813.167.124.059.235.148.346.232.154.117.23.291.295.462.125.324.174.655.068 1.002a1.75 1.75 0 0 1-.345.645c-.037.043-.079.081-.111.126-.024.032-.02.068.032.066.157-.007.315-.009.455-.095l.442-.271q.029-.015.059-.025c.004.02.01.04.01.06 0 .103.001.106.099.078q.064-.02.127-.043a3 3 0 0 0 .95-.525c.202-.168.379-.349.425-.623.007-.043.03-.084.04-.127.023-.092.055-.185.06-.278a5 5 0 0 0-.001-.555c-.008-.11-.047-.217-.079-.324-.012-.043-.047-.067-.086-.022-.11.125-.195.271-.325.378q-.004.006-.007.015-.101.123-.205.242c-.012.014-.048.03-.056.023-.018-.016-.042-.047-.037-.066.028-.11.007-.222.013-.332.01-.212.042-.423.068-.633.016-.128.008-.157-.105-.216-.059-.03-.1-.067-.12-.131a1.4 1.4 0 0 0-.264-.482 1.36 1.36 0 0 0-.48-.384 1 1 0 0 0-.207-.071q-.096-.024-.088.08 0 .027.01.05c.075.154.055.32.048.48-.01.227-.149.364-.375.391a1 1 0 0 0-.13.03c-.232.079-.475.044-.712.066a.14.14 0 0 1-.092-.032c-.13-.116-.255-.234-.314-.407-.07-.202-.042-.394.017-.593.098-.336.422-.652.815-.677.211-.013.426-.029.633.044.022.008.05-.004.076-.007-.009-.024-.01-.056-.027-.072a.85.85 0 0 0-.406-.227c-.257-.055-.515-.116-.775-.139-.21-.018-.423.016-.635.028-.01 0-.018.017-.027.027.11.05.02.052-.016.063-.101.031-.21.045-.303.092-.263.135-.534.26-.75.47-.017.016-.048.018-.072.026.005-.03-.001-.069.016-.09.088-.107.182-.21.274-.316.037-.042.08-.08.109-.127q.088-.151-.086-.143a4 4 0 0 0-.35.036c-.116.017-.231.043-.346.067-.027.006-.068.015-.074.033-.04.11-.147.115-.23.145-.425.156-.75.438-1.02.79-.049.063-.099.123-.14.19-.015.023-.007.061-.01.092.032.001.068.013.093 0 .076-.035.147-.08.22-.12.013-.006.032 0 .047 0 0 .014.004.033-.003.044a.4.4 0 0 1-.054.064c-.21.21-.373.447-.429.745-.013.071-.02.144-.033.215-.016.088-.022.18-.058.26a.3.3 0 0 0-.007.259q.064.136.14.266c.015.025.052.055.075.052.022-.004.047-.043.057-.07q.072-.217.139-.433a.9.9 0 0 1 .229-.348c.01-.01.029-.01.044-.014 0 .015.005.033-.002.045-.022.039-.05.074-.072.113-.093.16-.178.327-.197.514-.021.212-.025.425-.038.637-.003.042-.019.084-.028.126q-.07-.021-.139-.046a.1.1 0 0 1-.04-.03c-.103-.138-.244-.248-.306-.418a.5.5 0 0 0-.086-.142c-.024-.03-.062-.03-.08.01-.014.03-.02.065-.026.097q-.076.42.005.836m4.691-3.109c-.192-.006-.388.2-.393.403-.005.17.15.312.35.307.258-.007.402-.16.393-.344-.002-.2-.11-.358-.35-.366M8.191 13.928c0 .021-.015.043-.015.064 0 .02.01.04.016.061.02-.007.046-.01.059-.023a.95.95 0 0 0 .271-.644c-.004-.026-.01-.081-.021-.135-.068-.31-.563-.522-.883-.286-.174.128-.237.318-.164.484a.5.5 0 0 0 .204.215c.09.053.175.046.273.024.158-.037.267.071.26.24m.675-2.718c.454 0 .897-.251 1.134-.622.236.37.679.622 1.134.622a1.21 1.21 0 0 0 0-2.42c-.455 0-.898.251-1.134.622a1.38 1.38 0 0 0-1.134-.622 1.21 1.21 0 1 0 0 2.42m-.7-3.607c.175-.128.363-.24.545-.358q.019-.015.036-.033c-.016-.012-.03-.03-.047-.034a3.4 3.4 0 0 0-.957-.133c-.084 0-.168-.003-.252 0-.226.01-.32.112-.285.334q.059.372.14.74c.015.072.004.16.083.208.056-.053.117-.102.166-.161a3.3 3.3 0 0 1 .57-.563m-2.92-4.13a8 8 0 0 0-.091.442c-.006.031.013.084.038.1.103.065.212.12.32.178.067.035.118.007.157-.05q.022-.037.041-.074l.347-.629c.107-.194.144-.408.175-.584 0-.063.004-.086 0-.107-.006-.032-.018-.063-.027-.094-.033.016-.07.026-.099.048-.225.173-.447.351-.674.522-.088.067-.16.14-.186.249m-3.875 4.34c.166.33.337.658.505.987a.28.28 0 0 0 .158.14q.274.105.547.216c.093.038.188.076.273.128.094.059.165.15.137.267a.35.35 0 0 0 .037.257l.131.253c.151.3.305.599.45.902.05.102.12.152.23.165.064.008.097 0 .103-.068.002-.015.013-.03.02-.044.015.013.037.024.046.041.014.03.02.064.031.095l.045.115c.035-.026.075-.048.103-.08a.2.2 0 0 0 .051-.102.25.25 0 0 1 .12-.192.43.43 0 0 0 .188-.304l.068-.516c.025-.177.048-.352.128-.517.053-.109.115-.175.238-.173a.2.2 0 0 0 .08-.015c.165-.088.318-.192.39-.376.028-.076.076-.124.156-.134.076-.008.156-.026.23-.014.079.013.124-.005.17-.069.199-.282.393-.57.608-.84.151-.191.165-.395.135-.619-.01-.077-.025-.157-.016-.233.02-.162-.06-.266-.173-.359-.038-.031-.069-.037-.092.013-.033.072-.052.041-.068-.008a1 1 0 0 1-.031-.113c-.016-.069-.054-.112-.128-.108-.11.007-.147-.058-.161-.152-.017-.108-.09-.179-.167-.245-.05-.043-.076-.037-.094.03a1 1 0 0 0-.029.198q-.019.427-.036.856 0 .026-.003.05c-.018.082-.096.112-.148.048a.34.34 0 0 1-.075-.18c-.01-.151-.02-.306.002-.454.047-.329.033-.657.025-.986-.002-.073-.023-.134-.092-.166-.136-.062-.18-.175-.176-.314q.009-.218.021-.435c.002-.044-.005-.087-.059-.08-.087.013-.116-.044-.153-.103a3 3 0 0 0-.15-.222c-.027-.036-.06-.02-.08.013a.2.2 0 0 0-.023.062c-.05.27-.207.51-.229.789q.001.009-.004.016l-.032.032c-.01-.011-.027-.022-.03-.034-.011-.078-.027-.156-.028-.233-.004-.247 0-.494-.003-.741 0-.087.023-.164.063-.24q.327-.635.652-1.271.039-.075.07-.153c.005-.012-.002-.036-.011-.043-.01-.007-.039-.007-.045.001-.12.15-.32.18-.455.308-.02.02-.089.024-.102.008-.076-.09-.123-.028-.178.022-.248.226-.488.462-.75.672a.6.6 0 0 0-.22.359c-.04.176-.102.344-.253.461-.068.053-.087.124-.088.208 0 .09-.012.179-.025.267-.078.532-.152 1.064-.142 1.563 0 .186.002.332-.001.478-.004.124-.069.196-.186.225-.062.016-.1-.003-.11-.065-.013-.083-.027-.167-.031-.25-.016-.353-.027-.706-.044-1.058a1.4 1.4 0 0 0-.034-.232c-.01-.04-.051-.059-.072-.019-.064.124-.188.15-.297.203a.4.4 0 0 0-.153.122c-.05.066-.085.144-.118.222q-.216.51-.422 1.025a.5.5 0 0 0-.033.211c.004.064-.006.095-.059.138-.115.094-.16.28-.102.395m.195 4.231q.48.351.963.701l.231.167q.02.016.043.028c.052.029.096.015.134-.028.042-.048.011-.082-.022-.115q-.262-.26-.523-.523c-.03-.031-.105-.063-.058-.117.044-.049.092.015.13.04q.45.306.9.616c.083.057.176.107.24.182.14.167.281.337.39.525.157.27.343.288.587.077q.018-.016.036-.035.394-.376.788-.755.065-.064.124-.136a.19.19 0 0 0 .048-.169c-.02-.111.114-.356.218-.41.159-.083.325-.15.482-.237.116-.065.197-.024.284.05.107.093.2.183.096.338-.035.052.003.082.057.088l.317.039q.39.046.782.088a2 2 0 0 0 .201.01c.026 0 .052-.014.077-.021-.012-.023-.02-.05-.038-.068q-.11-.105-.22-.207c-.43-.415-.667-.934-.803-1.505a2.9 2.9 0 0 1-.06-.885c.018-.24.043-.48.132-.708q.04-.11.073-.224c.006-.019 0-.04 0-.061-.02.006-.043.008-.061.02q-.122.074-.242.151c-.11.069-.18.153-.18.298.002.157-.055.298-.209.375a.28.28 0 0 0-.164.237 9 9 0 0 1-.053.382c-.005.031-.02.061-.03.092-.03-.023-.066-.04-.088-.07-.084-.111-.162-.227-.245-.34-.022-.028-.053-.05-.08-.075-.02.036-.044.072-.062.11-.007.013-.004.033-.005.05-.001.072-.041.104-.11.126-.268.084-.308.146-.292.424.002.038.013.077.017.116.006.066.018.134.013.2a.41.41 0 0 1-.192.319c-.096.065-.202.117-.301.178a.6.6 0 0 0-.21.235q-.226.412-.46.82c-.054.096-.095.105-.185.031-.104-.084-.203-.175-.303-.265a1.05 1.05 0 0 1-.29-.385q-.091-.216-.191-.43c-.163-.35-.343-.693-.488-1.05-.098-.241-.246-.407-.488-.493-.037-.013-.072-.031-.109-.044-.144-.052-.15-.05-.212.091-.062.138-.185.161-.286.046a1.7 1.7 0 0 1-.196-.27c-.079-.136-.143-.28-.216-.418-.012-.023-.035-.04-.052-.06-.015.022-.033.042-.042.066q-.01.04-.01.083l-.047 1.092c-.015.395.03.779.144 1.162a.82.82 0 0 0 .316.451m5.477 1.608c-.002-.032.008-.066.014-.099q.057-.306.11-.611c.025-.146.004-.162-.147-.148-.158.013-.28.106-.417.167a.22.22 0 0 0-.143.19c-.021.155-.12.248-.269.286a2 2 0 0 1-.262.054.13.13 0 0 1-.098-.036c-.041-.05-.074-.032-.116-.009-.137.076-.279.143-.411.226a1 1 0 0 0-.2.176c-.135.15-.26.307-.392.46-.096.112-.127.116-.26.059a12 12 0 0 0-.372-.155q-.094-.039-.064.06c.026.092.05.186.091.27.025.05.075.1.126.123.164.072.334.128.5.196.09.037.158.024.223-.049a1 1 0 0 1 .16-.148q.262-.181.533-.35c.056-.034.102-.114.189-.071-.025.06-.042.123-.076.177-.069.11-.15.213-.124.357q.04.274.076.547c.008.058.037.066.079.037q.059-.046.112-.1.114-.11.224-.224c.038-.038.069-.04.114-.003.114.096.172.082.246-.049q.075-.131.144-.265c.103-.199.208-.397.305-.598a.9.9 0 0 0 .105-.47m-2.6 1.498c-.128.004-.272.159-.272.293 0 .137.117.259.253.26.154.002.266-.115.264-.277-.002-.176-.094-.28-.244-.276M2.506 14.1a.5.5 0 0 1 .436.028q.044.023.092.042.203.08.408.154.107.037.07-.075c-.034-.102-.077-.2-.105-.302a.38.38 0 0 0-.181-.25c-.053-.03-.099-.073-.15-.106-.218-.14-.433-.28-.654-.413-.264-.157-.532-.307-.8-.459-.028-.016-.06-.027-.104-.046-.009.029-.026.053-.021.073.032.148.064.296.105.442.052.184.13.356.251.51a.27.27 0 0 0 .227.115q.084.001.167.011c.015.002.029.015.043.023-.011.016-.02.035-.034.047-.02.019-.052.028-.067.05-.013.018-.02.053-.011.073.041.089.133.13.231.108q.05-.009.097-.025m2.768 2.299a.43.43 0 0 0 .046-.447c-.06-.14-.271-.228-.41-.169a.3.3 0 0 0-.108.097c-.044.057-.077.124-.122.181a.28.28 0 0 1-.281.11.47.47 0 0 1-.324-.22.9.9 0 0 1-.126-.396 3 3 0 0 0-.027-.25c-.018-.112-.04-.138-.145-.149-.278-.028-.557-.05-.812-.072-.096.004-.17.003-.241.012-.073.01-.091.039-.06.101q.138.278.288.551a.5.5 0 0 0 .122.136q.157.127.323.24a.4.4 0 0 0 .18.079c.103.003.167.048.226.122.159.199.363.326.61.393.371.102.637-.016.861-.32m2.188-1.28c-.02 0-.043-.01-.06-.002-.241.103-.488.196-.722.314-.491.248-.905.588-1.207 1.059-.136.212-.19.438-.197.696.004.458.175.826.636 1.014a.3.3 0 0 1 .045.023c.294.193.81.077 1.052-.174a.7.7 0 0 0 .196-.597c-.026-.228-.168-.371-.397-.416q-.034-.004-.067-.01c-.174-.051-.243-.171-.2-.347.029-.122.126-.178.23-.19.153-.019.185-.108.207-.236a1.6 1.6 0 0 1 .112-.366c.113-.243.24-.48.36-.72.007-.014.008-.032.012-.047m4.588 2.63c.116-.248.189-.508.213-.789.028-.328.014-.64-.075-.961-.164-.59-.547-.98-1.072-1.246a1.3 1.3 0 0 0-.884-.103c-.463.1-.811.34-.954.816a1.2 1.2 0 0 0-.043.264c-.025.384.177.863.683.96a.51.51 0 0 0 .613-.403.36.36 0 0 0-.042-.275.5.5 0 0 1-.057-.171c-.012-.08-.002-.158.08-.205.082-.048.157-.033.234.018.224.15.289.387.263.62a.86.86 0 0 1-.447.674 1 1 0 0 1-.675.128c-.443-.074-.766-.306-.95-.712a1.76 1.76 0 0 1-.15-1c.063-.412.22-.785.485-1.11.175-.215.39-.386.606-.553q.471-.367 1.054-.493c.3-.064.602-.123.899-.2a.87.87 0 0 0 .63-.573c.055-.155.087-.315.024-.477-.024-.064-.046-.072-.096-.028q-.075.067-.142.142a3 3 0 0 1-.628.528c-.33.204-.684.357-1.073.41a5 5 0 0 1-.499.047c-.122.004-.245-.016-.368-.025a2.4 2.4 0 0 1-.781-.173 6 6 0 0 0-.298-.113c-.012-.005-.03.008-.044.012.005.015.007.033.016.044.075.083.16.158.225.247.25.34.271.555.108.853a4 4 0 0 1-.269.406c-.2.27-.414.528-.608.802a2.96 2.96 0 0 0-.536 1.686c-.002.266.047.52.125.776.13.42.348.77.7 1.037.312.235.655.405 1.027.52.272.085.553.087.832.065a1.75 1.75 0 0 0 .862-.301 3 3 0 0 0 .738-.704c.1-.14.201-.284.274-.44m2.692-1.377c-.005-.044-.002-.09-.003-.135-.004-.348-.148-.641-.372-.894-.24-.27-.556-.404-.908-.462-.276-.045-.552-.086-.827-.138a.7.7 0 0 1-.526-.402c-.056-.118-.06-.259-.093-.388-.026-.103-.044-.211-.093-.302a.4.4 0 0 0-.37-.22c-.217-.005-.396.051-.517.243-.105.166-.1.34-.032.515.079.202.241.319.428.405q.221.1.424.237c.448.307.742.722.896 1.24q.017.056.023.114c.014.122.023.245.037.367.003.025.018.049.028.073.022-.014.052-.023.067-.043a1.1 1.1 0 0 0 .217-.538.514.514 0 0 1 .765-.407.47.47 0 0 1 .222.374c.022.216-.028.404-.224.524a1 1 0 0 1-.23.095c-.13.035-.132.037-.103.171.024.11.064.223.053.33-.033.327-.12.635-.379.872a.48.48 0 0 1-.378.143 1 1 0 0 1-.288-.077c-.138-.058-.238.004-.338.081-.091.071-.1.172-.078.275.02.1.094.162.179.212.112.066.236.06.39.057.168.03.343-.053.524-.112.496-.162.895-.453 1.166-.904.241-.4.398-.826.34-1.306m2.777-2.647c-.015.006-.033.008-.044.018-.132.127-.255.266-.395.383a1.7 1.7 0 0 1-.734.355 2.2 2.2 0 0 1-.798.038c-.128-.02-.253-.039-.37-.098q-.194-.1-.39-.196c-.175-.084-.353-.048-.472.095a.366.366 0 0 0 0 .453c.143.197.349.277.58.287.252.01.504.017.751-.052q.131-.035.265-.037a.8.8 0 0 1 .232.03c.118.032.165.147.095.251a.5.5 0 0 1-.162.136c-.12.073-.252.126-.366.205-.22.151-.386.34-.388.686-.016.134.071.278.194.41.159.173.58.25.78.136a.57.57 0 0 0 .242-.587 1.2 1.2 0 0 0-.078-.238c-.051-.125-.053-.122.068-.194.091-.054.19-.1.267-.171.272-.248.37-.565.33-.926-.013-.109-.008-.204.074-.296.162-.181.272-.396.334-.632.005-.016-.01-.037-.015-.056m.11-1.773a1.24 1.24 0 0 0 .043-1.042c-.148-.37-.397-.618-.795-.692-.12-.022-.245-.016-.368-.013a.94.94 0 0 0-.79.426c-.152.216-.163.447-.147.69a.22.22 0 0 0 .092.17c.032.023.053.067.072.104.025.05.038.106.066.154a.46.46 0 0 0 .46.212c.179-.034.25-.22.132-.358-.027-.031-.075-.044-.112-.068-.1-.063-.136-.19-.066-.275.094-.114.23-.187.37-.156.332.074.496.316.479.635-.015.271-.15.503-.322.707-.252.3-.6.449-.963.547a4 4 0 0 1-.728.105c-.342.027-.681-.023-1.016-.086-.225-.043-.443-.117-.667-.163-.324-.067-.61.032-.858.24-.167.138-.206.34-.224.543a.34.34 0 0 0 .03.147c.009.024.056.055.069.049.044-.023.056-.008.069.032q.03.096.072.188c.157.335.593.546.986.168a.396.396 0 0 0 .082-.49c-.014-.03-.037-.057-.05-.088-.032-.079.005-.152.091-.158a1 1 0 0 1 .233.019c.163.035.326.079.488.12.072.019.15.023.166.128.004.029.065.058.105.073.31.114.62.229.924.199.104 0 .172.005.238-.001.269-.023.514-.11.722-.284.257-.215.445-.485.598-.78.021-.042.028-.092.041-.137q-.06.02-.12.036c-.015.004-.038.004-.046-.004s-.007-.033 0-.045a.4.4 0 0 1 .059-.101c.097-.116.202-.225.296-.343.103-.132.217-.26.29-.408m1.036.13a.83.83 0 0 0 .273-.662 2 2 0 0 1 0-.151.7.7 0 0 0-.115-.399l-.074-.112a.62.62 0 0 1-.117-.412c.02-.282.073-.554.235-.795.014-.021.015-.05.023-.076-.025.004-.056 0-.073.014-.152.123-.306.244-.448.377a.8.8 0 0 0-.182.24 3 3 0 0 0-.16.474c-.013.049.008.112.028.163.038.093.09.18.13.272.05.111.115.222.134.34.04.252-.064.457-.258.62a3 3 0 0 0-.214.213.45.45 0 0 0-.128.361c-.032.174.076.299.184.423.01.011.028.014.043.021.007-.018.022-.036.02-.053-.014-.197.069-.342.224-.46.164-.124.327-.253.475-.397M8.232 10c0 .363.294.656.657.656.362 0 .745-.293.745-.656s-.383-.657-.745-.657a.656.656 0 0 0-.657.657"/><defs><radialGradient id="b" cx="0" cy="0" r="1" gradientTransform="translate(9.896 6.24)scale(9.20557)" gradientUnits="userSpaceOnUse"><stop offset=".172" stop-color="red"/><stop offset=".214" stop-color="#FF1305"/><stop offset=".396" stop-color="#FF661F"/><stop offset=".558" stop-color="#FFA733"/><stop offset=".693" stop-color="#FFD641"/><stop offset=".796" stop-color="#FFF44A"/><stop offset=".855" stop-color="#FFFF4E"/></radialGradient><radialGradient id="c" cx="0" cy="0" r="1" gradientTransform="translate(9.639 14.379)scale(9.20557)" gradientUnits="userSpaceOnUse"><stop offset=".424" stop-color="#0FF"/><stop offset=".437" stop-color="#21FFFF" stop-opacity=".96"/><stop offset=".464" stop-color="#5CFFFF" stop-opacity=".892"/><stop offset=".491" stop-color="#8EFFFF" stop-opacity=".832"/><stop offset=".52" stop-color="#B7FFFF" stop-opacity=".784"/><stop offset=".551" stop-color="#D7FFFF" stop-opacity=".747"/><stop offset=".585" stop-color="#EDFFFF" stop-opacity=".72"/><stop offset=".624" stop-color="#FAFFFF" stop-opacity=".705"/><stop offset=".678" stop-color="#fff" stop-opacity=".7"/><stop offset=".895" stop-color="#fff" stop-opacity="0"/></radialGradient><radialGradient id="d" cx="0" cy="0" r="1" gradientTransform="translate(15.409 9.742)scale(9.20557)" gradientUnits="userSpaceOnUse"><stop offset=".172" stop-color="#00FB00"/><stop offset=".266" stop-color="#26FB0B" stop-opacity=".85"/><stop offset=".56" stop-color="#99FD2F" stop-opacity=".397"/><stop offset=".762" stop-color="#E2FE45" stop-opacity=".112"/><stop offset=".855" stop-color="#FFFF4E" stop-opacity="0"/></radialGradient><radialGradient id="e" cx="0" cy="0" r="1" gradientTransform="translate(2.736 9.536)scale(9.20557)" gradientUnits="userSpaceOnUse"><stop offset=".177" stop-color="#FFEA00"/><stop offset=".279" stop-color="#FFED0C" stop-opacity=".836"/><stop offset=".566" stop-color="#FFF62F" stop-opacity=".391"/><stop offset=".764" stop-color="#FFFC45" stop-opacity=".11"/><stop offset=".855" stop-color="#FFFF4E" stop-opacity="0"/></radialGradient><radialGradient id="f" cx="0" cy="0" r="1" gradientTransform="translate(10.154 9.871)scale(9.20557)" gradientUnits="userSpaceOnUse"><stop offset=".131" stop-color="#fff" stop-opacity=".9"/><stop offset=".29" stop-color="#fff" stop-opacity="0"/></radialGradient><linearGradient id="a" x1="10" x2="10" y1="20" y2="0" gradientUnits="userSpaceOnUse"><stop stop-color="#B100EA"/><stop offset=".112" stop-color="#9714EC"/><stop offset=".423" stop-color="#5748F4"/><stop offset=".686" stop-color="#276EFA"/><stop offset=".886" stop-color="#0A86FD"/><stop offset="1" stop-color="#008FFF"/></linearGradient></defs></svg>
