<svg xmlns="http://www.w3.org/2000/svg" viewBox="0 0 250 250"><circle cx="125" cy="125" r="120" fill="#FFF"/><path d="M0 125v125h250V0H0zm81.5-58.6v7l-7 1.3c-19.4 3.6-34 18-38.1 37.5-5.2 25.1 12.3 51.3 37.4 56 3.2.6 6.3 1.2 7 1.4.9.3 1.2 2.2 1 7.1l-.3 6.8-4-.3c-20-1.4-40.2-15.1-49.6-33.5-3.8-7.3-6.9-20.4-6.9-28.8 0-18.1 9.7-37.5 24.2-48.4 9.1-6.8 17.9-10.8 27.6-12.5 8.6-1.5 8.7-1.4 8.7 6.4m25.1-4.3c12.9 4.2 24.8 13.2 32.3 24.4 13.1 19.7 14.2 44.9 2.8 65.4-4.7 8.4-16.8 20.1-25.3 24.4-8.1 4.1-17.3 6.7-23.3 6.7h-4.2l.3-6.7.3-6.6 6.5-1.4c15.4-3.1 28.1-12.9 34.8-27 3.6-7.7 3.7-8 3.7-19.8 0-11-.3-12.6-2.9-18.9-5.8-13.8-19.7-25-34.1-27.7-3.3-.7-6.6-1.3-7.2-1.5-1.4-.4-1.9-12.5-.5-13.8 1-1.1 9.8.2 16.8 2.5m111.6-1.9c.8 2.2.9 9.8.3 11.9-.4 1.2-1.6 1.9-3.3 1.9-8.6 0-21 5.9-28.7 13.6-6.4 6.4-9.7 11.9-12.5 21.2-5.3 17.5 1.7 38.8 16.5 50.2 6.1 4.7 15.8 8.9 22.6 9.7 5.7.7 6.2 1.6 5.3 9.4l-.6 5.7-3.7-.5c-24.2-3.5-40.1-14.8-50.1-35.8-13-27.2-4.3-59.5 20.8-77.3 7.7-5.5 21.6-10.4 31.3-11.1.9 0 1.9.5 2.1 1.1"/></svg>
