<svg xmlns="http://www.w3.org/2000/svg" viewBox="0 0 480 480"><path d="M257.019 480.591H240c-132.548 0-240-107.451-240-240 0-132.548 107.452-240 240-240s240 107.452 240 240a242 242 0 0 1-2.531 34.963h-33.594a208.3 208.3 0 0 0 2.94-34.963c0-114.22-92.594-206.814-206.815-206.814S33.185 126.37 33.185 240.59c0 114.221 92.594 206.815 206.815 206.815h123.005c-31.411 18.723-67.448 30.492-105.986 33.185"/><path d="M408.983 411.851H240c-94.584 0-171.26-76.676-171.26-171.26S145.417 69.332 240 69.332s171.259 76.676 171.259 171.259a172 172 0 0 1-3.575 34.963h-34.071c2.91-11.154 4.461-22.868 4.461-34.963 0-76.256-61.818-138.074-138.074-138.074s-138.074 61.818-138.074 138.074S163.744 378.665 240 378.665h197.054a242 242 0 0 1-28.071 33.186"/><path d="M457.72 343.11H240c-56.619 0-102.519-45.899-102.519-102.519 0-56.619 45.9-102.518 102.519-102.518s102.518 45.899 102.518 102.518c0 12.268-2.16 24.046-6.121 34.963h-36.508c6.005-10.258 9.444-22.191 9.444-34.963 0-38.291-31.041-69.333-69.333-69.333s-69.333 31.042-69.333 69.333c0 38.292 31.041 69.334 69.333 69.334h230.452a239 239 0 0 1-12.732 33.185"/></svg>
