<svg xmlns="http://www.w3.org/2000/svg" viewBox="0 0 512 512"><path fill="#ffd15c" d="M512 256c0 141.385-114.615 256-256 256S0 397.385 0 256 114.615 0 256 0s256 114.615 256 256"/><path fill="#fff" d="M193.475 152.318c-10.423 1.49-4.632 10.423-4.632 10.423l-.254 2.538c14.904 25.726 39.463 52.73 64.645 70.69a104.58 104.58 0 0 1 38.993 54.912c6.6 21.935 5.418 44.598-3.242 62.173-10.433 21.172-30.082 33.504-55.33 34.724-25.099 1.221-54.89-8.674-88.571-29.39a22 22 0 0 1-1.14 2.329c29.19 30.072 62.977 48.073 98.13 52.194 35.526 4.162 71.89-5.75 102.677-27.931a3.6 3.6 0 0 1-1.878-.457c103.653-85.702-66.013-244.115-149.398-232.205"/><path d="M462.61 267.36a75 75 0 0 0-.567-6.863c-1.34-10.512-5.485-26.63-17.659-43.679-.584-.818-1.17-1.613-1.758-2.396q-.222-.297-.444-.59-.825-1.088-1.65-2.132-.057-.075-.115-.148a124 124 0 0 0-2.196-2.68q-.797-.946-1.592-1.854l-.19-.22a117 117 0 0 0-1.763-1.952l-.403-.434q-.774-.83-1.544-1.627l-.243-.253q-.873-.896-1.74-1.745l-.374-.365q-.75-.729-1.492-1.425l-.285-.269q-.856-.796-1.701-1.548l-.336-.297q-.721-.637-1.434-1.244-.162-.14-.325-.278-.822-.694-1.629-1.348l-.325-.26q-.674-.542-1.338-1.057l-.376-.292q-.771-.592-1.526-1.15l-.332-.241q-.612-.447-1.21-.87l-.435-.307q-.706-.493-1.392-.955c-.124-.084-.245-.162-.368-.244q-.526-.35-1.038-.68-.255-.166-.507-.325-.578-.368-1.14-.714l-.539-.326a82 82 0 0 0-.806-.481q-.292-.172-.579-.338l-.682-.39q-.489-.275-.958-.531l-.491-.268-.655-.348-.343-.178q-.672-.348-1.296-.655l-.087-.044q-4.077-7.268-8.917-14.359c-37.333-54.567-78.197-81.137-124.93-81.226h-.243c-19.762 0-37.86 4.51-52.968 8.926-4.34 1.27-8.756 2.646-13.077 3.99-11.02 3.432-21.429 6.672-30.27 8.13-5.635.927-10.026 3.026-13.051 6.239-2.841 3.02-4.535 7.087-5.035 12.087-.971 9.696 2.515 22.783 10.084 37.846 15.288 30.428 44.583 63.937 74.63 85.367a82.6 82.6 0 0 1 9.733 8.171 15 15 0 0 0-1.901.34c-23.505 3.356-35.754 28.62-40.714 42.269-1.294 3.563 2.227 6.75 5.817 5.539 14.588-4.92 44.347-12.864 60.955-2.642.14-.043.27-.091.4-.139 2.983 15.039 1.575 29.766-4.13 41.344-7.465 15.15-21.788 23.987-40.328 24.883-21.771 1.055-48.586-8.222-79.703-27.56l-.522-.301c-.273-.145-.552-.31-.828-.48 24.158-27.46 9.942-69.928 4.3-83.8a2.378 2.378 0 0 0-4.261-.113c-13.031 22.061-39.756 20.422-39.279 46.7l-.033-.063c-20.432-16.614-35.597 5.487-61.02 2.17a2.378 2.378 0 0 0-2.533 3.43c7.65 13.323 33.467 52.282 71.553 47.946l-1.845 1.254 6.826 7.532c33.298 36.743 72.912 58.745 114.56 63.627a155 155 0 0 0 18.034 1.052c34.91 0 69.625-11.744 99.363-33.894 34.16-25.445 57.868-61.325 66.753-101.031a156.5 156.5 0 0 0 3.745-39.492c7.504-3.04 15.692.34 22.22 4.723l.18.121q.4.271.79.546l.208.148a60 60 0 0 1 2.21 1.65l.387.304q.263.209.52.417l.465.382.429.356q.419.352.818.698c.089.077.172.152.259.228a73 73 0 0 1 .885.787q.282.256.551.505l.23.212q.374.349.72.68a3 3 0 0 0 .228.19 2.38 2.38 0 0 0 1.642.491 2.07 2.07 0 0 0 1.956-2.18M342.873 384.523a3.6 3.6 0 0 0 1.878.457c-30.787 22.181-67.15 32.093-102.676 27.931-35.153-4.121-68.942-22.122-98.131-52.194a22 22 0 0 0 1.14-2.33c33.681 20.716 63.472 30.612 88.572 29.391 25.247-1.22 44.896-13.552 55.329-34.724 8.66-17.576 9.842-40.238 3.242-62.173a104.58 104.58 0 0 0-38.993-54.912c-25.182-17.96-49.74-44.964-64.645-70.69l.254-2.538s-5.79-8.933 4.632-10.423c83.385-11.91 253.051 146.503 149.398 232.205"/><path fill="#fff" d="M280.335 146.528c-2.896-4.053-8.686-15.056 9.265-15.056s45.38 20.326 50.957 27.845c-1.737 4.582-13.318 5.608-19.108 5.162s-15.636-1.398-23.163-5.162c-7.528-3.763-15.056-8.735-17.951-12.79"/></svg>
