<svg xmlns="http://www.w3.org/2000/svg" viewBox="0 0 256 256"><path fill="#EEDFCE" d="M231 19c1.813 1.125 1.813 1.125 3 3 .423 5.789-.748 10.584-2.375 16.063l-.672 2.353c-.908 3.155-1.85 6.282-2.914 9.389-1.635 5.029-2.934 10.147-4.289 15.258-3.537 13.236-7.2 26.433-11.129 39.558L211.312 109l-.622 2.085c-1.574 5.345-2.863 10.728-4.014 16.18-.671 2.715-1.629 5.148-2.676 7.735a98 98 0 0 0-1 4.5c-.48 2.437-1.03 4.574-1.969 6.879-1.175 2.986-1.852 5.923-2.531 9.059-.935 4.302-2.093 8.392-3.5 12.562-.746 2.894-1.434 5.798-2.121 8.707a116 116 0 0 1-2.32 7.59c-1.581 4.662-2.844 9.372-4.059 14.14-2.972 11.463-2.972 11.463-4.687 16.95a367 367 0 0 0-2 6.695L178.5 226.5l-.611 2.145c-1.55 5.129-1.55 5.129-4.889 7.355-33.545 1.694-71.558-20.439-95.6-42.042A429 429 0 0 1 70 187l-1.497-1.43C62.37 179.678 62.37 179.678 60 177v-2h-2c-1.262-1.383-1.262-1.383-2.687-3.34l-1.604-2.197-1.709-2.4-1.756-2.454C35.655 143.94 21.134 117.662 19 92c.79-3.684 1.354-5.354 4-8a134 134 0 0 1 6.625-2.125c7.09-2.137 14.11-4.443 21.125-6.812 8.504-2.863 17.036-5.575 25.655-8.073a155 155 0 0 0 12.232-4.126c4.896-1.79 9.88-3.323 14.846-4.908q5.17-1.652 10.337-3.315l2.096-.674c10.792-3.477 21.547-7.07 32.284-10.714 5.437-1.834 10.913-3.526 16.4-5.204 5.566-1.717 11.107-3.51 16.65-5.299a5820 5820 0 0 1 21.95-7.043l3.438-1.095q3.226-1.026 6.455-2.049l2.934-.934 2.555-.81a76 76 0 0 0 5.065-1.933c2.931-1.104 4.41-.893 7.353.114"/><path fill="#B6351D" d="M231 19c1.813 1.125 1.813 1.125 3 3 .423 5.789-.748 10.584-2.375 16.063l-.672 2.353c-.908 3.155-1.85 6.282-2.914 9.389-1.635 5.029-2.934 10.147-4.289 15.258-3.537 13.236-7.2 26.433-11.129 39.558L211.312 109l-.622 2.085c-1.574 5.345-2.863 10.728-4.014 16.18-.671 2.715-1.629 5.148-2.676 7.735a98 98 0 0 0-1 4.5c-.48 2.437-1.03 4.574-1.969 6.879-1.175 2.986-1.852 5.923-2.531 9.059-.935 4.302-2.093 8.392-3.5 12.562-.746 2.894-1.434 5.798-2.121 8.707a116 116 0 0 1-2.32 7.59c-1.581 4.662-2.844 9.372-4.059 14.14-2.972 11.463-2.972 11.463-4.687 16.95a367 367 0 0 0-2 6.695L178.5 226.5l-.611 2.145c-1.55 5.129-1.55 5.129-4.889 7.355-33.545 1.694-71.558-20.439-95.6-42.042A429 429 0 0 1 70 187l-1.497-1.43C62.37 179.678 62.37 179.678 60 177v-2h-2c-1.262-1.383-1.262-1.383-2.687-3.34l-1.604-2.197-1.709-2.4-1.756-2.454C35.655 143.94 21.134 117.662 19 92c.79-3.684 1.354-5.354 4-8a134 134 0 0 1 6.625-2.125c7.09-2.137 14.11-4.443 21.125-6.812 8.504-2.863 17.036-5.575 25.655-8.073a155 155 0 0 0 12.232-4.126c4.896-1.79 9.88-3.323 14.846-4.908q5.17-1.652 10.337-3.315l2.096-.674c10.792-3.477 21.547-7.07 32.284-10.714 5.437-1.834 10.913-3.526 16.4-5.204 5.566-1.717 11.107-3.51 16.65-5.299a5820 5820 0 0 1 21.95-7.043l3.438-1.095q3.226-1.026 6.455-2.049l2.934-.934 2.555-.81a76 76 0 0 0 5.065-1.933c2.931-1.104 4.41-.893 7.353.114m-20.512 15.71-2.627.86q-4.275 1.4-8.548 2.805a24999 24999 0 0 1-14.882 4.87 3421 3421 0 0 1-20.717 6.707 2468 2468 0 0 0-10.94 3.552 683 683 0 0 1-15.067 4.694c-3.36 1.013-6.71 2.058-10.06 3.106q-2.438.752-4.888 1.462c-8.693 2.061-8.693 2.061-15.127 7.49-.58 2.362-.58 2.362-.556 4.654C107 77 107 77 104.875 80.375c-4.151 3.79-7.749 5.509-13.402 5.719C85.87 85.757 82.287 84.627 78 81l-1-2c-8.262 1.594-16.063 4.26-24 7 3.249 25.43 16.321 49.903 33 69l2.523 2.965C107.044 179.299 132.848 193.108 160 200l2.053.57c4.112 1.115 7.706 1.514 11.947 1.43l1.006-3.706 3.791-13.94 1.623-5.97a2534 2534 0 0 1 10.26-36.78 1420 1420 0 0 0 4.882-17.428 944 944 0 0 1 3-10.61 2127 2127 0 0 0 2.25-7.902q.56-1.964 1.13-3.923c.538-1.844 1.06-3.693 1.581-5.542l.935-3.255c.568-3.087.477-4.967-.458-7.944a117 117 0 0 0-4-5c-2.87-4.753-2.708-9.61-2-15 1.757-4.929 4.387-7.99 9-10.437 2.944-1.324 5.827-1.996 9-2.563q1.256-4.436 2.5-8.875l.723-2.55.683-2.442c.21-.744.42-1.487.635-2.254.538-1.88.538-1.88.459-3.879-3.634 0-7.083 1.58-10.512 2.71"/><path fill="#EFDBC9" d="m44 90 .629 2.613c10.304 40.83 33.116 76 69.433 98.246C130.885 200.76 150.384 209.4 170 211c-.52 4.38-1.057 8.688-2 13-37.74-1.814-73.618-25.707-98.462-52.787C52.205 151.84 31 119.984 31 93a479 479 0 0 1 4.25-1.5l2.39-.844C40 90 40 90 44 90"/><path fill="#B43C24" d="M163.5 83.938c5.37 2.281 7.597 7.595 9.73 12.738 1.506 4.547 1.646 8.087-.113 12.578C166.64 121.929 154.06 130.145 141 135c-9.177 2.251-17.716 1.652-26-3-6.079-4.126-13.384-9.46-17-16 .097-3.143.567-4.534 2.715-6.844C112.119 100.658 121.73 96.924 136 98c4.85 1.287 8.838 3.226 13 6l.625-3.5c1.266-5.1 4.01-8.56 7.375-12.5l2.063-2.562C161 84 161 84 163.5 83.938"/><path fill="#B34028" d="M160 150c5.836 2.325 10.18 6.362 13 12 .69 7.445.634 12.988-4 19-5.206 4.816-9.37 6.528-16.398 6.383-5.568-.82-9.305-3.986-13.04-8.008-3.496-5.314-3.141-11.227-2.562-17.375 4.648-9.832 12.593-13.25 23-12"/><path fill="#F0DCCA" d="M139.813 105.625c4.352 2.257 8.63 4.983 12.187 8.375v2a639 639 0 0 1-7.687-.312l-2.186-.069c-4.48-.225-7.46-.795-11.127-3.619l-2.062-2.687L127 107h-4l1 6-6 1 1 4 9 2-2 3v4c3.251-.375 4.11-1.115 6.438-3.562 3.978-3.548 8.57-2.908 13.636-2.81C149 121 149 121 152 123q-2.904 1.472-5.812 2.938l-3.27 1.652c-6.532 3.156-13.577 3.717-20.578 1.61-6.635-3.06-12.518-7.721-17.34-13.2v-3q3.404-1.974 6.813-3.937l1.947-1.131c8.045-4.627 17.228-6.018 26.052-2.307"/><path fill="#B43E26" d="m128.313 97.813 3.925-.043c3.628.222 6.395.91 9.762 2.23l1 5-1.706-.111c-13.21-.744-21.984.072-33.294 7.111l-3 1c3.19 7.019 10.915 12.136 17.758 15.352 6.215 1.797 13.014 1.049 19.242-.352v5l2 1c-9.114 2.751-17.675 3.38-26.523-.61-7.054-3.96-15.492-10.183-19.477-17.39.097-3.143.567-4.534 2.715-6.844 8.612-6.417 16.677-11.29 27.597-11.344"/><path fill="#EFDCCA" d="M159 156c3.803 2.005 5.618 3.427 8 7 .674 5.061.802 9.545-1.687 14.063-3.564 2.985-6.138 3.809-10.75 4.312-4.278-.45-6.286-1.632-9.563-4.375-2.736-4.404-2.8-8.969-2-14 3.698-6.86 8.753-7.901 16-7"/><path fill="#B4432B" d="m215 53-5 1v5h3c-.983 7.446-1.973 14.76-4 22l-6-1v3h2v2h2c.37 5.538.37 5.538-1.5 7.875L204 94l.313-3.625c.026-5.03-1.917-6.817-5.313-10.375-2.899-4.728-2.813-9.629-2-15 2.497-6.06 6.185-9.774 12.07-12.54 2.302-.549 3.709-.2 5.93.54"/><path fill="#EFD8C6" d="M164 91c2.688 4.512 4.772 8.622 4.54 13.969-1.063 4.003-3.826 6.994-6.54 10.031-3.844-1.742-3.844-1.742-5.25-4.062-1.288-5.046-2.034-9.559.523-14.297C161.373 91 161.373 91 164 91"/><path fill="#F5C6B3" d="m149 121 3 2q-2.904 1.472-5.812 2.938l-3.27 1.652c-4.226 2.042-7.323 2.57-11.98 2.597l-3.223.043C125 130 125 130 123 128l2-4 1 3c3.251-.375 4.11-1.115 6.438-3.562 4.506-4.02 10.915-3.154 16.562-2.438"/><path fill="#F3D7C5" d="M213 59c-1.311 7.111-3.017 14.047-5 21h-2c-3.06-3.65-3.635-7.087-3.488-11.707C203.739 62.53 207.2 59 213 59"/><path fill="#F3D2C0" d="M103 71c-1.31 3.931-2.832 6.312-6 9-3.593 1.198-6.227 1.33-10 1-2.437-2-2.437-2-4-4 14.738-6 14.738-6 20-6"/><path fill="#B4462D" d="M163.5 83.938c5.371 2.282 7.575 7.589 9.738 12.718 1.21 3.721 1.225 6.445.762 10.344-1.527 2.23-1.527 2.23-3 4l.035-2.957.028-3.856.035-3.832c.064-3.351.064-3.351-1.098-6.355h-2l-2 2-2-5-4 2v-4l-3-1c3.258-3.981 3.258-3.981 6.5-4.062"/><path fill="#F9C9B5" d="M140.313 106c1.242.642 2.477 1.3 3.687 2l-2 1c-1.948-.76-3.896-1.52-5.84-2.293-4.377-1.433-8.814-1.098-13.16.293l1 6h-5l2-1v-5l-2.312 1.063C116 109 116 109 113 108c8.616-4.987 18.063-6.079 27.313-2"/><path fill="#B6351B" d="m163 178 3 1-1 4h-3l-1 3-11-1v-3l1.828.14c5.256.338 5.256.338 9.734-2.14z"/><path fill="#EFE0CD" d="m139.383 122.805 2.742.07 2.758.055L147 123c-1.275 2.55-2.403 2.93-5 4h-3v2h-6c2.752-5.898 2.752-5.898 6.383-6.195"/><path fill="#F6CAB6" d="M146 110a125 125 0 0 1 6 4v2q-3.876-.172-7.75-.375c-.73-.03-1.46-.062-2.21-.094-3.78-.206-6.82-.446-10.04-2.531 2.836-1.418 4.99-.863 8.125-.562l3.32.308L146 113z"/><path fill="#B6513A" d="M200 105h1c.286 5.345-.14 9.106-2.2 14.035-1.191 2.925-1.975 5.919-2.8 8.965h-2q.935-3.782 1.875-7.562l.527-2.135c1.11-4.463 2.31-8.888 3.598-13.303"/><path fill="#F5C8B3" d="m164 91 1 4-2.375 1.375c-2.662 1.51-2.662 1.51-4.625 3.625-.243 2.67-.243 2.67-.125 5.625l.055 3.04L158 111c-2.702-4.053-2.903-7.24-2-12 4.304-8 4.304-8 8-8"/><path fill="#B14731" d="M88 81h8l-3 3h7c-2.434 2.434-3.515 2.411-6.875 2.75l-2.617.297c-2.73-.051-4.195-.648-6.508-2.047h7v-2l-3-1z"/><path fill="#EEBAA6" d="M165 51c-1 2-1 2-2.937 3-6.502 2.123-13.295 3.117-20.063 4 3.82-2.547 7.728-3.747 12.063-5.187l2.51-.866 2.4-.802 2.195-.74C163 50 163 50 165 51"/><path fill="#F3BFA9" d="M221 32q-.927 4.159-1.875 8.313l-.527 2.38-.528 2.295-.476 2.11C217 49 217 49 215 52c.452-5.915 1.158-11.352 3-17h-5c2.774-1.85 4.64-3 8-3"/><path fill="#F8D4C1" d="m167 182 1 3c-5.973 3.475-10.115 4.574-17 4l-1-2 1.941-.078c6.118-.401 9.972-1.493 15.059-4.922"/><path fill="#F6CEB8" d="m170 113 1 4-1.426 1.172c-3.256 2.723-6.229 5.24-8.574 8.828l-4-1 2.59-2.336 3.347-3.039 1.71-1.54c3.087-2.712 3.087-2.712 5.353-6.085"/><path fill="#B14D34" d="M119 118h9c.625 2.313.625 2.313 1 5l-2 3 3 1-4 1c-.625-2.375-.625-2.375-1-5l2-2c-1.968-1.968-5.348-1.662-8-2z"/><path fill="#F7CEBA" d="M213 59q-.426 2.409-.875 4.813l-.492 2.707C211 69 211 69 209 72l1-9-4-1c2.5-3 2.738-3 7-3"/><path fill="#F8D2BE" d="M118 119c6.055-.195 6.055-.195 8 0l2 2-1.437 1.25c-1.726 1.932-2.129 3.232-2.563 5.75l-2-1 1-6-5-1z"/><path fill="#F7CAB5" d="m149 97 2 1-1 7-11-5v-1h6v2h4z"/><path fill="#B24B35" d="m201 82 4 1v2h2c.37 5.538.37 5.538-1.5 7.875L204 94l.188-3.75c.016-3.032-.081-4.072-1.688-6.75z"/><path fill="#A32B1A" d="m28 84-2.375 1.625C22.665 88.302 21.954 90.185 21 94h-2c.602-6.383.602-6.383 2.25-8.937 2.334-1.417 4.071-1.28 6.75-1.063"/><path fill="#B24E36" d="M220 34h1c.178 4.548-.002 7.88-2 12h-2z"/><path fill="#F5CBB8" d="M106 201h4v2l5 1v2c-3.775-1.09-6.47-1.908-9-5"/><path fill="#B14731" d="m131 189 9 4-2 2c-2.937-1.312-2.937-1.312-6-3z"/><path fill="#F2C0AB" d="m108 111 2 1-2 6-3-2v-3z"/><path fill="#F7C3AD" d="m103 71-2 4v-2l-8 1c3.738-2.492 5.477-3 10-3"/></svg>
