<svg xmlns="http://www.w3.org/2000/svg" viewBox="0 0 341 341"><g clip-path="url(#a)"><mask id="b" width="341" height="341" x="0" y="0" maskUnits="userSpaceOnUse" style="mask-type:luminance"><path fill="#fff" d="M0 0h341v341H0z"/></mask><g stroke-width="2" mask="url(#b)"><path stroke="#FF9B59" d="M159 15.54q-52.67 4.13-92 38.92"/><path stroke="#FFA55F" d="M67 54.46a150.6 150.6 0 0 0-26.5 30.75"/><path stroke="#FFB55D" d="M40.5 85.21Q7.62 136.55 17.15 196.18q1.62 10.1 4.48 19.46 8.16 26.66 25.02 49.2.42.55 1.06.66"/><path stroke="#FFEAC7" d="M47.71 265.5a21 21 0 0 0 4.29 5.29"/><path stroke="#FFC67F" d="M52 270.79a11.74 11.74 0 0 0 4.21 4.96"/><path stroke="#FFEAC7" d="M56.21 275.75a14.9 14.9 0 0 0 5 4.75"/><path stroke="#FFB767" d="M61.21 280.5q1.31 2.8 4.04 4.29"/><path stroke="#FFEAC7" d="M65.25 284.79a20.7 20.7 0 0 0 5.25 4.25"/><path stroke="#FFB15C" d="M70.5 289.04q-.11.66.4 1.07 51.32 41.5 117.85 34.89 13.18-1.31 29.29-6.5"/><path stroke="#FFA362" d="M218.04 318.5q23.96-7.6 44.21-22.46"/><path stroke="#FF9C5D" d="M262.25 296.04a139 139 0 0 0 23-20.75"/><path stroke="#FF9B59" d="M285.25 275.29q23.94-26.09 34.21-60.04"/><path stroke="#FF8B5C" d="M319.46 215.25q9.5-32.15 5.29-64.5-6.12-47.05-37.69-83.06-39.01-44.5-99.56-51.65"/><path stroke="#FFA05E" d="M187.5 16.04a123.5 123.5 0 0 0-28.5-.5"/><path stroke="#FF562B" d="M187.5 16.04q-.94 2.26-.46 4.71"/><path stroke="#FF6437" d="m187.04 20.75-.08 1.75"/><path stroke="#FF773D" d="M186.96 22.5q-4.3-1.19-8.21-1.25-12.05-.18-26.5.46"/><path stroke="#FF6628" d="M152.25 21.71a17.9 17.9 0 0 1 5.44-4.69q.1-.06.79-.28.75-.24.52-1.2"/><path stroke="#FF7238" d="m152.25 21.71-.5.33"/><path stroke="#FF692C" d="M151.75 22.04a28.6 28.6 0 0 0-12.24 1 28.8 28.8 0 0 1-7.12 1.24 7.5 7.5 0 0 0-2.11.39q-1.02.35-2.03.74a32 32 0 0 1-3.06 1 97 97 0 0 0-17.51 6.65q-1.98.97-3.57 1.54-1.84.65-3.7 1.26a.5.5 0 0 1-.255.028c-.077-.012-.135-.047-.165-.098q-.07-.11-.03-.29"/><path stroke="#FF6B29" d="M99.96 35.5q4.07-3.46-.3-1.53-.45.2-.89.5a115 115 0 0 1-10.13 6.24 60 60 0 0 0-4.04 2.39q-1.98 1.29-4 2.51-2.09 1.26-4.27 3.35a44 44 0 0 1-4.2 3.55q-.07.05-1.59 1.63-1.28 1.32-3.54.32"/><path stroke="#FF5126" d="M319.46 215.25q-1.45.94-1.21-1 .16-1.35 1.14-3.6a12 12 0 0 0 .93-3.59q.24-2.17.87-5.87 2.82-16.47 1.35-35.44"/><path stroke="#FF472E" d="M322.54 165.75q-.79-24.01-9.82-46.15-.3-.73-1.41-2.37-.75-1.09-1.25-2.54-3.4-9.92-9.38-19.16-.37-.57-2.81-3.16-1.88-1.98-2.31-4.87a1.94 1.94 0 0 0-.36-.91 58 58 0 0 1-3.22-4.89q-1.07-1.82-3.09-3.92a20.7 20.7 0 0 1-3.95-5.84q-.92-2.03-2.26-3.22a664 664 0 0 1-12.38-11.34q-.07-.07-1.25-1.56-1.13-1.42-3.3-1.03"/><path stroke="#FF4F35" d="M265.75 54.79q-3.5.18-6.94-3.1-5.85-5.59-16.25-11.11a5.6 5.6 0 0 1-1.31-1 9.5 9.5 0 0 0-1.27-1.1q-.73-.53-2.28-.87a10.5 10.5 0 0 1-4.06-1.87 821 821 0 0 0-2.4-1.81 29 29 0 0 0-5.17-2.52q-3.42-1.28-6.75-2.77-2.47-1.09-5.98-2.05-2.42-.66-6.09-1.84-6.46-2.08-19.25-3.25-.54-.05-.96-.75"/><path stroke="#FF553B" d="M265.75 54.79q.9.11 1.34.72.51.72.56.77a284 284 0 0 0 16.29 15.34c.242.202.425.48.53.8q1.79 5.31 5.78 9.83 1.32 1.5 2.76 3.61 1.06 1.54 1.85 4.08.78 2.5 1.92 4.87c.137.275.362.517.65.7q2.62 1.67 3.97 4.32l1.93 3.8a90 90 0 0 1 6.93 13.71q.35.88 1.85 3.62.86 1.56 1.64 3.79 7.61 21.71 7.79 43.25"/><path stroke="#FF5F36" d="M321.54 168q-.31 2.01-.21-.75a13.4 13.4 0 0 0-.17-2.69q-.1-.55-.1 0 .02 5.82-.22 11.63-.03.47-.02 0 .11-7.47-.82-14.89-.06-.5-.05.01.45 16.25-1.01 32.43a7 7 0 0 1-.48 2.01"/><path stroke="#FF673B" d="M318.46 195.75a148 148 0 0 0-1.53 7.04q-.56 2.93-.47-.29"/><path stroke="#FF644A" d="M316.46 202.5a143.4 143.4 0 0 0 2.94-32.75q-.24-9.25-2.13-19.52-1.63-8.85-4.27-19.23-1.27-5.01-3.29-8.26a.8.8 0 0 0-.339-.304.65.65 0 0 0-.421-.046l-.66.15a.57.57 0 0 1-.386-.05.47.47 0 0 1-.234-.28q-1.89-6.1-2.67-7.21a24.7 24.7 0 0 1-3.62-7.76 1.8 1.8 0 0 0-.49-.84l-5.22-5.11a1.55 1.55 0 0 1-.43-.85q-.58-3.25-2.88-5.59a1.44 1.44 0 0 1-.4-.85q-.54-5.86-5.18-10.07a4.8 4.8 0 0 1-1.47-2.53q-.52-2.35-2.13-4.56a133 133 0 0 0-3.01-3.97q-2.68-3.37-6.94-4.73a1.65 1.65 0 0 1-.8-.53q-5.26-6.33-6.62-7.17a18.8 18.8 0 0 1-3.43-2.74q-2.01-2.03-3.45-2.48a11.7 11.7 0 0 0-3.92-.5 1 1 0 0 1-.459-.088.9.9 0 0 1-.351-.282 62 62 0 0 0-1.31-1.66q-.75-.93-1.96-1.64-2.72-1.58-7.37-4.86-3.96-2.8-10.27-4.69"/><path stroke="#FF6F47" d="M233.29 41.5q.43-2.03-.98-2.81-5.83-3.23-13.08-5.77-.09-.03-5.37-2.05-3.78-1.44-9.61-2.87-9.43-2.31-15.5-2.75-1.21-.09-1.61-.72-.51-.79-.18-2.03"/><path stroke="#FF7750" d="m233.29 41.5-.08 2.75"/><path stroke="#FF8C5F" d="M233.21 44.25q-11.26-5.33-13.71-6a144 144 0 0 1-11.47-3.64 42 42 0 0 0-5.04-1.46 80 80 0 0 1-5.12-1.33q-2.81-.83-5.36-1.13-2.74-.32-5.47-.69"/><path stroke="#FF9460" d="m187.04 30-.12-1.53a.48.48 0 0 0-.202-.342.87.87 0 0 0-.458-.168q-19.14-1.58-39.54.15a2.94 2.94 0 0 0-1.8.85L139 34.79"/><path stroke="#FF8B53" d="M139 34.79q-5.06-.21-12.56 2.4-19.08 6.61-32.27 14.8-.36.22-.93.28-.81.08-1.5.5l-.91 1.01q-.58.63-1.54.22"/><path stroke="#FF8E57" d="M89.29 54v-4.25"/><path stroke="#FF7C3E" d="m89.29 49.75-.08-3.5"/><path stroke="#FF7A41" d="M89.21 46.25q.25 1.49 1.48.69 4.66-3.06 8.87-5.13 1.92-.95 9.33-4.19a137.4 137.4 0 0 1 31.92-9.59q.09-.01 3.38-.11 2.12-.07 3.53-1.65.95-1.05 1.01-1.11a84 84 0 0 0 3.02-3.12"/><path stroke="#FF8849" d="M89.29 49.75q-.04-.91-.79-.75-2.08.46-3.47 2.34a1.47 1.47 0 0 1-.76.54q-2.17.69-3.02 2.83"/><path stroke="#FF8242" d="m81.25 54.71-1.5.08"/><path stroke="#FF7938" d="m79.75 54.79-5.01.16c-.297.013-.6.152-.85.39a347 347 0 0 1-9.83 8.97q-4.98 4.39-11.34 12.61-1.49 1.93-4.88 5.76a57 57 0 0 0-4.63 6.02 9.5 9.5 0 0 1-2.17 2.3"/><path stroke="#FF852D" d="M41.04 91a16 16 0 0 0-.54-5.79"/><path stroke="#FF7332" d="M89.21 46.25 99.96 35.5"/><path stroke="#FF572C" d="m322.54 165.75-.75 11.5"/><path stroke="#FF5830" d="m321.79 177.25-.25-9.25"/><path stroke="#FF7F2F" d="m218.04 318.5-.08-4"/><path stroke="#FF853A" d="m217.96 314.5.08-2.5"/><path stroke="#FF6227" d="M321.79 177.25a73 73 0 0 1-.75 10.19q-.33 2.22-.46 5.79a32 32 0 0 1-.73 5.79 71 71 0 0 0-1.33 8.48q-1.23 12.91-7.27 24.19-1.07 1.98-2.48 5.76a24.7 24.7 0 0 1-4.05 7.03 34.5 34.5 0 0 0-4.18 6.49 23.5 23.5 0 0 1-2.9 4.49 35.3 35.3 0 0 0-3.45 4.98 123 123 0 0 1-7.01 10.82q-.06.09-1.1 1.23-1.07 1.17-.83 2.8"/><path stroke="#FF6A30" d="M262.25 296.04q-.82.18-1.38-.34a.54.54 0 0 1-.162-.375.7.7 0 0 1 .132-.425 8.4 8.4 0 0 1 2.41-2.25q2.13-1.32 2.65-1.78a169 169 0 0 0 15.44-15.55q.75-.87.29-.93a.6.6 0 0 0-.363.081 1.3 1.3 0 0 0-.367.309 52 52 0 0 1-5.7 5.83q-.4.34-.06-.06 5.06-6.03 10.05-12.11 4.47-5.46 6.5-8.61.63-.97 1.92-2.42a10.6 10.6 0 0 0 1.74-2.63q1.08-2.3 2.05-3.56 2.3-2.99 5.14-8.31.13-.25.35-.4 2.33-1.6 3.39-4.16.92-2.2.96-2.29a116.4 116.4 0 0 0 6.37-15.97q.67-2.13 1.97-7.76a192 192 0 0 1 1.98-7.77q1.1-4.01.9-8.81"/><path stroke="#FF6F44" d="M316.46 202.5q-1.54 6.41-2.52 9.19-.42 1.18-1.94 3.27"/><path stroke="#FF7551" d="M312 214.96q3.56-13.3 4.5-26.21.9-12.39.19-25.24-.47-8.56-2.45-17.87-1.55-7.24-3.99-17.64-1.56-6.66-5.5-1.79"/><path stroke="#FF7D5C" d="m304.75 126.21-.75.58"/><path stroke="#FF745B" d="M304 126.79q-.84-.1-1.12-.88-1.73-4.9-4.82-9.96a.5.5 0 0 0-.347-.233.5.5 0 0 0-.403.113q-.67.58-1.25.41-.42-.13-.72-.85a37 37 0 0 0-3.99-7.15l-.69-1.16-4.27-7.13a1.93 1.93 0 0 1-.278-1.141 1.58 1.58 0 0 1 .448-.999q1.2-1.19 2.25-2.24.8-.8.94-1.47.22-1.05-.56-1.84a2.4 2.4 0 0 1-.55-.79 7.83 7.83 0 0 0-2.67-3.49c-.258-.2-.435-.48-.5-.79a21.5 21.5 0 0 0-.9-3.3q-.48-1.34-1.97-2.65a17.8 17.8 0 0 1-2.9-3.23q-1.68-2.38-2.62-3.38a197 197 0 0 1-4.75-5.25 1.38 1.38 0 0 0-.82-.47l-2.26-.35c-.336-.052-.63-.2-.83-.42a131 131 0 0 0-13.29-12.58 1.6 1.6 0 0 0-.88-.35q-4.28-.33-8.59-.24-1.33.03-2.22-.45a8 8 0 0 1-1.91-1.4q-1.57-1.54-2.64-2.08-2.84-1.45-5.6-3.04"/><path stroke="#FF9D73" d="M187.04 30q.12 6.63 0 13.26 0 .1.07 3.47.08 3.38-1.01 6.28-.66 1.74-2.56 1.75l-8.4.05q-1.1.01-.2.65 1.99 1.42 3.42.07 1.81-1.72 2.66.33l1.57 3.83a.3.3 0 0 1 .016.169.35.35 0 0 1-.075.16.4.4 0 0 1-.151.112.5.5 0 0 1-.19.039q-3.28.01-2.26 2.56.35.87 1.56 2.22a69.3 69.3 0 0 1 6.93 9.12q.78 1.23 2.67 3.45 1.22 1.43 2.6 3.54 2.45 3.77 6.47 8.27 2.57 2.88 4.43 5.52 2.04 2.89 4.13 5.74.92 1.25.67 2.18-.37 1.37-2.39 1.48-2.61.15-3.53 2.71a.25.25 0 0 0-.013.138q.013.07.061.128a.34.34 0 0 0 .272.114q.48-.01.71.37"/><path stroke="#FFD2BA" d="M204.5 107.71q-32.02 14.57-54.22 41.9c-.221.26-.512.442-.83.52l-18.2 4.41"/><path stroke="#FFAE72" d="M131.25 154.54q-1.9-.24-.29-.56.22-.04.05-.21l-.17-.17a1.25 1.25 0 0 0-.82-.34l-8.9-.31q-1.39-.05-.4-1.05l27.9-28.27q.88-.89-.36-.88-16.38.06-32.26 0-2.32-.01-3.5.47a.4.4 0 0 1-.454-.122.4.4 0 0 1-.076-.148q-.25-.9-1.02-.87-.55.02-1.21.68a28640 28640 0 0 1-73.99 73.78"/><path stroke="#FFA862" d="m35.75 196.54-2.24.68a.6.6 0 0 1-.392-.005.44.44 0 0 1-.258-.235 25.7 25.7 0 0 1-2.02-8.41.8.8 0 0 1 .087-.374c.064-.144.161-.3.283-.456l.77-.98q.48-.61-.19-.15-1.73 1.2-1.96-1.06-.39-3.75-.94-7.83a1.1 1.1 0 0 1 .29-.89l3.8-4.04c.09-.1.16-.213.2-.331a.74.74 0 0 0 .04-.349q-.12-.83-.73.14-.92 1.47-1.87.83a1 1 0 0 1-.308-.347 1.25 1.25 0 0 1-.142-.483l-.72-8.19q-.04-.46-.32-.11-.71.87-1.41 1.74-.62.78-1.04.31a.9.9 0 0 0-.342-.246.65.65 0 0 0-.378-.034l-.66.15a.4.4 0 0 1-.19.004.5.5 0 0 1-.178-.081.57.57 0 0 1-.212-.353 29.3 29.3 0 0 1-.11-9.26c.039-.258.197-.555.45-.84l4.15-4.69a.53.53 0 0 0 .123-.371.86.86 0 0 0-.143-.439q-.85-1.32-.69-3.59a90 90 0 0 1 1.1-9.08c.059-.313.212-.605.44-.84a5938 5938 0 0 0 6.15-6.14q.27-.27.4-.58.55-1.32-.61-.61-.19.11-.52.45-1.2 1.27-1.22-2.55 0-1.24.27-2.45a38.6 38.6 0 0 1 3.79-10.06l1.81-2.43q1.03-1.38 1.18-3.21"/><path stroke="#FFA06B" d="M41.29 108.75a10 10 0 0 0 2.28-1.17q.91-.62 1.57-1.89 3.44-6.57 4.55-8 1.28-1.65 2-2.92 1.62-2.81 1.77-3.02a179 179 0 0 1 2.71-3.65q1.11-1.45 3.05-3.33 2.9-2.82 7.28-7.77 6.74-7.62 18.92-16.82a2.7 2.7 0 0 1 1.3-.52q.71-.09 1.42-.17a.6.6 0 0 1 .6.33q.69 1.42.59-.52a.1.1 0 0 1 .01-.057.1.1 0 0 1 .041-.046.14.14 0 0 1 .061-.022.2.2 0 0 1 .068.005q.18.04.28-.18"/><path stroke="#FF9C67" d="m89.79 59 3.71.21"/><path stroke="#FFA06B" d="m93.5 59.21 10.38.04q1.85 0 .54 1.32L91.6 73.4q-.06.05-.4.85l-.4.91q-.29.68.23.19 7.2-6.75 14.04-14.03 2.67-2.84 6.51-2c.238.052.516.237.78.52q.74.8 1.65-.08A913 913 0 0 0 132 41.79"/><path stroke="#FF9C67" d="m132 41.79 7-7"/><path stroke="#FF975E" d="M132 41.79q-1.17-.01-2.34-.03a7.4 7.4 0 0 0-2.27.33 110 110 0 0 0-13.49 5.16q-.86.39-6.48 2.53a26 26 0 0 0-6.19 3.35q-.54.4-3.02 3.16-1.85 2.07-4.71 2.92M89.79 59l-.5-5"/><path stroke="#FFA259" d="M41.29 108.75a.8.8 0 0 1 0-.5"/><path stroke="#FF945B" d="M41.29 108.25q2.32-2.24 2.67-5.5.05-.52.33-.91 1.87-2.66 8.52-12.53 6.94-10.29 17.2-20.28 1.27-1.24 4.35-3.63a36.4 36.4 0 0 0 4.23-3.84 6.06 6.06 0 0 1 2.65-1.67q4.01-1.26 5.88-3.43a.54.54 0 0 0 .124-.384.5.5 0 0 0-.184-.346q-1.3-1.03-3.07-.8a6.8 6.8 0 0 1-2.74-.22"/><path stroke="#FF8162" d="m233.21 44.25.08 3.75"/><path stroke="#FF896A" d="m233.29 48-.03 6.53a.6.6 0 0 0 .059.273.7.7 0 0 0 .177.232.8.8 0 0 0 .268.153c.1.036.208.053.316.052l6.98-.11a1.1 1.1 0 0 1 .435.093c.155.066.313.163.465.287q7.53 6.05 9.1 6.93 3.5 1.95 6.1 5.76c.088.127.21.228.352.291a.9.9 0 0 0 .458.069q2.79-.33 5.21.13 1.9.36 3.51 2.15 8.7 9.65 17.58 21.12c.113.147.213.372.292.66s.137.632.168 1.01l.37 4.4c.019.209.023.4.013.559a1 1 0 0 1-.073.351l-.23.43q-.24.47-.23.95l.38 10.68"/><path stroke="#FF9F75" d="m284.96 111 .02 15.13q0 2.01 1.46.55l6.28-6.28a.78.78 0 0 1 .642-.222.76.76 0 0 1 .568.372 50 50 0 0 1 4.47 9.66.9.9 0 0 0 .24.354c.111.102.247.183.4.236q.77.26.15.89a8462 8462 0 0 1-50.64 50.37 1 1 0 0 1-.465.261 1.1 1.1 0 0 1-.55-.004 1.3 1.3 0 0 1-.513-.266 1.4 1.4 0 0 1-.362-.471l-1.22-2.58c-.109-.232-.358-.47-.7-.67q-1.64-.98-.43-2.52 2.57-3.26 6-6.66 5.61-5.57 6.33-6.33 3.6-3.78 7.21-7.53.45-.47-.16-.41-.46.04-.86.45a621 621 0 0 1-17.02 17.02 237 237 0 0 0-1.6 1.8 7.1 7.1 0 0 1-2.19 1.7 2.2 2.2 0 0 0-.75.62q-1.89 2.46-4.1.45a.55.55 0 0 0-.369-.146.5.5 0 0 0-.351.146l-60.66 60.66a2.9 2.9 0 0 1-1.102.678c-.428.148-.898.21-1.378.182l-4.06-.23"/><path stroke="#FF9A72" d="M169.25 238.21q.19-.92 1.31-1.9 4.65-4.07 10.24-9.77 9.67-9.86 9.91-10.09 37.46-37.29 74.73-74.76.67-.68.6-1.19-.09-.58-.59-.08L168 237.71"/><path stroke="#FF9F75" d="M168 237.71q-1.53 1.24-2.92-.03-1.39-1.28-1.58-3.18-.25-2.55.31-3.19 1.52-1.73-.07-2.01a.6.6 0 0 1-.339-.188.6.6 0 0 1-.151-.362l-.54-7.75"/><path stroke="#FFA670" d="M162.71 221q1.04-1.75.58-3.75"/><path stroke="#FFCAB8" d="M163.29 217.25q2.54 6.98 2.96 8.75.55 2.33 2 3.04"/><path stroke="#FF7C4E" d="M168.25 229.04q-.53 1.14.28 1.55a.66.66 0 0 0 .42.055 1 1 0 0 0 .44-.205 210 210 0 0 0 18.94-17.14 1.7 1.7 0 0 0 .47-.85l4.66-21.14c.071-.324.243-.612.49-.82a168.4 168.4 0 0 0 34.02-38.01q8.49-12.97 12.28-25.48 3.49-11.51 3.5-22.5 0-2.02-1.71-1"/><path stroke="#FFCAB8" d="M242.04 103.5q.41-2.1-1.73-2.31-7.84-.78-14.32.26a90 90 0 0 0-21.49 6.26"/><path stroke="#FF9C52" d="m41.29 108.25-.33-9"/><path stroke="#FF913F" d="m40.96 99.25.08-4.75"/><path stroke="#FF9F3D" d="M40.96 99.25q-1.34.97-2.52 3.19-4.81 9.01-7.97 16.93-2.37 5.98-2.97 8.17a29.7 29.7 0 0 0-1 8.71q.1 3.25-.75 4.5-2.92 4.28-2.32 9.51a1.6 1.6 0 0 1-.18.93q-1.03 2.03.2 3.9c.095.145.16.3.193.455a1 1 0 0 1-.003.445 6.9 6.9 0 0 1-1.43 2.76"/><path stroke="#FF9A31" d="M22.21 158.75q-1.84.57-2.59 2.23c-.124.268-.34.511-.62.7q-1.49.98-1.5 3.57a40 40 0 0 0 .37 5.57c.04.287.178.586.4.86q1.45 1.77-.14 3.25-.181.173-.284.386a1.1 1.1 0 0 0-.106.434 41.6 41.6 0 0 0 1.14 10.51c.072.3.051.637-.06.97q-.77 2.29.36 4.4.23.42.26.93.09 1.63 1.27 4.27.31.72.34 1.51.12 4.32 1.57 7.98.81 2.04 1.03 4.05.24 2.11.8 4.17.39 1.4 2.18 4.17 2.17 3.36 2.35 7.54c.02.326.134.639.33.9a29.3 29.3 0 0 1 4.44 8.6q.39 1.2 2.45 1.71c.33.078.61.255.79.5a26 26 0 0 1 2.75 4.57q1.52 3.23 2.47 4.69 3.02 4.63 3.85 6.22a25.4 25.4 0 0 0 5.08 6.72.76.76 0 0 1 .175.317c.047.145.08.32.095.513l.09 1.05"/><path stroke="#FFCA95" d="m51.5 262.04-3.79 3.46"/><path stroke="#FF864A" d="M79.75 54.79q1.1 1.47.61 3.17a.76.76 0 0 1-.245.363.9.9 0 0 1-.425.197q-1.45.27-2.73.96-1.13.6-2.57 1.25-2.23.99-4.89 3.52a2847 2847 0 0 1-12.18 11.51 35 35 0 0 0-2.49 2.61 234 234 0 0 1-2.36 2.76 41 41 0 0 0-3.24 4.35A135 135 0 0 1 42 95.54q-.26.34-.35-.1a1.42 1.42 0 0 0-.61-.94"/><path stroke="#FF8935" d="M41.04 94.5V91"/><path stroke="#FF9333" d="M217.96 314.5q-7.13 2.43-13.46 3-11.77 1.06-18.27 1.82a145.5 145.5 0 0 1-30.23.39 446 446 0 0 1-20.43-2.31q-.03-.01-2.15-.17-2.46-.18-4.42-1.73-.96-.76-4.36-1.48-.11-.02-2.79-.15-2.08-.1-2.72-2.14a1.2 1.2 0 0 0-.231-.409 1 1 0 0 0-.359-.261 299 299 0 0 1-4.74-1.98q-1.36-.58-4.58-2.32a37 37 0 0 0-5.03-2.24q-3.29-1.18-5.03-2.15-12.82-7.12-22.6-15.18-1.51-1.25-2.31-1.48"/><path stroke="#FF7842" d="m312 214.96-10.51 24.56a2.6 2.6 0 0 1-.831 1.048 2.8 2.8 0 0 1-1.269.522q-1.28.18-2.07 1.52-.15.25-.4 1.36-.17.7-.65 1.29a24.2 24.2 0 0 0-3 4.64q-2.23 4.5-2.48 4.9a48.5 48.5 0 0 1-5.23 6.88 12 12 0 0 0-1.22 1.6q-2.77 4.33-5.64 7.42-.53.57-3.92 4.52-1.65 1.91-4.28 4.28-8.75 7.87-12.9 10.89c-.227.168-.551.264-.92.27q-1.51.05-1.22 1.62a.27.27 0 0 1-.035.186.25.25 0 0 1-.145.114q-3.21 1.02-3.79 1.85a9.5 9.5 0 0 1-2.86 2.68q-14.89 9.02-29.38 13.64-.73.23-1.21 1.25"/><path stroke="#FF8C46" d="m218.04 312-.08-1.75"/><path stroke="#FF904D" d="M217.96 310.25 218 309"/><path stroke="#FF8856" d="M218 309q3.54-1.05 6.92-2.48 1.06-.45 6.8-2.71a40 40 0 0 0 8.32-4.48q.83-.59 3.18-1.63a6.85 6.85 0 0 0 2.89-2.34q1.52-2.13 2.35-2.74a38.4 38.4 0 0 1 6.09-3.68.3.3 0 0 1 .214-.016c.076.022.149.07.206.136q.24.29.43-.2c.089-.25.24-.444.42-.54q.71-.39 1.44-.74a6.7 6.7 0 0 0 1.37-.84q13.41-10.87 22.31-22.3 9.21-11.84 12.12-16.13 1.34-1.96 2.61-6.02c.049-.158.13-.3.236-.414a.9.9 0 0 1 .374-.246l2.42-.81c.342-.117.615-.311.77-.55a15.6 15.6 0 0 0 1.78-3.77q1.01-3.18 1.32-3.9a204 204 0 0 0 6.74-18.09q.49-1.53 1.07-5.78.37-2.69 1.43-6.42 1.53-5.37 1.98-18.06.06-1.62-.15-1.32-.14.19-.14.67a41 41 0 0 1-.96 8.15"/><path stroke="#FF8659" d="M312.54 191.75q1.84-22.45-.04-38.25-.35-2.95-3.27-15.02-.02-.08-.85-3.97a36.2 36.2 0 0 0-2.59-7.78q-.29-.62-1.04-.52"/><path stroke="#FF9061" d="M312.54 191.75a42 42 0 0 1-.6 3.86 106 106 0 0 0-.73 3.82 83.7 83.7 0 0 1-4.71 17.32q-1.23 3.13-5.09 14.28-.15.45-.53.79-1.92 1.71-2.23 3.54a9.9 9.9 0 0 1-1.83 4.3q-1.7 2.32-4.07 1.55"/><path stroke="#FF8564" d="M304 126.79q-.4.6-1 1"/><path stroke="#FF926E" d="m303 127.79-.69-.04a.7.7 0 0 1-.396-.166.8.8 0 0 1-.244-.374 57 57 0 0 0-4.11-10.03.85.85 0 0 0-.651-.448.93.93 0 0 0-.769.258l-2.72 2.65a.96.96 0 0 1-.419.24 1 1 0 0 1-.49.01 1.09 1.09 0 0 1-.751-.63 26 26 0 0 0-4.67-7.15.73.73 0 0 0-.356-.205 1 1 0 0 0-.454-.005q-1.06.22-1.32-.9"/><path stroke="#FFB195" d="M242.04 103.5q.56 15.96-6.48 31.31-7.86 17.17-18.84 30.39-10.09 12.15-22.91 23-1.21 1.02-1.53 2.52l-4.43 20.54a1.55 1.55 0 0 1-.47.84l-19.13 16.94"/><path stroke="#FFDBB7" d="m163.29 217.25-3.25-10"/><path stroke="#FFBA97" d="M160.04 207.25q.02-1.35-1.04-1.25-7.4.71-13.53-1.11a.9.9 0 0 0-.453-.008.84.84 0 0 0-.387.218l-8.16 8.08a.84.84 0 0 1-1.18 0l-6-5.93"/><path stroke="#FFDBB7" d="M129.29 207.25q-.94-.58-1.05-1.4-.08-.61.61-1.39a680 680 0 0 0 6.7-7.61.86.86 0 0 0 .206-.471.9.9 0 0 0-.096-.509q-2.8-5.45-2.7-10.87"/><path stroke="#FFBA97" d="M132.96 185q.56-1.32-.71-1.75-6.6-2.25-21.5-6.96"/><path stroke="#FFDBB7" d="M110.75 176.29q-1.48-.83-.44-1.98 7.65-8.45 15.11-17.06 1.15-1.33 2.62-1.83a26 26 0 0 1 3.21-.88"/><path stroke="#FF964F" d="M110.75 176.29q-.5 1.33.69 1.77 9.06 3.39 21.52 6.94m-3.67 22.25q-.39 1.12.39 1.76.83.67.89.73a61 61 0 0 0 5.11 5.07 1.24 1.24 0 0 0 1.69-.06l7.76-7.75a.94.94 0 0 1 .91-.24q6.71 1.98 13.7.92.36-.05.3-.43"/><path stroke="#FFB976" d="m151.5 279.29-19.78 19.86q-1.29 1.3.52 1.6 8.07 1.32 16.13 2.57.24.04 2.25-.07 1.26-.07 2.23.93c.253.253.545.415.83.46q11.73 1.94 19.07 1.11 8.87-1 17.74-2.12 13.53-1.7 26.06-6.64a.44.44 0 0 1 .31-.004.46.46 0 0 1 .24.204q.41.73.9.52"/><path stroke="#FFB070" d="m218 297.71.21 4.04"/><path stroke="#FFA466" d="m218.21 301.75-.25 2.5"/><path stroke="#FFB267" d="M217.96 304.25q-18.57 5.84-25.65 6.81-15.97 2.21-20 2.25a145.4 145.4 0 0 1-39.14-4.85q-1.36-.36-2.76-1.23-1.64-1.01-2.72-1.42-1.27-.47-1.25-1.57a1.6 1.6 0 0 0-.066-.497.9.9 0 0 0-.204-.363q-1.15-1.23-2.42-1.63-7.44-2.34-13.28-5.55-.48-.26-1.59-1.28-.89-.81-1.94-.86-2.27-.11-3.68-1.28-2.26-1.86-2.5-1.99a48 48 0 0 1-3.81-2.4.43.43 0 0 0-.42-.04q-.81.35-.24-.26a.2.2 0 0 0 .055-.153.2.2 0 0 0-.075-.137 60 60 0 0 0-8.07-5.5 16.1 16.1 0 0 1-3.67-2.86q-.25-.27-.46-.87-.41-1.17-1.82-.36"/><path stroke="#FFDBB7" d="m82.25 278.21 40.83-38.43a.9.9 0 0 0 .246-.389.8.8 0 0 0 .014-.441q-.6-2.44-3.1-3.96a1.5 1.5 0 0 0-1.8.18L73.5 277.04"/><path stroke="#FFA857" d="m73.5 277.04-.07-1.29a1.1 1.1 0 0 0-.105-.447.73.73 0 0 0-.255-.303 4.07 4.07 0 0 1-1.61-2.08.8.8 0 0 0-.236-.331 1.1 1.1 0 0 0-.404-.209l-.57-.17"/><path stroke="#FFDBB7" d="m70.25 272.21 55.55-52.12c.271-.253.453-.587.518-.952.065-.364.01-.739-.158-1.068q-1.26-2.51-2.97-3.01-1.42-.43-3.27 1.3a38224 38224 0 0 1-63.71 59.39M52 270.79l51.96-48.61c.25-.232.411-.538.45-.853a1.06 1.06 0 0 0-.24-.837l-2.54-2.94q-1.14-1.31-2.64.08L59 254.79"/><path stroke="#FFB060" d="m35.75 196.54-4.94 5.27q-1.37 1.47 1.25 4.38 1.3 1.43 1.09 3.26a.7.7 0 0 0 .066.405c.061.132.16.251.284.345q.85.66.5 1.8-.77 2.48 0 4l2.06 4.05c.063.129.155.246.27.342a1.2 1.2 0 0 0 .4.218q1.14.37 1.39 1.71.33 1.75 1.18 3.26 1.43 2.54 1.62 3 1.45 3.43 2.89 6.86.84 1.99 3.69 1.85a.8.8 0 0 1 .433.098.76.76 0 0 1 .307.312A144 144 0 0 0 59 254.79"/><path stroke="#FFD5A8" d="m59 254.79-5.71 5.46"/><path stroke="#FFA544" d="M53.29 260.25q.4-.97-.6-2.19-6.16-7.45-12.1-19.07-.04-.09-.45-1.14-.48-1.21-1.65-1.34a1.1 1.1 0 0 1-.444-.144.9.9 0 0 1-.306-.296q-3.27-5.59-3.93-8.38-.44-1.87-1.43-2.86c-.245-.239-.398-.53-.43-.82q-.3-2.35-1.39-4.07-1.72-2.72-1.59-5.69a1.4 1.4 0 0 0-.27-.89q-1.71-2.3-2-5.01-.45-4.19-.47-4.28a48.5 48.5 0 0 0-2.29-7.11 2.2 2.2 0 0 1-.14-.95 5.4 5.4 0 0 0-.33-2.35q-.89-2.32-.94-2.59-.62-3.71.1-8.36a2.4 2.4 0 0 0-.07-.99q-1.73-5.77-.03-11.06.15-.48.07-.96-.96-5.43-.39-10.95"/><path stroke="#FF9B6F" d="M303 127.79q-1.79.88-1.03 1.71.89.97.95 1.08.86 1.66 1.58 4.42 3.61 13.75 4.61 27.01.79 10.36.39 19.98a120 120 0 0 1-4.77 28.83q-3.01 10.24-7.92 22.49-.75 1.87-1.7 3.17-1.03 1.41-1.38 2.24-.51 1.24-.98 2.49"/><path stroke="#FF9D6B" d="m292.75 241.21-8.75.08"/><path stroke="#FFA975" d="m284 241.29-64.5-.08"/><path stroke="#FFB27B" d="M219.5 241.21q-.52-4.27-4.25-4.21-7.4.13-14.78-.15-.81-.03-1.72.33-.85.33-1.75.49c-.285.052-.61-.008-.92-.17q-1.78-.94-3.27.56-.94.95-1.88 1.88-19.72 19.67-39.43 39.35"/><path stroke="#FFAF74" d="M151.5 279.29q-1.66-.45-1.25-2.79.43-2.45-.97-5.48-.29-.64-.97-1.19-.92-.75-1.08-1.14-.8-1.99-2.3-.48l-23.73 23.96a.9.9 0 0 0-.248.764.8.8 0 0 0 .157.37.8.8 0 0 0 .311.246l6.92 2.98c.356.155.625.357.76.57q.95 1.48.97 3.22a.94.94 0 0 1-.097.426c-.068.14-.168.271-.293.384q-1.87 1.7-.22 3.35c.09.09.151.2.172.313a.4.4 0 0 1-.052.307q-.25.39-.55 0-.3-.42-.6-.67-.8-.66-.42-1.7a1.12 1.12 0 0 0-.045-.856 1.22 1.22 0 0 0-.645-.604l-13.12-5.32q-.36-.15-.75-.61-1.11-1.33-3.16-1.34a.85.85 0 0 1-.785-.556.8.8 0 0 1-.045-.334q.04-.58-.78-1.04a397 397 0 0 0-10.11-5.51.415.415 0 0 1-.203-.497.4.4 0 0 1 .103-.163 2044 2044 0 0 0 30.37-30.8 783 783 0 0 1 2.72-2.79q22.62-23.11 31.15-31.31"/><path stroke="#FFA476" d="M168 237.71q.68.5 1.25.5"/><path stroke="#FFCF9B" d="m53.29 260.25-1.79 1.79"/><path stroke="#FFD6AF" d="M82.25 278.21 81 279.46"/><path stroke="#FFD4AA" d="m81 279.46-2.5 2.25"/><path stroke="#FFD0A5" d="m78.5 281.71-1.75 1.75"/><path stroke="#FFCC9F" d="m76.75 283.46-2.5 2.25"/><path stroke="#FFC694" d="m74.25 285.71-3.75 3.33"/><path stroke="#FFCC9F" d="m65.25 284.79 8.25-7.75"/><path stroke="#FF9D45" d="M217.96 310.25q-16.82 7.26-35.21 7.14a67 67 0 0 0-7.25.33q-5.33.53-10.65.23l-9.72-.55q-10.18-.42-20.14-2.61a19.2 19.2 0 0 1-7.15-3.18 1.6 1.6 0 0 0-.91-.29q-2.41-.04-4.24-1.37-2.96-2.13-3.02-2.16-3.15-1.65-6.53-2.73a15 15 0 0 1-3.2-1.44q-1.78-1.06-3.19-1.62-6.64-2.63-11.89-6.28-.45-.31-1.64-1.54a6 6 0 0 0-1.9-1.3q-2.78-1.2-2.86-1.25a63.2 63.2 0 0 1-10.16-7.73 1.47 1.47 0 0 0-.86-.4l-.69-.04"/><path stroke="#FF9D59" d="m218 309-.04-3"/><path stroke="#FFA05E" d="M217.96 306v-1.75"/><path stroke="#FF9E67" d="M218.21 301.75a46.7 46.7 0 0 0 12.35-5.69q1.15-.74-.31-.56-1.64.21-2.63-.12-1.6-.54-.13-1.37a100 100 0 0 0 3.24-1.94 42 42 0 0 1 3.26-1.85 116.5 116.5 0 0 0 19.87-12.91.74.74 0 0 1 .374-.143 1.2 1.2 0 0 1 .466.043q.51.15.93-.12.71-.46.83-.51a6.9 6.9 0 0 0 2.76-1.97q1.22-1.44 1.28-1.5a681 681 0 0 1 5.76-5.77q.58-.57 2.5-3.1 1.02-1.36 2.74-2.99 1.26-1.2 6.13-7.52 1.07-1.4 2.55-4.41A20.7 20.7 0 0 1 283 245q.58-.69 1-3.71"/><path stroke="#FFA550" d="M218 309a239 239 0 0 0-9.87 2.89q-5.39 1.71-9.94 2.54-13.1 2.36-15.94 2.57-10.12.73-31.5-.75-4.96-.34-7.69-.87-.8-.16-2.56-1.07a8.2 8.2 0 0 0-2.74-.85 26 26 0 0 1-8.29-2.51q-.91-.46-3.64-1.29-2.13-.64-3.59-2.45a2 2 0 0 0-.76-.6 279 279 0 0 0-13.17-5.42q-5.23-2-12.11-6.52-6.56-4.31-9.11-6.08a83 83 0 0 1-8.59-6.88"/><path stroke="#FFCC9F" d="m70.25 272.21-9.04 8.29"/><path stroke="#FFAB5A" d="M217.96 306q-7.71 3.22-9.21 3.5-4.85.9-9.61 2.2a38 38 0 0 1-7.43 1.23q-4.76.3-9.47 1.03-5.16.8-9.05.67a363 363 0 0 1-24.5-1.67q-3.23-.32-7.4-1.41-3.66-.95-7.38-1.66-1.65-.31-4.12-1.38a18.3 18.3 0 0 0-4.23-1.24.63.63 0 0 1-.357-.198.7.7 0 0 1-.173-.382q-.21-1.81-1.71-2.28-1.96-.62-2.05-.66a64 64 0 0 0-7.58-3.17q-4.77-1.64-6.32-2.53-3.11-1.8-5.37-4.3-1.09-1.21-2.28-1.92-.25-.14-2.24-1.44-1.09-.71-2.73-1.14-2.24-.59-4.31-2.28-2.43-1.98-3.83-2.88a30.5 30.5 0 0 1-5.61-4.63"/><path stroke="#FFB276" d="m219.5 241.21-21.62.1a.88.88 0 0 0-.88.88v52.22c0 .223.09.436.249.594a.86.86 0 0 0 .601.246l19.59.06c.141 0 .277.053.378.149a.5.5 0 0 1 .162.361l.02 1.89"/><path stroke="#FFAF78" d="M77.06 127.06q8.04-8.21 31.72-31.47.31-.3.66-.37 1.03-.19.69.6-.12.3-.48.65a124747 124747 0 0 1-72.75 72.75q-.08.08-.98.86-1.86 1.6-1.15 4.28.7 2.61.79 5.34.1 2.53 1.88.74l73.9-74.4c.228-.235.385-.526.45-.84q1.1-5.23.76-10.52-.01-.18-.19-5.88a21 21 0 0 0-1.18-6.32.36.36 0 0 0-.236-.213.3.3 0 0 0-.294.073 1097 1097 0 0 0-17.4 17.41 214 214 0 0 0-3.02 3.15q-2.34 2.54-3 3.17a1261 1261 0 0 0-26.42 25.99q-15.04 15.26-19.75 19.75-3.49 3.34-5.3 6.26c-.156.247-.233.573-.22.93l.29 7.25q.08 2.2 1.6.69a3776 3776 0 0 0 39.63-39.88Z"/><path stroke="#FFAF76" d="M40.73 190.49q30.99-31.15 61.96-62.3 5.37-5.41 8.49-8.06a1.2 1.2 0 0 0 .291-.369c.069-.14.106-.29.109-.441l.23-11.01q.01-.51-.36-.14a14579 14579 0 0 0-75.59 75.1q-.09.09-1.42 1.22-2.36 2.01-.76 4.89.11.19.27.93l.99 4.36q.27 1.17 1.24.25a226 226 0 0 0 4.55-4.43Z"/><path stroke="#FFE5D4" d="M175.29 160q6.99 10.34 18.9 5.44 1.64-.68 3.06-2.4"/><path stroke="#FFD6AF" d="M197.25 163.04q7.47-8.5 1.25-18.08"/><path stroke="#FFBA97" d="M198.5 144.96q-5.18-6.11-12-5.44-6.4.63-10.29 5.73-4.62 6.04-.92 14.75"/><path stroke="#FF9147" d="M198.5 144.96q-.87.21-1.43-.32-.68-.63-.74-.67-10.28-6.67-18.77 2.09-.76.79-1.06 2.4"/><path stroke="#FFA06C" d="M176.5 148.46q-2.6 5.02-1.03 10.55.18.63-.18.99"/><path stroke="#FFBC84" d="M197.25 163.04q-.76-.52-.27-.99.47-.45.56-.59 3.17-5.15 1.15-10.4-1.59-4.11-5.35-6.26-3.61-2.06-7.6-1.53-4.33.58-7.43 4.04-.85.95-1.81 1.15"/><path stroke="#FFBA75" d="M86.61 170.7a142 142 0 0 0 5.33-5.47c.36-.378.56-.883.56-1.41v-9.2q0-1-.7-.29l-50.45 50.32a.8.8 0 0 0-.224.4.65.65 0 0 0 .044.42l3.21 6.67a.42.42 0 0 0 .34.238.52.52 0 0 0 .42-.148 3897 3897 0 0 0 36-36.19q.85-.86 5.47-5.34Z"/></g><path fill="#FFD58F" d="M33.01 270.45q-16.06-21.73-24.08-47.56a214 214 0 0 1-5.05-19.34q-7.41-35.09 1.37-71.8 5.79-24.22 16.19-43.06 21.18-38.36 58.09-61.93 16.48-10.53 34.9-16.66a217 217 0 0 1 19.24-5.4q37.84-8.78 77.27.86 47.25 11.55 80 44.75 29.95 30.36 42 70.25 5.22 17.31 7.31 37.94 1.42 14.08-.65 29.88a232 232 0 0 1-3.46 19.7q-7.28 33.19-27.2 61.11-21.95 30.77-54.86 49.41a159 159 0 0 1-36.37 15.05 231 231 0 0 1-19.47 4.47q-26.56 4.91-53.19.37a228 228 0 0 1-19.54-4.22q-28.22-7.4-53.32-25.21-15.15-10.74-26.51-23.14-6.43-7.01-12.67-15.47M159 15.54q-52.67 4.13-92 38.92a150.6 150.6 0 0 0-26.5 30.75Q7.62 136.55 17.15 196.18q1.62 10.1 4.48 19.46 8.16 26.66 25.02 49.2.42.55 1.06.66a21 21 0 0 0 4.29 5.29 11.74 11.74 0 0 0 4.21 4.96 14.9 14.9 0 0 0 5 4.75q1.31 2.8 4.04 4.29a20.7 20.7 0 0 0 5.25 4.25q-.11.66.4 1.07 51.32 41.5 117.85 34.89 13.18-1.31 29.29-6.5 23.96-7.6 44.21-22.46a139 139 0 0 0 23-20.75q23.94-26.09 34.21-60.04 9.5-32.15 5.29-64.5-6.12-47.05-37.69-83.06-39.01-44.5-99.56-51.65a123.5 123.5 0 0 0-28.5-.5"/><path fill="#FF6B2D" d="M187.5 16.04q-.94 2.26-.46 4.71l-.08 1.75q-4.3-1.19-8.21-1.25-12.05-.18-26.5.46a17.9 17.9 0 0 1 5.44-4.69q.1-.06.79-.28.75-.24.52-1.2 14.28-1.4 28.5.5"/><path fill="#FF6123" d="M159 15.54q.23.96-.52 1.2-.69.22-.79.28a17.9 17.9 0 0 0-5.44 4.69l-.5.33a28.6 28.6 0 0 0-12.24 1 28.8 28.8 0 0 1-7.12 1.24 7.5 7.5 0 0 0-2.11.39q-1.02.35-2.03.74a32 32 0 0 1-3.06 1 97 97 0 0 0-17.51 6.65q-1.98.97-3.57 1.54-1.84.65-3.7 1.26a.5.5 0 0 1-.255.028c-.077-.012-.135-.047-.165-.098q-.07-.11-.03-.29 4.07-3.46-.3-1.53-.45.2-.89.5a115 115 0 0 1-10.13 6.24 60 60 0 0 0-4.04 2.39q-1.98 1.29-4 2.51-2.09 1.26-4.27 3.35a44 44 0 0 1-4.2 3.55q-.07.05-1.59 1.63-1.28 1.32-3.54.32 39.33-34.79 92-38.92"/><path fill="#FF4128" d="M187.5 16.04q60.55 7.15 99.56 51.65 31.57 36.01 37.69 83.06 4.21 32.35-5.29 64.5-1.45.94-1.21-1 .16-1.35 1.14-3.6a12 12 0 0 0 .93-3.59q.24-2.17.87-5.87 2.82-16.47 1.35-35.44-.79-24.01-9.82-46.15-.3-.73-1.41-2.37-.75-1.09-1.25-2.54-3.4-9.92-9.38-19.16-.37-.57-2.81-3.16-1.88-1.98-2.31-4.87a1.94 1.94 0 0 0-.36-.91 58 58 0 0 1-3.22-4.89q-1.07-1.82-3.09-3.92a20.7 20.7 0 0 1-3.95-5.84q-.92-2.03-2.26-3.22a664 664 0 0 1-12.38-11.34q-.07-.07-1.25-1.56-1.13-1.42-3.3-1.03-3.5.18-6.94-3.1-5.85-5.59-16.25-11.11a5.6 5.6 0 0 1-1.31-1 9.5 9.5 0 0 0-1.27-1.1q-.73-.53-2.28-.87a10.5 10.5 0 0 1-4.06-1.87 845 845 0 0 0-2.4-1.81 29 29 0 0 0-5.17-2.52q-3.42-1.28-6.75-2.77-2.47-1.09-5.98-2.05-2.42-.66-6.09-1.84-6.46-2.08-19.25-3.25-.54-.05-.96-.75-.48-2.45.46-4.71"/><path fill="#FF5C41" d="M187.04 20.75q.42.7.96.75 12.79 1.17 19.25 3.25 3.67 1.18 6.09 1.84 3.51.96 5.98 2.05 3.33 1.49 6.75 2.77a29 29 0 0 1 5.17 2.52q.03.02 2.4 1.81a10.5 10.5 0 0 0 4.06 1.87q1.55.34 2.28.87.68.49 1.27 1.1.65.65 1.31 1 10.4 5.52 16.25 11.11 3.44 3.28 6.94 3.1.9.11 1.34.72.51.72.56.77a284 284 0 0 0 16.29 15.34c.242.202.425.48.53.8q1.79 5.31 5.78 9.83 1.32 1.5 2.76 3.61 1.06 1.54 1.85 4.08.78 2.5 1.92 4.87c.137.275.362.517.65.7q2.62 1.67 3.97 4.32l1.93 3.8a90 90 0 0 1 6.93 13.71q.35.88 1.85 3.62.86 1.56 1.64 3.79 7.61 21.71 7.79 43.25-.31 2.01-.21-.75a13.4 13.4 0 0 0-.17-2.69q-.1-.55-.1 0 .02 5.82-.22 11.63-.03.47-.02 0 .11-7.47-.82-14.89-.06-.5-.05.01.45 16.25-1.01 32.43a7 7 0 0 1-.48 2.01 148 148 0 0 0-1.53 7.04q-.56 2.93-.47-.29a143.4 143.4 0 0 0 2.94-32.75q-.24-9.25-2.13-19.52-1.63-8.85-4.27-19.23-1.27-5.01-3.29-8.26a.8.8 0 0 0-.339-.304.65.65 0 0 0-.421-.046l-.66.15a.57.57 0 0 1-.386-.05.47.47 0 0 1-.234-.28q-1.89-6.1-2.67-7.21a24.7 24.7 0 0 1-3.62-7.76 1.8 1.8 0 0 0-.49-.84l-5.22-5.11a1.55 1.55 0 0 1-.43-.85q-.58-3.25-2.88-5.59a1.44 1.44 0 0 1-.4-.85q-.54-5.86-5.18-10.07a4.8 4.8 0 0 1-1.47-2.53q-.52-2.35-2.13-4.56a133 133 0 0 0-3.01-3.97q-2.68-3.37-6.94-4.73a1.65 1.65 0 0 1-.8-.53q-5.26-6.33-6.62-7.17a18.8 18.8 0 0 1-3.43-2.74q-2.01-2.03-3.45-2.48a11.7 11.7 0 0 0-3.92-.5 1 1 0 0 1-.459-.088.9.9 0 0 1-.351-.282 62 62 0 0 0-1.31-1.66q-.75-.93-1.96-1.64-2.72-1.58-7.37-4.86-3.96-2.8-10.27-4.69.43-2.03-.98-2.81-5.83-3.23-13.08-5.77-.09-.03-5.37-2.05-3.78-1.44-9.61-2.87-9.43-2.31-15.5-2.75-1.21-.09-1.61-.72-.51-.79-.18-2.03z"/><path fill="#FF824C" d="M186.96 22.5q-.33 1.24.18 2.03.4.63 1.61.72 6.07.44 15.5 2.75 5.83 1.43 9.61 2.87 5.28 2.02 5.37 2.05 7.25 2.54 13.08 5.77 1.41.78.98 2.81l-.08 2.75q-11.26-5.33-13.71-6a144 144 0 0 1-11.47-3.64 42 42 0 0 0-5.04-1.46 80 80 0 0 1-5.12-1.33q-2.81-.83-5.36-1.13-2.74-.32-5.47-.69l-.12-1.53a.48.48 0 0 0-.202-.342.87.87 0 0 0-.458-.168q-19.14-1.58-39.54.15a2.94 2.94 0 0 0-1.8.85L139 34.79q-5.06-.21-12.56 2.4-19.08 6.61-32.27 14.8-.36.22-.93.28-.81.08-1.5.5l-.91 1.01q-.58.63-1.54.22v-4.25l-.08-3.5q.25 1.49 1.48.69 4.66-3.06 8.87-5.13 1.92-.95 9.33-4.19a137.4 137.4 0 0 1 31.92-9.59q.09-.01 3.38-.11 2.12-.07 3.53-1.65.95-1.05 1.01-1.11a84 84 0 0 0 3.02-3.12l.5-.33q14.45-.64 26.5-.46 3.91.06 8.21 1.25"/><path fill="#FF7135" d="M151.75 22.04a84 84 0 0 1-3.02 3.12q-.06.06-1.01 1.11-1.41 1.58-3.53 1.65-3.29.1-3.38.11a137.4 137.4 0 0 0-31.92 9.59q-7.41 3.24-9.33 4.19-4.21 2.07-8.87 5.13-1.23.8-1.48-.69L99.96 35.5q-.04.18.03.29c.03.05.088.086.165.098a.5.5 0 0 0 .255-.028q1.86-.61 3.7-1.26 1.59-.57 3.57-1.54a97 97 0 0 1 17.51-6.65 32 32 0 0 0 3.06-1q1.01-.39 2.03-.74a7.5 7.5 0 0 1 2.11-.39 28.8 28.8 0 0 0 7.12-1.24q6-1.83 12.24-1"/><path fill="#FF752F" d="M99.96 35.5 89.21 46.25l.08 3.5q-.04-.91-.79-.75-2.08.46-3.47 2.34a1.47 1.47 0 0 1-.76.54q-2.17.69-3.02 2.83l-1.5.08-5.01.16c-.297.013-.6.151-.85.39a348 348 0 0 1-9.83 8.97q-4.98 4.39-11.34 12.61-1.49 1.93-4.88 5.76a57 57 0 0 0-4.63 6.02 9.5 9.5 0 0 1-2.17 2.3 16 16 0 0 0-.54-5.79A150.6 150.6 0 0 1 67 54.46q2.26 1 3.54-.32 1.52-1.58 1.59-1.63 2.22-1.65 4.2-3.55 2.18-2.09 4.27-3.35 2.02-1.22 4-2.51a60 60 0 0 1 4.04-2.39 115 115 0 0 0 10.13-6.24q.44-.3.89-.5 4.37-1.93.3 1.53"/><path fill="#FF935A" d="m139 34.79-7 7q-1.17-.01-2.34-.03a7.4 7.4 0 0 0-2.27.33 110 110 0 0 0-13.49 5.16q-.86.39-6.48 2.53a26 26 0 0 0-6.19 3.35q-.54.4-3.02 3.16-1.85 2.07-4.71 2.92L89.79 59l-.5-5q.96.41 1.54-.22l.91-1.01q.69-.42 1.5-.5.57-.06.93-.28 13.19-8.19 32.27-14.8 7.5-2.61 12.56-2.4"/><path fill="#FF9A62" d="M132 41.79a914 914 0 0 1-17.99 17.97q-.91.88-1.65.08c-.264-.283-.542-.468-.78-.52q-3.84-.84-6.51 2-6.84 7.28-14.04 14.03-.52.49-.23-.19l.4-.91q.34-.8.4-.85l12.82-12.83q1.31-1.32-.54-1.32l-10.38-.04q2.86-.85 4.71-2.92 2.48-2.76 3.02-3.16a26 26 0 0 1 6.19-3.35q5.62-2.14 6.48-2.53a110 110 0 0 1 13.49-5.16 7.4 7.4 0 0 1 2.27-.33q1.17.02 2.34.03"/><path fill="#FF6C53" d="M233.29 41.5q6.31 1.89 10.27 4.69 4.65 3.28 7.37 4.86 1.21.71 1.96 1.64.67.82 1.31 1.66a.9.9 0 0 0 .351.282c.141.064.299.094.459.088q2.04-.08 3.92.5 1.44.45 3.45 2.48a18.8 18.8 0 0 0 3.43 2.74q1.36.84 6.62 7.17c.202.248.481.432.8.53q4.26 1.36 6.94 4.73a133 133 0 0 1 3.01 3.97q1.61 2.21 2.13 4.56c.215.976.729 1.86 1.47 2.53q4.64 4.21 5.18 10.07c.033.318.174.617.4.85q2.3 2.34 2.88 5.59c.058.337.209.635.43.85l5.22 5.11c.236.229.405.52.49.84A24.7 24.7 0 0 0 305 115q.78 1.11 2.67 7.21a.47.47 0 0 0 .234.28.57.57 0 0 0 .386.05l.66-.15a.65.65 0 0 1 .421.046.8.8 0 0 1 .339.304q2.02 3.25 3.29 8.26 2.64 10.38 4.27 19.23 1.89 10.27 2.13 19.52.42 16.48-2.94 32.75-1.54 6.41-2.52 9.19-.42 1.18-1.94 3.27 3.56-13.3 4.5-26.21.9-12.39.19-25.24-.47-8.56-2.45-17.87-1.55-7.24-3.99-17.64-1.56-6.66-5.5-1.79l-.75.58q-.84-.1-1.12-.88-1.73-4.9-4.82-9.96a.5.5 0 0 0-.347-.233.5.5 0 0 0-.403.113q-.67.58-1.25.41-.42-.13-.72-.85a37 37 0 0 0-3.99-7.15l-.69-1.16-4.27-7.13a1.93 1.93 0 0 1-.278-1.141 1.58 1.58 0 0 1 .448-.999q1.2-1.19 2.25-2.24.8-.8.94-1.47.22-1.05-.56-1.84a2.4 2.4 0 0 1-.55-.79 7.83 7.83 0 0 0-2.67-3.49c-.258-.2-.435-.48-.5-.79a21.5 21.5 0 0 0-.9-3.3q-.48-1.34-1.97-2.65a17.8 17.8 0 0 1-2.9-3.23q-1.68-2.38-2.62-3.38a197 197 0 0 1-4.75-5.25 1.38 1.38 0 0 0-.82-.47l-2.26-.35c-.336-.052-.63-.2-.83-.42a131 131 0 0 0-13.29-12.58 1.6 1.6 0 0 0-.88-.35q-4.28-.33-8.59-.24-1.33.03-2.22-.45a8 8 0 0 1-1.91-1.4q-1.57-1.54-2.64-2.08-2.84-1.45-5.6-3.04l-.08-3.75z"/><path fill="#FF7C63" d="M233.29 48q2.76 1.59 5.6 3.04 1.07.54 2.64 2.08a8 8 0 0 0 1.91 1.4q.89.48 2.22.45 4.31-.09 8.59.24c.325.026.632.148.88.35a131 131 0 0 1 13.29 12.58c.2.22.494.368.83.42l2.26.35c.303.046.594.212.82.47q2.33 2.67 4.75 5.25.94 1 2.62 3.38 1.25 1.79 2.9 3.23 1.49 1.31 1.97 2.65.58 1.61.9 3.3c.065.31.242.59.5.79a7.83 7.83 0 0 1 2.67 3.49q.16.4.55.79.78.79.56 1.84-.14.67-.94 1.47-1.05 1.05-2.25 2.24a1.58 1.58 0 0 0-.448.999c-.031.388.067.79.278 1.141l4.27 7.13.69 1.16a37 37 0 0 1 3.99 7.15q.3.72.72.85.58.17 1.25-.41a.498.498 0 0 1 .75.12q3.09 5.06 4.82 9.96.28.78 1.12.88-.4.6-1 1l-.69-.04a.7.7 0 0 1-.396-.166.8.8 0 0 1-.244-.374 57 57 0 0 0-4.11-10.03.85.85 0 0 0-.651-.448.93.93 0 0 0-.769.258l-2.72 2.65a.96.96 0 0 1-.419.24 1 1 0 0 1-.49.01 1.09 1.09 0 0 1-.751-.63 26 26 0 0 0-4.67-7.15.73.73 0 0 0-.356-.205 1 1 0 0 0-.454-.005q-1.06.22-1.32-.9l-.38-10.68q-.01-.48.23-.95l.23-.43a1 1 0 0 0 .073-.351c.01-.158.006-.35-.013-.559l-.37-4.4a5.6 5.6 0 0 0-.168-1.01c-.079-.288-.179-.513-.292-.66q-8.88-11.47-17.58-21.12-1.61-1.79-3.51-2.15-2.42-.46-5.21-.13a.9.9 0 0 1-.458-.069.85.85 0 0 1-.352-.291q-2.6-3.81-6.1-5.76-1.57-.88-9.1-6.93a2 2 0 0 0-.465-.286 1.1 1.1 0 0 0-.435-.094l-6.98.11a.9.9 0 0 1-.316-.052.8.8 0 0 1-.268-.153.7.7 0 0 1-.177-.232.6.6 0 0 1-.059-.273z"/><path fill="#FF9A62" d="M89.29 49.75V54l.5 5q-.1.22-.28.18a.2.2 0 0 0-.068-.005.14.14 0 0 0-.06.023.1.1 0 0 0-.042.045.1.1 0 0 0-.01.057q.1 1.94-.59.52a.6.6 0 0 0-.25-.26.6.6 0 0 0-.35-.07q-.71.08-1.42.17a2.7 2.7 0 0 0-1.3.52Q73.24 69.38 66.5 77q-4.38 4.95-7.28 7.77-1.94 1.88-3.05 3.33a178 178 0 0 0-2.71 3.65q-.15.21-1.77 3.02-.72 1.27-2 2.92-1.11 1.43-4.55 8-.66 1.27-1.57 1.89a10 10 0 0 1-2.28 1.17.8.8 0 0 1 0-.5q2.32-2.24 2.67-5.5.05-.52.33-.91 1.87-2.66 8.52-12.53 6.94-10.29 17.2-20.28 1.27-1.24 4.35-3.63a36.4 36.4 0 0 0 4.23-3.84 6.06 6.06 0 0 1 2.65-1.67q4.01-1.26 5.88-3.43a.54.54 0 0 0 .124-.384.5.5 0 0 0-.184-.346q-1.3-1.03-3.07-.8a6.8 6.8 0 0 1-2.74-.22q.85-2.14 3.02-2.83a1.47 1.47 0 0 0 .76-.54q1.39-1.88 3.47-2.34.75-.16.79.75"/><path fill="#FF7D40" d="M79.75 54.79q1.1 1.47.61 3.17a.76.76 0 0 1-.245.363.9.9 0 0 1-.425.197q-1.45.27-2.73.96-1.13.6-2.57 1.25-2.23.99-4.89 3.52a2847 2847 0 0 1-12.18 11.51 35 35 0 0 0-2.49 2.61 234 234 0 0 1-2.36 2.76 41 41 0 0 0-3.24 4.35A135 135 0 0 1 42 95.54q-.26.34-.35-.1a1.42 1.42 0 0 0-.61-.94V91a9.5 9.5 0 0 0 2.17-2.3 57 57 0 0 1 4.63-6.02q3.39-3.83 4.88-5.76 6.36-8.22 11.34-12.61a347 347 0 0 0 9.83-8.97c.25-.238.553-.377.85-.39z"/><path fill="#FF8E54" d="m79.75 54.79 1.5-.08a6.8 6.8 0 0 0 2.74.22q1.77-.23 3.07.8a.48.48 0 0 1 .184.346.52.52 0 0 1-.124.384q-1.87 2.17-5.88 3.43a6.06 6.06 0 0 0-2.65 1.67 36.4 36.4 0 0 1-4.23 3.84q-3.08 2.39-4.35 3.63-10.26 9.99-17.2 20.28-6.65 9.87-8.52 12.53a1.83 1.83 0 0 0-.33.91q-.35 3.26-2.67 5.5l-.33-9 .08-4.75q.49.33.61.94.09.44.35.1 3.85-4.87 7.23-10.06a41 41 0 0 1 3.24-4.35q1.19-1.37 2.36-2.76a35 35 0 0 1 2.49-2.61q6.11-5.74 12.18-11.51 2.66-2.53 4.89-3.52a45 45 0 0 0 2.57-1.25 9.3 9.3 0 0 1 2.73-.96.93.93 0 0 0 .426-.197.76.76 0 0 0 .244-.363q.49-1.7-.61-3.17"/><path fill="#FF4D34" d="M265.75 54.79q2.17-.39 3.3 1.03 1.18 1.49 1.25 1.56a664 664 0 0 0 12.38 11.34q1.34 1.19 2.26 3.22a20.7 20.7 0 0 0 3.95 5.84q2.02 2.1 3.09 3.92a58 58 0 0 0 3.22 4.89q.29.39.36.91.43 2.89 2.31 4.87 2.44 2.59 2.81 3.16 5.98 9.24 9.38 19.16.5 1.45 1.25 2.54 1.11 1.64 1.41 2.37 9.03 22.14 9.82 46.15l-.75 11.5-.25-9.25q-.18-21.54-7.79-43.25-.78-2.23-1.64-3.79-1.5-2.74-1.85-3.62a90 90 0 0 0-6.93-13.71l-1.93-3.8q-1.35-2.65-3.97-4.32a1.8 1.8 0 0 1-.65-.7q-1.14-2.37-1.92-4.87-.79-2.54-1.85-4.08-1.44-2.11-2.76-3.61-3.99-4.52-5.78-9.83a1.74 1.74 0 0 0-.53-.8 284 284 0 0 1-16.29-15.34 17 17 0 0 1-.56-.77q-.44-.61-1.34-.72"/><path fill="#FF942A" d="M40.5 85.21q.8 2.82.54 5.79v3.5l-.08 4.75q-1.34.97-2.52 3.19-4.81 9.01-7.97 16.93-2.37 5.98-2.97 8.17a29.7 29.7 0 0 0-1 8.71q.1 3.25-.75 4.5-2.92 4.28-2.32 9.51a1.6 1.6 0 0 1-.18.93q-1.03 2.03.2 3.9c.095.145.16.3.193.455a1 1 0 0 1-.003.445 6.9 6.9 0 0 1-1.43 2.76q-1.84.57-2.59 2.23a1.76 1.76 0 0 1-.62.7q-1.49.98-1.5 3.57a40 40 0 0 0 .37 5.57c.04.287.178.586.4.86q1.45 1.77-.14 3.25a1.3 1.3 0 0 0-.284.386 1.1 1.1 0 0 0-.106.434 41.6 41.6 0 0 0 1.14 10.51c.072.3.051.637-.06.97q-.77 2.29.36 4.4.23.42.26.93.09 1.63 1.27 4.27.31.72.34 1.51.12 4.32 1.57 7.98.81 2.04 1.03 4.05.24 2.11.8 4.17.39 1.4 2.18 4.17 2.17 3.36 2.35 7.54c.02.326.134.639.33.9a29.3 29.3 0 0 1 4.44 8.6q.39 1.2 2.45 1.71c.33.078.61.255.79.5a26 26 0 0 1 2.75 4.57q1.52 3.23 2.47 4.69 3.02 4.63 3.85 6.22a25.4 25.4 0 0 0 5.08 6.72.76.76 0 0 1 .175.317c.047.145.08.32.095.513l.09 1.05-3.79 3.46q-.64-.11-1.06-.66-16.86-22.54-25.02-49.2-2.86-9.36-4.48-19.46Q7.62 136.55 40.5 85.21"/><path fill="#FF622B" d="m168.25 229.04 19.13-16.94c.233-.207.398-.502.47-.84l4.43-20.54q.32-1.5 1.53-2.52 12.82-10.85 22.91-23 10.98-13.22 18.84-30.39 7.04-15.35 6.48-31.31 1.71-1.02 1.71 1-.01 10.99-3.5 22.5-3.79 12.51-12.28 25.48a168.4 168.4 0 0 1-34.02 38.01 1.5 1.5 0 0 0-.49.82l-4.66 21.14a1.7 1.7 0 0 1-.47.85 210 210 0 0 1-18.94 17.14 1 1 0 0 1-.44.205.66.66 0 0 1-.42-.055q-.81-.41-.28-1.55"/><path fill="#FFB878" d="M40.73 190.49a226 226 0 0 1-4.55 4.43q-.97.92-1.24-.25l-.99-4.36q-.16-.74-.27-.93-1.6-2.88.76-4.89 1.33-1.13 1.42-1.22a14579 14579 0 0 1 75.59-75.1q.37-.37.36.14l-.23 11.01c-.003.151-.04.301-.109.441a1.2 1.2 0 0 1-.291.369q-3.12 2.65-8.49 8.06-30.97 31.15-61.96 62.3"/><path fill="#FF7E4E" d="m312 214.96-10.51 24.56a2.6 2.6 0 0 1-.831 1.048 2.8 2.8 0 0 1-1.269.522q-1.28.18-2.07 1.52-.15.25-.4 1.36-.17.7-.65 1.29a24.2 24.2 0 0 0-3 4.64q-2.23 4.5-2.48 4.9a48.5 48.5 0 0 1-5.23 6.88 12 12 0 0 0-1.22 1.6q-2.77 4.33-5.64 7.42-.53.57-3.92 4.52-1.65 1.91-4.28 4.28-8.75 7.87-12.9 10.89c-.227.168-.551.264-.92.27q-1.51.05-1.22 1.62a.27.27 0 0 1-.035.186.25.25 0 0 1-.145.114q-3.21 1.02-3.79 1.85a9.5 9.5 0 0 1-2.86 2.68q-14.89 9.02-29.38 13.64-.73.23-1.21 1.25l-.08-1.75.04-1.25q3.54-1.05 6.92-2.48 1.06-.45 6.8-2.71a40 40 0 0 0 8.32-4.48q.83-.59 3.18-1.63a6.85 6.85 0 0 0 2.89-2.34q1.52-2.13 2.35-2.74a38.4 38.4 0 0 1 6.09-3.68.3.3 0 0 1 .214-.016c.076.022.149.07.206.136q.24.29.43-.2c.089-.25.24-.444.42-.54q.71-.39 1.44-.74a6.7 6.7 0 0 0 1.37-.84q13.41-10.87 22.31-22.3 9.21-11.84 12.12-16.13 1.34-1.96 2.61-6.02c.049-.157.13-.3.236-.414a.9.9 0 0 1 .374-.246l2.42-.81c.342-.117.615-.311.77-.55a15.6 15.6 0 0 0 1.78-3.77q1.01-3.18 1.32-3.9a204 204 0 0 0 6.74-18.09q.49-1.53 1.07-5.78.37-2.69 1.43-6.42 1.53-5.37 1.98-18.06.06-1.62-.15-1.32-.14.19-.14.67a41 41 0 0 1-.96 8.15q1.84-22.45-.04-38.25-.35-2.95-3.27-15.02-.02-.08-.85-3.97a36.2 36.2 0 0 0-2.59-7.78q-.29-.62-1.04-.52 3.94-4.87 5.5 1.79 2.44 10.4 3.99 17.64 1.98 9.31 2.45 17.87.71 12.85-.19 25.24-.94 12.91-4.5 26.21"/><path fill="#FF8D64" d="M304.75 126.21q.75-.1 1.04.52a36.2 36.2 0 0 1 2.59 7.78q.83 3.89.85 3.97 2.92 12.07 3.27 15.02 1.88 15.8.04 38.25a42 42 0 0 1-.6 3.86 106 106 0 0 0-.73 3.82 83.7 83.7 0 0 1-4.71 17.32q-1.23 3.13-5.09 14.28-.15.45-.53.79-1.92 1.71-2.23 3.54a9.9 9.9 0 0 1-1.83 4.3q-1.7 2.32-4.07 1.55.47-1.25.98-2.49.35-.83 1.38-2.24.95-1.3 1.7-3.17 4.91-12.25 7.92-22.49a120 120 0 0 0 4.77-28.83q.4-9.62-.39-19.98-1-13.26-4.61-27.01-.72-2.76-1.58-4.42-.06-.11-.95-1.08-.76-.83 1.03-1.71.6-.4 1-1z"/><path fill="#FF752F" d="M198.5 144.96q-.87.21-1.43-.32-.68-.63-.74-.67-10.28-6.67-18.77 2.09-.76.79-1.06 2.4-2.6 5.02-1.03 10.55.18.63-.18.99-3.7-8.71.92-14.75 3.89-5.1 10.29-5.73 6.82-.67 12 5.44"/><path fill="#FE9F73" d="M169.25 238.21q-.57 0-1.25-.5l97.45-97.29q.5-.5.59.08.07.51-.6 1.19-37.27 37.47-74.73 74.76-.24.23-9.91 10.09-5.59 5.7-10.24 9.77-1.12.98-1.31 1.9"/><path fill="#FFAD5F" d="M198.5 144.96q6.22 9.58-1.25 18.08-.76-.52-.27-.99.47-.45.56-.59 3.17-5.15 1.15-10.4-1.59-4.11-5.35-6.26-3.61-2.06-7.6-1.53-4.33.58-7.43 4.04-.85.95-1.81 1.15.3-1.61 1.06-2.4 8.49-8.76 18.77-2.09.06.04.74.67.56.53 1.43.32"/><path fill="#FFCBA9" d="M197.25 163.04q-1.42 1.72-3.06 2.4-11.91 4.9-18.9-5.44.36-.36.18-.99-1.57-5.53 1.03-10.55.96-.2 1.81-1.15 3.1-3.46 7.43-4.04 3.99-.53 7.6 1.53 3.76 2.15 5.35 6.26 2.02 5.25-1.15 10.4-.09.14-.56.59-.49.47.27.99"/><path fill="#FFBD7A" d="M81.14 176.04a3897 3897 0 0 1-36 36.19.5.5 0 0 1-.196.122.5.5 0 0 1-.224.026.42.42 0 0 1-.34-.238l-3.21-6.67a.65.65 0 0 1-.044-.42.8.8 0 0 1 .224-.4l50.45-50.32q.7-.71.7.29v9.2c0 .527-.2 1.032-.56 1.41a142 142 0 0 1-5.33 5.47q-4.62 4.48-5.47 5.34"/><path fill="#FF9F37" d="M22.21 158.75q-.57 5.52.39 10.95.08.48-.07.96-1.7 5.29.03 11.06.14.49.07.99-.72 4.65-.1 8.36.05.27.94 2.59.42 1.1.33 2.35-.03.52.14.95a48.5 48.5 0 0 1 2.29 7.11q.02.09.47 4.28.29 2.71 2 5.01c.188.252.283.566.27.89q-.13 2.97 1.59 5.69 1.09 1.72 1.39 4.07c.032.29.185.581.43.82q.99.99 1.43 2.86.66 2.79 3.93 8.38a.9.9 0 0 0 .306.296c.13.076.282.126.444.144q1.17.13 1.65 1.34.41 1.05.45 1.14 5.94 11.62 12.1 19.07 1 1.22.6 2.19l-1.79 1.79-.09-1.05a2.3 2.3 0 0 0-.095-.513.76.76 0 0 0-.175-.317 25.4 25.4 0 0 1-5.08-6.72q-.83-1.59-3.85-6.22-.95-1.46-2.47-4.69a26 26 0 0 0-2.75-4.57 1.36 1.36 0 0 0-.79-.5q-2.06-.51-2.45-1.71a29.3 29.3 0 0 0-4.44-8.6 1.67 1.67 0 0 1-.33-.9q-.18-4.18-2.35-7.54-1.79-2.77-2.18-4.17a28 28 0 0 1-.8-4.17q-.22-2.01-1.03-4.05-1.45-3.66-1.57-7.98a4.2 4.2 0 0 0-.34-1.51q-1.18-2.64-1.27-4.27-.03-.51-.26-.93-1.13-2.11-.36-4.4c.111-.333.132-.67.06-.97a41.6 41.6 0 0 1-1.14-10.51q.005-.22.107-.434.101-.213.283-.386 1.59-1.48.14-3.25a1.8 1.8 0 0 1-.4-.86 40 40 0 0 1-.37-5.57q.01-2.59 1.5-3.57c.28-.189.496-.432.62-.7q.75-1.66 2.59-2.23"/><path fill="#FF622B" d="m321.54 168 .25 9.25a73 73 0 0 1-.75 10.19q-.33 2.22-.46 5.79a32 32 0 0 1-.73 5.79 71 71 0 0 0-1.33 8.48q-1.23 12.91-7.27 24.19-1.07 1.98-2.48 5.76a24.7 24.7 0 0 1-4.05 7.03 34.5 34.5 0 0 0-4.18 6.49 23.5 23.5 0 0 1-2.9 4.49 35.3 35.3 0 0 0-3.45 4.98 123 123 0 0 1-7.01 10.82q-.06.09-1.1 1.23-1.07 1.17-.83 2.8a139 139 0 0 1-23 20.75q-.82.18-1.38-.34a.54.54 0 0 1-.162-.375.7.7 0 0 1 .132-.425 8.4 8.4 0 0 1 2.41-2.25q2.13-1.32 2.65-1.78a169 169 0 0 0 15.44-15.55q.75-.87.29-.93a.6.6 0 0 0-.363.081 1.3 1.3 0 0 0-.367.309 52 52 0 0 1-5.7 5.83q-.4.34-.06-.06 5.06-6.03 10.05-12.11 4.47-5.46 6.5-8.61.63-.97 1.92-2.42a10.6 10.6 0 0 0 1.74-2.63q1.08-2.3 2.05-3.56 2.3-2.99 5.14-8.31.13-.25.35-.4 2.33-1.6 3.39-4.16.92-2.2.96-2.29a116.4 116.4 0 0 0 6.37-15.97q.67-2.13 1.97-7.76a192 192 0 0 1 1.98-7.77q1.1-4.01.9-8.81.39-.97.48-2.01a276 276 0 0 0 1.01-32.43q-.01-.51.05-.01.93 7.42.82 14.89-.01.47.02 0 .24-5.81.22-11.63 0-.55.1 0 .22 1.33.17 2.69-.1 2.76.21.75"/><path fill="#FF6123" d="M322.54 165.75q1.47 18.97-1.35 35.44-.63 3.7-.87 5.87a12 12 0 0 1-.93 3.59q-.98 2.25-1.14 3.6-.24 1.94 1.21 1-10.27 33.95-34.21 60.04-.24-1.63.83-2.8 1.04-1.14 1.1-1.23a123 123 0 0 0 7.01-10.82 35.3 35.3 0 0 1 3.45-4.98 23.5 23.5 0 0 0 2.9-4.49 34.5 34.5 0 0 1 4.18-6.49 24.7 24.7 0 0 0 4.05-7.03q1.41-3.78 2.48-5.76 6.04-11.28 7.27-24.19.41-4.28 1.33-8.48.63-2.87.73-5.79.13-3.57.46-5.79.73-5.06.75-10.19z"/><path fill="#FF752F" d="M110.75 176.29q14.9 4.71 21.5 6.96 1.27.43.71 1.75-12.46-3.55-21.52-6.94-1.19-.44-.69-1.77"/><path fill="#FF925D" d="m218 309-.04-3v-1.75l.25-2.5a46.7 46.7 0 0 0 12.35-5.69q1.15-.74-.31-.56-1.64.21-2.63-.12-1.6-.54-.13-1.37a100 100 0 0 0 3.24-1.94 42 42 0 0 1 3.26-1.85 116.5 116.5 0 0 0 19.87-12.91.74.74 0 0 1 .374-.143 1.2 1.2 0 0 1 .466.043q.51.15.93-.12.71-.46.83-.51a6.9 6.9 0 0 0 2.76-1.97q1.22-1.44 1.28-1.5a681 681 0 0 1 5.76-5.77q.58-.57 2.5-3.1 1.02-1.36 2.74-2.99 1.26-1.2 6.13-7.52 1.07-1.4 2.55-4.41A20.7 20.7 0 0 1 283 245q.58-.69 1-3.71l8.75-.08q2.37.77 4.07-1.55a9.9 9.9 0 0 0 1.83-4.3q.31-1.83 2.23-3.54.38-.34.53-.79 3.86-11.15 5.09-14.28a83.7 83.7 0 0 0 4.71-17.32q.23-1.39.73-3.82.39-1.91.6-3.86a41 41 0 0 0 .96-8.15q0-.48.14-.67.21-.3.15 1.32-.45 12.69-1.98 18.06-1.06 3.73-1.43 6.42-.58 4.25-1.07 5.78a204 204 0 0 1-6.74 18.09q-.31.72-1.32 3.9a15.6 15.6 0 0 1-1.78 3.77c-.155.239-.428.433-.77.55l-2.42.81a.9.9 0 0 0-.374.246 1.1 1.1 0 0 0-.236.414q-1.27 4.06-2.61 6.02-2.91 4.29-12.12 16.13-8.9 11.43-22.31 22.3a6.7 6.7 0 0 1-1.37.84q-.73.35-1.44.74c-.18.096-.331.29-.42.54q-.19.49-.43.2a.44.44 0 0 0-.206-.136.3.3 0 0 0-.214.016 38.4 38.4 0 0 0-6.09 3.68q-.83.61-2.35 2.74a6.85 6.85 0 0 1-2.89 2.34q-2.35 1.04-3.18 1.63a40 40 0 0 1-8.32 4.48q-5.74 2.26-6.8 2.71A66 66 0 0 1 218 309"/><path fill="#FF7135" d="M318.46 195.75q.2 4.8-.9 8.81a192 192 0 0 0-1.98 7.77q-1.3 5.63-1.97 7.76a116.4 116.4 0 0 1-6.37 15.97q-.04.09-.96 2.29-1.06 2.56-3.39 4.16-.22.15-.35.4-2.84 5.32-5.14 8.31-.97 1.26-2.05 3.56a10.6 10.6 0 0 1-1.74 2.63q-1.29 1.45-1.92 2.42-2.03 3.15-6.5 8.61-4.99 6.08-10.05 12.11-.34.4.06.06a52 52 0 0 0 5.7-5.83c.112-.133.239-.24.367-.309a.6.6 0 0 1 .363-.081q.46.06-.29.93a169 169 0 0 1-15.44 15.55q-.52.46-2.65 1.78a8.4 8.4 0 0 0-2.41 2.25.7.7 0 0 0-.132.425.54.54 0 0 0 .162.375q.56.52 1.38.34Q242 310.9 218.04 318.5l-.08-4 .08-2.5q.48-1.02 1.21-1.25 14.49-4.62 29.38-13.64a9.5 9.5 0 0 0 2.86-2.68q.58-.83 3.79-1.85a.25.25 0 0 0 .145-.114.27.27 0 0 0 .035-.186q-.29-1.57 1.22-1.62c.369-.006.693-.102.92-.27q4.15-3.02 12.9-10.89 2.63-2.37 4.28-4.28 3.39-3.95 3.92-4.52 2.87-3.09 5.64-7.42a12 12 0 0 1 1.22-1.6 48.5 48.5 0 0 0 5.23-6.88q.25-.4 2.48-4.9a24.2 24.2 0 0 1 3-4.64q.48-.59.65-1.29.25-1.11.4-1.36.79-1.34 2.07-1.52a2.8 2.8 0 0 0 1.269-.522c.368-.275.654-.636.831-1.048L312 214.96q1.52-2.09 1.94-3.27.98-2.78 2.52-9.19-.09 3.22.47.29.68-3.54 1.53-7.04"/><path fill="#FF752F" d="M160.04 207.25q.06.38-.3.43-6.99 1.06-13.7-.92a.94.94 0 0 0-.91.24l-7.76 7.75a1.24 1.24 0 0 1-1.69.06 61 61 0 0 1-5.11-5.07q-.06-.06-.89-.73-.78-.64-.39-1.76l6 5.93a.84.84 0 0 0 1.18 0l8.16-8.08a.84.84 0 0 1 .387-.218.9.9 0 0 1 .453.008q6.13 1.82 13.53 1.11 1.06-.1 1.04 1.25"/><path fill="#FFA970" d="m219.5 241.21 64.5.08q-.42 3.02-1 3.71a20.7 20.7 0 0 0-2.82 4.32q-1.48 3.01-2.55 4.41-4.87 6.32-6.13 7.52-1.72 1.63-2.74 2.99-1.92 2.53-2.5 3.1a681 681 0 0 0-5.76 5.77q-.06.06-1.28 1.5a6.9 6.9 0 0 1-2.76 1.97q-.12.05-.83.51-.42.27-.93.12a1.2 1.2 0 0 0-.466-.043.74.74 0 0 0-.374.143 116.5 116.5 0 0 1-19.87 12.91 42 42 0 0 0-3.26 1.85 100 100 0 0 1-3.24 1.94q-1.47.83.13 1.37.99.33 2.63.12 1.46-.18.31.56a46.7 46.7 0 0 1-12.35 5.69l-.21-4.04-.02-1.89a.5.5 0 0 0-.162-.361.55.55 0 0 0-.378-.149l-19.59-.06a.86.86 0 0 1-.601-.246.84.84 0 0 1-.249-.594v-52.22a.88.88 0 0 1 .88-.88z"/><path fill="#FF993E" d="m70.25 272.21.57.17c.154.043.293.115.404.209a.8.8 0 0 1 .236.331q.47 1.32 1.61 2.08a.73.73 0 0 1 .255.303c.063.131.099.284.105.447l.07 1.29-8.25 7.75q-2.73-1.49-4.04-4.29z"/><path fill="#FFAD5F" d="M217.96 304.25V306q-7.71 3.22-9.21 3.5-4.85.9-9.61 2.2a38 38 0 0 1-7.43 1.23q-4.76.3-9.47 1.03-5.16.8-9.05.67a363 363 0 0 1-24.5-1.67q-3.23-.32-7.4-1.41-3.66-.95-7.38-1.66-1.65-.31-4.12-1.38a18.3 18.3 0 0 0-4.23-1.24.63.63 0 0 1-.357-.197.7.7 0 0 1-.173-.383q-.21-1.81-1.71-2.28-1.96-.62-2.05-.66a64 64 0 0 0-7.58-3.17q-4.77-1.64-6.32-2.53-3.11-1.8-5.37-4.3-1.09-1.21-2.28-1.92-.25-.14-2.24-1.44-1.09-.71-2.73-1.14-2.24-.59-4.31-2.28-2.43-1.98-3.83-2.88a30.5 30.5 0 0 1-5.61-4.63l1.25-1.25q1.41-.81 1.82.36.21.6.46.87a16.1 16.1 0 0 0 3.67 2.86 60 60 0 0 1 8.07 5.5.18.18 0 0 1 .075.137.2.2 0 0 1-.055.153q-.57.61.24.26a.43.43 0 0 1 .42.04q1.85 1.29 3.81 2.4.24.13 2.5 1.99 1.41 1.17 3.68 1.28 1.05.05 1.94.86 1.11 1.02 1.59 1.28 5.84 3.21 13.28 5.55 1.27.4 2.42 1.63a.9.9 0 0 1 .204.363c.047.148.069.318.066.497q-.02 1.1 1.25 1.57 1.08.41 2.72 1.42 1.4.87 2.76 1.23a145.4 145.4 0 0 0 39.14 4.85q4.03-.04 20-2.25 7.08-.97 25.65-6.81"/><path fill="#FFA855" d="M81 279.46a30.5 30.5 0 0 0 5.61 4.63q1.4.9 3.83 2.88 2.07 1.69 4.31 2.28 1.64.43 2.73 1.14 1.99 1.3 2.24 1.44 1.19.71 2.28 1.92 2.26 2.5 5.37 4.3 1.55.89 6.32 2.53 3.89 1.34 7.58 3.17.09.04 2.05.66 1.5.47 1.71 2.28a.7.7 0 0 0 .173.382.63.63 0 0 0 .357.198 18.3 18.3 0 0 1 4.23 1.24q2.47 1.07 4.12 1.38 3.72.71 7.38 1.66 4.17 1.09 7.4 1.41 12.22 1.25 24.5 1.67 3.89.13 9.05-.67 4.71-.73 9.47-1.03a38 38 0 0 0 7.43-1.23q4.76-1.3 9.61-2.2 1.5-.28 9.21-3.5l.04 3a239 239 0 0 0-9.87 2.89q-5.39 1.71-9.94 2.54-13.1 2.36-15.94 2.57-10.12.73-31.5-.75-4.96-.34-7.69-.87-.8-.16-2.56-1.07a8.2 8.2 0 0 0-2.74-.85 26 26 0 0 1-8.29-2.51q-.91-.46-3.64-1.29-2.13-.64-3.59-2.45a2 2 0 0 0-.76-.6 279 279 0 0 0-13.17-5.42q-5.23-2-12.11-6.52-6.56-4.31-9.11-6.08a83 83 0 0 1-8.59-6.88z"/><path fill="#FFA14B" d="M78.5 281.71a83 83 0 0 0 8.59 6.88q2.55 1.77 9.11 6.08 6.88 4.52 12.11 6.52 6.65 2.54 13.17 5.42.43.19.76.6 1.46 1.81 3.59 2.45 2.73.83 3.64 1.29a26 26 0 0 0 8.29 2.51 8.2 8.2 0 0 1 2.74.85q1.76.91 2.56 1.07 2.73.53 7.69.87 21.38 1.48 31.5.75 2.84-.21 15.94-2.57 4.55-.83 9.94-2.54A239 239 0 0 1 218 309l-.04 1.25q-16.82 7.26-35.21 7.14a67 67 0 0 0-7.25.33q-5.33.53-10.65.23l-9.72-.55q-10.18-.42-20.14-2.61a19.2 19.2 0 0 1-7.15-3.18 1.6 1.6 0 0 0-.91-.29q-2.41-.04-4.24-1.37-2.96-2.13-3.02-2.16-3.15-1.65-6.53-2.73a15 15 0 0 1-3.2-1.44q-1.78-1.06-3.19-1.62-6.64-2.63-11.89-6.28-.45-.31-1.64-1.54a6 6 0 0 0-1.9-1.3q-2.78-1.2-2.86-1.25a63.2 63.2 0 0 1-10.16-7.73 1.47 1.47 0 0 0-.86-.4l-.69-.04z"/><path fill="#FF993E" d="m76.75 283.46.69.04c.305.026.608.167.86.4a63.2 63.2 0 0 0 10.16 7.73q.08.05 2.86 1.25 1.07.46 1.9 1.3 1.19 1.23 1.64 1.54 5.25 3.65 11.89 6.28 1.41.56 3.19 1.62a15 15 0 0 0 3.2 1.44q3.38 1.08 6.53 2.73.06.03 3.02 2.16 1.83 1.33 4.24 1.37c.338.006.656.108.91.29a19.2 19.2 0 0 0 7.15 3.18q9.96 2.19 20.14 2.61l9.72.55q5.32.3 10.65-.23a67 67 0 0 1 7.25-.33q18.39.12 35.21-7.14l.08 1.75-.08 2.5q-7.13 2.43-13.46 3-11.77 1.06-18.27 1.82a145.5 145.5 0 0 1-30.23.39 446 446 0 0 1-20.43-2.31q-.03-.01-2.15-.17-2.46-.18-4.42-1.73-.96-.76-4.36-1.48-.11-.02-2.79-.15-2.08-.1-2.72-2.14a1.2 1.2 0 0 0-.231-.409 1 1 0 0 0-.359-.261 299 299 0 0 1-4.74-1.98q-1.36-.58-4.58-2.32a37 37 0 0 0-5.03-2.24q-3.29-1.18-5.03-2.15-12.82-7.12-22.6-15.18-1.51-1.25-2.31-1.48z"/><path fill="#FF8C28" d="M74.25 285.71q.8.23 2.31 1.48 9.78 8.06 22.6 15.18 1.74.97 5.03 2.15a37 37 0 0 1 5.03 2.24q3.22 1.74 4.58 2.32a299 299 0 0 0 4.74 1.98 1 1 0 0 1 .359.261c.102.115.18.255.231.409q.64 2.04 2.72 2.14 2.68.13 2.79.15 3.4.72 4.36 1.48 1.96 1.55 4.42 1.73 2.12.16 2.15.17a446 446 0 0 0 20.43 2.31q15.14 1.38 30.23-.39 6.5-.76 18.27-1.82 6.33-.57 13.46-3l.08 4q-16.11 5.19-29.29 6.5-66.53 6.61-117.85-34.89-.51-.41-.4-1.07z"/><g filter="url(#c)"><circle cx="170.5" cy="170.5" r="155.5" fill="url(#d)"/></g><path fill="#fff" d="M242.04 103.5q.56 15.96-6.48 31.31-7.86 17.17-18.84 30.39-10.09 12.15-22.91 23-1.21 1.02-1.53 2.52l-4.43 20.54a1.55 1.55 0 0 1-.47.84l-19.13 16.94q-1.45-.71-2-3.04-.42-1.77-2.96-8.75l-3.25-10q.02-1.35-1.04-1.25-7.4.71-13.53-1.11a.9.9 0 0 0-.453-.008.84.84 0 0 0-.387.218l-8.16 8.08a.84.84 0 0 1-1.18 0l-6-5.93q-.94-.58-1.05-1.4-.08-.61.61-1.39a680 680 0 0 0 6.7-7.61.86.86 0 0 0 .206-.471.9.9 0 0 0-.096-.509q-2.8-5.45-2.7-10.87.56-1.32-.71-1.75-6.6-2.25-21.5-6.96-1.48-.83-.44-1.98 7.65-8.45 15.11-17.06 1.15-1.33 2.62-1.83a26 26 0 0 1 3.21-.88l18.2-4.41c.318-.078.609-.26.83-.52q22.2-27.33 54.22-41.9a90 90 0 0 1 21.49-6.26q6.48-1.04 14.32-.26 2.14.21 1.73 2.31M175.29 160q6.99 10.34 18.9 5.44 1.64-.68 3.06-2.4 7.47-8.5 1.25-18.08-5.18-6.11-12-5.44-6.4.63-10.29 5.73-4.62 6.04-.92 14.75M70.25 272.21l-9.04 8.29a14.9 14.9 0 0 1-5-4.75q31.89-29.66 63.71-59.39 1.85-1.73 3.27-1.3 1.71.5 2.97 3.01c.168.329.223.704.158 1.068a1.7 1.7 0 0 1-.518.952zM52 270.79a21 21 0 0 1-4.29-5.29l3.79-3.46 1.79-1.79 5.71-5.46 39.99-37.16q1.5-1.39 2.64-.08l2.54 2.94c.193.221.28.521.24.837-.039.315-.2.621-.45.853zm30.25 7.42L81 279.46l-2.5 2.25-1.75 1.75-2.5 2.25-3.75 3.33a20.7 20.7 0 0 1-5.25-4.25l8.25-7.75 44.94-41.87a1.5 1.5 0 0 1 1.8-.18q2.5 1.52 3.1 3.96a.8.8 0 0 1-.014.441.9.9 0 0 1-.246.389z"/><path fill="#FFB87B" d="M77.06 127.06a3776 3776 0 0 1-39.63 39.88q-1.52 1.51-1.6-.69l-.29-7.25c-.013-.357.064-.683.22-.93q1.81-2.92 5.3-6.26 4.71-4.49 19.75-19.75a1261 1261 0 0 1 26.42-25.99q.66-.63 3-3.17 1.11-1.19 3.02-3.15a1097 1097 0 0 1 17.4-17.41.3.3 0 0 1 .294-.073.36.36 0 0 1 .236.213 21 21 0 0 1 1.18 6.32q.18 5.7.19 5.88a38.8 38.8 0 0 1-.76 10.52 1.7 1.7 0 0 1-.45.84l-73.9 74.4q-1.78 1.79-1.88-.74-.09-2.73-.79-5.34-.71-2.68 1.15-4.28.9-.78.98-.86 36.39-36.36 72.75-72.75.36-.35.48-.65.34-.79-.69-.6a1.33 1.33 0 0 0-.66.37q-23.68 23.26-31.72 31.47" opacity=".4"/><path fill="#FFB66F" d="M131.25 154.54q-1.64.34-3.21.88-1.47.5-2.62 1.83a1043 1043 0 0 1-15.11 17.06q-1.04 1.15.44 1.98-.5 1.33.69 1.77 9.06 3.39 21.52 6.94-.1 5.42 2.7 10.87a.9.9 0 0 1 .096.509.86.86 0 0 1-.206.471 680 680 0 0 1-6.7 7.61q-.69.78-.61 1.39.11.82 1.05 1.4-.39 1.12.39 1.76.83.67.89.73a61 61 0 0 0 5.11 5.07 1.24 1.24 0 0 0 1.69-.06l7.76-7.75a.94.94 0 0 1 .91-.24q6.71 1.98 13.7.92.36-.05.3-.43l3.25 10q.46 2-.58 3.75-8.53 8.2-31.15 31.31a783 783 0 0 0-2.72 2.79 2044 2044 0 0 1-30.37 30.8.413.413 0 0 0 .1.66 397 397 0 0 1 10.11 5.51q.82.46.78 1.04a.825.825 0 0 0 .497.818.8.8 0 0 0 .333.072q2.05.01 3.16 1.34.39.46.75.61l13.12 5.32c.285.115.516.332.645.604.128.272.144.579.045.856q-.38 1.04.42 1.7.3.25.6.67.3.39.55 0a.42.42 0 0 0 .053-.307.6.6 0 0 0-.173-.313q-1.65-1.65.22-3.35c.125-.113.225-.244.293-.384s.1-.285.097-.426a6 6 0 0 0-.97-3.22c-.135-.213-.404-.415-.76-.57l-6.92-2.98a.8.8 0 0 1-.311-.246.8.8 0 0 1-.157-.369.9.9 0 0 1 .248-.765l23.73-23.96q1.5-1.51 2.3.48.16.39 1.08 1.14.68.55.97 1.19 1.4 3.03.97 5.48-.41 2.34 1.25 2.79l-19.78 19.86q-1.29 1.3.52 1.6 8.07 1.32 16.13 2.57.24.04 2.25-.07 1.26-.07 2.23.93c.253.253.545.415.83.46q11.73 1.94 19.07 1.11 8.87-1 17.74-2.12 13.53-1.7 26.06-6.64a.44.44 0 0 1 .31-.004.45.45 0 0 1 .24.204q.41.73.9.52l.21 4.04-.25 2.5q-18.57 5.84-25.65 6.81-15.97 2.21-20 2.25a145.4 145.4 0 0 1-39.14-4.85q-1.36-.36-2.76-1.23-1.64-1.01-2.72-1.42-1.27-.47-1.25-1.57a1.6 1.6 0 0 0-.066-.497.9.9 0 0 0-.204-.363q-1.15-1.23-2.42-1.63-7.44-2.34-13.28-5.55-.48-.26-1.59-1.28-.89-.81-1.94-.86-2.27-.11-3.68-1.28-2.26-1.86-2.5-1.99a48 48 0 0 1-3.81-2.4.43.43 0 0 0-.42-.04q-.81.35-.24-.26a.2.2 0 0 0 .055-.153.2.2 0 0 0-.075-.137 60 60 0 0 0-8.07-5.5 16.1 16.1 0 0 1-3.67-2.86q-.25-.27-.46-.87-.41-1.17-1.82-.36l40.83-38.43a.9.9 0 0 0 .246-.389.8.8 0 0 0 .014-.441q-.6-2.44-3.1-3.96a1.5 1.5 0 0 0-1.8.18L73.5 277.04l-.07-1.29a1.1 1.1 0 0 0-.105-.447.73.73 0 0 0-.255-.303 4.07 4.07 0 0 1-1.61-2.08.8.8 0 0 0-.236-.331 1.1 1.1 0 0 0-.404-.209l-.57-.17 55.55-52.12c.271-.253.453-.587.518-.952.065-.364.01-.739-.158-1.068q-1.26-2.51-2.97-3.01-1.42-.43-3.27 1.3a38185 38185 0 0 1-63.71 59.39 11.74 11.74 0 0 1-4.21-4.96l51.96-48.61c.25-.232.411-.538.45-.853a1.06 1.06 0 0 0-.24-.837l-2.54-2.94q-1.14-1.31-2.64.08L59 254.79a144 144 0 0 1-10.76-17.09.76.76 0 0 0-.307-.312.8.8 0 0 0-.433-.098q-2.85.14-3.69-1.85-1.44-3.43-2.89-6.86-.19-.46-1.62-3a10.6 10.6 0 0 1-1.18-3.26q-.25-1.34-1.39-1.71a1.2 1.2 0 0 1-.4-.218 1.05 1.05 0 0 1-.27-.342L34 216q-.77-1.52 0-4 .35-1.14-.5-1.8a.9.9 0 0 1-.284-.345.7.7 0 0 1-.066-.405q.21-1.83-1.09-3.26-2.62-2.91-1.25-4.38l4.94-5.27q37.06-36.82 73.99-73.78.66-.66 1.21-.68.77-.03 1.02.87a.4.4 0 0 0 .076.148.39.39 0 0 0 .454.122q1.18-.48 3.5-.47 15.88.06 32.26 0 1.24-.01.36.88l-27.9 28.27q-.99 1 .4 1.05l8.9.31c.315.013.607.134.82.34l.17.17q.17.17-.05.21-1.61.32.29.56M86.61 170.7a142 142 0 0 0 5.33-5.47c.36-.378.56-.883.56-1.41v-9.2q0-1-.7-.29l-50.45 50.32a.8.8 0 0 0-.224.4.65.65 0 0 0 .044.42l3.21 6.67a.42.42 0 0 0 .34.238.52.52 0 0 0 .42-.148 3897 3897 0 0 0 36-36.19q.85-.86 5.47-5.34" opacity=".4"/><path fill="#FF9571" d="M187.04 30q2.73.37 5.47.69 2.55.3 5.36 1.13 2.54.75 5.12 1.33 2.7.61 5.04 1.46a144 144 0 0 0 11.47 3.64q2.45.67 13.71 6l.08 3.75-.03 6.53a.6.6 0 0 0 .059.273.7.7 0 0 0 .177.232.8.8 0 0 0 .268.153c.1.036.208.053.316.052l6.98-.11a1.1 1.1 0 0 1 .435.093c.155.066.313.163.465.287q7.53 6.05 9.1 6.93 3.5 1.95 6.1 5.76c.088.127.21.228.352.291a.9.9 0 0 0 .458.069q2.79-.33 5.21.13 1.9.36 3.51 2.15 8.7 9.65 17.58 21.12c.113.147.213.372.292.66s.137.632.168 1.01l.37 4.4c.019.209.023.4.013.559a1 1 0 0 1-.073.351l-.23.43q-.24.47-.23.95l.38 10.68.02 15.13q0 2.01 1.46.55l6.28-6.28a.78.78 0 0 1 .642-.222.76.76 0 0 1 .568.372 50 50 0 0 1 4.47 9.66.9.9 0 0 0 .24.354c.111.102.247.183.4.236q.77.26.15.89a8462 8462 0 0 1-50.64 50.37 1 1 0 0 1-.465.261 1.1 1.1 0 0 1-.55-.004 1.3 1.3 0 0 1-.513-.266 1.4 1.4 0 0 1-.362-.471l-1.22-2.58c-.109-.232-.358-.47-.7-.67q-1.64-.98-.43-2.52 2.57-3.26 6-6.66 5.61-5.57 6.33-6.33 3.6-3.78 7.21-7.53.45-.47-.16-.41-.46.04-.86.45a621 621 0 0 1-17.02 17.02 237 237 0 0 0-1.6 1.8 7.1 7.1 0 0 1-2.19 1.7 2.2 2.2 0 0 0-.75.62q-1.89 2.46-4.1.45a.55.55 0 0 0-.369-.146.5.5 0 0 0-.351.146l-60.66 60.66a2.9 2.9 0 0 1-1.102.678c-.428.148-.898.21-1.378.182l-4.06-.23q.19-.92 1.31-1.9 4.65-4.07 10.24-9.77 9.67-9.86 9.91-10.09 37.46-37.29 74.73-74.76.67-.68.6-1.19-.09-.58-.59-.08L168 237.71q-1.53 1.24-2.92-.03-1.39-1.28-1.58-3.18-.25-2.55.31-3.19 1.52-1.73-.07-2.01a.6.6 0 0 1-.339-.188.6.6 0 0 1-.151-.362l-.54-7.75q1.04-1.75.58-3.75 2.54 6.98 2.96 8.75.55 2.33 2 3.04-.53 1.14.28 1.55a.66.66 0 0 0 .42.055 1 1 0 0 0 .44-.205 210 210 0 0 0 18.94-17.14 1.7 1.7 0 0 0 .47-.85l4.66-21.14a1.5 1.5 0 0 1 .49-.82 168.4 168.4 0 0 0 34.02-38.01q8.49-12.97 12.28-25.48 3.49-11.51 3.5-22.5 0-2.02-1.71-1 .41-2.1-1.73-2.31-7.84-.78-14.32.26a90 90 0 0 0-21.49 6.26q-.23-.38-.71-.37a.34.34 0 0 1-.272-.114.3.3 0 0 1-.061-.128.25.25 0 0 1 .013-.138q.92-2.56 3.53-2.71 2.02-.11 2.39-1.48.25-.93-.67-2.18-2.09-2.85-4.13-5.74-1.86-2.64-4.43-5.52-4.02-4.5-6.47-8.27-1.38-2.11-2.6-3.54-1.89-2.22-2.67-3.45a69.3 69.3 0 0 0-6.93-9.12q-1.21-1.35-1.56-2.22-1.02-2.55 2.26-2.56a.5.5 0 0 0 .19-.04.4.4 0 0 0 .151-.112.36.36 0 0 0 .076-.159.3.3 0 0 0-.017-.169l-1.57-3.83q-.85-2.05-2.66-.33-1.43 1.35-3.42-.07-.9-.64.2-.65l8.4-.05q1.9-.01 2.56-1.75 1.09-2.9 1.01-6.28-.07-3.37-.07-3.47.12-6.63 0-13.26"/><path fill="#FFA879" d="M284.96 111q.26 1.12 1.32.9a1 1 0 0 1 .454.005.73.73 0 0 1 .356.205 26 26 0 0 1 4.67 7.15c.069.157.173.296.304.406.131.109.284.186.448.224a1 1 0 0 0 .489-.01.96.96 0 0 0 .419-.24l2.72-2.65a.93.93 0 0 1 .769-.258.87.87 0 0 1 .651.448 57 57 0 0 1 4.11 10.03c.045.147.13.277.244.374a.7.7 0 0 0 .396.166l.69.04q-1.79.88-1.03 1.71.89.97.95 1.08.86 1.66 1.58 4.42 3.61 13.75 4.61 27.01.79 10.36.39 19.98a120 120 0 0 1-4.77 28.83q-3.01 10.24-7.92 22.49-.75 1.87-1.7 3.17-1.03 1.41-1.38 2.24-.51 1.24-.98 2.49l-8.75.08-64.5-.08q-.52-4.27-4.25-4.21-7.4.13-14.78-.15-.81-.03-1.72.33-.85.33-1.75.49c-.285.052-.61-.008-.92-.17q-1.78-.94-3.27.56-.94.95-1.88 1.88-19.72 19.67-39.43 39.35-1.66-.45-1.25-2.79.43-2.45-.97-5.48-.29-.64-.97-1.19-.92-.75-1.08-1.14-.8-1.99-2.3-.48l-23.73 23.96a.9.9 0 0 0-.248.764.8.8 0 0 0 .157.37.8.8 0 0 0 .311.246l6.92 2.98c.356.155.625.357.76.57q.95 1.48.97 3.22a.94.94 0 0 1-.097.426c-.068.14-.168.271-.293.384q-1.87 1.7-.22 3.35c.09.09.151.2.173.313a.42.42 0 0 1-.053.307q-.25.39-.55 0-.3-.42-.6-.67-.8-.66-.42-1.7a1.12 1.12 0 0 0-.045-.856 1.22 1.22 0 0 0-.645-.604l-13.12-5.32q-.36-.15-.75-.61-1.11-1.33-3.16-1.34a.85.85 0 0 1-.785-.556.8.8 0 0 1-.045-.334q.04-.58-.78-1.04a397 397 0 0 0-10.11-5.51.414.414 0 0 1-.1-.66 2044 2044 0 0 0 30.37-30.8 783 783 0 0 1 2.72-2.79q22.62-23.11 31.15-31.31l.54 7.75a.6.6 0 0 0 .151.362.6.6 0 0 0 .339.188q1.59.28.07 2.01-.56.64-.31 3.19.19 1.9 1.58 3.18 1.39 1.27 2.92.03.68.5 1.25.5l4.06.23c.48.028.95-.034 1.378-.182a2.9 2.9 0 0 0 1.102-.678l60.66-60.66a.5.5 0 0 1 .351-.146c.135 0 .267.052.369.146q2.21 2.01 4.1-.45a2.2 2.2 0 0 1 .75-.62 7.1 7.1 0 0 0 2.19-1.7 237 237 0 0 1 1.6-1.8 621 621 0 0 0 17.02-17.02q.4-.41.86-.45.61-.06.16.41-3.61 3.75-7.21 7.53-.72.76-6.33 6.33-3.43 3.4-6 6.66-1.21 1.54.43 2.52c.342.2.591.438.7.67l1.22 2.58c.086.181.21.342.362.471s.328.219.513.266.373.048.55.004c.177-.045.336-.134.465-.261q25.68-25.33 50.64-50.37.62-.63-.15-.89a1.1 1.1 0 0 1-.4-.236.9.9 0 0 1-.24-.354 50 50 0 0 0-4.47-9.66.76.76 0 0 0-.568-.372.77.77 0 0 0-.642.222l-6.28 6.28q-1.46 1.46-1.46-.55z" opacity=".4"/><path fill="#FFBB7C" d="m219.5 241.21-21.62.1a.88.88 0 0 0-.88.88v52.22c0 .223.09.436.249.594a.86.86 0 0 0 .601.246l19.59.06c.142 0 .277.053.378.149a.5.5 0 0 1 .162.361l.02 1.89q-.49.21-.9-.52a.45.45 0 0 0-.24-.204.44.44 0 0 0-.31.004q-12.53 4.94-26.06 6.64-8.87 1.12-17.74 2.12-7.34.83-19.07-1.11c-.285-.045-.577-.207-.83-.46q-.97-1-2.23-.93-2.01.11-2.25.07-8.06-1.25-16.13-2.57-1.81-.3-.52-1.6l19.78-19.86q19.71-19.68 39.43-39.35.94-.93 1.88-1.88 1.49-1.5 3.27-.56c.31.162.635.222.92.17q.9-.16 1.75-.49.91-.36 1.72-.33 7.38.28 14.78.15 3.73-.06 4.25 4.21" opacity=".4"/></g><defs><linearGradient id="d" x1="278.5" x2="38.5" y1="52" y2="285.5" gradientUnits="userSpaceOnUse"><stop stop-color="#FF9270"/><stop offset="1" stop-color="#FFA970"/></linearGradient><clipPath id="a"><path fill="#fff" d="M0 0h341v341H0z"/></clipPath><filter id="c" width="311" height="311" x="15" y="15" color-interpolation-filters="sRGB" filterUnits="userSpaceOnUse"><feFlood flood-opacity="0" result="BackgroundImageFix"/><feBlend in="SourceGraphic" in2="BackgroundImageFix" result="shape"/><feColorMatrix in="SourceAlpha" result="hardAlpha" values="0 0 0 0 0 0 0 0 0 0 0 0 0 0 0 0 0 0 127 0"/><feOffset/><feGaussianBlur stdDeviation="10"/><feComposite in2="hardAlpha" k2="-1" k3="1" operator="arithmetic"/><feColorMatrix values="0 0 0 0 1 0 0 0 0 0 0 0 0 0 0 0 0 0 0.79 0"/><feBlend in2="shape" result="effect1_innerShadow_75_8"/></filter></defs></svg>
