<svg xmlns="http://www.w3.org/2000/svg" viewBox="0 0 400 400"><rect width="400" height="400" fill="#fff" rx="200"/><path d="M251.469 272.595q-14.826 0-26.732-4.43-11.682-4.43-18.421-12.235-6.739-8.016-6.739-18.351 0-1.478.449-5.274h37.066q-.45 6.539 4.043 10.547 4.718 3.797 13.254 3.797 7.188 0 11.906-2.531 4.717-2.532 4.717-7.172 0-4.43-5.166-6.961-4.942-2.742-16.624-6.539-12.13-3.798-20.442-7.383-8.087-3.798-13.927-10.758-5.841-6.962-5.841-17.508 0-10.336 6.515-18.563 6.514-8.437 18.195-13.078 11.907-4.641 27.406-4.641 15.5 0 26.957 4.852 11.457 4.64 17.746 13.078 6.29 8.437 6.29 18.985l-.224 3.164h-34.819q.448-6.328-4.044-10.125-4.492-3.798-12.804-3.797-6.515 0-10.783 2.531-4.044 2.531-4.044 6.961 0 4.64 5.392 7.805 5.616 2.953 17.297 6.75 12.13 3.796 19.993 7.594 8.087 3.585 13.703 10.336 5.84 6.539 5.84 16.453 0 11.391-7.413 19.617-7.188 8.228-19.992 12.657-12.58 4.218-28.754 4.219M200.266 78.788l-75.34 242.424H87.879l75.115-242.424z"/></svg>
