<svg xmlns="http://www.w3.org/2000/svg" viewBox="0 0 44 40"><path fill="#190232" d="m27.132.42 5.48 2.157 4.628 10.934-3.191 17.275-14.033 9.208-7.121-2.838L0 24.763 3.047 7.227 14.271 0zM16.87 12.626l-2.492 5.54 4.118 2.839 4.441-1.652-.178-5.382z"/><path fill="#3C17B8" d="m32.877 2.924 10.38 13.437-3.391 18.331-19.85 5.302L4.557 25.876 7.166 9.765l11.601-7.466.555-.153 13.322.431.267.347zM41.204 16.9 31.64 4.5l-12.123-.39-10.602 6.812-2.293 14.192 13.916 12.722 17.663-4.717 2.997-16.22zm-18.806-.029-1.827 4.036 3.053 2.112 3.33-1.232-.11-3.905-4.441-1.01zm-3.886 3.974 2.825-6.245 7.366 1.703.195 6.813-5.551 2.066-5.185-3.582.344-.75z"/><path fill="#AA5EFF" d="M32.123 3.542 42.23 16.634l-3.192 17.269-18.756 5.013L5.59 25.496l2.453-15.147 11.224-7.221zM21.865 15.748l-2.498 5.518 4.118 2.838 4.441-1.652-.172-5.359z"/><path fill="#EF9BC8" d="m19.345 21.266 4.174 3.866 4.48-2.714-.09-.011v.051l-4.423 1.652-4.108-2.838zM15.642 5.461l5.373-1.215 10.12 1.068 10.074 11.632-.294 6.818 1.316-7.13L32.123 3.542l-12.856-.42z"/><path fill="#190232" d="M11.102 12.024a3.13 3.13 0 0 0 1.415.954c1.11.397 2.287-.029 2.426-.494.083-.29.655-1.493-.66-1.953-.878-.307-3.209.199-3.331.664-.122.466 0 .568.166.829z"/><path fill="#EF9BC8" d="M11.102 12.33c.378.447.87.777 1.42.954 1.139.398 2.282 0 2.42-.494.09-.295.656-1.493-.654-1.952-.877-.307-3.214.193-3.33.658s0 .568.166.835z"/><path fill="#3C17B8" d="M11.04 12.183c.38.445.872.775 1.422.954 1.138.397 2.28-.029 2.42-.494.088-.29.655-1.493-.655-1.953-.877-.307-3.214.199-3.33.664-.117.466 0 .568.166.829z"/><path fill="#190232" d="M34.132 20.278c.398.465.912.81 1.488 1 1.199.42 2.403 0 2.547-.517.095-.324.689-1.567-.693-2.027-.916-.324-3.37.21-3.52.698-.15.489 0 .568.178.875z"/><path fill="#EF9BC8" d="M34.165 20.602c.4.465.916.81 1.493.999 1.2.414 2.404 0 2.548-.523.09-.3.689-1.566-.694-2.049-.916-.323-3.374.204-3.519.698-.144.494 0 .568.172.875"/><path fill="#3C17B8" d="M34.093 20.437c.397.47.914.819 1.493 1.005 1.194.414 2.398-.029 2.543-.522.094-.307.688-1.567-.689-2.05-.921-.323-3.374.205-3.524.693s0 .568.177.874"/><path fill="#190232" d="M24.857 36.202a5.3 5.3 0 0 1-2.52.568c-1.854 0-3.33-1.028-3.33-1.67 0-.402-.273-2.145 1.864-2.15 1.427 0 4.624 1.645 4.613 2.27-.011.624-.233.693-.627.965z"/><path fill="#EF9BC8" d="M24.662 36.565a5.25 5.25 0 0 1-2.52.568c-1.854 0-3.33-1.028-3.33-1.669 0-.397-.272-2.146 1.865-2.146 1.426 0 4.624 1.64 4.613 2.27-.012.631-.234.694-.628.966z"/><path fill="#3C17B8" d="M24.84 36.418a5.35 5.35 0 0 1-2.526.568c-1.854 0-3.33-1.028-3.33-1.67 0-.403-.272-2.145 1.865-2.151 1.432 0 4.624 1.64 4.618 2.27s-.238.693-.627.972z"/><path fill="#190232" d="M23.74 30.088a3.3 3.3 0 0 1-1.231.624c-.905.262-1.627 0-1.621-.34a1.16 1.16 0 0 1 .193-.842c.17-.243.428-.408.717-.458.694-.199 2.254.148 2.22.46s-.116.369-.305.567z"/><path fill="#EF9BC8" d="M23.647 30.315a3.4 3.4 0 0 1-1.233.625c-.905.26-1.626 0-1.626-.341-.047-.297.024-.6.195-.843.172-.244.431-.408.72-.457.695-.204 2.254.148 2.221.46s-.116.369-.305.567z"/><path fill="#3C17B8" d="M23.73 30.219a3.4 3.4 0 0 1-1.233.624c-.899.261-1.626-.034-1.62-.346a1.16 1.16 0 0 1 .193-.842c.17-.243.428-.408.717-.458.694-.199 2.254.153 2.22.465s-.11.37-.305.568z"/><path fill="#190232" d="M28.581 32.53a2.5 2.5 0 0 1-1.11.408c-.75.102-1.238-.318-1.166-.63a1.24 1.24 0 0 1 .304-.745c.18-.206.423-.344.69-.39.555-.074 1.665.567 1.615.862a.73.73 0 0 1-.36.506z"/><path fill="#EF9BC8" d="M28.465 32.716a2.5 2.5 0 0 1-1.11.41c-.75.101-1.239-.319-1.166-.631a1.23 1.23 0 0 1 .299-.745 1.18 1.18 0 0 1 .689-.39c.555-.074 1.693.567 1.62.868a.75.75 0 0 1-.36.5z"/><path fill="#3C17B8" d="M28.554 32.631a2.5 2.5 0 0 1-1.083.415c-.755.096-1.243-.324-1.166-.636.013-.276.119-.54.298-.746.18-.207.424-.344.69-.39.556-.079 1.666.568 1.616.863s-.172.347-.355.5zm11.895-6.381c-.86.897-1.11 1.664-2.426 2.34a4.14 4.14 0 0 1-2.848.38l-1.776.652s.217-.08 3.497.182c.727.051 2.22-.057 2.815.13.227.074-.173 1.022-.034.966.472-.199.439-1.073.555-1.43a5 5 0 0 0 .217-1.772z"/><path fill="#EF9BC8" d="M39.1 31.581q.21-.685.31-1.396l-6.138-.227 5.673.641z"/><path fill="#3C17B8" d="M7.838 10.911c-.322.613-.189 2.157 1.532 3.276 1.854 1.209 4.801 1.3 5.429 1.237l2.492 1.107s-.3-.136-5.784.148c-1.221.051-3.547-.176-4.652.102-.41.102-.327 1.624-.516 1.522-.65-.335-.078-1.704-.078-2.271.129-1.558.359-3.106.689-4.633l.888-.47z"/><path fill="#EF9BC8" d="M6.877 19.41s.228-2.209.356-2.226 10.108-.113 10.108-.113l-9.642.789z"/></svg>
