<svg xmlns="http://www.w3.org/2000/svg" viewBox="0 0 128 128"><path fill="#004AAD" d="M0 0h128v128H0z"/><path fill="#fff" d="M67.672 78.697q1.081-.001 1.824-.75c.496-.499.746-1.109.746-1.84 0-.682-.25-1.268-.746-1.767a2.48 2.48 0 0 0-1.824-.75h-7.236q-8.995 0-15.354-6.361c-4.244-4.24-6.361-9.401-6.361-15.481s2.117-11.115 6.356-15.38q6.36-6.396 15.354-6.395h28.952v8.303H60.43q-5.549 0-9.503 3.945-3.955 3.95-3.955 9.527c0 3.718 1.318 6.908 3.955 9.56q3.954 3.98 9.503 3.98l7.237.068c2.973 0 5.523 1.055 7.64 3.166q3.179 3.164 3.181 7.585c0 2.948-1.059 5.558-3.18 7.688-2.123 2.13-4.668 3.2-7.641 3.2H38.72v-8.303h28.951zm0 19.325H38.721V89.72h28.951c3.696 0 6.867-1.327 9.503-3.98s3.956-5.842 3.956-9.56q0-5.577-3.956-9.527c-2.636-2.634-5.807-3.945-9.503-3.945h-7.236c-2.974 0-5.524-1.065-7.641-3.2-2.117-2.13-3.18-4.696-3.18-7.688s1.058-5.49 3.18-7.62c2.117-2.086 4.667-3.15 7.64-3.199h28.952v8.234H60.431q-1.082.002-1.824.75-.744.75-.746 1.84.001 1.088.746 1.835.742.75 1.824.75h7.237q8.927-.001 15.32 6.395c4.263 4.265 6.39 9.392 6.39 15.38s-2.132 11.24-6.39 15.48q-6.393 6.362-15.32 6.362z"/></svg>
