<svg xmlns="http://www.w3.org/2000/svg" viewBox="0 0 1000 1000"><path d="M500.496 5C223.572 5 5 229.506 5 500.002c0 276.43 224.506 495.001 495.002 495.001 276.43 0 495.001-224.506 495.001-495.001C995.003 226.539 773.464 5 500.496 5M117.748 497.53c0-227.474 189.89-391.65 397.583-386.705 207.693 5.934 380.77 179.011 374.837 391.65 0 202.747-167.144 380.77-380.77 380.77-238.353 0-391.65-183.957-391.65-385.716zm85.055-5.935c0 171.1 135.495 305.605 301.65 305.605 165.165 0 299.67-140.44 299.67-299.67 0-160.221-128.571-300.661-299.67-300.661-160.221 0-301.65 134.506-301.65 294.726m166.154 24.725v-30.66c0-13.845 0-13.845 17.803-13.845h240.33c11.868 0 17.802 0 17.802 13.846v22.747c0 19.78 0 19.78-17.802 19.78h-75.165c-10.88 0-10.88 0-10.88 10.88v112.747c0 10.88 0 16.814-19.78 16.814h-28.68c-19.781 0-19.781 0-19.781-24.726V528.19h-91.979c-11.868 0-11.868-5.935-11.868-11.869zm92.968-148.352c0-22.747 22.747-42.527 42.527-42.527 24.726 0 41.539 19.78 41.539 42.527 0 25.715-16.813 44.506-41.539 44.506-19.78 0-42.527-18.791-42.527-44.506"/></svg>
