<svg xmlns="http://www.w3.org/2000/svg" viewBox="0 0 26 26"><path fill="#6344DF" d="M12.857 6.466C9.288 6.466 6.395 9.39 6.395 13s2.893 6.534 6.462 6.534a6.42 6.42 0 0 0 4.944-2.327l4.892 4.164C20.335 24.2 16.803 26 12.857 26 5.757 26 0 20.18 0 13S5.756 0 12.857 0zm11.11 13.08L18.44 16.29q.284-.49.481-1.03l6.002 2.237c-.26.715-.582 1.4-.957 2.05M19.319 13h6.395q-.001-1.156-.193-2.258l-6.3 1.123q.098.554.098 1.135m3.421-8.315-4.915 4.136a6.5 6.5 0 0 0-.794-.809l4.13-4.935q.859.735 1.58 1.608"/></svg>
