<svg xmlns="http://www.w3.org/2000/svg" viewBox="0 0 600 600"><circle cx="300" cy="320" r="245" fill="#fff"/><path d="M278 62.6c-54.1 6.7-91.9 21.1-130.5 49.9-55.9 41.6-90.6 100.8-100.7 172-1.9 13.9-1.6 52.3.6 67 6.9 45.9 25.5 88.2 54.3 124 10.2 12.7 31 32.9 43.6 42.3 36.1 27.2 76.6 43.8 123.2 50.4 11.8 1.7 51.2 1.7 63 0 46.6-6.6 87.1-23.2 123.2-50.4 12.6-9.4 33.4-29.6 43.6-42.3 23.4-29 40.2-62.5 49-98 5.7-22.8 7.1-34.9 7.1-61 .1-23.4-.7-31.9-4.5-51C529 161.2 443.4 80.3 337 64.4c-10.1-1.5-51.2-2.7-59-1.8m58.5 13.9c78.9 12.3 147 62.2 181.6 133 11.6 23.8 18.6 46.4 22.5 72 2.5 16.6 2.6 52.3.1 68.5-7.9 51.5-29.9 96.2-65.2 132.9-38.8 40.2-85.3 64.2-141.5 72.8-16 2.4-52 2.4-68 0-56.2-8.6-102.7-32.6-141.5-72.8-18.4-19.1-31.6-37.9-43-61.4-11.3-23.1-18.2-45.3-22.1-71-2.5-16.7-2.6-52.2 0-69C72.5 194.9 129.6 123 211 90.7c18.9-7.6 40.2-12.8 63.5-15.7 11.3-1.4 49.5-.5 62 1.5"/><path d="M288.5 89.7c-47 2.9-89.1 18.4-125.8 46.1l-8.8 6.6 6.4 6.4 6.5 6.4 7.3-5.5c40.4-30.3 91.3-45.5 140.2-41.7 40.6 3.1 75.7 15.9 108.6 39.5l9.3 6.7 6.2-6.1 6.1-6.2-4-3.6c-7.3-6.4-27.8-19.4-41-25.8-27-13.2-53.2-20.1-84.5-22.5-13.1-1-15.8-1-26.5-.3m163.1 70.2-5.9 6 5.9 6.6c17 19.1 26.5 32.8 35.9 52 32.4 65.9 27.3 145.4-13.3 206.5-3.8 5.8-8.4 12.3-10.1 14.4l-3.2 4 6.3 6.3 6.3 6.4 3.3-3.8c7.2-8.4 19.9-28.6 26.7-42.5 11-22.4 17.7-44.6 21.6-71.3 1.9-13.2 1.7-45.3-.5-60-5.7-38.8-20.5-74.1-44.2-105.5-7.3-9.6-21-25-22.3-25-.3 0-3.3 2.7-6.5 5.9m-318 2.3c-63.7 69.3-78.4 169.5-37.1 253.6 6.6 13.5 19.2 33.6 26.4 42.2l3 3.5 6-6c6.5-6.3 7-7.5 4.5-9.6-3-2.5-17.6-25.3-22.8-35.8-29.3-58.5-29.7-127.4-1.1-185.6 9.3-19 18.8-32.7 36-52.1l4.4-5-6.3-6.3-6.3-6.2zm167.6 10.1c-2.4.7-4.7 1.9-5.2 2.7-.4.8-6 15-12.3 31.5-12.9 33.6-33.5 86-57.6 146.7-15.9 39.8-20.6 49.6-26.9 55.5-3.7 3.5-11.6 7-19.3 8.6l-6.4 1.3-.3 5.7-.3 5.7h86.2l-.3-5.7-.3-5.7-7.9-1.3c-9.7-1.6-15.9-4.3-18.1-7.7-4.7-7.2-.1-22.4 38.5-126.6 7.2-19.5 14.9-40.7 17.1-47 2.3-6.3 4.4-11.8 4.7-12.2.4-.4 6.3 15.2 13.1 34.5 6.7 19.4 20.7 58.6 30.9 87.2 18.6 52.2 20.7 59.8 18.2 64.5-1.5 2.8-8.3 5.8-16.8 7.4l-6.7 1.2-.3 5.7-.3 5.7 47.8-.2 47.8-.3v-11l-4.7-.6c-2.5-.4-7.2-1.5-10.4-2.4-7.9-2.3-14.8-9.3-20.2-20.6-5.2-10.9-54.3-144.5-79-214.9-3.3-9.4-3.7-9.7-11-7.7M143.7 468.8l-5.7 5.8 6.8 6.5c34.3 33.5 83.7 56 133.6 60.8 64.3 6.3 131.6-16.7 176.4-60.3l6.2-6-6.2-6.3-6.1-6.2-7.9 7.2c-50.3 45.6-117.8 64-184.3 50-16.1-3.3-30.5-8.2-45.4-15.4-20.7-9.9-37-20.8-52.8-35.3-3.9-3.6-7.5-6.6-8-6.6s-3.4 2.6-6.6 5.8"/></svg>
