<svg xmlns="http://www.w3.org/2000/svg" viewBox="0 0 500 500"><path fill="#25292e" d="M250 500c138.1 0 250-111.9 250-250S388.1 0 250 0 0 111.9 0 250s111.9 250 250 250"/><path fill="#fff" d="M386.1 86.8C349.3 56 301.8 37.5 250 37.5S150.7 56 113.9 86.8c-2.8 2.3-2.9 6.5-.3 9l4.5 4.5c2.3 2.3 6.1 2.4 8.6.3 33.5-27.7 76.5-44.4 123.4-44.4s89.9 16.7 123.4 44.4c2.5 2.1 6.3 2 8.6-.3l4.5-4.5c2.4-2.5 2.3-6.7-.5-9M100.3 118c2.3 2.3 2.4 6.1.3 8.6-27.7 33.5-44.4 76.5-44.4 123.4s16.7 89.9 44.4 123.4c2.1 2.5 2 6.3-.3 8.6l-4.5 4.5c-2.5 2.5-6.7 2.4-9-.3C56 349.3 37.5 301.8 37.5 250S56 150.7 86.8 113.9c2.3-2.8 6.5-2.9 9-.3zm299.1 255.4c-2.1 2.5-2 6.3.3 8.6l4.5 4.5c2.5 2.5 6.7 2.4 9-.3 30.8-36.9 49.3-84.3 49.3-136.1S444 150.8 413.2 114c-2.3-2.8-6.5-2.9-9-.3l-4.5 4.5c-2.3 2.3-2.4 6.1-.3 8.6 27.7 33.5 44.4 76.5 44.4 123.4s-16.7 89.7-44.4 123.2m-285.5 39.8c36.9 30.8 84.3 49.3 136.1 49.3s99.3-18.5 136.1-49.3c2.8-2.3 2.9-6.5.3-9l-4.5-4.5c-2.3-2.3-6.1-2.4-8.6-.3-33.5 27.7-76.5 44.4-123.4 44.4s-89.9-16.7-123.4-44.4c-2.5-2.1-6.3-2-8.6.3l-4.5 4.5c-2.4 2.5-2.3 6.7.5 9"/><linearGradient id="a" x1="249.992" x2="249.992" y1="238.41" y2="119.495" gradientTransform="matrix(1 0 0 -1 0 499.89)" gradientUnits="userSpaceOnUse"><stop offset="0" stop-color="#fff"/><stop offset="1" stop-color="#fff" stop-opacity=".9"/></linearGradient><path fill="url(#a)" d="m165.6 261.5 84.4 49.9 84.4-49.9L250 380.4z"/><path fill="#fff" d="m250 292.8-84.4-49.9L250 110l84.4 132.9z"/></svg>
