<svg xmlns="http://www.w3.org/2000/svg" fill="none" viewBox="0 0 391 391"><g clip-path="url(#a)"><path fill="#075A5A" d="M195.5 391C303.472 391 391 303.472 391 195.5S303.472 0 195.5 0 0 87.528 0 195.5 87.528 391 195.5 391"/><g fill="#fff" opacity=".3" style="mix-blend-mode:screen"><path d="M201.583 20.487v129.366l109.341 48.862z" opacity=".8"/><path d="M201.583 20.487 92.223 198.715l109.36-48.862z"/><path d="M201.583 282.549v87.905L311 219.072z" opacity=".8"/><path d="M201.583 370.454v-87.917l-109.36-63.465z"/><path d="m201.583 262.205 109.34-63.49-109.34-48.83z" opacity=".5"/><path fill-opacity=".3" d="m92.224 198.715 109.359 63.49v-112.32z"/></g><g fill="#fff" opacity=".3" style="mix-blend-mode:screen"><path d="M201.585 27v119.905l101.344 45.289z" opacity=".8"/><path d="M201.585 27 100.223 192.194l101.362-45.289z"/><path d="M201.588 288.452v72.637L292 236z" opacity=".8"/><path d="M201.588 361.089v-72.648L111.223 236z"/><path d="m201.585 258.106 101.344-58.847L201.585 154z" opacity=".5"/><path fill-opacity=".3" d="m100.223 199.259 101.362 58.847V154z"/></g><path fill="#C1DCDC" d="M201.589 58.878v100.984l85.352 38.141z"/><path fill="#fff" d="m201.589 58.878-85.366 139.125 85.366-38.141z"/><path fill="#C1DCDC" d="M201.589 263.444v68.619L287 213.894z"/><path fill="#fff" d="M201.589 332.063v-68.629l-85.366-49.54z"/><path fill="#fff" d="m201.589 247.563 85.352-49.56-85.352-38.117z" opacity=".5"/><path fill="#fff" fill-opacity=".3" d="m116.223 198.003 85.366 49.56v-87.677z"/></g><defs><clipPath id="a"><path fill="#fff" d="M0 0h391v391H0z"/></clipPath></defs></svg>
