<svg xmlns="http://www.w3.org/2000/svg" viewBox="0 0 70 66"><path fill="#fff" stroke="#000" stroke-dasharray="6 6" stroke-linecap="round" stroke-linejoin="round" stroke-width="2" d="M68.387 25.303a1.96 1.96 0 0 0-1.583-1.338l-20.76-3.023-9.285-18.846a1.961 1.961 0 0 0-3.518 0l-9.285 18.846-20.76 3.023a1.968 1.968 0 0 0-1.087 3.353l15.022 14.67-3.546 20.714A1.967 1.967 0 0 0 15.52 65c.312 0 .626-.075.913-.226L35 54.994l18.568 9.78c.66.348 1.462.29 2.066-.15s.907-1.184.78-1.922l-3.546-20.714 15.023-14.67a1.97 1.97 0 0 0 .496-2.016"/></svg>
