<svg xmlns="http://www.w3.org/2000/svg" viewBox="0 0 269 250"><path fill="#fff" stroke="#000" stroke-width="1.5" d="M267.777 125c0 68.621-55.629 124.25-124.25 124.25S19.277 193.621 19.277 125 74.905.75 143.527.75c68.621 0 124.25 55.629 124.25 124.25Z"/><path fill="#fff" stroke="#000" stroke-width="2" d="M254.225 125c0 61.137-49.561 110.698-110.698 110.698-61.138 0-110.699-49.561-110.699-110.698S82.389 14.301 143.527 14.301 254.225 63.863 254.225 125Z"/><path fill="#fff" stroke="#000" stroke-width=".5" d="M243.72 125c0 55.335-44.858 100.193-100.193 100.193S43.333 180.335 43.333 125 88.191 24.807 143.527 24.807c55.335 0 100.193 44.858 100.193 100.193Z"/><path fill="#fff" stroke="#000" d="M241.765 125c0 54.255-43.983 98.238-98.238 98.238S45.289 179.255 45.289 125s43.982-98.238 98.238-98.238S241.765 70.745 241.765 125Z"/><path fill="#fff" stroke="#000" d="M220.619 125c0 42.577-34.516 77.092-77.092 77.092S66.434 167.577 66.434 125s34.516-77.092 77.093-77.092c42.576 0 77.092 34.515 77.092 77.092Z"/><path fill="#fff" stroke="#000" stroke-width=".5" d="M147.54 6.816a3.837 3.837 0 1 1-7.675 0 3.837 3.837 0 0 1 7.675 0ZM63.749 41.218a3.837 3.837 0 1 1-7.675 0 3.837 3.837 0 0 1 7.675 0Zm166.307 0a3.837 3.837 0 1 1-7.674 0 3.837 3.837 0 0 1 7.674 0ZM29.688 125.349a3.837 3.837 0 1 1-7.675 0 3.837 3.837 0 0 1 7.675 0Zm235.566 0a3.837 3.837 0 1 1-7.675 0 3.837 3.837 0 0 1 7.675 0ZM64.09 208.799a3.837 3.837 0 1 1-7.675.001 3.837 3.837 0 0 1 7.675-.001Zm83.45 33.675a3.837 3.837 0 1 1-7.675 0 3.837 3.837 0 0 1 7.675 0Z"/><mask id="a" width="70" height="86" x=".473" y="82.902" fill="#000" maskUnits="userSpaceOnUse"><path fill="#fff" d="M.473 82.902h70v86h-70z"/><path fill-rule="evenodd" d="M66.276 83.902a3.07 3.07 0 1 1 0 6.139H8.613a1 1 0 0 0-1 1v68.941a1 1 0 0 0 1 1h57.663a3.07 3.07 0 1 1 0 6.139H4.583l-.04.001a3.07 3.07 0 0 1-3.07-3.07v-77.08q0-.257.041-.501a3.07 3.07 0 0 1 3.029-2.57z" clip-rule="evenodd"/></mask><path fill="#fff" fill-rule="evenodd" d="M66.276 83.902a3.07 3.07 0 1 1 0 6.139H8.613a1 1 0 0 0-1 1v68.941a1 1 0 0 0 1 1h57.663a3.07 3.07 0 1 1 0 6.139H4.583l-.04.001a3.07 3.07 0 0 1-3.07-3.07v-77.08q0-.257.041-.501a3.07 3.07 0 0 1 3.029-2.57z" clip-rule="evenodd"/><path fill="#000" d="M66.276 83.902v-1zm0 6.139v1zM4.583 167.12v-1H4.57zM1.514 86.47l.987.162zm3.029-2.57v1zm65.802 3.07a4.07 4.07 0 0 0-4.07-4.07v2a2.07 2.07 0 0 1 2.07 2.07zm-4.07 4.07a4.07 4.07 0 0 0 4.07-4.07h-2a2.07 2.07 0 0 1-2.07 2.07zm-57.662 0h57.663v-2H8.613zm-2 0v68.941h2v-68.94zm59.663 68.941H8.613v2h57.663zm4.07 4.07a4.07 4.07 0 0 0-4.07-4.07v2a2.07 2.07 0 0 1 2.07 2.07zm-4.07 4.069a4.07 4.07 0 0 0 4.07-4.069h-2a2.07 2.07 0 0 1-2.07 2.069zm-61.693 0h61.693v-2H4.583zm-.013-2-.027.001v2l.052-.001zm-.027.001a2.07 2.07 0 0 1-2.07-2.07h-2a4.07 4.07 0 0 0 4.07 4.07zm-2.07-2.07v-77.08h-2v77.08zm0-77.08q0-.175.028-.34L.527 86.31a4 4 0 0 0-.054.663zm2.07-4.07a4.07 4.07 0 0 0-4.016 3.407l1.974.323a2.07 2.07 0 0 1 2.042-1.73zm61.733 0H4.543v2h61.733zm-59.663 77.08a2 2 0 0 0 2 2v-2zm2-70.941a2 2 0 0 0-2 2h2z" mask="url(#a)"/><path fill="#fff" stroke="#000" stroke-width="1.5" d="M196.494 124.829c0 28.971-23.485 52.456-52.456 52.456-28.97 0-52.456-23.485-52.456-52.456 0-28.97 23.486-52.456 52.456-52.456s52.456 23.486 52.456 52.456Z"/><rect width="7.139" height="134.697" x="140.469" y="57.481" fill="#fff" stroke="#000" rx="3.57"/><rect width="7.139" height="134.697" x="200.579" y="88.064" fill="#fff" stroke="#000" rx="3.57" transform="rotate(60 200.579 88.064)"/><rect width="7.139" height="134.697" x="204.149" y="155.412" fill="#fff" stroke="#000" rx="3.57" transform="rotate(120 204.149 155.412)"/><mask id="b" width="76" height="76" x="106.203" y="86.995" fill="#000" maskUnits="userSpaceOnUse"><path fill="#fff" d="M106.203 86.995h76v76h-76z"/><path fill-rule="evenodd" d="M144.038 161.664c20.344 0 36.835-16.491 36.835-36.835 0-20.343-16.491-36.834-36.835-36.834-20.343 0-36.835 16.491-36.835 36.834s16.492 36.835 36.835 36.835m0-7.844c16.011 0 28.991-12.979 28.991-28.99s-12.98-28.99-28.991-28.99-28.99 12.979-28.99 28.99 12.979 28.99 28.99 28.99" clip-rule="evenodd"/></mask><path fill="#fff" fill-rule="evenodd" d="M144.038 161.664c20.344 0 36.835-16.491 36.835-36.835 0-20.343-16.491-36.834-36.835-36.834-20.343 0-36.835 16.491-36.835 36.834s16.492 36.835 36.835 36.835m0-7.844c16.011 0 28.991-12.979 28.991-28.99s-12.98-28.99-28.991-28.99-28.99 12.979-28.99 28.99 12.979 28.99 28.99 28.99" clip-rule="evenodd"/><path fill="#000" d="M179.873 124.829c0 19.792-16.044 35.835-35.835 35.835v2c20.896 0 37.835-16.939 37.835-37.835zm-35.835-35.834c19.791 0 35.835 16.043 35.835 35.834h2c0-20.895-16.939-37.834-37.835-37.834zm-35.835 35.834c0-19.791 16.044-35.834 35.835-35.834v-2c-20.895 0-37.835 16.939-37.835 37.834zm35.835 35.835c-19.791 0-35.835-16.043-35.835-35.835h-2c0 20.896 16.94 37.835 37.835 37.835zm27.991-35.834c0 15.458-12.532 27.99-27.991 27.99v2c16.563 0 29.991-13.427 29.991-29.99zm-27.991-27.99c15.459 0 27.991 12.531 27.991 27.99h2c0-16.564-13.428-29.99-29.991-29.99zm-27.99 27.99c0-15.459 12.531-27.99 27.99-27.99v-2c-16.563 0-29.99 13.426-29.99 29.99zm27.99 27.99c-15.459 0-27.99-12.532-27.99-27.99h-2c0 16.563 13.427 29.99 29.99 29.99z" mask="url(#b)"/><circle cx="144.038" cy="124.829" r="12.46" fill="#fff" stroke="#000"/><circle cx="189.4" cy="124.829" r="1.671" fill="#fff" stroke="#000" stroke-width=".75" transform="rotate(90 189.4 124.829)"/><circle cx="98.677" cy="124.829" r="1.671" fill="#fff" stroke="#000" stroke-width=".75" transform="rotate(90 98.677 124.829)"/><circle cx="185.991" cy="142.082" r="1.671" fill="#fff" stroke="#000" stroke-width=".75" transform="rotate(112.354 185.991 142.082)"/><circle cx="102.085" cy="107.577" r="1.671" fill="#fff" stroke="#000" stroke-width=".75" transform="rotate(112.354 102.085 107.577)"/><circle cx="176.192" cy="156.826" r="1.671" fill="#fff" stroke="#000" stroke-width=".75" transform="rotate(134.86 176.192 156.826)"/><circle cx="111.885" cy="92.832" r="1.671" fill="#fff" stroke="#000" stroke-width=".75" transform="rotate(134.86 111.885 92.832)"/><circle cx="161.148" cy="166.84" r="1.671" fill="#fff" stroke="#000" stroke-width=".75" transform="rotate(157.84 161.148 166.84)"/><circle cx="126.928" cy="82.819" r="1.671" fill="#fff" stroke="#000" stroke-width=".75" transform="rotate(157.84 126.928 82.819)"/><circle cx="127.029" cy="166.881" r="1.671" fill="#fff" stroke="#000" stroke-width=".75" transform="rotate(-157.978 127.029 166.881)"/><circle cx="161.047" cy="82.778" r="1.671" fill="#fff" stroke="#000" stroke-width=".75" transform="rotate(-157.978 161.047 82.778)"/><circle cx="112.054" cy="156.996" r="1.671" fill="#fff" stroke="#000" stroke-width=".75" transform="rotate(-135.163 112.054 156.996)"/><circle cx="176.022" cy="92.663" r="1.671" fill="#fff" stroke="#000" stroke-width=".75" transform="rotate(-135.163 176.022 92.663)"/><circle cx="102.254" cy="142.486" r="2.046" fill="#fff" stroke="#000" stroke-width=".75" transform="rotate(-112.907 102.254 142.486)"/><circle cx="185.822" cy="107.173" r="2.046" fill="#fff" stroke="#000" stroke-width=".75" transform="rotate(-112.907 185.822 107.173)"/></svg>
