<svg viewBox="0 0 18 18" fill="none" xmlns="http://www.w3.org/2000/svg">
<path fill-rule="evenodd" clip-rule="evenodd" d="M9 0.22168C4.0275 0.22168 0 4.24918 0 9.22168C0 13.2042 2.57625 16.5679 6.15375 17.7604C6.60375 17.8392 6.7725 17.5692 6.7725 17.3329C6.7725 17.1192 6.76125 16.4104 6.76125 15.6567C4.5 16.0729 3.915 15.1054 3.735 14.5992C3.63375 14.3404 3.195 13.5417 2.8125 13.3279C2.4975 13.1592 2.0475 12.7429 2.80125 12.7317C3.51 12.7204 4.01625 13.3842 4.185 13.6542C4.995 15.0154 6.28875 14.6329 6.80625 14.3967C6.885 13.8117 7.12125 13.4179 7.38 13.1929C5.3775 12.9679 3.285 12.1917 3.285 8.74918C3.285 7.77043 3.63375 6.96043 4.2075 6.33043C4.1175 6.10543 3.8025 5.18293 4.2975 3.94543C4.2975 3.94543 5.05125 3.70918 6.7725 4.86793C7.4925 4.66543 8.2575 4.56418 9.0225 4.56418C9.7875 4.56418 10.5525 4.66543 11.2725 4.86793C12.9938 3.69793 13.7475 3.94543 13.7475 3.94543C14.2425 5.18293 13.9275 6.10543 13.8375 6.33043C14.4113 6.96043 14.76 7.75918 14.76 8.74918C14.76 12.2029 12.6562 12.9679 10.6538 13.1929C10.98 13.4742 11.2613 14.0142 11.2613 14.8579C11.2613 16.0617 11.25 17.0292 11.25 17.3329C11.25 17.5692 11.4187 17.8504 11.8688 17.7604C15.4237 16.5679 18 13.1929 18 9.22168C18 4.24918 13.9725 0.22168 9 0.22168Z" fill="currentColor"/>
</svg>
