<svg viewBox="0 0 20 18" fill="none" xmlns="http://www.w3.org/2000/svg">
<path fill-rule="evenodd" clip-rule="evenodd" d="M15.32 16.9826C15.5883 17.1726 15.9341 17.2201 16.2425 17.1035C16.5508 16.986 16.7775 16.7226 16.8458 16.4035C17.57 13.0001 19.3266 4.38596 19.9858 1.29012C20.0358 1.05679 19.9525 0.81429 19.7691 0.658457C19.5858 0.502624 19.3316 0.457623 19.105 0.54179C15.6108 1.83512 4.84997 5.87262 0.451632 7.50012C0.172465 7.60346 -0.00920133 7.87179 -3.46662e-05 8.16596C0.00996533 8.46096 0.208299 8.71679 0.494132 8.80262C2.46663 9.39262 5.0558 10.2135 5.0558 10.2135C5.0558 10.2135 6.2658 13.8676 6.89663 15.726C6.9758 15.9593 7.1583 16.1426 7.39913 16.206C7.63913 16.2685 7.8958 16.2026 8.07496 16.0335C9.0883 15.0768 10.655 13.5976 10.655 13.5976C10.655 13.5976 13.6316 15.7801 15.32 16.9826ZM6.14497 9.75179L7.54413 14.3668L7.85496 11.4443C7.85496 11.4443 13.2608 6.56846 16.3425 3.78929C16.4325 3.70762 16.445 3.57096 16.37 3.47512C16.2958 3.37929 16.1591 3.35679 16.0566 3.42179C12.485 5.70262 6.14497 9.75179 6.14497 9.75179Z" fill="currentColor"/>
</svg>
