<svg width="14" height="14" viewBox="0 0 14 14" fill="none" xmlns="http://www.w3.org/2000/svg">
<path fill-rule="evenodd" clip-rule="evenodd" d="M0.415133 0.446811C0.460041 0.509395 1.50006 1.98793 2.7263 3.73242C3.95254 5.47691 5.08669 7.0902 5.24666 7.31752C5.40661 7.54483 5.53748 7.73537 5.53748 7.74095C5.53748 7.74653 5.47792 7.81826 5.40512 7.90035C5.33232 7.98244 5.12727 8.2148 4.94947 8.41671C4.77166 8.61862 4.47192 8.95893 4.28337 9.17295C4.09484 9.38697 3.76315 9.76362 3.54628 10.01C3.32942 10.2563 2.93944 10.6991 2.67966 10.9941C1.87621 11.9064 1.76026 12.0381 1.14865 12.7339C0.82207 13.1054 0.508903 13.4606 0.452734 13.5233C0.396566 13.5859 0.350605 13.6437 0.350605 13.6517C0.350605 13.6612 0.555735 13.6663 0.928544 13.6663H1.50647L2.14184 12.9431C2.4913 12.5454 2.83602 12.1539 2.90789 12.0731C3.0633 11.8985 4.24846 10.5516 4.34808 10.4364C4.38622 10.3923 4.44162 10.3295 4.4712 10.2969C4.50078 10.2643 4.73395 9.99967 4.98936 9.70893C5.24475 9.41818 5.46073 9.17317 5.46929 9.16446C5.47786 9.15577 5.61306 9.00213 5.76975 8.82305C5.92644 8.64399 6.05948 8.49747 6.06539 8.49747C6.07131 8.49747 6.87619 9.6357 7.85405 11.0268C8.83189 12.418 9.6494 13.5808 9.67075 13.611L9.70954 13.6657L11.6919 13.666C13.3222 13.6663 13.673 13.6629 13.6667 13.6471C13.6601 13.6302 12.7103 12.2771 10.2737 8.81318C8.51959 6.31956 8.28635 5.98446 8.29304 5.96746C8.29953 5.95092 8.53846 5.67799 10.1092 3.89273C10.3787 3.5865 10.7501 3.16414 10.9346 2.95415C11.1191 2.74417 11.3054 2.53271 11.3486 2.48426C11.3918 2.4358 11.6188 2.17809 11.8532 1.91157C12.0875 1.64505 12.4858 1.19219 12.7384 0.905211C12.9909 0.618236 13.2068 0.372098 13.2182 0.358221C13.2376 0.334476 13.2046 0.333008 12.6518 0.333008H12.0647L11.8037 0.630365C11.4562 1.02611 10.828 1.73975 10.6496 1.94141C10.5708 2.03051 10.4725 2.14249 10.4312 2.19025C10.3898 2.238 10.3083 2.33029 10.2499 2.39534C10.1916 2.46039 9.89751 2.79446 9.59645 3.13771C9.2954 3.48095 9.04496 3.76509 9.0399 3.76913C9.03487 3.77317 8.97035 3.84625 8.89655 3.93155C8.76746 4.08075 8.63609 4.23009 8.0336 4.91252C7.76915 5.21208 7.75559 5.22495 7.73329 5.19741C7.72047 5.18155 6.94546 4.08063 6.01107 2.75094L4.31218 0.333316L2.32284 0.333155L0.333496 0.333008L0.415133 0.446811ZM1.96778 1.23965C1.98273 1.26192 2.35441 1.78235 2.79376 2.39615C3.62701 3.56026 6.90136 8.1375 9.00714 11.0819C9.68005 12.0228 10.2388 12.8009 10.2489 12.8111C10.2632 12.8256 10.4591 12.8288 11.1644 12.8258L12.0616 12.822L9.71369 9.54006C8.4223 7.73499 6.55261 5.12155 5.5588 3.73242L3.75187 1.20672L2.84626 1.20293L1.94065 1.19915L1.96778 1.23965Z" fill="white"/>
</svg>
