<svg xmlns="http://www.w3.org/2000/svg" viewBox="0 0 48 48"><path fill="#fff" fill-rule="evenodd" d="M48 24c0 13.255-10.745 24-24 24S0 37.255 0 24 10.745 0 24 0s24 10.745 24 24Zm-34.447 5.023c-2.233 2.233-2.786 7.222-2.808 7.433a.725.725 0 0 0 .798.799c.212-.023 5.201-.575 7.434-2.808a3.84 3.84 0 0 0 0-5.424 3.84 3.84 0 0 0-5.424 0Zm2.572-4.497h-5.142c-.547.007-.907-.608-.633-1.081l3.499-6.22a.726.726 0 0 1 .633-.37h6.926C25.132 13.891 29.788 12 34.314 12h.96c.401 0 .726.325.726.726v.96c0 4.525-1.891 9.182-4.855 12.906v6.926a.726.726 0 0 1-.37.633l-6.22 3.498c-.473.275-1.088-.085-1.081-.632v-5.141l-7.35-7.35Zm11.217-6.112-1.912-1.429-.035-.023a.371.371 0 0 0-.508.137.368.368 0 0 0-.047.187l.034 2.386-1.945 1.374-.032.026a.37.37 0 0 0 .137.63l2.277.71.706 2.273.015.039a.37.37 0 0 0 .64.066l1.375-1.946 2.386.035.043-.002a.37.37 0 0 0 .257-.588l-1.428-1.912.764-2.257a.37.37 0 0 0-.47-.47l-2.257.764Z"/></svg>