<svg xmlns="http://www.w3.org/2000/svg" viewBox="0 0 1780 1711"><path fill="#fff" d="M233.2 925.993h466.744L453.695 1191.04l79.336 73.73 248.255-267.208v713.348l108.257.09V995.75L1383 1350.83l63.18-87.87-468.293-336.967h313.173l1.63-108.266H970.451l399.179-419.056-76.79-76.423-403.297 423.386V47.937l-108.257-.09v699.011L431.061 350.321l-81.112 71.634 349.545 395.772H234.449zm-116.041 0 1.252-108.266H0l.088 108.266zM1372.71 238.406l76.78 76.424 76.19-79.98-76.78-76.424zm156.05-163.818 76.78 76.423 72.68-76.3L1599.81 0zm-106.07 743.139-1.63 108.266h122.8V817.727zm251.16 0v108.266H1780l-.09-108.266z"/></svg>
