<svg xmlns="http://www.w3.org/2000/svg" viewBox="0 0 20 20"><rect width="20" height="20" fill="#6B8AFE" fill-opacity=".2" rx="4"/><path fill="#6B8AFF" d="M9.568 3.575 5.906 9.597a.497.497 0 0 0 .175.688l3.662 2.145a.51.51 0 0 0 .514 0l3.662-2.145a.497.497 0 0 0 .175-.688l-3.661-6.022a.507.507 0 0 0-.865 0"/><path fill="#6B8AFF" d="m13.158 12.509-.002-.027-.005-.025-.008-.03-.009-.021-.017-.032-.01-.017a.3.3 0 0 0-.08-.08l-.018-.01-.032-.018-.022-.008a.3.3 0 0 0-.081-.015h-.03l-.021.002-.033.004-.01.004a.3.3 0 0 0-.094.04l-2.41 1.42a.54.54 0 0 1-.552 0l-2.41-1.42a.3.3 0 0 0-.095-.04l-.009-.004-.032-.004-.022-.002h-.03l-.026.002-.026.004-.029.009-.022.008-.032.018-.017.01a.3.3 0 0 0-.08.08q-.006.007-.011.017-.01.014-.017.032l-.009.021-.008.03-.005.025-.002.027v.028l.002.022.005.032q0 .007.004.013.014.052.047.1l2.657 3.735a.543.543 0 0 0 .885 0l2.656-3.736a.3.3 0 0 0 .048-.1l.003-.012q.004-.015.005-.031l.002-.023v-.029z"/></svg>
