<svg xmlns="http://www.w3.org/2000/svg" viewBox="0 0 20 20"><rect width="20" height="20" fill="#6B8AFE" fill-opacity=".2" rx="4"/><path fill="#6B8AFF" d="M10.142 15.814q-1.226 0-2.132-.37-.905-.372-1.425-1.042a2.9 2.9 0 0 1-.578-1.59L6 12.7h2.074l.008.071q.043.385.313.677.279.285.742.45.462.163 1.062.163.577 0 1.012-.17.434-.172.677-.471.25-.307.25-.699v-.007a.96.96 0 0 0-.414-.813q-.405-.306-1.369-.506l-1.083-.22q-1.604-.33-2.331-1.077-.727-.749-.727-1.918v-.007q0-.956.506-1.668.505-.712 1.39-1.105.885-.4 2.024-.4 1.198 0 2.053.392.863.385 1.348 1.062.485.67.549 1.533l.007.092h-2.025l-.014-.085a1.3 1.3 0 0 0-.314-.649 1.6 1.6 0 0 0-.655-.435 2.5 2.5 0 0 0-.949-.164q-.527 0-.926.157a1.4 1.4 0 0 0-.62.442 1.03 1.03 0 0 0-.221.663v.007q0 .5.399.82.406.314 1.312.5l1.09.22q1.632.335 2.374 1.027.748.69.748 1.896v.007q0 1.02-.506 1.768-.498.741-1.433 1.155-.926.406-2.21.406"/></svg>
